<svg width="24" height="24" viewBox="0 0 24 24" fill="none" xmlns="http://www.w3.org/2000/svg">
<path d="M12 22.7402C6.07 22.7402 1.25 17.9202 1.25 11.9902C1.25 6.06023 6.07 1.24023 12 1.24023C17.93 1.24023 22.75 6.06023 22.75 11.9902C22.75 17.9202 17.93 22.7402 12 22.7402ZM12 2.74023C6.9 2.74023 2.75 6.89023 2.75 11.9902C2.75 17.0902 6.9 21.2402 12 21.2402C17.1 21.2402 21.25 17.0902 21.25 11.9902C21.25 6.89023 17.1 2.74023 12 2.74023Z" fill="#73292C"/>
<path d="M16 12.7402H8C7.59 12.7402 7.25 12.4002 7.25 11.9902C7.25 11.5802 7.59 11.2402 8 11.2402H16C16.41 11.2402 16.75 11.5802 16.75 11.9902C16.75 12.4002 16.41 12.7402 16 12.7402Z" fill="#73292C"/>
<path d="M12 16.7402C11.59 16.7402 11.25 16.4002 11.25 15.9902V7.99023C11.25 7.58023 11.59 7.24023 12 7.24023C12.41 7.24023 12.75 7.58023 12.75 7.99023V15.9902C12.75 16.4002 12.41 16.7402 12 16.7402Z" fill="#73292C"/>
</svg>
