<svg width="24" height="24" viewBox="0 0 24 24" fill="none" xmlns="http://www.w3.org/2000/svg">
<g opacity="0.8">
<path d="M12 22C6.48 22 2 17.52 2 12C2 6.48 6.48 2 12 2C17.52 2 22 6.48 22 12C22 17.52 17.52 22 12 22ZM16.03 11.47L13.03 8.47C12.88 8.32 12.69 8.25 12.5 8.25C12.31 8.25 12.12 8.32 11.97 8.47C11.68 8.76 11.68 9.24 11.97 9.53L13.69 11.25L8.5 11.25C8.09 11.25 7.75 11.59 7.75 12C7.75 12.41 8.09 12.75 8.5 12.75L13.69 12.75L11.97 14.47C11.68 14.76 11.68 15.24 11.97 15.53C12.26 15.82 12.74 15.82 13.03 15.53L16.03 12.53C16.32 12.24 16.32 11.76 16.03 11.47Z" fill="#73292C"/>
</g>
</svg>
