<svg width="41" height="41" viewBox="0 0 41 41" fill="none" xmlns="http://www.w3.org/2000/svg">
<path d="M15.5001 30.0835C14.8167 30.0835 14.2501 29.5168 14.2501 28.8335V21.8501L13.0501 23.0501C12.5667 23.5335 11.7667 23.5335 11.2834 23.0501C10.8001 22.5668 10.8001 21.7668 11.2834 21.2835L14.6167 17.9501C14.9667 17.6001 15.5167 17.4835 15.9834 17.6835C16.4501 17.8668 16.7501 18.3335 16.7501 18.8335V28.8335C16.7501 29.5168 16.1834 30.0835 15.5001 30.0835Z" fill="#828A91"/>
<path d="M18.8336 23.4166C18.5169 23.4166 18.2002 23.2999 17.9502 23.0499L14.6169 19.7166C14.1336 19.2332 14.1336 18.4332 14.6169 17.9499C15.1002 17.4666 15.9002 17.4666 16.3836 17.9499L19.7169 21.2832C20.2002 21.7666 20.2002 22.5666 19.7169 23.0499C19.4669 23.2999 19.1502 23.4166 18.8336 23.4166Z" fill="#828A91"/>
<path d="M25.5002 38.4168H15.5002C6.45016 38.4168 2.5835 34.5502 2.5835 25.5002V15.5002C2.5835 6.45016 6.45016 2.5835 15.5002 2.5835H23.8335C24.5168 2.5835 25.0835 3.15016 25.0835 3.8335C25.0835 4.51683 24.5168 5.0835 23.8335 5.0835H15.5002C7.81683 5.0835 5.0835 7.81683 5.0835 15.5002V25.5002C5.0835 33.1835 7.81683 35.9168 15.5002 35.9168H25.5002C33.1835 35.9168 35.9168 33.1835 35.9168 25.5002V17.1668C35.9168 16.4835 36.4835 15.9168 37.1668 15.9168C37.8502 15.9168 38.4168 16.4835 38.4168 17.1668V25.5002C38.4168 34.5502 34.5502 38.4168 25.5002 38.4168Z" fill="#828A91"/>
<path d="M37.1668 18.4168H30.5002C24.8002 18.4168 22.5835 16.2001 22.5835 10.5001V3.83348C22.5835 3.33348 22.8835 2.86681 23.3502 2.68348C23.8168 2.48348 24.3502 2.60014 24.7168 2.95014L38.0502 16.2835C38.4002 16.6335 38.5168 17.1835 38.3168 17.6501C38.1168 18.1168 37.6668 18.4168 37.1668 18.4168ZM25.0835 6.85014V10.5001C25.0835 14.8001 26.2002 15.9168 30.5002 15.9168H34.1502L25.0835 6.85014Z" fill="#828A91"/>
</svg>
