<svg width="130" height="129" viewBox="0 0 130 129" fill="none" xmlns="http://www.w3.org/2000/svg">
<path d="M65 76.5938C72.1758 76.5938 79.1904 74.4659 85.1568 70.4793C91.1232 66.4926 95.7735 60.8263 98.5195 54.1968C101.266 47.5672 101.984 40.2723 100.584 33.2344C99.1842 26.1965 95.7287 19.7318 90.6547 14.6578C85.5807 9.58377 79.116 6.12832 72.0781 4.7284C65.0402 3.32848 57.7453 4.04697 51.1158 6.79301C44.4862 9.53905 38.8199 14.1893 34.8332 20.1557C30.8466 26.1222 28.7188 33.1368 28.7188 40.3125C28.7188 49.9349 32.5412 59.1632 39.3453 65.9672C46.1493 72.7713 55.3776 76.5938 65 76.5938ZM65 16.125C69.7838 16.125 74.4602 17.5436 78.4379 20.2013C82.4155 22.8591 85.5156 26.6367 87.3463 31.0564C89.177 35.476 89.656 40.3393 88.7227 45.0313C87.7895 49.7232 85.4858 54.033 82.1031 57.4157C78.7205 60.7983 74.4107 63.102 69.7187 64.0353C65.0268 64.9685 60.1635 64.4895 55.7438 62.6589C51.3242 60.8282 47.5466 57.728 44.8888 53.7504C42.2311 49.7728 40.8125 45.0964 40.8125 40.3125C40.8125 33.8976 43.3608 27.7454 47.8969 23.2094C52.4329 18.6733 58.5851 16.125 65 16.125ZM46.557 61.6177C51.1367 65.6451 56.9031 68.0719 62.9844 68.5313V72.5625C55.8341 72.1068 49.0427 69.2682 43.6948 64.5L46.557 61.6177ZM67.0156 68.5313C73.0849 68.1003 78.85 65.7094 83.443 61.7185L86.3052 64.5C80.9573 69.2682 74.1659 72.1068 67.0156 72.5625V68.5313ZM86.3052 58.8563C90.3527 54.2497 92.7809 48.4447 93.2188 42.3281H97.25C96.7943 49.4785 93.9557 56.2698 89.1875 61.6177L86.3052 58.8563ZM93.2188 38.2969C92.7878 32.2276 90.3968 26.4625 86.4059 21.8695L89.1875 19.0074C93.9557 24.3552 96.7943 31.1466 97.25 38.2969H93.2188ZM83.5438 19.0074C78.9238 14.9963 73.1201 12.6041 67.0156 12.1945V8.1633C74.1659 8.61904 80.9573 11.4576 86.3052 16.2258L83.5438 19.0074ZM62.9844 12.1945C56.9151 12.6255 51.15 15.0165 46.557 19.0074L43.6948 16.125C49.0427 11.3569 55.8341 8.51826 62.9844 8.06252V12.1945ZM43.6948 21.8695C39.7039 26.4625 37.313 32.2276 36.882 38.2969H32.8508C33.3065 31.1466 36.1451 24.3552 40.9133 19.0074L43.6948 21.8695ZM36.882 42.3281C37.313 48.3975 39.7039 54.1625 43.6948 58.7555L40.8125 61.6177C36.0444 56.2698 33.2057 49.4785 32.75 42.3281H36.882Z" fill="#684C48"/>
<path d="M62.9844 56.4375H67.0156V52.4062H71.0469C71.5815 52.4062 72.0941 52.1939 72.4721 51.8159C72.8501 51.4379 73.0625 50.9252 73.0625 50.3906V40.3125C73.0625 39.7779 72.8501 39.2652 72.4721 38.8872C72.0941 38.5092 71.5815 38.2969 71.0469 38.2969H60.9688V32.25H73.0625V28.2188H67.0156V24.1875H62.9844V28.2188H58.9531C58.4185 28.2188 57.9059 28.4311 57.5279 28.8091C57.1499 29.1871 56.9375 29.6998 56.9375 30.2344V40.3125C56.9375 40.8471 57.1499 41.3598 57.5279 41.7378C57.9059 42.1158 58.4185 42.3281 58.9531 42.3281H69.0312V48.375H56.9375V52.4062H62.9844V56.4375Z" fill="#D3686D"/>
<path d="M25.0301 113.984C25.2145 114.258 25.4635 114.483 25.7553 114.638C26.047 114.794 26.3725 114.875 26.7031 114.875C27.0337 114.875 27.3592 114.794 27.6509 114.638C27.9426 114.483 28.1917 114.258 28.3761 113.984L40.4698 95.843C40.6623 95.5455 40.7729 95.2025 40.7906 94.8487C40.8083 94.4948 40.7324 94.1425 40.5706 93.8273C40.4047 93.498 40.1515 93.2204 39.8388 93.025C39.526 92.8295 39.1656 92.7236 38.7968 92.7188H34.7656V66.5156H30.7343V94.7344C30.7343 95.269 30.9467 95.7816 31.3247 96.1596C31.7027 96.5376 32.2154 96.75 32.75 96.75H35.0276L26.7031 109.247L18.3786 96.75H20.6562C21.1908 96.75 21.7035 96.5376 22.0815 96.1596C22.4595 95.7816 22.6718 95.269 22.6718 94.7344V40.3125H18.6406V92.7188H14.6093C14.2447 92.7197 13.8872 92.8196 13.5748 93.0077C13.2624 93.1958 13.007 93.4652 12.8356 93.787C12.6587 94.0934 12.5656 94.441 12.5656 94.7948C12.5656 95.1487 12.6587 95.4962 12.8356 95.8027L25.0301 113.984Z" fill="#684C48"/>
<path d="M94.9724 96.75H97.25C97.7846 96.75 98.2973 96.5376 98.6753 96.1596C99.0533 95.7816 99.2657 95.269 99.2657 94.7344V66.5156H95.2344V92.7188H91.2032C90.8385 92.7197 90.481 92.8196 90.1686 93.0077C89.8563 93.1958 89.6008 93.4652 89.4294 93.787C89.2676 94.1022 89.1917 94.4545 89.2094 94.8084C89.2271 95.1622 89.3377 95.5052 89.5302 95.8027L101.624 113.943C101.808 114.218 102.057 114.442 102.349 114.598C102.641 114.753 102.966 114.835 103.297 114.835C103.627 114.835 103.953 114.753 104.245 114.598C104.536 114.442 104.785 114.218 104.97 113.943L117.064 95.8027C117.256 95.5052 117.367 95.1622 117.384 94.8084C117.402 94.4545 117.326 94.1022 117.164 93.787C116.993 93.4652 116.738 93.1958 116.425 93.0077C116.113 92.8196 115.755 92.7197 115.391 92.7188H111.359V40.3125H107.328V94.7344C107.328 95.269 107.541 95.7816 107.919 96.1596C108.297 96.5376 108.809 96.75 109.344 96.75H111.621L103.297 109.247L94.9724 96.75Z" fill="#684C48"/>
<path d="M56.9375 102.797V80.625H52.9063V100.781H46.8594C46.4699 100.782 46.0891 100.896 45.7629 101.109C45.4367 101.321 45.1791 101.624 45.0213 101.98C44.8635 102.336 44.8123 102.731 44.8738 103.115C44.9353 103.5 45.1069 103.858 45.3678 104.147L63.5084 124.304C63.6974 124.511 63.9276 124.678 64.1845 124.791C64.4414 124.905 64.7191 124.963 65 124.963C65.2809 124.963 65.5587 124.905 65.8155 124.791C66.0724 124.678 66.3027 124.511 66.4916 124.304L84.6322 104.147C84.8931 103.858 85.0647 103.5 85.1262 103.115C85.1877 102.731 85.1365 102.336 84.9787 101.98C84.8209 101.624 84.5633 101.321 84.2372 101.109C83.911 100.896 83.5301 100.782 83.1406 100.781H77.0938V80.625H73.0625V102.797C73.0625 103.331 73.2749 103.844 73.6529 104.222C74.0309 104.6 74.5436 104.812 75.0781 104.812H78.6055L65 119.95L51.3945 104.812H54.9219C55.4565 104.812 55.9691 104.6 56.3471 104.222C56.7251 103.844 56.9375 103.331 56.9375 102.797Z" fill="#D3686D"/>
</svg>
