<svg width="18" height="18" viewBox="0 0 18 18" fill="none" xmlns="http://www.w3.org/2000/svg">
<path d="M12.3393 6.62638L12.3345 6.62596C12.3237 6.62491 12.3166 6.62628 12.3118 6.62783C12.3066 6.6295 12.3012 6.63238 12.2958 6.63695C12.2851 6.64614 12.2744 6.66242 12.272 6.68674C12.2709 6.6982 12.2737 6.71024 12.2845 6.72303C12.2956 6.7362 12.3119 6.74555 12.3312 6.74787C12.3318 6.74794 12.3324 6.748 12.3329 6.74805L12.2844 7.24569C14.6844 7.44819 15.5769 8.55819 15.5769 11.3407V11.4382C15.5769 14.4907 14.4969 15.5707 11.4444 15.5707H6.55438C3.50187 15.5707 2.42188 14.4907 2.42188 11.4382V11.3407C2.42188 8.57319 3.29938 7.46319 5.65438 7.24569L12.3393 6.62638ZM12.3393 6.62638C13.7514 6.747 14.6836 7.17963 15.2761 7.89543C15.8773 8.62186 16.2019 9.72706 16.2019 11.3482V11.4457C16.2019 13.2214 15.8187 14.3721 15.1009 15.0883C14.3828 15.8048 13.2281 16.1882 11.4444 16.1882H6.55438C4.77065 16.1882 3.61623 15.8048 2.89824 15.0868C2.18025 14.3688 1.79688 13.2144 1.79688 11.4307V11.3332C1.79688 9.72269 2.11607 8.62354 2.70796 7.89843C3.28978 7.18567 4.20416 6.75111 5.58902 6.61917L12.3393 6.62638Z" fill="#E0E3E9" stroke="#E0E3E9"/>
<path d="M9 11.3123C8.98694 11.3123 8.97128 11.3071 8.95699 11.2929C8.9427 11.2786 8.9375 11.2629 8.9375 11.2498V2.71484C8.9375 2.70178 8.9427 2.68612 8.95699 2.67183C8.97128 2.65754 8.98694 2.65234 9 2.65234C9.01306 2.65234 9.02872 2.65754 9.04301 2.67183C9.0573 2.68612 9.0625 2.70178 9.0625 2.71484V11.2498C9.0625 11.2629 9.0573 11.2786 9.04301 11.2929C9.02872 11.3071 9.01306 11.3123 9 11.3123Z" fill="#E0E3E9" stroke="#E0E3E9"/>
<path d="M11.5134 4.95008C11.3709 4.95008 11.2284 4.89758 11.1159 4.78508L9.00086 2.67008L6.88586 4.78508C6.66836 5.00258 6.30836 5.00258 6.09086 4.78508C5.87336 4.56758 5.87336 4.20758 6.09086 3.99008L8.60336 1.47758C8.82086 1.26008 9.18086 1.26008 9.39836 1.47758L11.9109 3.99008C12.1284 4.20758 12.1284 4.56758 11.9109 4.78508C11.8059 4.89758 11.6559 4.95008 11.5134 4.95008Z" fill="#E0E3E9"/>
</svg>
