<svg width="21" height="7" viewBox="0 0 21 7" fill="none" xmlns="http://www.w3.org/2000/svg">
<path d="M18.3507 3.41214L20.4704 3.43374C20.2455 3.92239 19.9797 4.38696 19.6763 4.82172C19.3516 5.32006 18.986 5.78518 18.5839 6.21158L0.743087 6.06231C0.642552 5.78256 0.569164 5.49282 0.524104 5.19784L0.42675 4.49354C0.420082 4.4453 3.30004 4.47 3.30004 4.47L8.56245 4.51934L12.1215 4.54849L13.1356 4.55579C13.3418 4.5586 13.5454 4.51609 13.7342 4.43085C13.923 4.34561 14.093 4.2194 14.234 4.05983L14.6573 3.58838C14.7781 3.45576 14.9427 3.38013 15.1165 3.37739L16.7336 3.39476L18.3507 3.41214ZM0.75206 6.45435C0.752124 6.50089 0.760751 6.54714 0.77744 6.59043C0.794129 6.63371 0.81853 6.67317 0.849243 6.70646C0.879955 6.73975 0.916347 6.76622 0.956293 6.78432C0.996238 6.80242 1.03895 6.81179 1.0819 6.81188L18.288 6.95055C18.331 6.95154 18.3735 6.94323 18.4131 6.92612C18.4527 6.90902 18.4885 6.88343 18.5186 6.8509C18.5486 6.81837 18.5722 6.77953 18.588 6.73664C18.6038 6.69376 18.6115 6.64771 18.6106 6.60116L18.6013 6.53362L0.760494 6.38435L0.75206 6.45435ZM3.26384 3.22633L1.64163 3.20476L1.47298 3.22807L1.48161 4.14126L10.3119 4.21852L10.2945 3.30652L8.48321 3.29143L3.26384 3.22633ZM17.8659 2.4566L12.5821 2.44954C12.4237 2.46481 12.2644 2.47043 12.105 2.46635L12.1347 4.25168L13.1488 4.259C13.4698 4.2541 13.7742 4.1171 14.0004 3.8758L14.4238 3.40434C14.509 3.30231 14.6139 3.22179 14.7314 3.16823C14.8488 3.11468 14.9761 3.08936 15.1045 3.09394L18.3551 3.11654L18.3461 2.52789L17.8663 2.52537L17.8659 2.4566ZM4.61075 2.89264L5.73406 2.90453L5.69812 0.943059L4.5837 0.929944L4.61075 2.89264ZM7.45123 0.995686L7.48716 2.95716L8.52928 2.97042L8.49335 1.00895L7.45123 0.995686ZM7.1428 0.98917L6.01944 0.97729L6.04654 2.93998L7.16851 2.94221L7.1428 0.98917ZM4.27167 0.963263L3.23094 0.959644L3.26687 2.92111L4.30899 2.93435L4.27167 0.963263ZM13.8971 2.08096L15.075 2.09512L15.057 1.11438L13.8805 1.10988L13.8971 2.08096ZM16.4813 1.14366L15.358 1.13178L15.3759 2.11251L16.4993 2.1244L16.4813 1.14366ZM13.5645 1.11423L12.5237 1.11061L12.5328 2.09258L13.5736 2.09619L13.5645 1.11423ZM16.7973 1.13932L16.8063 2.12129L17.8471 2.1249L17.8381 1.14293L16.7973 1.13932Z" fill="#263040"/>
</svg>
