<svg width="25" height="25" viewBox="0 0 25 25" fill="none" xmlns="http://www.w3.org/2000/svg">
<g clip-path="url(#clip0_1046_51961)">
<path d="M12.2499 5.49609C13.8667 5.49609 15.3512 6.04962 16.5363 6.97015L20.1734 3.50018C18.0587 1.63605 15.2906 0.496094 12.2499 0.496094C7.64233 0.496094 3.64661 3.09601 1.63574 6.90594L5.68018 10.0989C6.65991 7.41547 9.22742 5.49609 12.2499 5.49609Z" fill="#F44336"/>
<path d="M24.1461 13.9979C24.2086 13.5063 24.25 13.0048 24.25 12.4961C24.25 11.6382 24.1563 10.8029 23.9852 9.99609H12.25V14.9961H18.7362C18.2115 16.3599 17.2772 17.5139 16.088 18.3156L20.1475 21.5204C22.2994 19.6315 23.772 16.9864 24.1461 13.9979Z" fill="#2196F3"/>
<path d="M5.25 12.4964C5.25 11.653 5.40686 10.848 5.68024 10.0992L1.6358 6.90625C0.754333 8.57642 0.25 10.4766 0.25 12.4964C0.25 14.4937 0.745056 16.3727 1.60822 18.0294L5.65778 14.8323C5.39844 14.1008 5.25 13.3168 5.25 12.4964Z" fill="#FFC107"/>
<path d="M12.2502 19.4961C9.20465 19.4961 6.62061 17.5476 5.65796 14.832L1.6084 18.0291C3.60944 21.8696 7.62 24.4961 12.2502 24.4961C15.278 24.4961 18.0389 23.3713 20.1476 21.5204L16.0882 18.3156C14.9914 19.055 13.6786 19.4961 12.2502 19.4961Z" fill="#00B060"/>
<path opacity="0.1" d="M12.2503 24.2474C8.71863 24.2474 5.54303 22.7903 3.29785 20.4688C5.49567 22.9352 8.68677 24.4974 12.2503 24.4974C15.7809 24.4974 18.9456 22.9661 21.1384 20.5382C18.8999 22.8221 15.7484 24.2474 12.2503 24.2474Z" fill="#222222"/>
<path opacity="0.1" d="M12.25 14.7461V14.9961H18.7362L18.8375 14.7461H12.25Z" fill="#222222"/>
<path d="M24.2442 12.6416C24.245 12.5923 24.2498 12.5439 24.2498 12.4946C24.2498 12.4806 24.2476 12.4671 24.2475 12.4531C24.2468 12.5161 24.2437 12.5784 24.2442 12.6416Z" fill="#E6E6E6"/>
<path opacity="0.2" d="M12.25 9.99609V10.2461H24.0356C24.0198 10.1636 24.0026 10.078 23.9852 9.99609H12.25Z" fill="white"/>
<path d="M23.9852 9.99609H12.25V14.9961H18.7362C17.7275 17.6177 15.2272 19.4961 12.25 19.4961C8.38403 19.4961 5.25 16.3621 5.25 12.4961C5.25 8.63007 8.38403 5.49609 12.25 5.49609C13.6519 5.49609 14.9439 5.92676 16.0385 6.63678C16.2061 6.74567 16.3789 6.8479 16.5363 6.97015L20.1735 3.50018L20.0914 3.43707C17.9869 1.61316 15.2535 0.496094 12.25 0.496094C5.62256 0.496094 0.25 5.86865 0.25 12.4961C0.25 19.1235 5.62256 24.4961 12.25 24.4961C18.3677 24.4961 23.4055 19.9149 24.1461 13.9979C24.2086 13.5063 24.25 13.0048 24.25 12.4961C24.25 11.6382 24.1563 10.8029 23.9852 9.99609Z" fill="url(#paint0_linear_1046_51961)"/>
<path opacity="0.1" d="M16.0385 6.3866C14.9439 5.67657 13.6519 5.24591 12.25 5.24591C8.38403 5.24591 5.25 8.37988 5.25 12.2459C5.25 12.2881 5.25057 12.321 5.2513 12.3631C5.31874 8.55542 8.42621 5.49591 12.25 5.49591C13.6519 5.49591 14.9439 5.92657 16.0385 6.6366C16.2061 6.74548 16.3789 6.84772 16.5363 6.96997L20.1735 3.5L16.5363 6.71997C16.3789 6.59772 16.2061 6.49548 16.0385 6.3866Z" fill="#222222"/>
<path opacity="0.2" d="M12.25 0.746094C15.225 0.746094 17.9329 1.84448 20.0293 3.6377L20.1735 3.50018L20.0634 3.40437C17.959 1.58045 15.2535 0.496094 12.25 0.496094C5.62256 0.496094 0.25 5.86865 0.25 12.4961C0.25 12.5383 0.255859 12.579 0.256287 12.6211C0.324036 6.05194 5.66473 0.746094 12.25 0.746094Z" fill="white"/>
</g>
<defs>
<linearGradient id="paint0_linear_1046_51961" x1="0.25" y1="12.4961" x2="24.25" y2="12.4961" gradientUnits="userSpaceOnUse">
<stop stop-color="white" stop-opacity="0.2"/>
<stop offset="1" stop-color="white" stop-opacity="0"/>
</linearGradient>
<clipPath id="clip0_1046_51961">
<rect width="24" height="24" fill="white" transform="translate(0.25 0.496094)"/>
</clipPath>
</defs>
</svg>
