<svg width="21" height="7" viewBox="0 0 21 7" fill="none" xmlns="http://www.w3.org/2000/svg">
<path d="M2.46327 3.41214L0.343546 3.43374C0.568468 3.92239 0.834287 4.38696 1.1377 4.82172C1.4624 5.32006 1.82795 5.78518 2.23007 6.21158L20.0709 6.06231C20.1714 5.78256 20.2448 5.49282 20.2899 5.19784L20.3872 4.49354C20.3939 4.4453 17.5139 4.47 17.5139 4.47L12.2515 4.51934L8.6925 4.54849L7.67837 4.55579C7.47218 4.5586 7.26854 4.51609 7.07976 4.43085C6.89098 4.34561 6.72095 4.2194 6.57999 4.05983L6.1567 3.58838C6.03586 3.45576 5.87128 3.38013 5.69742 3.37739L4.08034 3.39476L2.46327 3.41214ZM20.0619 6.45435C20.0618 6.50089 20.0532 6.54714 20.0365 6.59043C20.0198 6.63371 19.9954 6.67317 19.9647 6.70646C19.934 6.73975 19.8976 6.76622 19.8577 6.78432C19.8177 6.80242 19.775 6.81179 19.7321 6.81188L2.52594 6.95055C2.48298 6.95154 2.44048 6.94323 2.40089 6.92612C2.36131 6.90902 2.32544 6.88343 2.2954 6.8509C2.26537 6.81837 2.24176 6.77953 2.22595 6.73664C2.21015 6.69376 2.20243 6.64771 2.20332 6.60116L2.21266 6.53362L20.0535 6.38435L20.0619 6.45435ZM17.5501 3.22633L19.1723 3.20476L19.341 3.22807L19.3324 4.14126L10.502 4.21852L10.5195 3.30652L12.3308 3.29143L17.5501 3.22633ZM2.94809 2.4566L8.23182 2.44954C8.39024 2.46481 8.54955 2.47043 8.70895 2.46635L8.67926 4.25168L7.66512 4.259C7.34421 4.2541 7.03978 4.1171 6.81352 3.8758L6.39018 3.40434C6.30493 3.30231 6.20005 3.22179 6.0826 3.16823C5.96516 3.11468 5.8379 3.08936 5.70943 3.09394L2.45885 3.11654L2.46789 2.52789L2.94764 2.52537L2.94809 2.4566ZM16.2032 2.89264L15.0799 2.90453L15.1158 0.943059L16.2303 0.929944L16.2032 2.89264ZM13.3627 0.995686L13.3268 2.95716L12.2847 2.97042L12.3206 1.00895L13.3627 0.995686ZM13.6712 0.98917L14.7945 0.97729L14.7674 2.93998L13.6455 2.94221L13.6712 0.98917ZM16.5423 0.963263L17.583 0.959644L17.5471 2.92111L16.505 2.93435L16.5423 0.963263ZM6.91685 2.08096L5.73895 2.09512L5.75692 1.11438L6.93348 1.10988L6.91685 2.08096ZM4.33268 1.14366L5.45599 1.13178L5.43802 2.11251L4.31471 2.1244L4.33268 1.14366ZM7.24951 1.11423L8.29024 1.11061L8.28116 2.09258L7.24038 2.09619L7.24951 1.11423ZM4.0167 1.13932L4.00762 2.12129L2.96683 2.1249L2.97591 1.14293L4.0167 1.13932Z" fill="#1570EF"/>
</svg>
