<svg width="401" height="81" viewBox="0 0 401 81" fill="none" xmlns="http://www.w3.org/2000/svg">
<path d="M9.29776 12.2324L9.43404 12.2876C9.58284 12.8837 9.70511 13.3787 10.0995 13.8625C10.4226 13.9934 10.619 14.1464 10.9642 14.0013C11.1202 13.9358 11.2719 13.8544 11.4226 13.7776L12.4473 14.1837C12.4039 14.4542 12.3867 14.7564 12.2169 14.9803C11.9943 15.1574 11.7352 15.2763 11.6971 15.5714C11.5905 16.3959 12.1914 17.6103 12.4838 18.3921C12.3487 18.845 12.3182 18.9467 11.9481 19.2591L11.9172 19.2876C11.4484 19.7152 10.9867 20.0363 10.3456 20.009L9.98635 19.6095C9.95423 18.6986 11.0772 18.7748 11.4116 17.9334C11.1451 16.5238 10.2522 15.8886 9.49348 14.7905C8.91819 13.9579 9.12147 13.1559 9.29776 12.2324Z" fill="#2D120E"/>
<path d="M9.29688 12.2299C9.4651 11.5852 9.58149 10.8934 10.0956 10.427C10.5206 10.2558 10.7206 10.1731 11.1601 10.3527C12.026 10.7064 12.8677 12.2523 13.1939 13.0729C13.346 13.4555 13.4709 13.8506 13.5901 14.2444L12.4464 14.1812L11.4218 13.7751C11.271 13.8519 11.1193 13.9332 10.9633 13.9988C10.6182 14.1439 10.4217 13.9908 10.0987 13.8599C9.70422 13.3762 9.58196 12.8812 9.43316 12.285L9.29688 12.2299Z" fill="#3E3433"/>
<path d="M9.43408 12.2846C9.66179 11.7885 9.74191 11.6217 10.193 11.2988C10.6376 11.3257 10.8467 11.3683 11.1429 11.7223C11.4611 12.1027 11.6363 12.7372 11.5695 13.2271C11.5441 13.4141 11.4868 13.5978 11.4227 13.7746C11.272 13.8514 11.1202 13.9328 10.9643 13.9983C10.6191 14.1434 10.4226 13.9904 10.0996 13.8595C9.70515 13.3757 9.58288 12.8807 9.43408 12.2846Z" fill="#FEFEFE"/>
<path d="M230.639 21.0026L233.818 20.9316C233.916 21.0765 233.997 21.241 234.027 21.4142C234.202 22.3832 234.221 24.5074 233.662 25.3011C232.926 25.6435 231.282 25.435 230.435 25.4308C231.097 24.4515 230.716 22.1773 230.639 21.0026Z" fill="#19212A"/>
<path d="M12.4834 18.3926C13.5317 21.0648 14.444 23.7887 15.3786 26.5021L17.3209 32.0741C18.1044 34.2864 21.6621 45.3492 22.4078 46.3914C22.7222 46.3844 22.936 46.339 23.2235 46.2112L23.4596 46.4223L22.7186 46.7768C22.5644 47.4397 22.7078 47.6068 22.1866 48.0924C21.2351 46.0924 20.5973 43.9195 19.8629 41.8303L16.453 32.2857C15.7053 30.3648 15.0693 28.3816 14.3814 26.4371C13.5218 24.084 12.5876 21.6799 11.9478 19.2595C12.3178 18.9471 12.3483 18.8455 12.4834 18.3926Z" fill="#3E3433"/>
<path d="M23.4605 46.4199C24.2961 48.6078 26.2884 52.9628 26.6993 55.0812L26.4718 55.0938C25.423 55.9959 28.5764 60.049 27.924 61.5099C26.0911 60.9899 24.6358 54.2463 23.419 52.4768C23.4825 52.9165 23.4921 53.3896 23.3737 53.822C23.253 54.2629 23.0412 54.4646 22.6576 54.6759C22.388 54.5425 22.3179 54.5315 22.1742 54.2545C21.9014 53.7284 21.9699 52.9555 21.8593 52.3712C21.6881 51.4673 20.6617 50.0979 20.9388 49.2389C21.6992 49.0136 22.0025 49.6538 22.8672 49.398C22.961 48.9396 22.4156 48.5306 22.1875 48.09C22.7087 47.6044 22.5653 47.4374 22.7195 46.7744L23.4605 46.4199Z" fill="#BBB3B3"/>
<path d="M230.526 28.8165L233.682 28.7012C233.705 28.7424 233.726 28.7833 233.745 28.8266C233.755 28.8507 233.765 28.875 233.776 28.8991C233.864 29.0934 233.948 29.2829 233.965 29.4982C234.215 32.8399 233.934 36.4447 233.925 39.8124C233.916 43.1027 234.203 46.707 233.869 49.9648C233.844 50.1997 233.714 50.4063 233.564 50.5832C232.74 50.8315 231.417 50.649 230.536 50.6333C231.257 49.5162 230.785 31.0859 230.526 28.8165Z" fill="#19212A"/>
<path d="M123.881 20.2239C124.836 20.0793 125.86 20.1376 126.827 20.132C127.074 20.4907 127.144 20.9236 127.154 21.3511C127.3 27.2851 127.171 33.2577 127.169 39.1957C127.168 42.6708 127.433 46.3811 127.115 49.8225C127.087 50.1218 126.991 50.3219 126.783 50.5404C125.901 50.7997 124.564 50.6357 123.627 50.6329C123.66 50.5828 123.692 50.5325 123.721 50.4798C123.91 50.1426 123.939 49.8136 123.955 49.4346C124.211 43.4767 123.996 37.4079 124.007 31.4376C124.012 28.9659 124.407 22.164 123.881 20.2239Z" fill="#19212A"/>
<path d="M301.514 28.4271L302.429 28.3613C302.68 28.5991 302.818 28.7287 302.928 29.0622C303.157 29.7606 302.993 31.035 302.656 31.6778C301.999 31.7562 301.325 31.8339 300.681 31.9897C293.441 33.7424 294.997 42.7023 294.817 48.1491C294.789 48.9435 294.878 49.974 294.459 50.6685C293.441 50.7699 292.328 50.6405 291.303 50.596C291.422 50.4324 291.511 50.2516 291.555 50.0531C291.761 49.1015 291.843 47.4323 291.298 46.5969C291.402 46.4511 291.482 46.2925 291.537 46.1212C291.843 45.1312 291.665 31.811 291.532 30.154C291.492 29.6661 291.403 29.2271 291.165 28.7928C292.363 28.7554 293.53 28.7704 294.726 28.8626C294.768 28.9337 294.808 29.0083 294.831 29.0872C295.154 30.0957 294.651 32.845 294.153 33.751C294.799 33.3652 295.248 32.7828 295.739 32.2277C297.604 30.1255 298.816 29.3074 301.514 28.4271Z" fill="#19212A"/>
<path d="M225.413 28.6274C225.898 28.5445 226.328 28.4935 226.821 28.5333C227.051 28.7336 227.228 28.8534 227.345 29.1433C227.613 29.8072 227.283 31.0525 227.018 31.6806C226.149 31.8933 225.341 31.8056 224.503 32.2312C218.347 35.3605 219.538 41.7012 219.439 47.4957C219.422 48.4816 219.533 49.7363 219.221 50.6744C219.216 50.6884 219.211 50.702 219.207 50.716L215.776 50.6054C215.893 50.4263 215.992 50.234 216.047 50.0264C216.267 49.1882 216.237 48.143 215.798 47.385C215.91 47.2039 215.998 46.9954 216.055 46.7911C216.41 45.5278 216.254 31.7279 216.076 29.759C216.043 29.3888 215.933 29.0547 215.743 28.7357C216.952 28.7369 218.152 28.8183 219.357 28.8995C220.185 30.358 218.499 31.7127 218.912 33.0249L219.175 33.1501C220.105 32.7586 220.938 31.3266 221.726 30.632C222.843 29.6474 224.027 29.1408 225.413 28.6274Z" fill="#19212A"/>
<path d="M246.643 20.0269C247.221 19.9543 247.745 19.896 248.328 19.9908C248.545 20.1645 248.805 20.3078 248.903 20.5764C249.133 21.2028 248.796 22.1551 248.524 22.7358C246.987 23.0864 245.585 23.4482 244.132 24.0826C244.144 24.1208 244.153 24.1589 244.163 24.1975C244.371 25.1452 244.076 28.3007 243.566 29.1145L248.545 28.8976C248.641 29.0493 248.723 29.203 248.784 29.3734C249.079 30.2024 248.903 31.0109 248.534 31.7789C246.89 31.7233 245.245 31.6878 243.601 31.6722C243.608 31.6839 243.615 31.6953 243.62 31.7073C243.629 31.7269 243.638 31.7473 243.648 31.7672C243.664 31.802 243.685 31.8357 243.702 31.8708C244.083 32.6678 244.036 49.3055 243.66 50.3112L243.587 50.4956C242.927 50.84 241.362 50.6196 240.582 50.5972C240.669 50.4745 240.728 50.3475 240.765 50.2017C241.029 49.1524 240.973 34.4996 240.83 32.6391C240.802 32.2923 240.697 31.9759 240.526 31.675L236.679 31.8364C236.773 31.6995 236.838 31.5568 236.888 31.397C237.14 30.5712 237.021 29.7955 236.625 29.0413C237.917 29.0467 239.207 28.973 240.496 28.9107C241.448 27.5842 240.671 24.5104 241.949 22.6365C242.936 21.1844 244.972 20.3398 246.643 20.0269Z" fill="#19212A"/>
<path d="M328.906 28.8194C329.875 28.6186 330.905 28.7183 331.887 28.7511C331.894 28.7644 331.901 28.7773 331.906 28.7906C331.918 28.8128 331.927 28.8355 331.937 28.8575C333.455 31.9543 330.933 41.4058 333.362 45.4643C334.045 46.605 335.107 47.3608 336.394 47.6821C337.95 48.071 339.883 48.0055 341.275 47.1664C342.497 46.4288 344.058 44.2992 344.381 42.9085C344.741 41.3637 344.926 29.6763 344.336 28.7368C345.3 28.7351 346.264 28.8142 347.226 28.8753C347.35 29.0515 347.43 29.2373 347.474 29.4488C347.743 30.7251 347.902 35.2144 347.224 36.2437C347.357 36.466 347.451 36.6848 347.498 36.9415C347.746 38.2969 347.797 49.9957 347.179 50.858C346.082 50.7857 344.982 50.6469 343.887 50.5334C344.54 49.6697 344.673 48.6925 344.753 47.6377L344.57 47.4832C342.562 48.1471 341.376 50.4988 339.081 51.007C337.326 51.395 334.583 50.5673 333.095 49.6199C327.619 46.1347 328.806 38.0811 328.955 32.5847C328.986 31.417 329.18 30.0055 328.918 28.866L328.906 28.8194Z" fill="#19212A"/>
<path d="M167.303 20.2221L170.228 20.1152C170.34 20.2904 170.44 20.4852 170.483 20.6903C170.846 22.4245 170.721 31.1696 169.928 32.4072C171.789 31.4743 172.759 29.5536 174.915 28.8247C176.845 28.1723 179.229 28.3321 181.054 29.2323C183.091 30.2369 184.55 32.2226 185.263 34.3419C185.574 35.2676 185.737 36.2273 185.814 37.1991C185.947 38.8799 186.17 49.4548 185.54 50.724L182.572 50.6931C182.735 50.45 182.837 50.2001 182.892 49.9118C183.172 48.4397 183.232 39.562 182.569 38.5871L182.607 38.5223C183.033 37.7738 182.825 36.5876 182.596 35.7866C182.192 34.377 181.296 32.9814 179.986 32.2738C178.433 31.4352 176.502 31.3411 174.825 31.8437C170.308 33.1974 170.52 37.8376 170.55 41.6313C170.577 43.6521 170.587 45.6731 170.582 47.6942C170.572 48.5825 170.686 49.8175 170.252 50.6038C170.244 50.618 170.235 50.6321 170.227 50.6463L167.107 50.5722C167.119 50.5544 167.132 50.5366 167.144 50.5186C167.337 50.2275 167.406 49.8259 167.42 49.481C167.681 43.3572 167.387 37.0771 167.386 30.9365C167.386 28.1739 167.769 22.6938 167.303 20.2221Z" fill="#19212A"/>
<path d="M149.803 21.7836C151.752 21.6056 153.827 21.7441 155.724 22.2209C157.921 22.7729 160.292 24.0114 161.475 26.0245C162.102 27.0899 162.482 28.6479 162.158 29.8656C161.55 29.9077 160.401 30.0472 159.896 29.6871C159.875 29.6721 159.854 29.6562 159.834 29.641C158.787 28.8767 158.466 27.2453 157.513 26.3158C156.074 24.91 152.694 24.35 150.711 24.3942C148.943 24.4335 146.556 25.1252 145.322 26.4333C144.596 27.2034 143.99 28.4883 144.033 29.5645C144.223 34.3053 157.321 34.4485 161.415 38.2281C162.58 39.3038 163.311 40.6652 163.365 42.2697C163.432 44.2384 162.609 46.3542 161.266 47.7898C158.852 50.3715 155.081 50.8561 151.743 50.9614C149.181 51.0155 146.248 50.2578 144.067 48.905C142.356 47.8441 140.521 45.0527 140.083 43.0894C139.956 42.5231 140.071 42.2632 140.365 41.7945C140.674 41.6403 140.998 41.4809 141.343 41.4304C143.092 41.1739 144.262 44.9682 145.783 46.0956C148.241 47.9182 152.384 47.9913 155.274 47.5467C156.901 47.2965 158.359 46.6245 159.348 45.2595C159.941 44.4401 160.422 43.4446 160.243 42.4073C159.579 38.555 151.461 37.5607 148.395 36.591C146.743 36.0685 145.064 35.3613 143.654 34.3425C142.384 33.4259 141.324 32.2466 141.078 30.6467C140.791 28.7766 141.079 26.749 142.228 25.206C144.06 22.7446 146.959 22.205 149.803 21.7836Z" fill="#19212A"/>
<path d="M12.4474 14.1836L13.591 14.2468C13.7358 14.8851 13.9892 16.5718 14.5761 16.9237C14.6435 16.9642 14.6281 16.9553 14.6893 16.983C15.4832 17.1581 17.2908 18.1827 17.85 17.9835L17.9446 17.8526C18.1179 18.7872 18.8929 19.0985 19.3321 19.8373C19.768 20.6816 20.1888 21.5143 20.8801 22.1861C21.4752 23.0192 21.9179 24.103 22.5813 24.8528L23.9727 27.7644C24.5209 29.2136 25.9029 32.045 25.9523 33.5136C26.4718 34.6906 26.7758 35.9093 27.0919 37.1514L27.2145 38.216C27.2772 38.7931 27.3713 39.3851 27.3879 39.965L27.5154 41.6027C27.6217 42.1959 27.8044 42.8595 27.7972 43.4598L27.7899 44.9283C27.7394 45.7738 27.6834 46.5947 27.7955 47.4387L27.6647 47.5613C27.3275 48.4594 26.9101 49.1761 26.3576 49.9582C26.8986 51.8232 30.117 60.3747 29.8257 61.5831L29.6381 61.7054C28.4886 60.831 27.1895 56.5598 26.6988 55.083C26.2879 52.9646 24.2956 48.6096 23.46 46.4217L23.2239 46.2107C22.9364 46.3384 22.7226 46.3838 22.4082 46.3908C21.6625 45.3486 18.1048 34.2858 17.3213 32.0735L15.379 26.5015C14.4445 23.7881 13.5321 21.0642 12.4839 18.392C12.1914 17.6101 11.5905 16.3958 11.6971 15.5712C11.7352 15.2761 11.9943 15.1572 12.2169 14.9802C12.3867 14.7562 12.404 14.4541 12.4474 14.1836Z" fill="#2F2829"/>
<path d="M15.0213 18.0527C16.728 19.2072 18.1265 20.4061 19.1559 22.2214C19.5346 22.7196 19.8915 23.2245 20.235 23.7475C19.4516 24.6849 18.1926 24.7235 17.5378 25.5914L17.4128 25.6644C17.1865 24.6935 16.8396 23.7636 16.5055 22.8258C15.9045 21.4074 15.0015 19.6165 15.0213 18.0527Z" fill="#EDE9E9"/>
<path d="M12.4839 18.3923C12.1914 17.6104 11.5905 16.3961 11.6971 15.5715C11.7352 15.2764 11.9943 15.1575 12.2169 14.9805C13.588 18.7321 14.9094 22.5011 16.1812 26.2875C16.9153 28.4241 17.5493 30.7274 18.4792 32.7782C19.4286 35.6606 20.4111 38.5318 21.4266 41.3917C21.9769 42.9651 22.4593 44.733 23.2239 46.211C22.9364 46.3387 22.7226 46.3841 22.4082 46.3911C21.6625 45.3489 18.1048 34.2861 17.3213 32.0738L15.3791 26.5018C14.4445 23.7884 13.5321 21.0645 12.4839 18.3923Z" fill="#EDE9E9"/>
<path d="M20.2342 23.75C22.8019 28.3682 24.2596 33.1755 25.6566 38.2472L26.2659 38.5835L26.6291 39.1126L26.883 39.1056L27.2136 38.2147C27.2763 38.7918 27.3704 39.3838 27.387 39.9636L27.5145 41.6014C27.6208 42.1946 27.8035 42.8582 27.7963 43.4584L27.789 44.927C27.7385 45.7724 27.6825 46.5933 27.7946 47.4374L27.6638 47.56L27.2686 47.4367C26.9262 47.994 26.9632 48.4995 26.4175 48.901L25.8618 48.8568C25.6905 48.5587 25.613 48.1817 25.5143 47.8529C24.2942 45.2752 23.4319 42.4085 22.4613 39.7238C20.7677 35.0391 19.0214 30.3486 17.5371 25.5939C18.1919 24.726 19.4509 24.6874 20.2342 23.75Z" fill="#FEFEFE"/>
<path d="M25.8177 39.209C26.7443 41.5291 26.7738 44.3811 26.8396 46.8512C26.5077 47.5168 26.1821 48.1854 25.8626 48.8568C25.6913 48.5587 25.6139 48.1817 25.5151 47.8529C25.5434 47.8129 25.5488 47.8087 25.5687 47.7694C25.5771 47.7526 25.5848 47.7352 25.593 47.7182C26.0215 46.8247 24.8693 43.4893 25.4629 41.9433C25.6263 42.4745 25.769 43.0073 25.9029 43.5464C26.1018 42.141 25.7882 40.6434 25.8177 39.209Z" fill="#EDE9E9"/>
<path d="M25.6572 38.2454L26.2666 38.5817L26.6297 39.1107L26.8836 39.1037L27.2143 38.2129C27.277 38.7899 27.371 39.382 27.3877 39.9618L27.5152 41.5996C27.6214 42.1928 27.8042 42.8564 27.7969 43.4566L27.7897 44.9252C27.7391 45.7706 27.6832 46.5915 27.7953 47.4355L27.6645 47.5582L27.2693 47.4348C26.9269 47.9922 26.9639 48.4977 26.4182 48.8992L25.8624 48.855C26.1819 48.1836 26.5076 47.515 26.8394 46.8494C26.7736 44.3793 26.7442 41.5273 25.8175 39.2072L25.6572 38.2454Z" fill="#3E3433"/>
<path d="M272.267 21.7836C273.512 21.6733 274.785 21.7362 276.023 21.905C279.792 22.4195 282.79 24.2025 285.078 27.2321C285.537 27.8382 286.492 28.9621 286.382 29.7553L282.963 29.7549C282.975 29.6227 282.97 29.4996 282.926 29.3732C282.233 27.4795 280.125 26.1232 278.348 25.4095C278.174 25.339 277.997 25.2728 277.817 25.2111C277.638 25.1494 277.458 25.0922 277.277 25.0393C277.096 24.9864 276.913 24.9381 276.729 24.8942C276.545 24.8504 276.36 24.8112 276.175 24.7765C275.987 24.7417 275.8 24.7116 275.613 24.6862C275.426 24.6606 275.238 24.6397 275.049 24.6235C274.862 24.6073 274.674 24.5957 274.485 24.5889C274.295 24.5818 274.105 24.5795 273.917 24.5818C273.728 24.5843 273.539 24.5914 273.35 24.6031C273.161 24.6148 272.974 24.6312 272.786 24.6523C272.598 24.6732 272.41 24.6988 272.222 24.729C272.037 24.7593 271.851 24.7941 271.665 24.8336C271.481 24.8731 271.297 24.917 271.113 24.9654C270.931 25.0139 270.75 25.0668 270.57 25.1242C270.389 25.1818 270.211 25.2437 270.034 25.3098C269.857 25.3761 269.681 25.4467 269.508 25.5216C267.044 26.5725 265.195 28.5072 264.201 30.9904C262.944 34.1361 262.916 38.5839 264.262 41.7083C265.291 44.1075 267.161 46.002 269.599 46.9651C272.176 47.9818 275.604 48.0305 278.159 46.9221C280.366 45.9641 282.443 43.9442 283.326 41.6886C283.702 40.7225 284.147 39.1102 283.705 38.1344C283.698 38.1194 283.691 38.1045 283.684 38.0897C280.782 38.0723 277.88 38.0845 274.979 38.1265C274.67 38.1545 274.349 38.1428 274.041 38.1489C273.268 37.4862 273.828 36.3219 273.308 35.431C273.301 35.4165 273.292 35.402 273.282 35.3875C277.675 35.5596 282.068 35.5462 286.459 35.3475C286.464 35.3599 286.471 35.3718 286.478 35.3844C286.487 35.4053 286.494 35.4268 286.503 35.4474C286.571 35.5932 286.639 35.7336 286.686 35.8885C286.868 36.5198 286.592 48.495 286.475 49.8543C286.452 50.1363 286.342 50.4037 286.206 50.6494C285.544 50.6412 284.94 50.6078 284.294 50.4503C282.844 49.2347 284.627 47.2382 283.887 45.7694C283.232 45.8232 280.583 48.7447 279.643 49.3376C278.461 50.0815 277.157 50.5114 275.784 50.7386C272.349 51.3074 269.042 50.6581 266.192 48.6214C262.956 46.3064 260.976 42.861 260.338 38.9623C259.661 34.8177 260.588 30.346 263.066 26.9263C265.376 23.7432 268.481 22.3832 272.267 21.7836Z" fill="#19212A"/>
<path d="M27.5146 41.6025C33.1143 39.5936 41.8872 37.6093 47.4795 40.2329C50.0105 41.4205 51.7568 43.6725 54.1832 44.9887C58.8093 47.4981 63.6611 45.3023 68.5706 45.8934C69.9674 46.0614 74.8098 47.5988 75.5078 47.4885C75.6389 47.0016 75.2289 46.366 75.0178 45.9252C75.0885 45.4768 75.3632 45.1963 75.6452 44.8607C76.9799 48.1407 78.6233 51.4572 78.9366 55.0215C72.5777 50.2493 65.2338 53.3275 58.1228 52.0015C55.3773 51.4895 53.1489 50.198 50.7745 48.8088C45.7074 45.8442 40.7803 44.4 34.8732 45.2466C33.3235 45.4687 28.9893 46.4386 27.7947 47.4385C27.6827 46.5944 27.7386 45.7736 27.7891 44.9281L27.7964 43.4595C27.8036 42.8593 27.6209 42.1957 27.5146 41.6025Z" fill="#F9161D"/>
<path d="M27.7958 43.4604C33.9592 41.2276 41.4724 39.6441 47.6723 42.5497C50.6155 43.9289 52.7128 46.9215 55.8779 47.7304C58.6026 48.4268 61.603 47.7136 64.3567 47.5006C67.7441 47.2388 73.7754 47.3614 76.4103 49.8884C76.9618 50.4175 77.3048 51.2229 77.6381 51.9034C72.0202 50.0288 69.5784 49.6207 63.7548 50.2314C61.8332 50.4327 59.8707 50.7156 57.9479 50.3796C55.5307 49.9572 53.596 48.5777 51.6442 47.1836C45.4046 42.7261 39.7773 41.9855 32.2701 43.6832C30.7524 44.0262 29.2965 44.5574 27.7886 44.929L27.7958 43.4604Z" fill="#FEFEFE"/>
<path fill-rule="evenodd" clip-rule="evenodd" d="M108.48 21.9365C107.558 21.9669 106.635 21.9974 105.714 21.9795C105.473 22.1094 105.304 22.2634 105.174 22.5039C104.382 23.9742 103.748 25.6299 103.127 27.2519C102.849 27.9778 102.574 28.6969 102.288 29.3896L97.0983 41.8988C96.8942 42.4028 96.6612 43.0447 96.4036 43.7545C95.5237 46.1784 94.3563 49.3941 93.0732 50.6155C93.4147 50.6188 93.7626 50.6297 94.1131 50.6406C94.9656 50.6673 95.833 50.6944 96.657 50.6136C97.3636 50.0144 100.299 43.6191 100.381 42.5055C100.389 42.3991 100.381 42.2903 100.368 42.1845L108.906 42.2254L113.752 42.2224C114.62 42.9104 117.317 49.0795 117.455 50.188C117.473 50.3349 117.449 50.4667 117.403 50.6054L121.082 50.6218C121.133 50.374 121.136 50.1459 121.048 49.907C119.497 45.7169 117.671 41.5816 115.849 37.4585C114.842 35.1768 113.836 32.8988 112.879 30.6174C112.637 30.0399 112.307 29.1566 111.941 28.1716C111.13 25.9951 110.134 23.3223 109.482 22.3566C109.376 22.2006 109.25 22.0512 109.119 21.916C108.906 21.9224 108.693 21.9295 108.48 21.9365ZM107.544 25.6231C107.353 25.5643 107.159 25.5048 106.961 25.491C106.823 26.8038 102.493 38.3671 101.467 39.2692C101.742 39.2747 102.016 39.2805 102.29 39.2864C103.909 39.321 105.528 39.3556 107.147 39.3146C107.694 39.311 108.244 39.3143 108.797 39.3176C110.089 39.3254 111.388 39.3332 112.664 39.253C112.779 38.6814 110.602 33.159 109.065 29.263C108.405 27.5878 107.863 26.2134 107.673 25.6623C107.63 25.6496 107.587 25.6364 107.544 25.6231Z" fill="#19212A"/>
<path d="M17.9434 17.8535C20.9693 17.1464 24.0543 16.7381 27.1347 16.3517C33.8502 15.5093 40.6194 14.7874 46.6723 18.5318C49.0427 19.998 51.2093 21.9974 53.9309 22.7902C57.0181 23.6893 67.8196 22.9071 69.375 24.5167C70.6271 25.8121 71.0995 29.5894 71.5226 31.3184C71.2837 31.6376 71.2329 31.6495 70.8503 31.7749L70.7684 31.6537C70.504 31.0348 70.2927 30.4067 69.6476 30.1063C67.2397 28.9849 56.9821 30.2705 53.079 29.0827C50.9723 28.4418 49.3757 26.8878 47.6193 25.6373C40.4785 20.5539 30.5476 23.5096 22.5801 24.8537C21.9167 24.1039 21.474 23.0201 20.8789 22.187C20.1876 21.5152 19.7668 20.6825 19.3309 19.8382C18.8916 19.0994 18.1166 18.7881 17.9434 17.8535Z" fill="#F9161D"/>
<path d="M19.3325 19.8357C28.3545 18.9547 37.7096 15.4798 46.1902 20.619C49.2208 22.4555 51.3572 24.7646 54.9867 25.4123C58.0503 25.959 66.9814 25.3185 68.9544 26.4162C69.2252 26.8835 69.4119 27.2886 69.5296 27.8169C67.301 28.4995 53.4445 27.2251 51.353 26.1127C48.8707 24.7925 46.8347 22.7517 44.3447 21.4455C43.8739 21.1999 43.3923 20.9779 42.8999 20.7793C42.4075 20.5807 41.9065 20.4066 41.397 20.2568C40.8876 20.107 40.3721 19.9824 39.8505 19.8829C39.3288 19.7834 38.8035 19.7095 38.2747 19.6612C33.9478 19.2556 26.1231 20.5338 21.8711 21.813C21.5332 21.9162 21.203 22.04 20.8805 22.1846C20.1892 21.5127 19.7684 20.6801 19.3325 19.8357Z" fill="#FEFEFE"/>
<path fill-rule="evenodd" clip-rule="evenodd" d="M321.254 30.7463C319.073 28.9918 316.089 28.1822 313.319 28.4307C309.841 29.4055 307.41 30.7721 305.592 34.0113C304.083 36.7049 303.865 40.2839 304.696 43.2305C305.452 45.9077 307.403 48.397 309.837 49.7535C311.367 50.6059 313.908 51.3713 315.661 50.8994C318.453 50.6106 320.886 49.445 322.674 47.2452C324.74 44.7035 325.393 41.322 325.054 38.1197C324.754 35.304 323.488 32.546 321.254 30.7463ZM319.042 32.8442C317.373 31.5893 315.431 31.3604 313.407 31.5563C311.399 32.0297 309.876 32.7899 308.751 34.609C307.37 36.8381 307.11 39.8399 307.712 42.354C308.156 44.208 309.118 45.889 310.784 46.9083C312.193 47.7706 314.126 48.075 315.759 47.812C317.633 47.5558 319.138 46.8395 320.305 45.3108C321.843 43.2991 322.241 40.4822 321.904 38.0275C321.628 36.003 320.699 34.0905 319.042 32.8442Z" fill="#19212A"/>
<path fill-rule="evenodd" clip-rule="evenodd" d="M205.627 30.6911C204.342 29.5303 202.685 28.0339 199.176 28.4303C196.063 29.0853 193.575 30.263 191.792 32.9924C189.979 35.7674 189.431 39.2245 190.124 42.4528C190.72 45.2271 192.41 47.9356 194.818 49.4871C196.978 50.8789 199.702 51.2898 202.203 50.746C203.651 50.4313 205.388 49.7257 206.2 48.4137C206.253 48.3278 206.287 48.263 206.303 48.1633C206.401 48.1051 206.49 48.048 206.575 47.9938C206.955 47.7507 207.243 47.5669 207.768 47.6144C207.963 48.0194 207.966 48.2186 207.815 48.6526C207.613 49.2301 207.168 50.1427 206.695 50.5272C206.957 50.5385 207.22 50.5508 207.483 50.563C208.51 50.6108 209.539 50.6587 210.566 50.6543C210.614 50.5658 210.653 50.4748 210.691 50.3821C210.98 49.6839 210.966 29.8079 210.656 29.0965C210.616 29.0053 210.568 28.921 210.515 28.8363L206.983 28.9316C207.575 29.5737 207.855 30.7823 207.91 31.6411L207.753 31.9366C206.98 31.9133 206.365 31.3575 205.627 30.6911ZM199.113 31.5322C199.038 31.5379 198.963 31.545 198.888 31.5538C196.625 32.3629 194.937 33.5889 193.89 35.8084C192.853 38.007 192.807 40.7832 193.626 43.0567C194.274 44.8541 195.535 46.4519 197.291 47.2711C198.451 47.8121 200.152 48.1374 201.428 47.8996C203.155 47.7945 204.547 47.0647 205.685 45.7747C207.29 43.9546 207.886 41.3806 207.729 39.0039C207.581 36.7741 206.727 34.5766 205.012 33.0862C203.26 31.5636 201.338 31.3654 199.113 31.5322Z" fill="#19212A"/>
<path fill-rule="evenodd" clip-rule="evenodd" d="M368.111 29.5576C366.022 28.4737 363.86 28.3471 361.559 28.623C359.849 29.2628 358.674 29.9694 357.244 31.0861C357.092 31.2052 356.942 31.3305 356.793 31.4559C356.39 31.7937 355.985 32.1329 355.51 32.3574C356.074 31.5482 356.222 30.1073 356.051 29.1432C356.023 28.9918 355.955 28.857 355.871 28.729L352.777 28.6855C352.955 29.0035 353.037 29.2939 353.051 29.658C353.168 32.4838 353.29 57.6109 352.986 58.6707C352.942 58.8234 352.881 58.9688 352.803 59.1067C353.014 59.1084 353.226 59.1123 353.438 59.1162C354.243 59.131 355.057 59.1459 355.85 59.043C356.313 58.2158 356.437 51.8517 356.084 50.7096C356.018 50.5032 355.932 50.2968 355.815 50.1145C356.219 49.3248 356.177 48.4143 355.913 47.5812C355.846 47.3731 355.758 47.1741 355.649 46.9843C356.328 47.3447 356.872 47.8547 357.42 48.3688C357.693 48.6248 357.967 48.8818 358.26 49.1219C360.548 51.0037 363.598 51.4731 366.42 50.6071C369.045 49.8014 371.193 47.8454 372.468 45.4406C373.961 42.6223 374.235 38.9071 373.29 35.8728C372.459 33.2101 370.601 30.8498 368.111 29.5576ZM367.671 32.887C366.005 31.6539 364.061 31.3579 362.037 31.5553C359.86 32.1558 358.293 33.1653 357.165 35.1545C355.918 37.3534 355.707 40.1282 356.379 42.5435C356.886 44.3683 357.979 46.083 359.659 47.0342C360.897 47.7367 363.001 48.123 364.402 47.772C366.415 47.4847 368.018 46.7193 369.249 45.0735C370.664 43.1795 371.186 40.6317 370.84 38.3126C370.524 36.1885 369.41 34.1745 367.671 32.887Z" fill="#19212A"/>
<path d="M22.5811 24.848C30.5485 23.5039 40.4795 20.5482 47.6203 25.6317C49.3767 26.8822 50.9732 28.4362 53.0799 29.0771C56.9831 30.2649 67.2407 28.9793 69.6485 30.1006C70.2937 30.4011 70.505 31.0291 70.7694 31.6481L70.8513 31.7693C71.2339 31.6438 71.2847 31.6319 71.5236 31.3127C72.331 34.2711 73.2046 37.2098 74.1444 40.1289C74.5944 41.5367 75.4843 43.4337 75.6457 44.8562C75.3638 45.1917 75.089 45.4723 75.0184 45.9206C75.2294 46.3615 75.6394 46.997 75.5084 47.484C74.8104 47.5942 69.968 46.0568 68.5712 45.8888C63.6617 45.2977 58.8099 47.4936 54.1837 44.9842C51.7574 43.6679 50.011 41.4159 47.4801 40.2284C41.8877 37.6048 33.1148 39.5891 27.5152 41.598L27.3877 39.9602C27.3711 39.3803 27.277 38.7883 27.2143 38.2113L27.0917 37.1466C26.7755 35.9045 26.4716 34.6858 25.9521 33.5088C25.9027 32.0402 24.5207 29.2088 23.9724 27.7597L22.5811 24.848Z" fill="#FEFEFE"/>
<path d="M30.2988 32.7598C30.8728 34.6772 31.4614 36.5901 32.0645 38.4986C30.4757 38.9055 28.9374 39.4283 27.3878 39.9609C27.3712 39.381 27.2771 38.789 27.2144 38.212L27.0918 37.1473C27.6365 37.5306 28.8178 37.8958 29.4795 37.8343C31.1316 36.7366 29.6738 34.3666 30.2988 32.7598Z" fill="#F9161D"/>
<path d="M28.3169 26.209C28.9075 28.3964 29.8491 30.5555 30.2988 32.7629C29.6738 34.3697 31.1317 36.7397 29.4796 37.8374C28.8179 37.8989 27.6366 37.5336 27.0919 37.1504C26.7757 35.9083 26.4718 34.6896 25.9523 33.5126C25.9029 32.044 24.5209 29.2126 23.9727 27.7634C25.3551 27.0935 26.8555 26.6728 28.3169 26.209Z" fill="#F9161D"/>
<path d="M65.6997 30.7637C66.3326 30.9612 66.9688 31.1476 67.6082 31.3229C68.42 31.5469 69.9835 32.0949 70.7698 31.6496L70.8517 31.7708C71.2343 31.6454 71.285 31.6335 71.524 31.3143C72.3314 34.2727 73.205 37.2114 74.1448 40.1305C74.5947 41.5382 75.4846 43.4352 75.6461 44.8577C75.3641 45.1933 75.0894 45.4739 75.0188 45.9222C73.6693 44.9766 71.9868 44.752 70.537 44.0088C69.8595 43.6618 69.4458 43.27 69.0721 42.612C67.5649 39.9582 66.7331 34.0057 65.6997 30.7637Z" fill="#F9161D"/>
<path d="M49.6489 29.6621C52.9425 30.3143 56.5164 30.3372 59.8738 30.5733C60.649 31.8451 61.0887 33.2365 61.4657 34.6662C60.2931 34.8997 59.0735 34.9858 57.8843 35.1159C57.7584 34.4919 57.6134 33.5563 57.2172 33.046C56.9589 32.7132 56.6626 32.5295 56.2386 32.4921C55.7044 32.4446 55.3761 32.7064 54.9998 33.0254C54.8351 33.3773 54.7513 33.7033 54.7628 34.0936C54.8133 35.8151 55.8448 39.0731 57.107 40.2677C57.6543 40.3044 57.9779 40.2859 58.4583 40.0056C58.8678 39.4698 58.7059 38.5045 58.6839 37.8577C58.6647 37.3446 58.6205 37.1649 58.8898 36.7102C59.7114 36.2747 61.0464 36.4907 61.9669 36.5323C62.3179 37.3008 62.661 38.1469 62.8886 38.9599C63.158 39.9211 63.2036 41.0167 62.6879 41.9071C62.2449 42.6723 61.4268 43.1185 60.5943 43.3389C58.6357 43.857 55.7322 43.7131 53.962 42.6615C53.5651 42.4256 53.2013 42.175 52.9584 41.7739C51.4561 39.2928 50.4064 32.724 49.6489 29.6621Z" fill="#040304"/>
<path d="M36.1626 24.9902C38.5045 26.0175 42.8178 25.3277 45.4037 25.2114C47.1976 29.188 48.0519 33.962 49.0228 38.2122C47.9773 38.2669 46.2667 38.5161 45.3253 38.021L45.22 37.6623C45.0539 36.8311 44.9416 35.7823 44.4996 35.0511C44.2155 34.5812 43.8626 34.2063 43.3338 34.0755L43.1372 34.2393C42.5623 35.5556 43.1197 36.7862 43.4917 38.086C42.0353 38.3348 40.497 38.3313 39.0214 38.408C37.7639 34.069 37.1445 29.4159 36.1626 24.9902Z" fill="#040304"/>
<path d="M41.4333 28.4785C41.96 28.5021 42.4795 28.4139 42.8937 28.7932C43.5826 29.4236 43.5246 30.9365 43.5679 31.8118C43.4777 31.8186 43.3874 31.8235 43.2971 31.8266C42.79 31.8434 42.3209 31.9085 41.935 31.5308C41.2875 30.8974 41.4403 29.342 41.4333 28.4785Z" fill="#FEFEFE"/>
<path d="M141.486 68.8287C140.779 68.8287 140.133 68.7094 139.55 68.4707C138.975 68.2232 138.48 67.8652 138.065 67.3967C137.667 66.937 137.371 66.4154 137.176 65.832C136.991 65.2397 136.898 64.6297 136.898 64.0021C136.898 63.2684 137.013 62.6054 137.243 62.0131C137.481 61.412 137.808 60.8993 138.224 60.4749C138.648 60.0418 139.148 59.7059 139.722 59.4672C140.306 59.2285 140.938 59.1092 141.618 59.1092C141.981 59.1092 142.326 59.1401 142.653 59.202C142.989 59.2639 143.32 59.3478 143.647 59.4539C143.974 59.56 144.306 59.6793 144.642 59.8119V60.7799L143.713 60.6075C143.439 60.5103 143.134 60.4219 142.799 60.3423C142.463 60.2628 142.1 60.223 141.711 60.223C141.004 60.223 140.385 60.3821 139.855 60.7004C139.333 61.0098 138.927 61.4473 138.635 62.0131C138.352 62.5789 138.211 63.2419 138.211 64.0021C138.211 64.7005 138.339 65.3325 138.595 65.8983C138.851 66.4552 139.236 66.8972 139.749 67.2243C140.27 67.5514 140.911 67.7149 141.671 67.7149C142.096 67.7149 142.489 67.653 142.852 67.5293C143.223 67.3967 143.585 67.1712 143.939 66.853C143.983 66.8176 144.023 66.7955 144.058 66.7867C144.094 66.769 144.129 66.7602 144.164 66.7602C144.235 66.7602 144.297 66.7867 144.35 66.8397L144.854 67.3967C144.5 67.8033 144.045 68.1436 143.488 68.4177C142.94 68.6917 142.273 68.8287 141.486 68.8287ZM143.554 60.4484L144.642 60.7799V61.9866H144.032C143.961 61.9866 143.899 61.9733 143.846 61.9468C143.802 61.9114 143.771 61.854 143.753 61.7744L143.554 60.4484ZM147.73 68.8287C147.377 68.8287 147.059 68.7624 146.776 68.6298C146.493 68.4884 146.267 68.2851 146.1 68.0199C145.932 67.7547 145.848 67.4276 145.848 67.0386C145.848 66.7734 145.918 66.5215 146.06 66.2828C146.21 66.0353 146.449 65.8143 146.776 65.6198C147.103 65.4342 147.527 65.2795 148.049 65.1557C148.579 65.032 149.224 64.9612 149.985 64.9436V64.4264C149.985 63.9049 149.87 63.5115 149.64 63.2463C149.419 62.9722 149.092 62.8352 148.659 62.8352C148.429 62.8352 148.186 62.8971 147.929 63.0209C147.682 63.1358 147.452 63.2551 147.24 63.3789C147.028 63.4938 146.86 63.5513 146.736 63.5513C146.656 63.5513 146.586 63.5292 146.524 63.485C146.471 63.4408 146.427 63.3877 146.391 63.3258L146.179 62.9546C146.55 62.5921 146.948 62.3225 147.372 62.1457C147.806 61.9689 148.283 61.8805 148.805 61.8805C149.308 61.8805 149.733 61.9866 150.078 62.1987C150.422 62.4109 150.683 62.707 150.86 63.0872C151.045 63.4673 151.138 63.9137 151.138 64.4264V68.7227H150.621C150.506 68.7227 150.413 68.705 150.343 68.6696C150.272 68.6343 150.223 68.5591 150.197 68.4442L150.064 67.821C149.711 68.1392 149.357 68.3867 149.003 68.5635C148.65 68.7403 148.226 68.8287 147.73 68.8287ZM148.075 67.9934C148.473 67.9934 148.822 67.9138 149.123 67.7547C149.423 67.5956 149.711 67.3746 149.985 67.0917V65.6994C149.525 65.7082 149.11 65.7436 148.738 65.8055C148.367 65.8585 148.049 65.9381 147.784 66.0441C147.527 66.1414 147.328 66.2696 147.187 66.4287C147.054 66.579 146.988 66.7646 146.988 66.9856C146.988 67.3392 147.09 67.5956 147.293 67.7547C147.505 67.9138 147.766 67.9934 148.075 67.9934ZM150.741 68.7227L150.886 67.6884L151.881 67.9005C151.952 67.9094 152.005 67.9403 152.04 67.9934C152.075 68.0376 152.093 68.0994 152.093 68.179V68.7227H150.741ZM153.585 68.7227V61.9998H154.261C154.394 61.9998 154.487 62.0264 154.54 62.0794C154.593 62.1236 154.624 62.2076 154.633 62.3313L154.712 63.3789C154.942 62.9104 155.225 62.5435 155.561 62.2783C155.897 62.0131 156.295 61.8805 156.754 61.8805C156.94 61.8805 157.108 61.9026 157.258 61.9468C157.409 61.991 157.546 62.0485 157.669 62.1192L157.523 63.0076C157.515 63.0606 157.488 63.1004 157.444 63.1269C157.409 63.1535 157.364 63.1667 157.311 63.1667C157.249 63.1667 157.13 63.149 156.953 63.1137C156.776 63.0695 156.622 63.0474 156.489 63.0474C156.083 63.0474 155.738 63.1667 155.455 63.4054C155.181 63.6441 154.951 63.9888 154.765 64.4397V68.7227H153.585ZM154.368 68.7227L154.513 67.6884L155.508 67.9005C155.579 67.9094 155.632 67.9403 155.667 67.9934C155.702 68.0376 155.72 68.0994 155.72 68.179V68.7227H154.368ZM152.63 68.7227V68.179C152.63 68.0994 152.648 68.0376 152.684 67.9934C152.719 67.9403 152.772 67.9094 152.843 67.9005L153.837 67.6884L153.983 68.7227H152.63ZM153.983 61.9998L153.837 63.0341L152.843 62.822C152.772 62.8043 152.719 62.7733 152.684 62.7291C152.648 62.6849 152.63 62.6231 152.63 62.5435V61.9998H153.983ZM159.179 68.7227V61.9998H159.856C159.988 61.9998 160.081 62.0264 160.134 62.0794C160.187 62.1236 160.218 62.2076 160.227 62.3313L160.306 63.3789C160.536 62.9104 160.819 62.5435 161.155 62.2783C161.491 62.0131 161.889 61.8805 162.348 61.8805C162.534 61.8805 162.702 61.9026 162.852 61.9468C163.003 61.991 163.14 62.0485 163.263 62.1192L163.117 63.0076C163.109 63.0606 163.082 63.1004 163.038 63.1269C163.003 63.1535 162.958 63.1667 162.905 63.1667C162.843 63.1667 162.724 63.149 162.547 63.1137C162.371 63.0695 162.216 63.0474 162.083 63.0474C161.677 63.0474 161.332 63.1667 161.049 63.4054C160.775 63.6441 160.545 63.9888 160.359 64.4397V68.7227H159.179ZM159.962 68.7227L160.107 67.6884L161.102 67.9005C161.173 67.9094 161.226 67.9403 161.261 67.9934C161.296 68.0376 161.314 68.0994 161.314 68.179V68.7227H159.962ZM158.225 68.7227V68.179C158.225 68.0994 158.242 68.0376 158.278 67.9934C158.313 67.9403 158.366 67.9094 158.437 67.9005L159.431 67.6884L159.577 68.7227H158.225ZM159.577 61.9998L159.431 63.0341L158.437 62.822C158.366 62.8043 158.313 62.7733 158.278 62.7291C158.242 62.6849 158.225 62.6231 158.225 62.5435V61.9998H159.577ZM165.662 71.0034L166.882 68.3249L164.11 61.9998H165.131C165.237 61.9998 165.317 62.0264 165.37 62.0794C165.432 62.1324 165.476 62.1899 165.503 62.2518L167.293 66.4817C167.319 66.5436 167.35 66.632 167.386 66.7469C167.421 66.8618 167.452 66.9679 167.478 67.0652C167.496 66.9944 167.514 66.9281 167.531 66.8663C167.549 66.8044 167.571 66.7425 167.598 66.6806C167.624 66.6099 167.651 66.5392 167.677 66.4685L169.414 62.2518C169.441 62.1811 169.485 62.1236 169.547 62.0794C169.618 62.0264 169.688 61.9998 169.759 61.9998H170.701L166.961 70.7117C166.926 70.8001 166.877 70.8708 166.815 70.9238C166.753 70.9769 166.661 71.0034 166.537 71.0034H165.662ZM164.959 62.3313V61.9998H165.953V62.3313H164.959ZM169.07 62.3313V61.9998H170.064V62.3313H169.07ZM165.039 61.9998L164.893 63.0341L163.898 62.822C163.827 62.8043 163.774 62.7733 163.739 62.7291C163.704 62.6849 163.686 62.6231 163.686 62.5435V61.9998H165.039ZM166.696 61.9998V62.5435C166.696 62.6231 166.678 62.6849 166.643 62.7291C166.608 62.7733 166.555 62.8043 166.484 62.822L165.489 63.0341L165.344 61.9998H166.696ZM169.467 61.9998L169.322 63.0341L168.327 62.822C168.256 62.8043 168.203 62.7733 168.168 62.7291C168.133 62.6849 168.115 62.6231 168.115 62.5435V61.9998H169.467ZM171.125 61.9998V62.5435C171.125 62.6231 171.107 62.6849 171.072 62.7291C171.036 62.7733 170.983 62.8043 170.913 62.822L169.918 63.0341L169.772 61.9998H171.125ZM172.685 68.7227V61.9998H173.865V68.7227H172.685ZM171.731 68.7227V68.179C171.731 68.0994 171.748 68.0376 171.784 67.9934C171.819 67.9403 171.872 67.9094 171.943 67.9005L172.937 67.6884L173.083 68.7227H171.731ZM173.468 68.7227L173.614 67.6884L174.608 67.9005C174.679 67.9094 174.732 67.9403 174.767 67.9934C174.802 68.0376 174.82 68.0994 174.82 68.179V68.7227H173.468ZM173.083 61.9998L172.937 63.0341L171.943 62.822C171.872 62.8043 171.819 62.7733 171.784 62.7291C171.748 62.6849 171.731 62.6231 171.731 62.5435V61.9998H173.083ZM173.255 60.7269C173.034 60.7269 172.84 60.6429 172.672 60.4749C172.504 60.307 172.42 60.1125 172.42 59.8915C172.42 59.6617 172.504 59.4628 172.672 59.2948C172.84 59.1268 173.034 59.0429 173.255 59.0429C173.485 59.0429 173.684 59.1268 173.852 59.2948C174.02 59.4628 174.104 59.6617 174.104 59.8915C174.104 60.1125 174.02 60.307 173.852 60.4749C173.684 60.6429 173.485 60.7269 173.255 60.7269ZM176.324 68.7227V61.9998H177.027C177.204 61.9998 177.31 62.0838 177.345 62.2518L177.438 62.9811C177.73 62.654 178.057 62.3932 178.419 62.1987C178.782 61.9954 179.197 61.8938 179.666 61.8938C180.161 61.8938 180.572 61.9998 180.899 62.212C181.235 62.4242 181.487 62.7247 181.655 63.1137C181.831 63.4938 181.92 63.9358 181.92 64.4397V68.7227H180.74V64.4397C180.74 63.9358 180.62 63.5424 180.382 63.2595C180.152 62.9767 179.798 62.8352 179.321 62.8352C178.976 62.8352 178.649 62.9192 178.34 63.0872C178.039 63.2551 177.761 63.485 177.504 63.7767V68.7227H176.324ZM175.369 68.7227V68.179C175.369 68.0994 175.387 68.0376 175.422 67.9934C175.458 67.9403 175.511 67.9094 175.581 67.9005L176.576 67.6884L176.722 68.7227H175.369ZM177.106 68.7227L177.252 67.6884L178.247 67.9005C178.317 67.9094 178.37 67.9403 178.406 67.9934C178.441 68.0376 178.459 68.0994 178.459 68.179V68.7227H177.106ZM181.522 68.7227L181.668 67.6884L182.662 67.9005C182.733 67.9094 182.786 67.9403 182.821 67.9934C182.857 68.0376 182.874 68.0994 182.874 68.179V68.7227H181.522ZM176.722 61.9998L176.576 63.0341L175.581 62.822C175.511 62.8043 175.458 62.7733 175.422 62.7291C175.387 62.6849 175.369 62.6231 175.369 62.5435V61.9998H176.722ZM186.116 61.8938C186.407 61.8938 186.677 61.9247 186.924 61.9866C187.181 62.0485 187.415 62.1413 187.627 62.265H189.444V62.7026C189.444 62.7733 189.422 62.8352 189.377 62.8883C189.333 62.9325 189.263 62.9634 189.165 62.9811L188.409 63.0872C188.56 63.3877 188.635 63.7104 188.635 64.0551C188.635 64.4971 188.524 64.8817 188.303 65.2088C188.082 65.527 187.782 65.7745 187.402 65.9513C187.022 66.1281 186.593 66.2165 186.116 66.2165C185.956 66.2165 185.802 66.2077 185.651 66.19C185.51 66.1723 185.369 66.1458 185.227 66.1104C185.086 66.1988 184.975 66.2961 184.896 66.4022C184.825 66.4994 184.79 66.5966 184.79 66.6939C184.79 66.8618 184.856 66.9856 184.988 67.0652C185.13 67.1447 185.311 67.2022 185.532 67.2375C185.762 67.2641 186.009 67.2817 186.275 67.2906C186.54 67.2994 186.796 67.3127 187.044 67.3304C187.45 67.3657 187.822 67.4276 188.158 67.516C188.502 67.6044 188.776 67.7547 188.98 67.9668C189.192 68.179 189.298 68.4884 189.298 68.895C189.298 69.3194 189.161 69.6995 188.887 70.0354C188.613 70.3802 188.237 70.6498 187.76 70.8443C187.291 71.0476 186.756 71.1492 186.155 71.1492C185.572 71.1492 185.059 71.0741 184.617 70.9238C184.175 70.7735 183.83 70.5658 183.583 70.3006C183.335 70.0354 183.212 69.726 183.212 69.3724C183.212 69.0365 183.318 68.7536 183.53 68.5238C183.742 68.2851 184.029 68.0994 184.392 67.9668C184.206 67.8784 184.056 67.7591 183.941 67.6088C183.826 67.4585 183.768 67.2596 183.768 67.0121C183.768 66.8088 183.848 66.6011 184.007 66.3889C184.166 66.1767 184.374 66.0044 184.63 65.8718C184.294 65.6861 184.034 65.4386 183.848 65.1292C183.662 64.8198 183.57 64.4618 183.57 64.0551C183.57 63.6043 183.68 63.2198 183.901 62.9015C184.122 62.5744 184.423 62.3269 184.803 62.159C185.192 61.9822 185.629 61.8938 186.116 61.8938ZM188.211 69.0939C188.211 68.8376 188.105 68.6564 187.892 68.5503C187.689 68.4354 187.442 68.3602 187.15 68.3249C187.053 68.3072 186.916 68.2939 186.739 68.2851C186.562 68.2762 186.367 68.2674 186.155 68.2586C185.952 68.2409 185.753 68.2232 185.559 68.2055C185.373 68.1878 185.218 68.1702 185.094 68.1525C184.847 68.2762 184.644 68.4265 184.485 68.6033C184.325 68.7713 184.246 68.9746 184.246 69.2133C184.246 69.4343 184.325 69.6243 184.485 69.7835C184.644 69.9514 184.869 70.0752 185.161 70.1547C185.453 70.2431 185.788 70.2873 186.169 70.2873C186.558 70.2873 186.902 70.2387 187.203 70.1415C187.512 70.0531 187.755 69.9205 187.932 69.7437C188.118 69.5669 188.211 69.3503 188.211 69.0939ZM186.116 65.4342C186.575 65.4342 186.933 65.3104 187.19 65.0629C187.446 64.8154 187.574 64.4883 187.574 64.0817C187.574 63.675 187.45 63.3524 187.203 63.1137C186.955 62.8662 186.593 62.7424 186.116 62.7424C185.638 62.7424 185.276 62.8662 185.028 63.1137C184.781 63.3524 184.657 63.675 184.657 64.0817C184.657 64.4883 184.785 64.8154 185.041 65.0629C185.298 65.3104 185.656 65.4342 186.116 65.4342ZM197.21 68.7227V64.9436L193.722 59.2152H194.85C194.964 59.2152 195.053 59.2462 195.115 59.3081C195.185 59.3611 195.247 59.4318 195.3 59.5202L197.475 63.2065C197.572 63.3656 197.647 63.5159 197.7 63.6573C197.753 63.7899 197.806 63.9225 197.86 64.0551C197.904 63.9137 197.952 63.7767 198.005 63.6441C198.067 63.5026 198.142 63.3568 198.231 63.2065L200.405 59.5202C200.45 59.4495 200.503 59.3832 200.565 59.3213C200.635 59.2506 200.724 59.2152 200.83 59.2152H201.97L198.483 64.9436V68.7227H197.21ZM194.624 59.9313V59.2152H195.619V59.9313H194.624ZM199.862 59.9313V59.2152H201.201V59.9313H199.862ZM194.704 59.2152L194.558 60.2495L193.563 60.0374C193.493 60.0197 193.44 59.9887 193.404 59.9445C193.369 59.9003 193.351 59.8385 193.351 59.7589V59.2152H194.704ZM196.746 59.2152V59.7589C196.746 59.8385 196.728 59.9003 196.693 59.9445C196.657 59.9887 196.604 60.0197 196.534 60.0374L195.539 60.2495L195.393 59.2152H196.746ZM200.286 59.2152L200.14 60.2495L199.146 60.0374C199.075 60.0197 199.022 59.9887 198.987 59.9445C198.951 59.9003 198.934 59.8385 198.934 59.7589V59.2152H200.286ZM202.328 59.2152V59.7589C202.328 59.8385 202.31 59.9003 202.275 59.9445C202.24 59.9887 202.187 60.0197 202.116 60.0374L201.121 60.2495L200.976 59.2152H202.328ZM196.255 68.7227V68.179C196.255 68.0994 196.273 68.0376 196.308 67.9934C196.343 67.9403 196.397 67.9094 196.467 67.9005L197.462 67.6884L197.608 68.7227H196.255ZM198.085 68.7227L198.231 67.6884L199.225 67.9005C199.296 67.9094 199.349 67.9403 199.384 67.9934C199.42 68.0376 199.437 68.0994 199.437 68.179V68.7227H198.085ZM205.1 61.8938C205.772 61.8938 206.342 62.0396 206.811 62.3313C207.288 62.6142 207.655 63.0164 207.911 63.538C208.168 64.0596 208.296 64.6651 208.296 65.3546C208.296 66.0441 208.168 66.6497 207.911 67.1712C207.655 67.6928 207.288 68.0994 206.811 68.3912C206.342 68.674 205.772 68.8155 205.1 68.8155C204.446 68.8155 203.876 68.674 203.39 68.3912C202.912 68.0994 202.541 67.6928 202.276 67.1712C202.019 66.6497 201.891 66.0441 201.891 65.3546C201.891 64.6651 202.019 64.0596 202.276 63.538C202.541 63.0164 202.912 62.6142 203.39 62.3313C203.876 62.0396 204.446 61.8938 205.1 61.8938ZM205.1 67.8873C205.763 67.8873 206.258 67.6663 206.585 67.2243C206.912 66.7823 207.076 66.1635 207.076 65.3679C207.076 64.8286 207.001 64.3734 206.85 64.0021C206.709 63.622 206.492 63.3303 206.201 63.1269C205.909 62.9236 205.542 62.822 205.1 62.822C204.649 62.822 204.274 62.928 203.973 63.1402C203.681 63.3435 203.465 63.6352 203.323 64.0154C203.182 64.3955 203.111 64.8463 203.111 65.3679C203.111 66.137 203.275 66.7513 203.602 67.211C203.929 67.6619 204.428 67.8873 205.1 67.8873ZM212.032 68.8287C211.546 68.8287 211.135 68.7227 210.799 68.5105C210.463 68.2895 210.207 67.9889 210.03 67.6088C209.862 67.2287 209.778 66.7867 209.778 66.2828V61.9998H210.958V66.2828C210.958 66.7955 211.073 67.1933 211.303 67.4762C211.542 67.7503 211.9 67.8873 212.377 67.8873C212.722 67.8873 213.044 67.8077 213.345 67.6486C213.654 67.4806 213.937 67.2508 214.194 66.9591V61.9998H215.374V68.7227H214.671C214.494 68.7227 214.388 68.6387 214.353 68.4707L214.26 67.7547C213.968 68.0729 213.641 68.3337 213.279 68.537C212.916 68.7315 212.501 68.8287 212.032 68.8287ZM214.976 68.7227L215.122 67.6884L216.116 67.9005C216.187 67.9094 216.24 67.9403 216.275 67.9934C216.311 68.0376 216.328 68.0994 216.328 68.179V68.7227H214.976ZM210.176 61.9998L210.03 63.0341L209.035 62.822C208.965 62.8043 208.912 62.7733 208.876 62.7291C208.841 62.6849 208.823 62.6231 208.823 62.5435V61.9998H210.176ZM214.591 61.9998L214.446 63.0341L213.451 62.822C213.38 62.8043 213.327 62.7733 213.292 62.7291C213.257 62.6849 213.239 62.6231 213.239 62.5435V61.9998H214.591ZM217.826 68.7227V61.9998H218.503C218.635 61.9998 218.728 62.0264 218.781 62.0794C218.834 62.1236 218.865 62.2076 218.874 62.3313L218.953 63.3789C219.183 62.9104 219.466 62.5435 219.802 62.2783C220.138 62.0131 220.536 61.8805 220.995 61.8805C221.181 61.8805 221.349 61.9026 221.499 61.9468C221.65 61.991 221.787 62.0485 221.91 62.1192L221.765 63.0076C221.756 63.0606 221.729 63.1004 221.685 63.1269C221.65 63.1535 221.605 63.1667 221.552 63.1667C221.49 63.1667 221.371 63.149 221.194 63.1137C221.018 63.0695 220.863 63.0474 220.73 63.0474C220.324 63.0474 219.979 63.1667 219.696 63.4054C219.422 63.6441 219.192 63.9888 219.006 64.4397V68.7227H217.826ZM218.609 68.7227L218.754 67.6884L219.749 67.9005C219.82 67.9094 219.873 67.9403 219.908 67.9934C219.943 68.0376 219.961 68.0994 219.961 68.179V68.7227H218.609ZM216.872 68.7227V68.179C216.872 68.0994 216.889 68.0376 216.925 67.9934C216.96 67.9403 217.013 67.9094 217.084 67.9005L218.078 67.6884L218.224 68.7227H216.872ZM218.224 61.9998L218.078 63.0341L217.084 62.822C217.013 62.8043 216.96 62.7733 216.925 62.7291C216.889 62.6849 216.872 62.6231 216.872 62.5435V61.9998H218.224ZM228.88 68.7227V60.3026H225.791V59.2152H233.23V60.3026H230.167V68.7227H228.88ZM227.926 68.7227V68.179C227.926 68.0994 227.943 68.0376 227.979 67.9934C228.014 67.9403 228.067 67.9094 228.138 67.9005L229.132 67.6884L229.278 68.7227H227.926ZM229.769 68.7227L229.915 67.6884L230.909 67.9005C230.98 67.9094 231.033 67.9403 231.068 67.9934C231.104 68.0376 231.121 68.0994 231.121 68.179V68.7227H229.769ZM232.142 59.9711L233.23 60.3026V61.5092H232.62C232.549 61.5092 232.487 61.496 232.434 61.4694C232.39 61.4341 232.359 61.3766 232.341 61.2971L232.142 59.9711ZM226.878 59.9711L226.679 61.2971C226.67 61.3766 226.639 61.4341 226.586 61.4694C226.533 61.496 226.471 61.5092 226.401 61.5092H225.791V60.3026L226.878 59.9711ZM234.803 68.7227V61.9998H235.479C235.612 61.9998 235.704 62.0264 235.757 62.0794C235.81 62.1236 235.841 62.2076 235.85 62.3313L235.93 63.3789C236.16 62.9104 236.443 62.5435 236.778 62.2783C237.114 62.0131 237.512 61.8805 237.972 61.8805C238.157 61.8805 238.325 61.9026 238.476 61.9468C238.626 61.991 238.763 62.0485 238.887 62.1192L238.741 63.0076C238.732 63.0606 238.706 63.1004 238.661 63.1269C238.626 63.1535 238.582 63.1667 238.529 63.1667C238.467 63.1667 238.348 63.149 238.171 63.1137C237.994 63.0695 237.839 63.0474 237.707 63.0474C237.3 63.0474 236.955 63.1667 236.672 63.4054C236.398 63.6441 236.168 63.9888 235.983 64.4397V68.7227H234.803ZM235.585 68.7227L235.731 67.6884L236.725 67.9005C236.796 67.9094 236.849 67.9403 236.885 67.9934C236.92 68.0376 236.938 68.0994 236.938 68.179V68.7227H235.585ZM233.848 68.7227V68.179C233.848 68.0994 233.866 68.0376 233.901 67.9934C233.936 67.9403 233.989 67.9094 234.06 67.9005L235.055 67.6884L235.201 68.7227H233.848ZM235.201 61.9998L235.055 63.0341L234.06 62.822C233.989 62.8043 233.936 62.7733 233.901 62.7291C233.866 62.6849 233.848 62.6231 233.848 62.5435V61.9998H235.201ZM242.359 68.8287C241.873 68.8287 241.462 68.7227 241.126 68.5105C240.79 68.2895 240.534 67.9889 240.357 67.6088C240.189 67.2287 240.105 66.7867 240.105 66.2828V61.9998H241.285V66.2828C241.285 66.7955 241.4 67.1933 241.63 67.4762C241.869 67.7503 242.227 67.8873 242.704 67.8873C243.049 67.8873 243.371 67.8077 243.672 67.6486C243.981 67.4806 244.264 67.2508 244.521 66.9591V61.9998H245.701V68.7227H244.998C244.821 68.7227 244.715 68.6387 244.68 68.4707L244.587 67.7547C244.295 68.0729 243.968 68.3337 243.606 68.537C243.243 68.7315 242.828 68.8287 242.359 68.8287ZM245.303 68.7227L245.449 67.6884L246.443 67.9005C246.514 67.9094 246.567 67.9403 246.602 67.9934C246.638 68.0376 246.655 68.0994 246.655 68.179V68.7227H245.303ZM240.503 61.9998L240.357 63.0341L239.362 62.822C239.292 62.8043 239.239 62.7733 239.203 62.7291C239.168 62.6849 239.15 62.6231 239.15 62.5435V61.9998H240.503ZM244.918 61.9998L244.773 63.0341L243.778 62.822C243.707 62.8043 243.654 62.7733 243.619 62.7291C243.584 62.6849 243.566 62.6231 243.566 62.5435V61.9998H244.918ZM249.466 68.8287C249.148 68.8287 248.79 68.7934 248.392 68.7227C248.003 68.6519 247.667 68.5635 247.384 68.4575V67.4762L247.968 67.6088C248.083 67.6884 248.264 67.7724 248.511 67.8608C248.768 67.9403 249.064 67.9801 249.4 67.9801C249.904 67.9801 250.275 67.8784 250.514 67.6751C250.752 67.463 250.872 67.2066 250.872 66.906C250.872 66.6408 250.792 66.4375 250.633 66.2961C250.474 66.1546 250.262 66.0397 249.997 65.9513C249.731 65.8629 249.444 65.7701 249.135 65.6729C248.816 65.5668 248.525 65.443 248.259 65.3016C247.994 65.1601 247.782 64.9789 247.623 64.7579C247.464 64.5281 247.384 64.2408 247.384 63.896C247.384 63.4982 247.486 63.149 247.689 62.8485C247.901 62.5479 248.184 62.3137 248.538 62.1457C248.9 61.9777 249.307 61.8938 249.758 61.8938C250.014 61.8938 250.297 61.9247 250.606 61.9866C250.925 62.0485 251.269 62.1413 251.641 62.265V63.0606L250.938 62.9678C250.752 62.9148 250.562 62.8706 250.368 62.8352C250.182 62.7999 250.001 62.7822 249.824 62.7822C249.568 62.7822 249.338 62.822 249.135 62.9015C248.94 62.9811 248.785 63.0916 248.671 63.233C248.556 63.3745 248.498 63.538 248.498 63.7236C248.498 63.9712 248.591 64.1701 248.777 64.3203C248.971 64.4618 249.205 64.5767 249.479 64.6651C249.753 64.7535 250.014 64.8375 250.262 64.917C250.553 65.0054 250.827 65.1204 251.084 65.2618C251.349 65.4032 251.566 65.5889 251.734 65.8187C251.902 66.0486 251.986 66.3491 251.986 66.7204C251.986 67.1182 251.879 67.4762 251.667 67.7945C251.464 68.1127 251.172 68.3646 250.792 68.5503C250.421 68.7359 249.979 68.8287 249.466 68.8287ZM250.792 62.7822L251.641 62.9546V63.9888H251.203C251.115 63.9888 251.048 63.9712 251.004 63.9358C250.96 63.8916 250.934 63.8386 250.925 63.7767L250.792 62.7822ZM248.233 67.9138L247.384 67.7414V66.7071H247.822C247.919 66.7071 247.985 66.7292 248.021 66.7734C248.065 66.8088 248.091 66.8574 248.1 66.9193L248.233 67.9138ZM255.364 68.8287C254.834 68.8287 254.422 68.6829 254.131 68.3912C253.848 68.0906 253.706 67.6619 253.706 67.1049V62.9943H252.898C252.827 62.9943 252.765 62.9722 252.712 62.928C252.668 62.8838 252.646 62.8175 252.646 62.7291V62.265L253.746 62.1192L254.025 60.0506C254.042 59.9003 254.131 59.8252 254.29 59.8252H254.887V62.1324H256.809V62.9943H254.887V67.0254C254.887 67.3083 254.953 67.5204 255.085 67.6619C255.227 67.7945 255.408 67.8608 255.629 67.8608C255.726 67.8608 255.832 67.8342 255.947 67.7812C256.062 67.7282 256.168 67.6751 256.266 67.6221C256.363 67.569 256.434 67.5425 256.478 67.5425C256.54 67.5425 256.593 67.5779 256.637 67.6486L256.982 68.2188C256.778 68.4044 256.531 68.5547 256.239 68.6696C255.956 68.7757 255.664 68.8287 255.364 68.8287ZM264.116 68.8287C263.78 68.8287 263.435 68.7978 263.082 68.7359C262.737 68.6829 262.414 68.6166 262.114 68.537C261.822 68.4575 261.588 68.3867 261.411 68.3249V67.1447L262.432 67.3967C262.795 67.5293 263.1 67.6221 263.347 67.6751C263.603 67.7282 263.895 67.7547 264.222 67.7547C264.62 67.7547 264.96 67.684 265.243 67.5425C265.535 67.4011 265.76 67.2022 265.919 66.9458C266.079 66.6895 266.158 66.3977 266.158 66.0707C266.158 65.7613 266.092 65.5093 265.959 65.3148C265.827 65.1204 265.65 64.9657 265.429 64.8507C265.208 64.727 264.96 64.6253 264.686 64.5458C264.421 64.4574 264.147 64.3645 263.864 64.2673C263.502 64.1435 263.144 63.9888 262.79 63.8032C262.445 63.6176 262.162 63.37 261.941 63.0606C261.72 62.7424 261.61 62.3225 261.61 61.8009C261.61 61.2794 261.729 60.8153 261.968 60.4086C262.216 60.002 262.56 59.6838 263.002 59.4539C263.444 59.2241 263.966 59.1092 264.567 59.1092C264.947 59.1092 265.367 59.1578 265.827 59.255C266.295 59.3434 266.737 59.476 267.153 59.6528V60.6341L266.145 60.4352C265.862 60.3556 265.579 60.2937 265.296 60.2495C265.022 60.2053 264.779 60.1832 264.567 60.1832C264.028 60.1832 263.599 60.3202 263.281 60.5943C262.963 60.8595 262.803 61.2042 262.803 61.6286C262.803 61.9998 262.914 62.2871 263.135 62.4905C263.365 62.6938 263.652 62.8573 263.997 62.9811C264.35 63.1048 264.713 63.233 265.084 63.3656C265.5 63.5071 265.88 63.675 266.224 63.8695C266.569 64.064 266.843 64.3203 267.047 64.6386C267.259 64.948 267.365 65.3635 267.365 65.885C267.365 66.4419 267.232 66.9458 266.967 67.3967C266.711 67.8387 266.339 68.1878 265.853 68.4442C265.376 68.7006 264.797 68.8287 264.116 68.8287ZM266.065 60.3026L267.153 60.6341V61.8407H266.543C266.472 61.8407 266.41 61.8275 266.357 61.8009C266.313 61.7656 266.282 61.7081 266.264 61.6286L266.065 60.3026ZM262.498 67.4762L261.411 67.1447V65.9381H262.021C262.092 65.9381 262.154 65.9557 262.207 65.9911C262.26 66.0176 262.291 66.0707 262.3 66.1502L262.498 67.4762ZM269.286 68.7227V61.9998H270.467V68.7227H269.286ZM268.332 68.7227V68.179C268.332 68.0994 268.349 68.0376 268.385 67.9934C268.42 67.9403 268.473 67.9094 268.544 67.9005L269.538 67.6884L269.684 68.7227H268.332ZM270.069 68.7227L270.215 67.6884L271.209 67.9005C271.28 67.9094 271.333 67.9403 271.368 67.9934C271.404 68.0376 271.421 68.0994 271.421 68.179V68.7227H270.069ZM269.684 61.9998L269.538 63.0341L268.544 62.822C268.473 62.8043 268.42 62.7733 268.385 62.7291C268.349 62.6849 268.332 62.6231 268.332 62.5435V61.9998H269.684ZM269.857 60.7269C269.636 60.7269 269.441 60.6429 269.273 60.4749C269.105 60.307 269.021 60.1125 269.021 59.8915C269.021 59.6617 269.105 59.4628 269.273 59.2948C269.441 59.1268 269.636 59.0429 269.857 59.0429C270.087 59.0429 270.285 59.1268 270.453 59.2948C270.621 59.4628 270.705 59.6617 270.705 59.8915C270.705 60.1125 270.621 60.307 270.453 60.4749C270.285 60.6429 270.087 60.7269 269.857 60.7269ZM272.925 68.7227V61.9998H273.628C273.805 61.9998 273.911 62.0838 273.946 62.2518L274.039 62.9811C274.331 62.654 274.658 62.3932 275.02 62.1987C275.383 61.9954 275.798 61.8938 276.267 61.8938C276.762 61.8938 277.173 61.9998 277.5 62.212C277.836 62.4242 278.088 62.7247 278.256 63.1137C278.433 63.4938 278.521 63.9358 278.521 64.4397V68.7227H277.341V64.4397C277.341 63.9358 277.221 63.5424 276.983 63.2595C276.753 62.9767 276.399 62.8352 275.922 62.8352C275.577 62.8352 275.25 62.9192 274.941 63.0872C274.64 63.2551 274.362 63.485 274.105 63.7767V68.7227H272.925ZM271.971 68.7227V68.179C271.971 68.0994 271.988 68.0376 272.024 67.9934C272.059 67.9403 272.112 67.9094 272.183 67.9005L273.177 67.6884L273.323 68.7227H271.971ZM273.708 68.7227L273.853 67.6884L274.848 67.9005C274.919 67.9094 274.972 67.9403 275.007 67.9934C275.042 68.0376 275.06 68.0994 275.06 68.179V68.7227H273.708ZM278.123 68.7227L278.269 67.6884L279.264 67.9005C279.334 67.9094 279.387 67.9403 279.423 67.9934C279.458 68.0376 279.476 68.0994 279.476 68.179V68.7227H278.123ZM273.323 61.9998L273.177 63.0341L272.183 62.822C272.112 62.8043 272.059 62.7733 272.024 62.7291C271.988 62.6849 271.971 62.6231 271.971 62.5435V61.9998H273.323ZM283.075 68.8155C282.491 68.8155 281.974 68.674 281.523 68.3912C281.081 68.0994 280.732 67.6928 280.476 67.1712C280.228 66.6497 280.104 66.0441 280.104 65.3546C280.104 64.6828 280.224 64.0861 280.463 63.5645C280.701 63.043 281.055 62.6363 281.523 62.3446C281.992 62.044 282.575 61.8938 283.274 61.8938C283.548 61.8938 283.866 61.9424 284.228 62.0396C284.591 62.128 284.936 62.2385 285.263 62.3711V63.0872L284.573 63.0474C284.396 62.9855 284.206 62.9325 284.003 62.8883C283.808 62.8441 283.587 62.822 283.34 62.822C282.889 62.822 282.513 62.928 282.213 63.1402C281.921 63.3435 281.7 63.6352 281.55 64.0154C281.4 64.3955 281.324 64.8419 281.324 65.3546C281.324 66.1237 281.492 66.7425 281.828 67.211C282.164 67.6707 282.646 67.9005 283.274 67.9005C283.618 67.9005 283.901 67.8475 284.122 67.7414C284.343 67.6265 284.524 67.516 284.666 67.4099C284.807 67.295 284.918 67.2375 284.997 67.2375C285.042 67.2375 285.081 67.2464 285.117 67.2641C285.161 67.2817 285.196 67.3083 285.223 67.3436L285.554 67.7812C285.263 68.1348 284.9 68.3956 284.467 68.5635C284.034 68.7315 283.57 68.8155 283.075 68.8155ZM284.414 62.9148L285.263 63.0872V64.1214H284.825C284.737 64.1214 284.67 64.1038 284.626 64.0684C284.582 64.0242 284.555 63.9712 284.547 63.9093L284.414 62.9148ZM289.581 68.8155C288.936 68.8155 288.37 68.6696 287.884 68.3779C287.406 68.0862 287.035 67.6707 286.77 67.1315C286.505 66.5922 286.372 65.9557 286.372 65.222C286.372 64.5944 286.5 64.0286 286.756 63.5247C287.013 63.0209 287.375 62.6231 287.844 62.3313C288.321 62.0396 288.878 61.8938 289.515 61.8938C290.071 61.8938 290.558 62.0175 290.973 62.265C291.389 62.5126 291.711 62.8617 291.941 63.3126C292.18 63.7546 292.299 64.285 292.299 64.9038C292.299 65.0894 292.277 65.2132 292.233 65.2751C292.197 65.3369 292.122 65.3679 292.007 65.3679H287.539C287.539 65.3944 287.539 65.4253 287.539 65.4607C287.539 65.4872 287.539 65.5137 287.539 65.5403C287.583 66.2828 287.791 66.8618 288.162 67.2773C288.533 67.684 289.037 67.8873 289.674 67.8873C289.948 67.8873 290.217 67.8342 290.483 67.7282C290.757 67.6132 290.995 67.5027 291.199 67.3967C291.411 67.2906 291.561 67.2375 291.649 67.2375C291.747 67.2375 291.822 67.2729 291.875 67.3436L292.206 67.7812C292.03 68.011 291.791 68.2055 291.49 68.3646C291.199 68.5149 290.885 68.6298 290.549 68.7094C290.213 68.7801 289.89 68.8155 289.581 68.8155ZM287.579 64.6253H291.238C291.238 64.0772 291.088 63.6308 290.787 63.2861C290.487 62.9413 290.071 62.7689 289.541 62.7689C288.966 62.7689 288.516 62.9325 288.189 63.2595C287.861 63.5866 287.658 64.0419 287.579 64.6253ZM297.9 68.7227V68.179C297.9 68.0376 297.975 67.958 298.126 67.9403L299.942 67.821V61.3368C299.942 61.2396 299.942 61.1424 299.942 61.0451C299.942 60.9479 299.947 60.8506 299.956 60.7534L298.258 62.1987C298.214 62.2341 298.17 62.2606 298.126 62.2783C298.082 62.296 298.042 62.3048 298.006 62.3048C297.936 62.3048 297.874 62.2916 297.821 62.265C297.768 62.2297 297.728 62.1943 297.701 62.159L297.33 61.6418L300.155 59.202H301.123V67.821L302.767 67.9403C302.917 67.958 302.992 68.0376 302.992 68.179V68.7227H297.9ZM308.025 68.8287C307.407 68.8287 306.854 68.7182 306.368 68.4972C305.882 68.2762 305.502 67.9668 305.228 67.569C304.954 67.1624 304.817 66.6806 304.817 66.1237C304.817 65.7171 304.887 65.359 305.029 65.0496C305.17 64.7314 305.378 64.4662 305.652 64.254C305.935 64.033 306.271 63.8695 306.66 63.7634C306.165 63.5778 305.789 63.3037 305.533 62.9413C305.276 62.57 305.148 62.128 305.148 61.6153C305.148 61.1291 305.272 60.7004 305.519 60.3291C305.767 59.949 306.107 59.6528 306.54 59.4407C306.974 59.2197 307.469 59.1092 308.025 59.1092C308.582 59.1092 309.073 59.2197 309.497 59.4407C309.931 59.6528 310.271 59.949 310.518 60.3291C310.766 60.7004 310.89 61.1291 310.89 61.6153C310.89 62.128 310.761 62.57 310.505 62.9413C310.249 63.3037 309.873 63.5778 309.378 63.7634C309.97 63.9314 310.426 64.2143 310.744 64.6121C311.062 65.0099 311.221 65.5137 311.221 66.1237C311.221 66.6806 311.084 67.1624 310.81 67.569C310.536 67.9668 310.156 68.2762 309.67 68.4972C309.192 68.7182 308.644 68.8287 308.025 68.8287ZM308.025 67.8873C308.432 67.8873 308.781 67.8121 309.073 67.6619C309.374 67.5116 309.603 67.3038 309.763 67.0386C309.922 66.7646 310.001 66.4508 310.001 66.0972C310.001 65.6817 309.913 65.3414 309.736 65.0762C309.559 64.8021 309.321 64.5988 309.02 64.4662C308.728 64.3336 308.397 64.2673 308.025 64.2673C307.654 64.2673 307.318 64.3336 307.018 64.4662C306.717 64.5988 306.478 64.8021 306.302 65.0762C306.125 65.3414 306.036 65.6817 306.036 66.0972C306.036 66.4596 306.116 66.7779 306.275 67.0519C306.443 67.3171 306.677 67.5248 306.978 67.6751C307.279 67.8166 307.628 67.8873 308.025 67.8873ZM308.025 63.3258C308.414 63.3258 308.733 63.2507 308.98 63.1004C309.237 62.9501 309.427 62.7468 309.55 62.4905C309.674 62.2253 309.736 61.938 309.736 61.6286C309.736 61.16 309.586 60.7755 309.285 60.4749C308.993 60.1744 308.574 60.0241 308.025 60.0241C307.486 60.0241 307.062 60.1744 306.753 60.4749C306.452 60.7755 306.302 61.16 306.302 61.6286C306.302 61.9468 306.364 62.2341 306.487 62.4905C306.611 62.7468 306.797 62.9501 307.044 63.1004C307.301 63.2507 307.628 63.3258 308.025 63.3258ZM313.449 68.7227L316.34 64.9303C316.437 64.8065 316.526 64.6872 316.605 64.5723C316.694 64.4574 316.777 64.3424 316.857 64.2275C316.61 64.422 316.331 64.5723 316.022 64.6784C315.721 64.7756 315.403 64.8242 315.067 64.8242C314.581 64.8242 314.134 64.7137 313.728 64.4927C313.321 64.2717 312.998 63.9579 312.76 63.5513C312.521 63.1358 312.402 62.6496 312.402 62.0927C312.402 61.5269 312.539 61.023 312.813 60.581C313.087 60.1302 313.458 59.7722 313.927 59.507C314.404 59.2418 314.943 59.1092 315.544 59.1092C316.163 59.1092 316.698 59.2418 317.149 59.507C317.6 59.7633 317.949 60.1213 318.196 60.581C318.444 61.0407 318.568 61.5755 318.568 62.1855C318.568 62.7336 318.466 63.233 318.263 63.6839C318.068 64.1347 317.803 64.6076 317.467 65.1027L315.147 68.4442C315.093 68.5238 315.014 68.5901 314.908 68.6431C314.802 68.6961 314.678 68.7227 314.537 68.7227H313.449ZM315.451 63.9093C315.858 63.9093 316.207 63.8253 316.499 63.6573C316.8 63.4894 317.029 63.264 317.189 62.9811C317.357 62.6982 317.44 62.3844 317.44 62.0396C317.44 61.6418 317.357 61.3015 317.189 61.0186C317.029 60.7269 316.804 60.5015 316.512 60.3423C316.229 60.1832 315.902 60.1037 315.531 60.1037C315.142 60.1037 314.802 60.1876 314.51 60.3556C314.218 60.5147 313.988 60.7357 313.821 61.0186C313.661 61.3015 313.582 61.633 313.582 62.0131C313.582 62.4109 313.657 62.7512 313.807 63.0341C313.966 63.317 314.183 63.5336 314.457 63.6839C314.74 63.8341 315.071 63.9093 315.451 63.9093ZM326.402 63.9756C326.402 64.8065 326.314 65.527 326.137 66.137C325.96 66.7381 325.717 67.2375 325.407 67.6353C325.098 68.0331 324.731 68.3337 324.307 68.537C323.883 68.7315 323.432 68.8287 322.954 68.8287C322.468 68.8287 322.013 68.7315 321.589 68.537C321.173 68.3337 320.811 68.0331 320.501 67.6353C320.192 67.2375 319.949 66.7381 319.772 66.137C319.595 65.527 319.507 64.8065 319.507 63.9756C319.507 63.1446 319.595 62.4242 319.772 61.8142C319.949 61.2042 320.192 60.6959 320.501 60.2893C320.811 59.8915 321.173 59.5954 321.589 59.4009C322.013 59.2064 322.468 59.1092 322.954 59.1092C323.432 59.1092 323.883 59.2064 324.307 59.4009C324.731 59.5954 325.098 59.8915 325.407 60.2893C325.717 60.6959 325.96 61.2042 326.137 61.8142C326.314 62.4242 326.402 63.1446 326.402 63.9756ZM325.182 63.9756C325.182 63.2507 325.12 62.6407 324.996 62.1457C324.873 61.6507 324.709 61.2529 324.506 60.9523C324.302 60.6517 324.064 60.4396 323.79 60.3158C323.525 60.1832 323.246 60.1169 322.954 60.1169C322.663 60.1169 322.38 60.1832 322.106 60.3158C321.841 60.4396 321.606 60.6517 321.403 60.9523C321.2 61.2529 321.036 61.6507 320.912 62.1457C320.789 62.6407 320.727 63.2507 320.727 63.9756C320.727 64.7005 320.789 65.3104 320.912 65.8055C321.036 66.2917 321.2 66.685 321.403 66.9856C321.606 67.2862 321.841 67.5027 322.106 67.6353C322.38 67.7591 322.663 67.821 322.954 67.821C323.246 67.821 323.525 67.7591 323.79 67.6353C324.064 67.5027 324.302 67.2862 324.506 66.9856C324.709 66.685 324.873 66.2917 324.996 65.8055C325.12 65.3104 325.182 64.7005 325.182 63.9756Z" fill="#19212A"/>
</svg>
