<svg width="21" height="29" viewBox="0 0 21 29" fill="none" xmlns="http://www.w3.org/2000/svg">
<g id="fi_11167266" clip-path="url(#clip0_6615_324168)">
<g id="Group">
<path id="Vector" fill-rule="evenodd" clip-rule="evenodd" d="M10.5005 28.9981C14.5138 28.9981 17.787 28.0501 17.787 26.8866C17.787 25.7215 14.5138 24.7734 10.5005 24.7734C6.48712 24.7734 3.21387 25.7215 3.21387 26.8866C3.21387 28.0501 6.48706 28.9981 10.5005 28.9981Z" fill="#73C97C"/>
<path id="Vector_2" fill-rule="evenodd" clip-rule="evenodd" d="M2.98512 2.94392V2.94228C7.11895 -0.980761 13.8818 -0.980761 18.0156 2.94228C22.2786 6.98959 21.3621 12.9462 18.0156 17.2123L10.5004 26.7952L2.98512 17.2123C-0.506254 12.7622 -1.14872 6.86691 2.98512 2.94392Z" fill="#FD003A"/>
<path id="Vector_3" fill-rule="evenodd" clip-rule="evenodd" d="M10.5005 16.7199C14.4981 16.7199 17.761 13.6239 17.761 9.82676C17.761 6.03138 14.4983 2.93359 10.5005 2.93359C6.50108 2.93359 3.23999 6.03127 3.23999 9.82676C3.23999 13.6238 6.50096 16.7199 10.5005 16.7199Z" fill="#EAF6FF"/>
<path id="Vector_4" fill-rule="evenodd" clip-rule="evenodd" d="M14.5276 12.0662C14.5276 12.2589 14.503 12.4509 14.4542 12.638C14.0318 14.254 12.1063 15.0246 10.5003 15.0246C8.89246 15.0246 6.96845 14.254 6.54451 12.638C6.49575 12.4509 6.47113 12.2589 6.47119 12.0662V11.3155H8.05102V12.0662C8.05162 12.1366 8.06099 12.2067 8.07894 12.2751C8.17321 12.6364 8.4962 12.9247 8.82087 13.112C9.09622 13.2671 9.39634 13.3785 9.70943 13.4419V9.51219H8.10513V8.01229H9.70943V7.1488C9.42779 6.98532 9.21013 6.73895 9.08958 6.44719C8.96903 6.15543 8.95219 5.83426 9.04163 5.53258C9.13108 5.2309 9.3219 4.96522 9.58505 4.776C9.8482 4.58678 10.1693 4.48438 10.4994 4.48438C10.8295 4.48438 11.1505 4.58678 11.4137 4.776C11.6768 4.96522 11.8677 5.2309 11.9571 5.53258C12.0466 5.83426 12.0297 6.15543 11.9092 6.44719C11.7886 6.73895 11.571 6.98532 11.2893 7.1488V8.01229H12.8953V9.51219H11.2893V13.4419C11.603 13.3785 11.9036 13.2671 12.1796 13.112C12.5025 12.9247 12.8255 12.6363 12.9215 12.2751C12.939 12.2067 12.9477 12.1366 12.9477 12.0662V11.3155H14.5276V12.0662Z" fill="#0083B6"/>
</g>
<path id="Vector_5" d="M10.4951 6.31877C10.4381 6.31941 10.3815 6.30929 10.3286 6.289C10.2757 6.26871 10.2275 6.23866 10.1869 6.20058C10.1464 6.16251 10.1141 6.11716 10.0921 6.06718C10.0702 6.0172 10.0588 5.96357 10.0588 5.9094C10.0588 5.85523 10.0702 5.8016 10.0921 5.75162C10.1141 5.70163 10.1464 5.65629 10.1869 5.61821C10.2275 5.58014 10.2757 5.55008 10.3286 5.5298C10.3815 5.50951 10.4381 5.49939 10.4951 5.50003H10.5056C10.5626 5.49939 10.6192 5.50951 10.6721 5.5298C10.725 5.55008 10.7732 5.58014 10.8138 5.61821C10.8543 5.65629 10.8866 5.70163 10.9085 5.75162C10.9305 5.8016 10.9419 5.85523 10.9419 5.9094C10.9419 5.96357 10.9305 6.0172 10.9085 6.06718C10.8866 6.11716 10.8543 6.16251 10.8138 6.20058C10.7732 6.23866 10.725 6.26871 10.6721 6.289C10.6192 6.30929 10.5626 6.31941 10.5056 6.31877H10.4951Z" fill="#EAF6FF"/>
<path id="Vector_6" fill-rule="evenodd" clip-rule="evenodd" d="M9.8999 2.95682C11.7153 3.10003 13.4076 3.88585 14.6412 5.15838C15.8748 6.43092 16.5595 8.09719 16.5595 9.82664C16.5595 11.5561 15.8748 13.2224 14.6412 14.4949C13.4076 15.7674 11.7153 16.5533 9.8999 16.6965C10.0971 16.7114 10.2979 16.7196 10.5004 16.7196C12.4179 16.708 14.2527 15.9766 15.6043 14.6852C16.9558 13.3937 17.7144 11.6471 17.7144 9.82662C17.7144 8.00609 16.9558 6.25949 15.6043 4.96806C14.2527 3.67663 12.4179 2.94526 10.5004 2.93359C10.2979 2.93359 10.0971 2.94192 9.8999 2.95682Z" fill="#D3DDE6"/>
<path id="Vector_7" fill-rule="evenodd" clip-rule="evenodd" d="M4.95076 17.2109C1.45939 12.7609 0.816984 6.86554 4.95076 2.94091C6.70323 1.27757 9.01512 0.251089 11.4832 0.0405108C9.92911 -0.0984404 8.36187 0.0895739 6.89304 0.59117C5.42421 1.09277 4.08991 1.89561 2.98512 2.94255C-1.14872 6.86554 -0.506254 12.7609 2.98512 17.2109L8.95192 24.8199L10.5004 26.7939L11.4832 25.5392L10.8844 24.7752L4.95076 17.2109Z" fill="#E40034"/>
</g>
<defs>
<clipPath id="clip0_6615_324168">
<rect width="21" height="29" fill="white"/>
</clipPath>
</defs>
</svg>
