<svg width="24" height="24" viewBox="0 0 24 24" fill="none" xmlns="http://www.w3.org/2000/svg">
<rect width="24" height="24" fill="#2E2E2E"/>
<g id="Frame 1000005826">
<rect width="241" height="264" transform="translate(-24 -220)" fill="white"/>
<g id="Component 49">
<rect x="-8" y="-4" width="209" height="32" rx="4" fill="white"/>
<g id="Icon">
<g id="Icon/Computer and Electronics/printer">
<g id="vuesax/bold/printer">
<g id="printer">
<path id="Vector" d="M7 5C7 3.34 8.34 2 10 2H14C15.66 2 17 3.34 17 5C17 5.55 16.55 6 16 6H8C7.45 6 7 5.55 7 5Z" fill="#828A91"/>
<path id="Vector_2" d="M17.75 15C17.75 15.41 17.41 15.75 17 15.75H16V19C16 20.66 14.66 22 13 22H11C9.34 22 8 20.66 8 19V15.75H7C6.59 15.75 6.25 15.41 6.25 15C6.25 14.59 6.59 14.25 7 14.25H17C17.41 14.25 17.75 14.59 17.75 15Z" fill="#828A91"/>
<path id="Vector_3" d="M18 7H6C4 7 3 8 3 10V15C3 17 4 18 6 18H6.375C6.72018 18 7 17.7202 7 17.375C7 17.0298 6.71131 16.7604 6.38841 16.6384C5.72619 16.3882 5.25 15.7453 5.25 15C5.25 14.04 6.04 13.25 7 13.25H17C17.96 13.25 18.75 14.04 18.75 15C18.75 15.7453 18.2738 16.3882 17.6116 16.6384C17.2887 16.7604 17 17.0298 17 17.375C17 17.7202 17.2798 18 17.625 18H18C20 18 21 17 21 15V10C21 8 20 7 18 7ZM10 11.75H7C6.59 11.75 6.25 11.41 6.25 11C6.25 10.59 6.59 10.25 7 10.25H10C10.41 10.25 10.75 10.59 10.75 11C10.75 11.41 10.41 11.75 10 11.75Z" fill="#828A91"/>
</g>
</g>
</g>
</g>
</g>
</g>
<g id="Vessel Operations Port / shipping module">
<path d="M552 -98C552 -99.1045 552.895 -100 554 -100H29468C29469.1 -100 29470 -99.1046 29470 -98V5437C29470 5438.1 29469.1 5439 29468 5439H553.999C552.895 5439 552 5438.1 552 5437V-98Z" fill="#444444"/>
<path d="M554 -99H29468V-101H554V-99ZM29469 -98V5437H29471V-98H29469ZM29468 5438H553.999V5440H29468V5438ZM553 5437V-98H551V5437H553ZM553.999 5438C553.448 5438 553 5437.55 553 5437H551C551 5438.66 552.342 5440 553.999 5440V5438ZM29469 5437C29469 5437.55 29468.6 5438 29468 5438V5440C29469.7 5440 29471 5438.66 29471 5437H29469ZM29468 -99C29468.6 -99 29469 -98.5527 29469 -98H29471C29471 -99.6565 29469.7 -101 29468 -101V-99ZM554 -101C552.343 -101 551 -99.6568 551 -98H553C553 -98.5523 553.448 -99 554 -99V-101Z" fill="white" fill-opacity="0.1"/>
</g>
</svg>
