<svg width="19" height="18" viewBox="0 0 19 18" fill="none" xmlns="http://www.w3.org/2000/svg">
<g clip-path="url(#clip0_6615_323959)">
<path d="M17.314 4.875H12.814M5.31396 4.875H2.31396M17.314 13.125H14.314M6.81396 13.125H2.31396M8.31396 7.5C8.65868 7.5 9.00003 7.4321 9.31851 7.30018C9.63699 7.16827 9.92637 6.97491 10.1701 6.73116C10.4139 6.4874 10.6072 6.19802 10.7391 5.87954C10.8711 5.56106 10.939 5.21972 10.939 4.875C10.939 4.53028 10.8711 4.18894 10.7391 3.87046C10.6072 3.55198 10.4139 3.2626 10.1701 3.01884C9.92637 2.77509 9.63699 2.58173 9.31851 2.44982C9.00003 2.3179 8.65868 2.25 8.31396 2.25C7.61777 2.25 6.95009 2.52656 6.45781 3.01884C5.96553 3.51113 5.68896 4.17881 5.68896 4.875C5.68896 5.57119 5.96553 6.23887 6.45781 6.73116C6.95009 7.22344 7.61777 7.5 8.31396 7.5ZM11.314 15.75C12.0102 15.75 12.6778 15.4734 13.1701 14.9812C13.6624 14.4889 13.939 13.8212 13.939 13.125C13.939 12.4288 13.6624 11.7611 13.1701 11.2688C12.6778 10.7766 12.0102 10.5 11.314 10.5C10.6178 10.5 9.95009 10.7766 9.45781 11.2688C8.96553 11.7611 8.68896 12.4288 8.68896 13.125C8.68896 13.8212 8.96553 14.4889 9.45781 14.9812C9.95009 15.4734 10.6178 15.75 11.314 15.75Z" stroke="#363A44" stroke-width="1.5" stroke-miterlimit="10" stroke-linecap="round" stroke-linejoin="round"/>
</g>
<defs>
<clipPath id="clip0_6615_323959">
<rect width="18" height="18" fill="white" transform="translate(0.813965)"/>
</clipPath>
</defs>
</svg>
