<svg width="661" height="496" viewBox="0 0 661 496" fill="none" xmlns="http://www.w3.org/2000/svg">
<path d="M149.088 480.072C165.696 466.476 167.844 443.628 165.492 423.444C165.096 420.072 165.18 416.484 163.308 413.652C161.436 410.82 157.476 409.104 154.524 410.784C152.124 412.176 151.212 415.188 149.988 417.72C148.342 421.122 145.772 423.991 142.572 426C140.484 427.296 137.844 428.196 135.588 427.2C132.504 425.832 131.832 421.836 131.58 418.476C131.1 412.212 130.628 405.944 130.164 399.672C130.085 396.294 129.461 392.951 128.316 389.772C126.996 386.676 124.416 383.904 121.116 383.28C117.816 382.656 113.916 384.816 113.532 388.164C113.517 389.568 113.597 390.971 113.772 392.364C113.84 393.06 113.704 393.761 113.38 394.382C113.056 395.002 112.558 395.514 111.948 395.856C110.628 396.36 109.188 395.52 108.084 394.656C104.292 391.56 101.544 387.384 98.964 383.22C96.384 379.056 93.852 374.82 90.36 371.34C86.868 367.86 82.212 365.34 77.316 365.46C72.42 365.58 67.464 369 66.624 373.86C65.784 378.72 68.964 383.28 72.324 386.856C77.3283 392.139 83.0672 396.673 89.364 400.32C90.5707 400.858 91.5751 401.766 92.232 402.912C93.156 405.096 91.188 407.496 89.016 408.42C86.544 409.464 83.76 409.428 81.132 409.956C78.504 410.484 75.72 411.876 74.916 414.432C73.812 418.032 77.016 421.344 80.064 423.468C86.2066 427.721 93.0278 430.898 100.236 432.864C102.816 433.56 105.516 434.136 107.676 435.708C109.836 437.28 111.276 440.196 110.28 442.668C109.284 445.14 106.188 446.148 103.524 445.884C100.86 445.62 98.4 444.408 95.82 443.688C91.02 442.332 85.02 443.148 82.308 447.384C81.506 448.828 81.0546 450.441 80.99 452.092C80.9254 453.742 81.2494 455.385 81.936 456.888C83.3328 459.876 85.3161 462.553 87.768 464.76C95.9359 472.963 106.129 478.858 117.312 481.848C128.472 484.668 138.612 484.848 149.088 480.072Z" fill="#EBEBEB"/>
<path d="M150.54 495.06C148.815 485.752 146.191 476.633 142.704 467.832C138.395 457.081 133.463 446.592 127.932 436.416L123.6 428.4C122.184 425.76 120.78 423.144 119.244 420.672C116.3 415.933 113.095 411.362 109.644 406.98C106.368 402.768 103.092 398.88 100.044 395.28C96.996 391.68 94.044 388.38 91.2 385.476C86.7746 380.885 81.9959 376.648 76.908 372.804C75.108 371.436 73.668 370.404 72.696 369.756L71.58 368.988C71.4525 368.901 71.3203 368.821 71.184 368.748C71.184 368.748 71.304 368.856 71.544 369.036L72.636 369.84C73.596 370.536 75.036 371.568 76.788 372.96C81.8178 376.855 86.5471 381.123 90.936 385.728C93.732 388.632 96.66 391.944 99.732 395.556C102.804 399.168 106.044 403.056 109.332 407.268C112.782 411.643 115.987 416.206 118.932 420.936C120.456 423.396 121.848 426 123.264 428.64L127.56 436.668C133.045 446.829 137.957 457.29 142.272 468C145.763 476.769 148.415 485.85 150.192 495.12" fill="#E0E0E0"/>
<path d="M119.148 420.612C119.261 420.132 119.325 419.641 119.34 419.148C119.436 418.212 119.532 416.832 119.628 415.14C119.832 411.756 119.952 407.076 120.072 401.94C120.192 396.804 120.384 392.1 120.66 388.74C120.78 387.048 120.912 385.692 121.008 384.744C121.078 384.259 121.11 383.77 121.104 383.28C120.956 383.749 120.855 384.231 120.804 384.72C120.648 385.656 120.468 387.024 120.3 388.704C119.928 392.088 119.676 396.768 119.556 401.904C119.436 407.04 119.352 411.66 119.28 415.104C119.22 416.724 119.184 418.08 119.148 419.112C119.1 419.611 119.1 420.113 119.148 420.612Z" fill="#E0E0E0"/>
<path d="M74.712 416.148H75.168H76.476C77.604 416.148 79.236 416.148 81.276 416.208C85.32 416.292 90.876 416.604 97.056 417.24C103.236 417.876 108.732 418.692 112.716 419.4C114.708 419.748 116.316 420.06 117.432 420.276L118.704 420.528C119.004 420.528 119.16 420.6 119.16 420.528C119.025 420.456 118.879 420.408 118.728 420.384L117.468 420.036C116.376 419.76 114.768 419.388 112.776 419.004C108.804 418.2 103.26 417.324 97.104 416.676C90.948 416.028 85.344 415.788 81.276 415.8C79.248 415.8 77.676 415.8 76.476 415.908L75.18 415.992C75.0167 416.019 74.8588 416.072 74.712 416.148Z" fill="#E0E0E0"/>
<path d="M142.152 467.064C142.246 466.882 142.327 466.694 142.392 466.5C142.56 466.08 142.752 465.54 143.004 464.88C143.532 463.464 144.204 461.388 145.092 458.88C146.784 453.756 148.908 446.604 151.164 438.672C153.42 430.74 155.472 423.588 157.08 418.44C157.884 415.92 158.532 413.856 159.012 412.344C159.228 411.672 159.396 411.144 159.528 410.688C159.602 410.498 159.654 410.301 159.684 410.1C159.577 410.273 159.492 410.458 159.432 410.652C159.276 411.084 159.072 411.624 158.82 412.284C158.292 413.7 157.62 415.764 156.744 418.284C155.04 423.408 152.916 430.56 150.672 438.492C148.428 446.424 146.4 453.6 144.744 458.724C143.952 461.244 143.292 463.308 142.824 464.808C142.608 465.492 142.44 466.008 142.296 466.476C142.229 466.667 142.181 466.864 142.152 467.064Z" fill="#E0E0E0"/>
<path d="M82.464 453.348C82.6498 453.437 82.8481 453.498 83.052 453.528L84.792 453.936L91.2 455.4C96.6 456.6 104.04 458.436 112.26 460.452C120.48 462.468 127.932 464.22 133.356 465.372C136.068 465.948 138.264 466.392 139.788 466.668L141.54 466.98C141.745 467.027 141.954 467.055 142.164 467.064C141.973 466.977 141.771 466.916 141.564 466.884L139.824 466.476L133.428 465.012C128.028 463.812 120.588 461.976 112.38 459.96C104.172 457.944 96.708 456.192 91.284 455.04C88.572 454.464 86.376 454.02 84.852 453.744L83.088 453.42C82.8823 453.379 82.6736 453.355 82.464 453.348Z" fill="#E0E0E0"/>
<path d="M306.732 137.177L219.971 163.272L237.561 221.752L324.321 195.657L306.732 137.177Z" fill="white"/>
<path d="M324.336 195.6C324.336 195.6 324.204 195.228 323.988 194.532C323.772 193.836 323.448 192.78 323.028 191.436C322.2 188.724 320.976 184.752 319.428 179.688C316.332 169.524 311.904 154.944 306.504 137.196L306.816 137.364L220.08 163.56L220.296 163.164L237.864 221.652L237.504 221.46L300 202.8L317.892 197.508L322.692 196.104L323.892 195.744L324.324 195.636L323.94 195.768L322.74 196.152L318.036 197.592L300.252 203.028L237.66 222L237.384 222.084L237.3 221.808C231.936 203.988 225.96 184.176 219.684 163.332L219.6 163.032L219.888 162.948L306.66 136.908L306.9 136.836L306.972 137.076C312.288 154.92 316.644 169.572 319.692 179.784C321.18 184.848 322.356 188.808 323.148 191.532C323.544 192.852 323.832 193.872 324.048 194.592C324.264 195.312 324.336 195.6 324.336 195.6Z" fill="#E0E0E0"/>
<path d="M306.744 137.16C306.712 137.252 306.672 137.34 306.624 137.424L306.216 138.168C305.82 138.852 305.28 139.8 304.608 141L298.548 151.404L278.22 185.88L278.076 186.108L277.836 186.012L275.184 184.992L236.1 169.74L224.28 165.06L221.088 163.752L220.26 163.404C220.161 163.371 220.068 163.322 219.984 163.26C220.088 163.269 220.19 163.298 220.284 163.344L221.124 163.632L224.376 164.832L236.256 169.332L275.4 184.404L278.064 185.436L277.68 185.568C285.72 172.068 292.944 159.972 298.176 151.176L304.404 140.88C305.124 139.68 305.7 138.78 306.108 138.096L306.576 137.388C306.672 137.232 306.732 137.148 306.744 137.16Z" fill="#E0E0E0"/>
<path d="M559.2 370.8C559.2 370.8 553.572 365.232 542.604 379.14C536.854 386.18 531.574 393.592 526.8 401.328C526.8 401.328 524.064 404.16 522.264 401.592C520.464 399.024 518.604 392.4 514.596 392.736C510.588 393.072 508.284 397.2 507.744 403.788C507.204 410.376 505.512 424.788 505.344 426.084C505.176 427.38 504.144 429.072 502.596 427.524C501.048 425.976 493.26 412.8 487.2 416.856C481.14 420.912 482.676 439.56 482.808 441.588C482.94 443.616 482.388 444.384 481.38 444.672C480.372 444.96 478.152 440.28 475.764 436.62C473.376 432.96 469.98 429.108 466.692 431.76C463.404 434.412 459.912 447.456 468.216 471.42L472.788 482.22L484.488 483.888C509.772 485.916 521.532 479.28 523.272 475.428C525.012 471.576 520.452 469.248 516.3 467.856C512.148 466.464 507.06 465.456 507.096 464.436C507.132 463.416 507.72 462.672 509.724 462.288C511.728 461.904 530.124 458.688 532.524 451.836C534.924 444.984 520.224 440.688 518.34 439.608C516.456 438.528 517.848 437.052 519.048 436.584C520.248 436.116 533.784 430.848 540.036 428.688C546.288 426.528 549.732 423.384 549.024 419.28C548.316 415.176 541.464 415.188 538.524 414.072C535.584 412.956 537.648 409.62 537.648 409.62C543.97 403.077 549.851 396.121 555.252 388.8C565.968 374.688 558.984 370.572 558.984 370.572" fill="#EBEBEB"/>
<path d="M549.312 383.184C549.258 383.29 549.194 383.391 549.12 383.484L548.508 384.348C547.932 385.116 547.128 386.208 546.108 387.6C544.008 390.42 540.948 394.476 537.132 399.468C529.512 409.452 518.856 423.156 507.024 438.228L476.76 476.88L467.628 488.628L465.132 491.808L464.472 492.624C464.316 492.804 464.244 492.9 464.232 492.888C464.286 492.782 464.35 492.681 464.424 492.588L465.036 491.736L467.436 488.472C469.524 485.652 472.596 481.596 476.4 476.604C484.02 466.62 494.688 452.916 506.532 437.844C518.376 422.772 529.02 409.116 536.784 399.192C540.612 394.26 543.732 390.264 545.916 387.456C546.972 386.1 547.812 385.056 548.4 384.264L549.072 383.448C549.216 383.268 549.3 383.172 549.312 383.184Z" fill="#E0E0E0"/>
<path d="M516.828 402.108C517.089 403.137 517.238 404.191 517.272 405.252C517.452 407.196 517.608 409.896 517.716 412.884C517.824 415.872 517.872 418.344 517.932 420.516C518.02 421.57 518.02 422.63 517.932 423.684C517.672 422.655 517.527 421.601 517.5 420.54C517.344 418.584 517.212 415.884 517.104 412.908C516.996 409.932 516.924 407.448 516.84 405.276C516.744 404.222 516.74 403.162 516.828 402.108Z" fill="#E0E0E0"/>
<path d="M518.94 424.104C523.046 423.441 527.184 422.988 531.336 422.748C538.188 422.184 543.768 421.86 543.78 422.028C539.673 422.684 535.536 423.133 531.384 423.372C524.532 423.948 518.964 424.272 518.94 424.104Z" fill="#E0E0E0"/>
<path d="M499.032 447.24C500.108 447.323 501.176 447.496 502.224 447.756C504.192 448.128 506.892 448.644 509.892 449.124C512.892 449.604 515.616 449.964 517.596 450.216C518.676 450.302 519.748 450.475 520.8 450.732C519.721 450.824 518.634 450.8 517.56 450.66C515.556 450.516 512.76 450.228 509.796 449.736C506.832 449.244 504.072 448.668 502.128 448.188C501.065 447.984 500.027 447.666 499.032 447.24Z" fill="#E0E0E0"/>
<path d="M492.744 427.776C493.242 428.646 493.644 429.567 493.944 430.524C494.58 432.264 495.432 434.664 496.344 437.328C497.256 439.992 498.024 442.416 498.564 444.192C498.902 445.131 499.151 446.099 499.308 447.084C498.802 446.214 498.4 445.287 498.108 444.324C497.46 442.596 496.62 440.196 495.708 437.532C494.796 434.868 494.028 432.432 493.488 430.668C493.136 429.734 492.886 428.764 492.744 427.776Z" fill="#E0E0E0"/>
<path d="M472.572 445.968C473.15 447.109 473.639 448.292 474.036 449.508C474.864 451.728 475.968 454.8 477.156 458.208C478.344 461.616 479.376 464.712 480.108 466.956C480.559 468.156 480.909 469.393 481.152 470.652C480.564 469.495 480.075 468.291 479.688 467.052C478.86 464.844 477.756 461.772 476.568 458.364C475.38 454.956 474.336 451.86 473.616 449.604C473.167 448.423 472.818 447.207 472.572 445.968Z" fill="#E0E0E0"/>
<path d="M481.116 470.004C482.483 470.082 483.842 470.259 485.184 470.532C487.68 470.928 491.184 471.468 494.964 471.972C498.744 472.476 502.26 472.86 504.768 473.172C506.134 473.262 507.493 473.442 508.836 473.712C507.468 473.795 506.095 473.763 504.732 473.616C502.2 473.448 498.732 473.136 494.88 472.62C491.028 472.104 487.584 471.504 485.1 471.012C483.747 470.785 482.414 470.448 481.116 470.004Z" fill="#E0E0E0"/>
<path d="M506.232 252.735L503.388 345.799L571.397 347.877L574.24 254.813L506.232 252.735Z" fill="#F5F5F5"/>
<path d="M493.711 265.106L490.868 358.171L558.876 360.249L561.72 267.184L493.711 265.106Z" fill="white"/>
<path d="M558.864 360.228C558.856 360.076 558.856 359.924 558.864 359.772C558.864 359.46 558.864 359.028 558.864 358.464C558.864 357.264 558.924 355.584 558.984 353.376C559.104 348.924 559.272 342.456 559.488 334.26C559.956 317.88 560.616 294.66 561.396 267.168L561.672 267.456L493.668 265.404L493.992 265.104C492.9 299.904 491.904 332.052 491.088 358.164L490.836 357.9L540.228 359.544L553.968 360.024L557.568 360.168L558.828 360.228H557.628L554.028 360.144L540.348 359.796L490.8 358.416H490.548V358.164C491.328 332.04 492.288 299.856 493.332 265.092V264.78H493.656L561.648 266.892H561.936V267.18C561.036 294.78 560.28 318.036 559.74 334.452C559.464 342.612 559.236 349.068 559.092 353.496C559.008 355.68 558.948 357.36 558.9 358.524C558.9 359.076 558.9 359.508 558.84 359.808C558.78 360.108 558.864 360.228 558.864 360.228Z" fill="#E0E0E0"/>
<path d="M535.2 286.632C535.2 286.812 527.796 286.716 518.676 286.44C509.556 286.164 502.152 285.792 502.152 285.624C502.152 285.456 509.568 285.54 518.688 285.816C527.808 286.092 535.2 286.464 535.2 286.632Z" fill="#E0E0E0"/>
<path d="M552.768 295.272C552.768 295.44 541.368 295.272 527.304 294.804C513.24 294.336 501.84 293.88 501.852 293.712C501.864 293.544 513.252 293.712 527.328 294.18C541.404 294.648 552.78 295.092 552.768 295.272Z" fill="#E0E0E0"/>
<path d="M552.516 303.708C552.516 303.876 541.104 303.708 527.04 303.24C512.976 302.772 501.588 302.316 501.588 302.148C501.588 301.98 513 302.148 527.064 302.616C541.128 303.084 552.516 303.528 552.516 303.708Z" fill="#E0E0E0"/>
<path d="M552.252 312.144C552.252 312.312 540.852 312.144 526.788 311.676C512.724 311.208 501.336 310.752 501.336 310.584C501.336 310.416 512.748 310.584 526.812 311.052C540.876 311.52 552.264 312 552.252 312.144Z" fill="#E0E0E0"/>
<path d="M552 320.58C552 320.748 540.588 320.58 526.536 320.112C512.484 319.644 501.072 319.188 501.072 319.02C501.072 318.852 512.484 319.02 526.548 319.488C540.612 319.956 552 320.4 552 320.58Z" fill="#E0E0E0"/>
<path d="M551.748 329.016C551.748 329.184 540.336 329.016 526.272 328.548C512.208 328.08 500.82 327.624 500.82 327.456C500.82 327.288 512.232 327.456 526.296 327.924C540.36 328.392 551.748 328.8 551.748 329.016Z" fill="#E0E0E0"/>
<path d="M551.484 337.452C551.484 337.62 540.072 337.452 526.02 336.984C511.968 336.516 500.556 336.06 500.568 335.892C500.58 335.724 511.968 335.892 526.032 336.36C540.096 336.828 551.496 337.272 551.484 337.452Z" fill="#E0E0E0"/>
<path d="M527.676 345.168C527.676 345.336 521.544 345.288 513.984 345.06C506.424 344.832 500.304 344.496 500.304 344.328C500.304 344.16 506.436 344.208 513.996 344.436C521.556 344.664 527.676 344.988 527.676 345.168Z" fill="#E0E0E0"/>
<path d="M359.675 203.239L338.395 256.686L405.243 283.302L426.523 229.854L359.675 203.239Z" fill="white"/>
<path d="M426.516 229.86L426.192 229.74L425.256 229.368L421.656 227.94L408 222.516L359.688 203.316H359.832C353.496 219.228 346.248 237.468 338.568 256.764L338.496 256.608L405.336 283.248H405.204C411.636 267.156 416.964 253.812 420.696 244.488L425.028 233.688L426.228 230.832C426.48 230.196 426.624 229.86 426.624 229.86C426.624 229.86 426.504 230.184 426.252 230.82C426 231.456 425.628 232.428 425.136 233.664C424.152 236.16 422.736 239.82 420.852 244.464L405.444 283.32V283.416H405.348L338.4 256.8H338.292V256.692C345.984 237.396 353.244 219.168 359.58 203.256V203.16H359.688L408 222.444L421.644 227.904L425.244 229.356L426.168 229.728L426.516 229.86Z" fill="#E0E0E0"/>
<path d="M360.594 207.569L341.995 254.283L404.15 279.029L422.749 232.316L360.594 207.569Z" fill="#EBEBEB"/>
<path d="M342.24 254.424L375.516 234.036L381.72 257.556L394.716 251.472L404.4 279.18L342.24 254.424Z" fill="#E0E0E0"/>
<path d="M396.084 238.104C395.7 239.072 395.037 239.905 394.179 240.497C393.321 241.088 392.307 241.412 391.265 241.428C390.224 241.443 389.201 241.149 388.326 240.583C387.451 240.017 386.764 239.204 386.351 238.248C385.938 237.291 385.818 236.233 386.006 235.209C386.195 234.184 386.683 233.238 387.408 232.49C388.134 231.743 389.065 231.227 390.084 231.009C391.103 230.791 392.164 230.879 393.132 231.264C394.43 231.78 395.471 232.79 396.025 234.073C396.578 235.355 396.6 236.805 396.084 238.104Z" fill="#E0E0E0"/>
<path d="M185.34 289.032C185.792 289.218 186.281 289.296 186.768 289.26C187.352 289.193 187.895 288.926 188.304 288.504C188.779 287.847 189.2 287.153 189.564 286.428L197.352 272.844L199.944 268.356L201.324 265.956C201.564 265.574 201.773 265.172 201.948 264.756C202.074 264.341 202.074 263.899 201.948 263.484C201.84 263.057 201.601 262.675 201.264 262.392C200.879 262.12 200.479 261.871 200.064 261.648L197.388 260.16L191.82 257.04L167.028 243.132C166.539 242.87 165.97 242.799 165.432 242.932C164.893 243.065 164.423 243.393 164.112 243.852L162.252 247.044C161.052 249.156 159.852 251.256 158.652 253.308L151.692 265.2C151.416 265.668 151.14 266.136 150.876 266.604C150.609 267.009 150.471 267.486 150.48 267.972C150.499 268.446 150.672 268.901 150.972 269.268C151.313 269.621 151.721 269.903 152.172 270.096L157.416 273.072L166.8 278.4L180.384 286.164L184.068 288.3L185.016 288.864C185.232 288.996 185.34 289.068 185.328 289.08L184.992 288.924L184.008 288.408L180.276 286.368L166.584 278.784L157.2 273.468L151.944 270.528C151.435 270.303 150.974 269.981 150.588 269.58C150.213 269.116 149.998 268.544 149.976 267.948C149.95 267.354 150.11 266.767 150.432 266.268C150.696 265.8 150.972 265.332 151.248 264.864L158.124 252.996L161.724 246.732L163.608 243.504C164.005 242.915 164.607 242.495 165.296 242.324C165.986 242.153 166.714 242.245 167.34 242.58L192.108 256.536L197.676 259.68L200.328 261.192C200.786 261.425 201.227 261.689 201.648 261.984C202.066 262.341 202.364 262.819 202.5 263.352C202.644 263.862 202.644 264.402 202.5 264.912C202.309 265.366 202.08 265.804 201.816 266.22L200.412 268.62L197.796 273.096C194.448 278.76 191.736 283.356 189.84 286.584C189.446 287.31 188.997 288.004 188.496 288.66C188.046 289.093 187.462 289.359 186.84 289.416C186.463 289.444 186.085 289.382 185.736 289.236C185.595 289.187 185.462 289.118 185.34 289.032Z" fill="#E0E0E0"/>
<path d="M179.004 264.432L182.028 269.796L175.788 269.916L169.548 270.024L172.764 264.54L175.98 259.056L179.004 264.432Z" fill="#E0E0E0"/>
<path d="M585.96 493.2C585.96 493.38 471.18 493.524 329.64 493.524C188.1 493.524 73.284 493.404 73.284 493.2C73.284 492.996 188.04 492.864 329.64 492.864C471.24 492.864 585.96 493.044 585.96 493.2Z" fill="#263238"/>
<path d="M200.172 416.988L163.944 380.592L182.16 347.136C200.376 323.808 238.944 325.308 238.944 325.308C257.971 324.015 277.086 325.188 295.812 328.8C326.448 334.8 323.976 355.032 323.976 355.032L328.08 430.116L332.484 491.256L219.504 493.536L200.172 417.036" fill="#E8505B"/>
<path d="M261.036 489.96L159.84 491.16C154.265 491.225 148.766 489.872 143.857 487.227C138.949 484.583 134.794 480.735 131.781 476.044C128.769 471.353 126.998 465.973 126.635 460.41C126.273 454.847 127.33 449.282 129.708 444.24L172.98 363.996L212.4 390.636L185.508 446.4L267.42 447.864L261.036 489.96Z" fill="#E8505B"/>
<path d="M320.4 342.792L401.604 468.168L354.228 471.264C354.228 471.264 325.932 426.684 326.568 427.596C327.696 429.276 320.4 342.792 320.4 342.792Z" fill="#E8505B"/>
<path d="M210.36 397.848C210.363 397.628 210.399 397.409 210.468 397.2C210.588 396.72 210.72 396.12 210.9 395.376C211.272 393.804 211.824 391.524 212.388 388.692C212.952 385.86 213.588 382.452 213.984 378.66C214.471 374.55 214.471 370.398 213.984 366.288C213.333 362.213 211.912 358.299 209.796 354.756C208.096 351.839 206.084 349.115 203.796 346.632C202.254 344.935 200.611 343.332 198.876 341.832C198.215 341.315 197.582 340.762 196.98 340.176C197.175 340.273 197.36 340.39 197.532 340.524C197.868 340.776 198.408 341.124 199.032 341.64C200.836 343.065 202.537 344.617 204.12 346.284C206.485 348.749 208.563 351.474 210.312 354.408C212.502 358.006 213.969 361.996 214.632 366.156C215.107 370.317 215.075 374.519 214.536 378.672C214.131 382.051 213.554 385.407 212.808 388.728C212.184 391.572 211.608 393.84 211.116 395.4C210.9 396.18 210.708 396.78 210.576 397.188C210.525 397.414 210.453 397.635 210.36 397.848Z" fill="#263238"/>
<path d="M207.096 402.168C206.923 402.793 206.69 403.4 206.4 403.98C205.92 405.18 205.2 406.788 204.276 408.78C202.44 412.848 199.836 418.44 196.836 424.56C193.836 430.68 191.004 436.164 188.904 440.16C187.848 442.128 186.984 443.76 186.372 444.804C186.08 445.385 185.743 445.943 185.364 446.472C185.58 445.86 185.844 445.266 186.156 444.696C186.768 443.496 187.56 441.888 188.556 439.956L196.32 424.356C199.26 418.272 201.936 412.776 203.928 408.66C204.864 406.728 205.632 405.12 206.232 403.86C206.472 403.273 206.761 402.707 207.096 402.168Z" fill="#263238"/>
<path d="M261.036 489.96C261.036 489.96 261.036 489.888 261.036 489.756C261.036 489.624 261.036 489.384 261.036 489.132C261.096 488.556 261.18 487.752 261.276 486.732C261.516 484.596 261.852 481.56 262.272 477.732C263.16 469.968 264.432 459.048 265.872 446.172L266.16 446.484H236.268L184.056 446.4L168.216 446.304L163.908 446.244H162.78H162.396C162.524 446.229 162.652 446.229 162.78 446.244H163.908L168.216 446.184L184.056 446.088L236.352 446.004H266.244H266.568V446.316C264.984 459.18 263.652 470.1 262.692 477.852C262.212 481.668 261.816 484.704 261.492 486.84C261.364 487.848 261.256 488.648 261.168 489.24L261.072 489.852C261.06 489.888 261.048 489.96 261.036 489.96Z" fill="#263238"/>
<path d="M186.216 447.288C185.491 446.487 184.818 445.642 184.2 444.756C180.966 440.696 176.961 437.315 172.416 434.808C171.445 434.338 170.5 433.817 169.584 433.248C170.649 433.498 171.672 433.902 172.62 434.448C177.354 436.787 181.448 440.242 184.548 444.516C185.229 445.359 185.791 446.291 186.216 447.288Z" fill="#263238"/>
<path d="M329.76 455.232C329.672 454.89 329.616 454.54 329.592 454.188C329.508 453.456 329.4 452.46 329.256 451.2C328.98 448.608 328.608 444.852 328.212 440.208C327.384 430.908 326.436 418.044 325.596 403.836C324.756 389.628 324.168 376.74 323.832 367.416C323.664 362.748 323.544 359.016 323.496 356.364C323.496 355.104 323.496 354.108 323.436 353.364C323.418 353.016 323.418 352.668 323.436 352.32C323.502 352.664 323.539 353.014 323.544 353.364C323.544 354.096 323.64 355.104 323.712 356.364C323.844 359.028 324.024 362.784 324.252 367.392C324.696 376.716 325.356 389.58 326.196 403.8C327.036 418.02 327.924 430.86 328.596 440.172C328.956 444.768 329.244 448.572 329.448 451.188C329.544 452.388 329.616 453.444 329.676 454.176C329.736 454.525 329.764 454.878 329.76 455.232Z" fill="#263238"/>
<path d="M239.424 387.012C239.429 386.462 239.473 385.912 239.556 385.368C239.7 384.228 239.88 382.704 240.108 380.832C240.636 376.872 241.308 371.448 242.196 365.16L242.652 365.448L234.888 370.884L226.992 376.38L226.428 376.776L226.524 376.092C227.484 369.864 228.3 364.488 228.924 360.492C229.236 358.656 229.476 357.144 229.668 356.016C229.732 355.475 229.845 354.941 230.004 354.42C230.005 354.967 229.957 355.513 229.86 356.052C229.716 357.18 229.536 358.692 229.296 360.552C228.756 364.488 228 369.876 227.136 376.152L226.68 375.864L234.564 370.344L242.34 364.932L242.904 364.536L242.808 365.22C241.884 371.484 241.08 376.908 240.504 380.82C240.204 382.68 239.964 384.204 239.784 385.332C239.714 385.902 239.594 386.464 239.424 387.012Z" fill="#E0E0E0"/>
<path d="M284.592 391.872C284.16 391.528 283.758 391.146 283.392 390.732C282.612 389.892 281.556 388.776 280.26 387.408L269.544 375.792L270.06 375.612C269.808 378.552 269.544 381.744 269.268 385.056C268.992 388.368 268.704 391.656 268.452 394.656L268.392 395.352L267.936 394.836L257.508 383.076L254.532 379.644C254.153 379.251 253.816 378.821 253.524 378.36C253.956 378.727 254.357 379.128 254.724 379.56L257.82 382.872L268.404 394.476L267.888 394.656C268.14 391.668 268.404 388.428 268.692 385.056C268.98 381.684 269.244 378.552 269.496 375.612L269.556 374.928L270.012 375.432L280.572 387.204L283.584 390.648C283.951 391.029 284.289 391.438 284.592 391.872Z" fill="#E0E0E0"/>
<path d="M307.32 390.264C307.096 390.77 306.823 391.252 306.504 391.704L304.104 395.568L295.536 408.864L295.248 408.408L304.56 406.8L314.04 405.204L314.724 405.084L314.4 405.6L305.64 418.632L303 422.4C302.707 422.861 302.378 423.299 302.016 423.708C302.253 423.217 302.526 422.743 302.832 422.292L305.232 418.452L313.812 405.252L314.112 405.708L304.632 407.352L295.284 408.936L294.6 409.044L294.984 408.48L303.732 395.28L306.3 391.5C306.615 391.068 306.956 390.655 307.32 390.264Z" fill="#E0E0E0"/>
<path d="M277.092 413.52C276.866 414.021 276.593 414.499 276.276 414.948L273.876 418.824L265.32 432.108L265.02 431.652L274.356 430.044L283.848 428.436L284.532 428.328L284.136 428.892L275.376 441.936L272.796 445.68C272.509 446.142 272.18 446.576 271.812 446.976C272.052 446.486 272.325 446.013 272.628 445.56C273.252 444.6 274.068 443.316 275.028 441.732L283.608 428.532L283.908 428.988L274.428 430.632L265.08 432.204L264.396 432.324L264.78 431.748L273.528 418.548C274.584 416.988 275.448 415.716 276.108 414.768C276.405 414.329 276.734 413.912 277.092 413.52Z" fill="#E0E0E0"/>
<path d="M342.408 390C342.17 390.495 341.897 390.972 341.592 391.428L339.192 395.304L330.636 408.588L330.336 408.132L339.672 406.524L349.164 404.916L349.848 404.808L349.464 405.372L340.692 418.416C339.636 419.952 338.772 421.212 338.112 422.148C337.828 422.615 337.498 423.054 337.128 423.456C337.37 422.965 337.647 422.492 337.956 422.04L340.356 418.212L348.936 405.012L349.236 405.468L339.756 407.1L330.408 408.684L329.736 408.804L330.108 408.228L338.856 395.028L341.436 391.248C341.719 390.801 342.044 390.383 342.408 390Z" fill="#E0E0E0"/>
<path d="M189.468 370.728C189.233 371.224 188.96 371.702 188.652 372.156L186.252 376.032L177.696 389.328L177.396 388.872L186.732 387.252L196.224 385.656L196.908 385.536L196.524 386.112L187.752 399.144L185.184 402.888C184.893 403.347 184.563 403.78 184.2 404.184C184.43 403.693 184.703 403.223 185.016 402.78L187.416 398.94C189.588 395.616 192.564 391.056 195.996 385.74L196.296 386.196L186.816 387.84L177.468 389.424L176.796 389.532L177.168 388.968C180.684 383.688 183.708 379.128 185.916 375.768L188.496 371.988C188.786 371.543 189.111 371.122 189.468 370.728Z" fill="#E0E0E0"/>
<path d="M142.02 460.464C142.424 460.829 142.794 461.231 143.124 461.664L146.052 465.18L156 477.456L155.472 477.6C155.904 474.684 156.36 471.516 156.852 468.216C157.344 464.916 157.824 461.664 158.268 458.7L158.364 458.016L158.796 458.568L168.468 470.952L171.216 474.552C171.565 474.969 171.878 475.414 172.152 475.884C171.758 475.512 171.393 475.111 171.06 474.684L168.18 471.18L158.4 458.928L158.928 458.796C158.496 461.76 158.028 464.976 157.536 468.312C157.044 471.648 156.576 474.768 156.132 477.684L156.036 478.368L155.604 477.828L145.812 465.42L143.016 461.82C142.654 461.391 142.321 460.938 142.02 460.464Z" fill="#E0E0E0"/>
<path d="M250.38 402.36C249.843 402.475 249.297 402.547 248.748 402.576L244.188 402.972L228.42 404.172L228.612 403.668L235.524 410.148L242.52 416.748L243.024 417.228H242.328L226.644 418.092L222.108 418.284C221.565 418.331 221.019 418.331 220.476 418.284C221.01 418.177 221.552 418.109 222.096 418.08L226.62 417.72L242.292 416.64L242.112 417.144L235.092 410.568L228.204 404.064L227.7 403.584H228.384L244.164 402.636L248.724 402.408C249.274 402.35 249.828 402.334 250.38 402.36Z" fill="#E0E0E0"/>
<path d="M223.788 462.84C224.188 463.216 224.565 463.617 224.916 464.04L227.904 467.496L238.116 479.568L237.588 479.712C237.96 476.784 238.368 473.616 238.788 470.316C239.208 467.016 239.64 463.74 239.988 460.776L240.084 460.08L240.516 460.62L250.452 472.8L253.272 476.4C253.622 476.818 253.942 477.259 254.232 477.72C253.827 477.352 253.454 476.95 253.116 476.52L250.164 473.076L240.084 461.076L240.6 460.92C240.228 463.896 239.82 467.112 239.4 470.46C238.98 473.808 238.56 476.94 238.2 479.868L238.104 480.552L237.672 480.024L227.628 467.808L224.772 464.208C224.4 463.785 224.07 463.327 223.788 462.84Z" fill="#E0E0E0"/>
<path d="M176.256 418.488C175.719 418.606 175.173 418.678 174.624 418.704L170.076 419.088L154.308 420.288L154.488 419.772L161.412 426.264L168.408 432.864L168.912 433.344H168.216L152.532 434.208L147.996 434.4C147.465 434.445 146.931 434.445 146.4 434.4C146.933 434.285 147.475 434.217 148.02 434.196L152.544 433.836L168.216 432.744L168.036 433.26L161.016 426.684L154.116 420.18L153.624 419.7H154.308L170.088 418.74L174.648 418.524C175.182 418.472 175.72 418.46 176.256 418.488Z" fill="#E0E0E0"/>
<path d="M217.092 461.484C216.555 461.598 216.009 461.666 215.46 461.688L210.9 462.084L195.132 463.284L195.324 462.768L202.236 469.26L209.232 475.86L209.736 476.34H209.052L193.356 477.192L188.82 477.396C188.277 477.443 187.731 477.443 187.188 477.396C187.721 477.281 188.263 477.213 188.808 477.192L193.332 476.832L209.004 475.74L208.824 476.256L201.804 469.68L194.916 463.2L194.412 462.732H195.096L210.876 461.772L215.448 461.556C215.993 461.482 216.543 461.458 217.092 461.484Z" fill="#E0E0E0"/>
<path d="M309.264 352.092C308.727 352.207 308.181 352.279 307.632 352.308L303.072 352.692L287.316 353.892L287.496 353.388L294.408 359.868L301.404 366.468L301.908 366.948H301.224L285.528 367.812L280.992 368.004C280.449 368.051 279.903 368.051 279.36 368.004C279.893 367.889 280.435 367.821 280.98 367.8L285.504 367.44L301.188 366.36L300.996 366.864L294 360.3L287.112 353.796L286.608 353.316H287.292L303.072 352.356L307.644 352.14C308.182 352.083 308.724 352.067 309.264 352.092Z" fill="#E0E0E0"/>
<path d="M264.432 461.484C264.432 461.484 284.616 455.664 291.3 453.96C293.904 453.3 305.052 459.18 312.756 464.076C312.756 464.076 323.364 470.364 322.512 472.296C321.564 474.432 317.712 474 311.412 471.096C311.412 471.096 313.596 477.42 309.312 477.276C309.312 477.276 311.436 484.116 307.428 484.824C303.42 485.532 302.484 476.808 298.956 476.34C295.428 475.872 288.156 475.392 288.156 475.392C288.156 475.392 282.072 485.472 277.356 486.192C272.64 486.912 261.756 485.628 261.756 485.628L264.432 461.484Z" fill="#FFBE9D"/>
<path d="M298.884 462.876C300.86 463.756 302.748 464.821 304.524 466.056C306.408 467.122 308.184 468.368 309.828 469.776C305.963 467.84 302.297 465.529 298.884 462.876Z" fill="#EB996E"/>
<path d="M297.696 466.8C300.001 467.526 302.241 468.445 304.392 469.548C306.615 470.451 308.758 471.539 310.8 472.8C308.493 472.082 306.253 471.167 304.104 470.064C301.877 469.165 299.733 468.073 297.696 466.8Z" fill="#EB996E"/>
<path d="M299.856 476.172C302.905 476.161 305.94 476.564 308.88 477.372C305.832 477.381 302.796 476.977 299.856 476.172Z" fill="#EB996E"/>
<path d="M238.164 253.2C238.402 253.978 238.405 254.808 238.174 255.588C237.942 256.367 237.487 257.061 236.863 257.583C236.24 258.106 235.477 258.433 234.669 258.524C233.861 258.615 233.044 258.466 232.32 258.096C229.584 256.716 229.236 252.936 229.776 249.924C230.316 246.912 231.336 243.684 230.076 240.888C229.104 238.752 227.004 237.396 225.372 235.716C223.932 234.256 222.85 232.482 222.211 230.533C221.571 228.584 221.392 226.514 221.688 224.484C222.034 222.46 222.932 220.572 224.283 219.026C225.634 217.48 227.385 216.338 229.344 215.724C233.364 214.608 238.32 215.844 241.344 212.928C243.516 210.816 243.648 207.372 245.328 204.852C247.932 200.94 253.44 200.316 258.096 200.952C262.752 201.588 267.48 203.088 272.04 201.948C275.844 201 278.964 198.348 282.54 196.716C286.437 194.934 290.794 194.415 295.001 195.232C299.208 196.048 303.054 198.158 306.003 201.268C308.951 204.378 310.854 208.331 311.445 212.576C312.037 216.82 311.286 221.143 309.3 224.94C307.976 227.719 305.722 229.947 302.928 231.24" fill="#263238"/>
<path d="M261.324 352.332C264.384 352.326 267.413 351.713 270.234 350.527C273.055 349.342 275.613 347.609 277.76 345.428C279.906 343.247 281.598 340.661 282.738 337.822C283.878 334.982 284.443 331.944 284.4 328.884L284.1 306.828C284.1 306.828 302.628 304.968 303.852 286.608C305.076 268.248 304.2 225.876 304.2 225.876C294.005 220.818 282.646 218.571 271.294 219.367C259.941 220.162 249.006 223.971 239.616 230.4L236.784 232.356L238.164 329.484C238.237 335.575 240.71 341.392 245.046 345.67C249.383 349.948 255.232 352.342 261.324 352.332Z" fill="#FFBE9D"/>
<path d="M299.352 259.2C298.682 259.123 298.064 258.802 297.615 258.299C297.166 257.795 296.918 257.144 296.918 256.47C296.918 255.796 297.166 255.145 297.615 254.641C298.064 254.138 298.682 253.817 299.352 253.74C299.498 253.704 299.65 253.704 299.796 253.74C300.466 253.817 301.084 254.138 301.533 254.641C301.982 255.145 302.23 255.796 302.23 256.47C302.23 257.144 301.982 257.795 301.533 258.299C301.084 258.802 300.466 259.123 299.796 259.2C299.649 259.224 299.499 259.224 299.352 259.2Z" fill="#263238"/>
<path d="M302.952 253.272C302.652 253.584 300.924 252.072 298.392 251.94C295.86 251.808 293.952 252.996 293.7 252.66C293.448 252.324 293.88 251.952 294.72 251.388C295.842 250.668 297.166 250.327 298.497 250.415C299.828 250.504 301.095 251.017 302.112 251.88C302.868 252.552 303.108 253.2 302.952 253.272Z" fill="#263238"/>
<path d="M273.684 253.896C274.119 254.197 274.456 254.621 274.65 255.114C274.844 255.606 274.888 256.145 274.776 256.663C274.664 257.18 274.401 257.653 274.02 258.021C273.639 258.389 273.158 258.635 272.636 258.729C272.115 258.824 271.578 258.761 271.093 258.55C270.607 258.338 270.195 257.988 269.909 257.542C269.623 257.097 269.475 256.576 269.485 256.047C269.495 255.517 269.662 255.003 269.964 254.568C270.369 253.986 270.988 253.589 271.685 253.463C272.382 253.337 273.101 253.493 273.684 253.896Z" fill="#263238"/>
<path d="M275.352 254.004C275.04 254.316 273.312 252.804 270.792 252.672C268.272 252.54 266.352 253.728 266.088 253.392C265.956 253.236 266.28 252.684 267.108 252.12C268.23 251.4 269.554 251.059 270.885 251.147C272.216 251.236 273.483 251.749 274.5 252.612C275.256 253.284 275.496 253.872 275.352 254.004Z" fill="#263238"/>
<path d="M284.4 275.436C284.4 275.244 285.972 275.004 288.54 274.788C289.2 274.788 289.74 274.632 289.8 274.284C289.848 273.622 289.72 272.96 289.428 272.364C288.864 270.648 288.3 268.92 287.7 267.108C285.3 259.632 283.728 253.476 284.1 253.356C284.472 253.236 286.704 259.2 289.068 266.676C289.62 268.5 290.16 270.276 290.676 271.956C291.057 272.83 291.133 273.806 290.892 274.728C290.785 274.977 290.62 275.197 290.412 275.37C290.203 275.543 289.956 275.665 289.692 275.724C289.318 275.807 288.934 275.836 288.552 275.808C285.96 275.76 284.4 275.64 284.4 275.436Z" fill="#263238"/>
<path d="M276 277.788C279.857 279.768 283.967 281.209 288.216 282.072C287.284 283.352 285.947 284.278 284.422 284.701C282.897 285.124 281.273 285.017 279.816 284.4C274.404 282.084 276 277.788 276 277.788Z" fill="white"/>
<path d="M284.172 306.564C275.677 306.261 267.465 303.437 260.58 298.452C260.58 298.452 265.524 311.976 283.944 311.328L284.172 306.564Z" fill="#EB996E"/>
<path d="M304.356 230.52C304.356 230.52 293.256 236.16 278.556 229.176C268.956 224.592 257.712 222.468 255.288 224.448C252.864 226.428 252.54 236.268 243.132 239.328C243.132 239.328 244.152 258.12 236.64 257.592C229.128 257.064 233.256 227.868 233.256 227.868L251.412 218.556L271.344 214.392L290.244 216.684L304.908 220.392L304.356 230.52Z" fill="#263238"/>
<path d="M238.008 251.556C237.708 251.4 225.588 247.128 225.312 259.716C225.036 272.304 237.72 269.988 237.744 269.628C237.768 269.268 238.008 251.556 238.008 251.556Z" fill="#FFBE9D"/>
<path d="M234 264.768C234 264.768 233.772 264.924 233.4 265.08C232.873 265.294 232.283 265.294 231.756 265.08C230.436 264.564 229.356 262.428 229.356 260.16C229.354 259.079 229.588 258.01 230.04 257.028C230.169 256.638 230.39 256.285 230.685 255.999C230.98 255.713 231.339 255.502 231.732 255.384C231.986 255.338 232.248 255.375 232.479 255.489C232.711 255.604 232.899 255.79 233.016 256.02C233.172 256.368 233.088 256.62 233.148 256.644C233.208 256.668 233.424 256.44 233.34 255.924C233.274 255.61 233.105 255.327 232.86 255.12C232.52 254.853 232.09 254.728 231.66 254.772C231.14 254.862 230.652 255.083 230.243 255.415C229.833 255.747 229.515 256.178 229.32 256.668C228.766 257.748 228.478 258.946 228.48 260.16C228.48 262.692 229.752 265.104 231.552 265.668C231.889 265.771 232.244 265.798 232.592 265.748C232.94 265.699 233.274 265.573 233.568 265.38C234 265.08 234 264.792 234 264.768Z" fill="#EB996E"/>
<path d="M231.6 212.16C233.036 211.739 234.57 211.794 235.971 212.318C237.373 212.841 238.568 213.805 239.376 215.064C238.257 214.217 237.05 213.492 235.776 212.904C234.414 212.512 233.014 212.262 231.6 212.16Z" fill="#263238"/>
<path d="M239.172 204.624C239.4 204.624 239.052 207.276 239.484 210.42C239.857 212.31 240.449 214.151 241.248 215.904C241.248 215.904 240.72 215.46 240.192 214.524C239.514 213.278 239.067 211.92 238.872 210.516C238.522 208.555 238.625 206.54 239.172 204.624Z" fill="#263238"/>
<path d="M290.88 247.2C290.808 247.056 291.348 246.612 292.368 246.204C295.076 245.157 298.082 245.187 300.768 246.288C301.776 246.72 302.316 247.164 302.244 247.308C302.088 247.644 299.664 246.696 296.556 246.696C293.448 246.696 291.024 247.572 290.88 247.2Z" fill="#263238"/>
<path d="M262.8 244.584C262.728 244.44 263.268 244.008 264.288 243.588C265.631 243.069 267.061 242.812 268.5 242.832C269.946 242.832 271.377 243.117 272.712 243.672C273.72 244.104 274.248 244.548 274.188 244.704C274.128 244.86 271.608 244.092 268.488 244.08C265.368 244.068 262.968 244.92 262.8 244.584Z" fill="#263238"/>
<path d="M288.708 249.216C288.735 249.463 288.735 249.713 288.708 249.96C288.708 250.488 288.708 251.16 288.768 251.988C288.828 252.816 288.768 253.932 288.84 255.132C288.795 256.517 288.998 257.899 289.44 259.212C290.019 260.916 291.02 262.444 292.351 263.655C293.681 264.866 295.298 265.72 297.048 266.136C298.052 266.381 299.089 266.47 300.12 266.4C301.193 266.352 302.251 266.129 303.252 265.74C305.387 264.94 307.205 263.471 308.436 261.552C309.601 259.719 310.186 257.578 310.116 255.408C310.116 253.26 310.116 251.196 310.116 249.216L310.404 249.504L294.804 249.36L290.28 249.276H289.08H288.636C289.15 249.219 289.667 249.195 290.184 249.204L294.636 249.12L310.404 248.976H310.8V249.276C310.8 251.256 310.8 253.32 310.8 255.468C310.881 257.757 310.265 260.016 309.036 261.948C307.731 263.98 305.803 265.533 303.54 266.376C302.477 266.784 301.354 267.015 300.216 267.06C299.131 267.124 298.043 267.023 296.988 266.76C295.152 266.316 293.462 265.408 292.079 264.121C290.696 262.835 289.667 261.215 289.092 259.416C288.661 258.043 288.482 256.604 288.564 255.168C288.564 253.968 288.564 252.852 288.624 251.94C288.684 251.028 288.624 250.464 288.684 249.936C288.673 249.696 288.681 249.455 288.708 249.216Z" fill="#263238"/>
<path d="M259.296 248.592C259.296 248.592 259.296 248.868 259.296 249.336V251.364C259.296 252.252 259.296 253.308 259.356 254.52C259.325 255.904 259.527 257.284 259.956 258.6C260.509 260.18 261.416 261.613 262.608 262.788C263.985 264.126 265.697 265.067 267.564 265.512C269.629 266.009 271.795 265.871 273.78 265.116C275.909 264.317 277.723 262.852 278.952 260.94C280.121 259.109 280.711 256.968 280.644 254.796C280.644 252.648 280.644 250.572 280.644 248.592L280.932 248.88L265.332 248.736L260.82 248.664H259.62H259.176C259.686 248.607 260.199 248.583 260.712 248.592L265.164 248.52L280.932 248.376H281.22V248.664C281.22 250.644 281.22 252.72 281.22 254.868C281.292 257.157 280.674 259.415 279.444 261.348C278.14 263.373 276.216 264.922 273.96 265.764C272.897 266.171 271.774 266.402 270.636 266.448C269.547 266.512 268.455 266.411 267.396 266.148C265.435 265.665 263.643 264.657 262.212 263.232C260.974 261.988 260.045 260.472 259.5 258.804C259.069 257.431 258.89 255.992 258.972 254.556C258.972 253.356 258.972 252.24 259.044 251.328C259.116 250.416 259.044 249.852 259.044 249.324C259.088 249.068 259.173 248.821 259.296 248.592Z" fill="#263238"/>
<path d="M288.972 250.092C286.228 250.508 283.436 250.508 280.692 250.092C283.435 249.66 286.229 249.66 288.972 250.092Z" fill="#263238"/>
<path d="M236.4 250.248C240.215 249.93 244.045 249.814 247.872 249.9C251.702 249.791 255.535 249.883 259.356 250.176C255.542 250.509 251.712 250.625 247.884 250.524C244.054 250.646 240.22 250.554 236.4 250.248Z" fill="#263238"/>
<path d="M466.908 265.2L431.184 252.36L395.808 265.02C391.296 267.156 387.336 268.428 387.336 272.64V293.58C387.267 308.289 391.302 322.726 398.988 335.268C406.636 347.97 417.994 358.022 431.532 364.068C445.992 359.364 456.792 346.848 463.392 336.144C471.072 323.6 475.106 309.164 475.044 294.456V275.616C475.044 269.532 471.864 266.604 466.908 265.2Z" fill="#E8505B"/>
<g opacity="0.3">
<path d="M431.532 351.828C420.811 346.988 411.826 338.986 405.78 328.896C399.703 318.974 396.512 307.555 396.564 295.92V281.22C396.564 277.896 398.568 274.776 402.564 272.916L431.196 262.212V252.324L395.82 264.984C392.112 266.604 387.348 268.392 387.348 272.604V293.544C387.279 308.253 391.314 322.69 399 335.232C406.648 347.934 418.006 357.986 431.544 364.032L431.532 351.828Z" fill="black"/>
</g>
<g opacity="0.4">
<path d="M431.532 363.984C433.956 363.188 436.305 362.18 438.552 360.972C444.061 357.846 449.069 353.91 453.408 349.296C457.342 345.056 460.802 340.401 463.728 335.412C471.519 322.782 475.452 308.151 475.044 293.316V276C475.044 267.396 470.616 266.76 466.896 265.14L431.172 252.3V262.188L460.14 273.06C464.124 274.92 466.14 278.04 466.14 281.376V296.064C466.192 307.703 463 319.125 456.924 329.052C451.014 339.094 442.14 347.059 431.52 351.852L431.532 363.984Z" fill="black"/>
</g>
<path opacity="0.5" d="M440.664 294.972V292.14C440.578 289.739 439.563 287.465 437.834 285.798C436.105 284.13 433.796 283.198 431.394 283.198C428.992 283.198 426.683 284.13 424.954 285.798C423.225 287.465 422.21 289.739 422.124 292.14V295.02C420.893 295.204 419.769 295.824 418.957 296.766C418.144 297.709 417.697 298.912 417.696 300.156V316.8C417.696 318.178 418.243 319.5 419.218 320.474C420.192 321.449 421.514 321.996 422.892 321.996H440.196C441.574 321.996 442.896 321.449 443.87 320.474C444.845 319.5 445.392 318.178 445.392 316.8V300.144C445.391 298.847 444.906 297.598 444.031 296.641C443.156 295.684 441.955 295.089 440.664 294.972ZM433.908 312.66H429.372L430.08 309.396C429.673 309.144 429.338 308.791 429.109 308.37C428.88 307.95 428.764 307.478 428.773 306.999C428.782 306.52 428.915 306.052 429.159 305.641C429.403 305.229 429.75 304.888 430.166 304.651C430.582 304.414 431.052 304.289 431.531 304.289C432.01 304.289 432.48 304.413 432.896 304.65C433.312 304.886 433.66 305.227 433.905 305.638C434.149 306.049 434.283 306.517 434.292 306.996C434.297 307.447 434.189 307.893 433.98 308.293C433.771 308.693 433.466 309.035 433.092 309.288L433.908 312.66ZM438.708 294.948H424.116V292.14C424.192 290.261 424.992 288.484 426.349 287.182C427.706 285.879 429.513 285.152 431.394 285.152C433.275 285.152 435.082 285.879 436.439 287.182C437.796 288.484 438.596 290.261 438.672 292.14L438.708 294.948Z" fill="white"/>
<path d="M402.348 294.768C402.05 293.826 401.873 292.85 401.82 291.864C401.553 289.506 401.457 287.132 401.532 284.76C401.532 283.368 401.664 282.036 401.784 280.848C401.842 279.749 402.115 278.673 402.588 277.68C402.93 277.005 403.476 276.455 404.148 276.108C404.628 275.88 404.94 275.892 404.94 275.928C404.074 276.328 403.378 277.021 402.972 277.884C402.596 278.845 402.389 279.864 402.36 280.896C402.264 282.096 402.192 283.392 402.156 284.772C402.072 287.532 402.156 290.028 402.252 291.828C402.368 292.803 402.4 293.787 402.348 294.768Z" fill="white"/>
<path d="M402.876 303.888C402.708 303.888 402.552 303.036 402.528 301.968C402.504 300.9 402.624 300.036 402.804 300.036C402.984 300.036 403.128 300.888 403.152 301.956C403.176 303.024 403.056 303.888 402.876 303.888Z" fill="white"/>
<path d="M365.184 390.276L325.356 488.772H253.536V493.224H467.46L511.224 390.276H365.184Z" fill="#263238"/>
<path d="M426.072 448.428C424.632 453.384 420.432 456.516 416.688 455.436C412.944 454.356 411.084 449.436 412.524 444.48C413.964 439.524 418.176 436.392 421.92 437.472C425.664 438.552 427.524 443.472 426.072 448.428Z" fill="#FAFAFA"/>
<path d="M499.294 130.579H494.665C485.698 130.579 478.466 123.34 478.466 114.365V109.732V114.365C478.466 123.34 471.234 130.579 462.266 130.579H457.638H462.266C471.234 130.579 478.466 137.817 478.466 146.792V151.425V146.792C478.466 137.817 485.698 130.579 494.665 130.579H499.294Z" fill="url(#paint0_linear_7_2500)"/>
<path d="M140.589 64.5655H135.961C126.993 64.5655 119.761 57.3272 119.761 48.3517V43.7192V48.3517C119.761 57.3272 112.529 64.5655 103.561 64.5655H98.933H103.561C112.529 64.5655 119.761 71.8038 119.761 80.7792V85.4117V80.7792C119.761 71.8038 126.993 64.5655 135.961 64.5655H140.589V64.5655Z" fill="url(#paint1_linear_7_2500)"/>
<path d="M41.3667 42.5611H36.7383C27.7707 42.5611 20.5387 35.3228 20.5387 26.3474V22.0044V26.6369C20.5387 35.6124 13.3068 42.8507 4.33917 42.8507H0H4.62845C13.5961 42.8507 20.828 50.0889 20.828 59.0644V63.6969V59.0644C20.828 50.0889 28.06 42.8507 37.0276 42.8507H41.3667V42.5611Z" fill="url(#paint2_linear_7_2500)"/>
<path d="M635.544 228.44H631.783C624.84 228.44 619.055 222.65 619.055 215.701V211.937V215.701C619.055 222.65 613.269 228.44 606.326 228.44H602.566H606.326C613.269 228.44 619.055 234.231 619.055 241.18V244.943V241.18C619.055 234.231 624.84 228.44 631.783 228.44H635.544Z" fill="url(#paint3_linear_7_2500)"/>
<path d="M603.434 47.1936H599.673C592.73 47.1936 586.945 41.403 586.945 34.4542V30.6903V34.4542C586.945 41.403 581.159 47.1936 574.217 47.1936H570.456H574.217C581.159 47.1936 586.945 52.9842 586.945 59.933V63.6969V59.933C586.945 52.9842 592.73 47.1936 599.673 47.1936H603.434V47.1936Z" fill="url(#paint4_linear_7_2500)"/>
<path d="M94.3046 244.654H90.8333C84.4691 244.654 79.2621 239.442 79.2621 233.073V229.598V233.073C79.2621 239.442 74.0551 244.654 67.691 244.654H64.2197H67.691C74.0551 244.654 79.2621 249.866 79.2621 256.235V259.71V256.235C79.2621 249.866 84.4691 244.654 90.8333 244.654H94.3046Z" fill="url(#paint5_linear_7_2500)"/>
<path d="M309.238 30.6903H302.295C288.989 30.6903 278.285 19.9777 278.285 6.65922V0V6.94875C278.285 20.2672 267.582 30.9799 254.275 30.9799H247.333H254.565C267.871 30.9799 278.575 41.6925 278.575 55.011V61.9597V55.011C278.575 41.6925 289.278 30.9799 302.585 30.9799H309.238V30.6903Z" fill="url(#paint6_linear_7_2500)"/>
<path d="M661 127.104H654.057C640.75 127.104 630.047 116.392 630.047 103.073V96.1244V103.073C630.047 116.392 619.344 127.104 606.037 127.104H599.094H606.037C619.344 127.104 630.047 137.817 630.047 151.135V158.084V151.135C630.047 137.817 640.75 127.104 654.057 127.104H661V127.104Z" fill="url(#paint7_linear_7_2500)"/>
<defs>
<linearGradient id="paint0_linear_7_2500" x1="478.543" y1="235.971" x2="478.543" y2="36.9543" gradientUnits="userSpaceOnUse">
<stop stop-color="#FFA340"/>
<stop offset="1" stop-color="#FCD224"/>
</linearGradient>
<linearGradient id="paint1_linear_7_2500" x1="120.049" y1="242.755" x2="120.049" y2="43.7383" gradientUnits="userSpaceOnUse">
<stop stop-color="#FFA340"/>
<stop offset="1" stop-color="#FCD224"/>
</linearGradient>
<linearGradient id="paint2_linear_7_2500" x1="20.6799" y1="167.099" x2="20.6799" y2="-257.119" gradientUnits="userSpaceOnUse">
<stop stop-color="#FFA340"/>
<stop offset="1" stop-color="#FCD224"/>
</linearGradient>
<linearGradient id="paint3_linear_7_2500" x1="619.189" y1="252.544" x2="619.189" y2="53.5276" gradientUnits="userSpaceOnUse">
<stop stop-color="#FFA340"/>
<stop offset="1" stop-color="#FCD224"/>
</linearGradient>
<linearGradient id="paint4_linear_7_2500" x1="587.138" y1="162.051" x2="587.138" y2="-262.169" gradientUnits="userSpaceOnUse">
<stop stop-color="#FFA340"/>
<stop offset="1" stop-color="#FCD224"/>
</linearGradient>
<linearGradient id="paint5_linear_7_2500" x1="79.4409" y1="386.078" x2="79.4409" y2="187.061" gradientUnits="userSpaceOnUse">
<stop stop-color="#FFA340"/>
<stop offset="1" stop-color="#FCD224"/>
</linearGradient>
<linearGradient id="paint6_linear_7_2500" x1="278.433" y1="321.362" x2="278.433" y2="-102.858" gradientUnits="userSpaceOnUse">
<stop stop-color="#FFA340"/>
<stop offset="1" stop-color="#FCD224"/>
</linearGradient>
<linearGradient id="paint7_linear_7_2500" x1="630.137" y1="417.625" x2="630.137" y2="-6.59438" gradientUnits="userSpaceOnUse">
<stop stop-color="#FFA340"/>
<stop offset="1" stop-color="#FCD224"/>
</linearGradient>
</defs>
</svg>
