<svg width="42" height="42" viewBox="0 0 42 42" fill="none" xmlns="http://www.w3.org/2000/svg">
<path d="M21 39.8125C10.6225 39.8125 2.1875 31.3775 2.1875 21C2.1875 10.6225 10.6225 2.1875 21 2.1875C31.3775 2.1875 39.8125 10.6225 39.8125 21C39.8125 31.3775 31.3775 39.8125 21 39.8125ZM21 4.8125C12.075 4.8125 4.8125 12.075 4.8125 21C4.8125 29.925 12.075 37.1875 21 37.1875C29.925 37.1875 37.1875 29.925 37.1875 21C37.1875 12.075 29.925 4.8125 21 4.8125Z" fill="#35D294"/>
<path d="M18.515 27.265C18.165 27.265 17.8325 27.125 17.5875 26.88L12.635 21.9275C12.1275 21.42 12.1275 20.58 12.635 20.0725C13.1425 19.565 13.9825 19.565 14.49 20.0725L18.515 24.0975L27.51 15.1025C28.0175 14.595 28.8575 14.595 29.365 15.1025C29.8725 15.61 29.8725 16.45 29.365 16.9575L19.4425 26.88C19.1975 27.125 18.865 27.265 18.515 27.265Z" fill="#35D294"/>
</svg>
