<svg width="86" height="85" viewBox="0 0 86 85" fill="none" xmlns="http://www.w3.org/2000/svg">
<path d="M81.6344 47.2365L74.8753 37.1597V11.4395C74.8734 9.58351 74.1266 7.80411 72.7986 6.49175C71.4706 5.1794 69.67 4.44131 67.792 4.43945H18.2087C16.3306 4.44131 14.53 5.1794 13.2021 6.49175C11.8741 7.80411 11.1272 9.58351 11.1253 11.4395V37.1597L4.36623 47.2365C4.16358 47.5147 4.05058 47.8468 4.04199 48.1895V74.4395C4.04387 76.2954 4.79075 78.0748 6.11872 79.3872C7.4467 80.6995 9.24728 81.4376 11.1253 81.4395H74.8753C76.7534 81.4376 78.5539 80.6995 79.8819 79.3872C81.2099 78.0748 81.9568 76.2954 81.9587 74.4395V48.1895C81.9501 47.8468 81.8371 47.5147 81.6344 47.2365ZM76.8789 46.4395H74.8753V43.4692L76.8789 46.4395ZM18.2087 7.93945H67.792C68.7309 7.94066 69.6311 8.30979 70.295 8.96591C70.9589 9.62203 71.3324 10.5116 71.3337 11.4395V46.4395H67.792C65.9139 46.4413 64.1134 47.1794 62.7854 48.4918C61.4574 49.8041 60.7105 51.5835 60.7087 53.4395C60.7074 54.3673 60.3339 55.2569 59.67 55.913C59.0061 56.5691 58.1059 56.9382 57.167 56.9395H28.8337C27.8947 56.9382 26.9946 56.5691 26.3307 55.913C25.6667 55.2569 25.2932 54.3673 25.292 53.4395C25.2901 51.5835 24.5432 49.8041 23.2153 48.4918C21.8873 47.1794 20.0867 46.4413 18.2087 46.4395H14.667V11.4395C14.6682 10.5116 15.0417 9.62203 15.7057 8.96591C16.3696 8.30979 17.2697 7.94066 18.2087 7.93945ZM11.1253 46.4395H9.1217L11.1253 43.4692V46.4395ZM78.417 74.4395C78.4158 75.3673 78.0422 76.2569 77.3783 76.913C76.7144 77.5691 75.8143 77.9382 74.8753 77.9395H11.1253C10.1864 77.9382 9.28626 77.5691 8.62233 76.913C7.95841 76.2569 7.58488 75.3673 7.58366 74.4395V49.9395H18.2087C19.1476 49.9407 20.0477 50.3098 20.7116 50.9659C21.3756 51.622 21.7491 52.5116 21.7503 53.4395C21.7522 55.2954 22.4991 57.0748 23.8271 58.3872C25.155 59.6995 26.9556 60.4376 28.8337 60.4395H57.167C59.045 60.4376 60.8456 59.6995 62.1736 58.3872C63.5016 57.0748 64.2484 55.2954 64.2503 53.4395C64.2515 52.5116 64.6251 51.622 65.289 50.9659C65.9529 50.3098 66.8531 49.9407 67.792 49.9395H78.417V74.4395Z" fill="#828A91"/>
<path d="M43.0003 44.6895C43.2329 44.6896 43.4632 44.6444 43.6782 44.5565C43.8931 44.4686 44.0883 44.3397 44.2528 44.1772C44.4173 44.0147 44.5477 43.8217 44.6366 43.6093C44.7256 43.3969 44.7713 43.1693 44.7712 42.9395V23.6895C44.7712 23.2253 44.5846 22.7802 44.2525 22.452C43.9204 22.1238 43.47 21.9395 43.0003 21.9395C42.5307 21.9395 42.0803 22.1238 41.7482 22.452C41.4161 22.7802 41.2295 23.2253 41.2295 23.6895V42.9395C41.2294 43.1693 41.2751 43.3969 41.364 43.6093C41.453 43.8217 41.5834 44.0147 41.7479 44.1772C41.9123 44.3397 42.1076 44.4686 42.3225 44.5565C42.5374 44.6444 42.7677 44.6896 43.0003 44.6895Z" fill="#828A91"/>
<path d="M43.0003 49.9395C43.9783 49.9395 44.7712 49.156 44.7712 48.1895C44.7712 47.223 43.9783 46.4395 43.0003 46.4395C42.0223 46.4395 41.2295 47.223 41.2295 48.1895C41.2295 49.156 42.0223 49.9395 43.0003 49.9395Z" fill="#828A91"/>
</svg>
