<svg width="53" height="8" viewBox="0 0 53 8" fill="none" xmlns="http://www.w3.org/2000/svg">
<path id="Vector 817" d="M52.3536 4.35355C52.5488 4.15829 52.5488 3.84171 52.3536 3.64645L49.1716 0.464466C48.9763 0.269204 48.6597 0.269204 48.4645 0.464466C48.2692 0.659728 48.2692 0.976311 48.4645 1.17157L51.2929 4L48.4645 6.82843C48.2692 7.02369 48.2692 7.34027 48.4645 7.53553C48.6597 7.7308 48.9763 7.7308 49.1716 7.53553L52.3536 4.35355ZM0 4.5H1V3.5H0V4.5ZM3 4.5H5V3.5H3V4.5ZM7 4.5H9V3.5H7V4.5ZM11 4.5H13V3.5H11V4.5ZM15 4.5H17V3.5H15V4.5ZM19 4.5H21V3.5H19V4.5ZM23 4.5H25V3.5H23V4.5ZM27 4.5H29V3.5H27V4.5ZM31 4.5H33V3.5H31V4.5ZM35 4.5H37V3.5H35V4.5ZM39 4.5H41V3.5H39V4.5ZM43 4.5H45V3.5H43V4.5ZM47 4.5H49V3.5H47V4.5ZM51 4.5H52V3.5H51V4.5Z" fill="#828A91"/>
</svg>
