<svg width="1038" height="12" viewBox="0 0 1038 12" fill="none" xmlns="http://www.w3.org/2000/svg">
<path d="M1 5.25C0.585786 5.25 0.25 5.58579 0.25 6C0.25 6.41421 0.585786 6.75 1 6.75V5.25ZM1037.53 6.53033C1037.82 6.23744 1037.82 5.76256 1037.53 5.46967L1032.76 0.696699C1032.46 0.403806 1031.99 0.403806 1031.7 0.696699C1031.4 0.989593 1031.4 1.46447 1031.7 1.75736L1035.94 6L1031.7 10.2426C1031.4 10.5355 1031.4 11.0104 1031.7 11.3033C1031.99 11.5962 1032.46 11.5962 1032.76 11.3033L1037.53 6.53033ZM1 6.75H4.5V5.25H1V6.75ZM11.5 6.75H18.5V5.25H11.5V6.75ZM25.5 6.75H32.5V5.25H25.5V6.75ZM39.5 6.75H46.5V5.25H39.5V6.75ZM53.5 6.75H60.5V5.25H53.5V6.75ZM67.5 6.75H74.5V5.25H67.5V6.75ZM81.5 6.75H88.5V5.25H81.5V6.75ZM95.5 6.75H102.5V5.25H95.5V6.75ZM109.5 6.75H116.5V5.25H109.5V6.75ZM123.5 6.75H130.5V5.25H123.5V6.75ZM137.5 6.75H144.5V5.25H137.5V6.75ZM151.5 6.75H158.5V5.25H151.5V6.75ZM165.5 6.75H172.5V5.25H165.5V6.75ZM179.5 6.75H186.5V5.25H179.5V6.75ZM193.5 6.75H200.5V5.25H193.5V6.75ZM207.5 6.75H214.5V5.25H207.5V6.75ZM221.5 6.75H228.5V5.25H221.5V6.75ZM235.5 6.75H242.5V5.25H235.5V6.75ZM249.5 6.75H256.5V5.25H249.5V6.75ZM263.5 6.75H270.5V5.25H263.5V6.75ZM277.5 6.75H284.5V5.25H277.5V6.75ZM291.5 6.75H298.5V5.25H291.5V6.75ZM305.5 6.75H312.5V5.25H305.5V6.75ZM319.5 6.75H326.5V5.25H319.5V6.75ZM333.5 6.75H340.5V5.25H333.5V6.75ZM347.5 6.75H354.5V5.25H347.5V6.75ZM361.5 6.75H368.5V5.25H361.5V6.75ZM375.5 6.75H382.5V5.25H375.5V6.75ZM389.5 6.75H396.5V5.25H389.5V6.75ZM403.5 6.75H410.5V5.25H403.5V6.75ZM417.5 6.75H424.5V5.25H417.5V6.75ZM431.5 6.75H438.5V5.25H431.5V6.75ZM445.5 6.75H452.5V5.25H445.5V6.75ZM459.5 6.75H466.5V5.25H459.5V6.75ZM473.5 6.75H480.5V5.25H473.5V6.75ZM487.5 6.75H494.5V5.25H487.5V6.75ZM501.5 6.75H508.5V5.25H501.5V6.75ZM515.5 6.75H522.5V5.25H515.5V6.75ZM529.5 6.75H536.5V5.25H529.5V6.75ZM543.5 6.75H550.5V5.25H543.5V6.75ZM557.5 6.75H564.5V5.25H557.5V6.75ZM571.5 6.75H578.5V5.25H571.5V6.75ZM585.5 6.75H592.5V5.25H585.5V6.75ZM599.5 6.75H606.5V5.25H599.5V6.75ZM613.5 6.75H620.5V5.25H613.5V6.75ZM627.5 6.75H634.5V5.25H627.5V6.75ZM641.5 6.75H648.5V5.25H641.5V6.75ZM655.5 6.75H662.5V5.25H655.5V6.75ZM669.5 6.75H676.5V5.25H669.5V6.75ZM683.5 6.75H690.5V5.25H683.5V6.75ZM697.5 6.75H704.5V5.25H697.5V6.75ZM711.5 6.75H718.5V5.25H711.5V6.75ZM725.5 6.75H732.5V5.25H725.5V6.75ZM739.5 6.75H746.5V5.25H739.5V6.75ZM753.5 6.75H760.5V5.25H753.5V6.75ZM767.5 6.75H774.5V5.25H767.5V6.75ZM781.5 6.75H788.5V5.25H781.5V6.75ZM795.5 6.75H802.5V5.25H795.5V6.75ZM809.5 6.75H816.5V5.25H809.5V6.75ZM823.5 6.75H830.5V5.25H823.5V6.75ZM837.5 6.75H844.5V5.25H837.5V6.75ZM851.5 6.75H858.5V5.25H851.5V6.75ZM865.5 6.75H872.5V5.25H865.5V6.75ZM879.5 6.75H886.5V5.25H879.5V6.75ZM893.5 6.75H900.5V5.25H893.5V6.75ZM907.5 6.75H914.5V5.25H907.5V6.75ZM921.5 6.75H928.5V5.25H921.5V6.75ZM935.5 6.75H942.5V5.25H935.5V6.75ZM949.5 6.75H956.5V5.25H949.5V6.75ZM963.5 6.75H970.5V5.25H963.5V6.75ZM977.5 6.75H984.5V5.25H977.5V6.75ZM991.5 6.75H998.5V5.25H991.5V6.75ZM1005.5 6.75H1012.5V5.25H1005.5V6.75ZM1019.5 6.75H1026.5V5.25H1019.5V6.75ZM1033.5 6.75H1037V5.25H1033.5V6.75Z" fill="#C65257"/>
</svg>
