<svg width="85" height="85" viewBox="0 0 85 85" fill="none" xmlns="http://www.w3.org/2000/svg">
<g id="Frame">
<path id="Vector" d="M81.1339 47.2365L74.3748 37.1597V11.4395C74.373 9.58351 73.6261 7.80411 72.2981 6.49175C70.9701 5.1794 69.1695 4.44131 67.2915 4.43945H17.7082C15.8301 4.44131 14.0295 5.1794 12.7016 6.49175C11.3736 7.80411 10.6267 9.58351 10.6248 11.4395V37.1597L3.86574 47.2365C3.66309 47.5147 3.55009 47.8468 3.5415 48.1895V74.4395C3.54338 76.2954 4.29026 78.0748 5.61824 79.3872C6.94621 80.6995 8.7468 81.4376 10.6248 81.4395H74.3748C76.2529 81.4376 78.0535 80.6995 79.3814 79.3872C80.7094 78.0748 81.4563 76.2954 81.4582 74.4395V48.1895C81.4496 47.8468 81.3366 47.5147 81.1339 47.2365ZM76.3785 46.4395H74.3748V43.4692L76.3785 46.4395ZM17.7082 7.93945H67.2915C68.2304 7.94066 69.1306 8.30979 69.7945 8.96591C70.4584 9.62203 70.8319 10.5116 70.8332 11.4395V46.4395H67.2915C65.4135 46.4413 63.6129 47.1794 62.2849 48.4918C60.9569 49.8041 60.21 51.5835 60.2082 53.4395C60.207 54.3673 59.8334 55.2569 59.1695 55.913C58.5056 56.5691 57.6054 56.9382 56.6665 56.9395H28.3332C27.3942 56.9382 26.4941 56.5691 25.8302 55.913C25.1663 55.2569 24.7927 54.3673 24.7915 53.4395C24.7896 51.5835 24.0427 49.8041 22.7148 48.4918C21.3868 47.1794 19.5862 46.4413 17.7082 46.4395H14.1665V11.4395C14.1677 10.5116 14.5413 9.62203 15.2052 8.96591C15.8691 8.30979 16.7692 7.94066 17.7082 7.93945ZM10.6248 46.4395H8.62121L10.6248 43.4692V46.4395ZM77.9165 74.4395C77.9153 75.3673 77.5417 76.2569 76.8778 76.913C76.2139 77.5691 75.3138 77.9382 74.3748 77.9395H10.6248C9.6859 77.9382 8.78577 77.5691 8.12185 76.913C7.45792 76.2569 7.08439 75.3673 7.08317 74.4395V49.9395H17.7082C18.6471 49.9407 19.5472 50.3098 20.2112 50.9659C20.8751 51.622 21.2486 52.5116 21.2498 53.4395C21.2517 55.2954 21.9986 57.0748 23.3266 58.3872C24.6545 59.6995 26.4551 60.4376 28.3332 60.4395H56.6665C58.5445 60.4376 60.3451 59.6995 61.6731 58.3872C63.0011 57.0748 63.748 55.2954 63.7498 53.4395C63.7511 52.5116 64.1246 51.622 64.7885 50.9659C65.4524 50.3098 66.3526 49.9407 67.2915 49.9395H77.9165V74.4395Z" fill="#828A91"/>
<path id="Vector_2" d="M42.4998 44.6895C42.7324 44.6896 42.9628 44.6444 43.1777 44.5565C43.3926 44.4686 43.5878 44.3397 43.7523 44.1772C43.9168 44.0147 44.0472 43.8217 44.1361 43.6093C44.2251 43.3969 44.2708 43.1693 44.2707 42.9395V23.6895C44.2707 23.2253 44.0841 22.7802 43.752 22.452C43.4199 22.1238 42.9695 21.9395 42.4998 21.9395C42.0302 21.9395 41.5798 22.1238 41.2477 22.452C40.9156 22.7802 40.729 23.2253 40.729 23.6895V42.9395C40.7289 43.1693 40.7746 43.3969 40.8635 43.6093C40.9525 43.8217 41.0829 44.0147 41.2474 44.1772C41.4118 44.3397 41.6071 44.4686 41.822 44.5565C42.0369 44.6444 42.2673 44.6896 42.4998 44.6895Z" fill="#828A91"/>
<path id="Vector_3" d="M42.4998 49.9395C43.4778 49.9395 44.2707 49.156 44.2707 48.1895C44.2707 47.223 43.4778 46.4395 42.4998 46.4395C41.5218 46.4395 40.729 47.223 40.729 48.1895C40.729 49.156 41.5218 49.9395 42.4998 49.9395Z" fill="#828A91"/>
</g>
</svg>
