<svg width="40" height="41" viewBox="0 0 40 41" fill="none" xmlns="http://www.w3.org/2000/svg">
<g clip-path="url(#clip0_6368_323675)">
<path d="M14.1401 12.2969C14.1401 11.6497 13.6154 11.125 12.9683 11.125H11.7183V6.4375C11.7183 5.79031 11.1936 5.26562 10.5464 5.26562C9.8992 5.26562 9.37451 5.79031 9.37451 6.4375V11.125H8.28076C7.63357 11.125 7.10889 11.6497 7.10889 12.2969V13.5469H14.14V12.2969H14.1401Z" fill="#4F6484"/>
<path d="M2.42188 15.8906H14.1403V21.6719H2.42188V15.8906Z" fill="#4F6484"/>
<path d="M38.8271 33.3906H37.3666C36.8656 31.5255 37.0285 29.561 37.8445 27.7866L39.8919 23.3333C40.2474 22.5599 39.6834 21.6719 38.8271 21.6719H32.8898C32.4459 21.6719 32.0401 21.9227 31.8416 22.3197L30.9937 24.0156H1.17188C0.524687 24.0156 0 24.5403 0 25.1875V27.5559C0 29.4809 1.56594 31.0469 3.49078 31.0469H3.59359V33.3906H1.17188C0.524687 33.3906 0 33.9153 0 34.5625C0 35.2097 0.524687 35.7344 1.17188 35.7344H38.8272C39.4744 35.7344 39.9991 35.2097 39.9991 34.5625C39.9991 33.9153 39.4743 33.3906 38.8271 33.3906ZM32.4991 26.8281C33.1463 26.8281 33.671 27.3528 33.671 28C33.671 28.6472 33.1463 29.1719 32.4991 29.1719C31.852 29.1719 31.3273 28.6472 31.3273 28C31.3273 27.3528 31.852 26.8281 32.4991 26.8281Z" fill="#4F6484"/>
<path d="M23.5151 12.1406H20.3901C19.9587 12.1406 19.6089 12.4904 19.6089 12.9219V15.8906H23.5151V12.1406Z" fill="#BECDE3"/>
<path d="M29.7648 12.9219C29.7648 12.4904 29.415 12.1406 28.9836 12.1406H25.8586V15.8906H29.7648V12.9219Z" fill="#BECDE3"/>
<path d="M16.4839 18.2344H20.3901V21.6719H16.4839V18.2344Z" fill="#BECDE3"/>
<path d="M22.7336 18.2344H26.6398V21.6719H22.7336V18.2344Z" fill="#BECDE3"/>
<path d="M28.9836 21.6719H29.5454C29.6283 21.5749 30.3711 19.3281 32.8898 19.3281V18.2344H28.9836V21.6719Z" fill="#BECDE3"/>
</g>
<defs>
<clipPath id="clip0_6368_323675">
<rect width="40" height="40" fill="white" transform="translate(0 0.5)"/>
</clipPath>
</defs>
</svg>
