<svg width="21" height="21" viewBox="0 0 21 21" fill="none" xmlns="http://www.w3.org/2000/svg">
<g id="Frame">
<path id="Vector" d="M7.89163 7.875C7.80227 6.71625 8.07004 5.55794 8.65889 4.55598C9.24775 3.55402 10.1294 2.7565 11.1852 2.27077C12.2411 1.78504 13.4203 1.63442 14.5643 1.83918C15.7083 2.04394 16.7622 2.59425 17.584 3.41604C18.4057 4.23783 18.9561 5.29165 19.1608 6.43566C19.3656 7.57967 19.215 8.75895 18.7292 9.81476C18.2435 10.8706 17.446 11.7523 16.444 12.3411C15.4421 12.93 14.2837 13.1977 13.125 13.1084M19.25 14.875C19.25 15.5712 18.9734 16.2389 18.4812 16.7312C17.9889 17.2234 17.3212 17.5 16.625 17.5H14.875M14.875 17.5L16.625 15.75M14.875 17.5L16.625 19.25M1.75 6.125C1.75 5.42881 2.02656 4.76113 2.51884 4.26884C3.01113 3.77656 3.67881 3.5 4.375 3.5H6.125M6.125 3.5L4.375 5.25M6.125 3.5L4.375 1.75M7.4375 19.25C5.92908 19.25 4.48244 18.6508 3.41583 17.5842C2.34922 16.5176 1.75 15.0709 1.75 13.5625C1.75 12.0541 2.34922 10.6074 3.41583 9.54083C4.48244 8.47422 5.92908 7.875 7.4375 7.875C8.94592 7.875 10.3926 8.47422 11.4592 9.54083C12.5258 10.6074 13.125 12.0541 13.125 13.5625C13.125 15.0709 12.5258 16.5176 11.4592 17.5842C10.3926 18.6508 8.94592 19.25 7.4375 19.25Z" stroke="#9EA3AA" stroke-width="1.3125" stroke-linecap="round" stroke-linejoin="round"/>
</g>
</svg>
