<svg width="17" height="16" viewBox="0 0 17 16" fill="none" xmlns="http://www.w3.org/2000/svg">
<path d="M5.5835 3.83301C5.31016 3.83301 5.0835 3.60634 5.0835 3.33301V1.33301C5.0835 1.05967 5.31016 0.833008 5.5835 0.833008C5.85683 0.833008 6.0835 1.05967 6.0835 1.33301V3.33301C6.0835 3.60634 5.85683 3.83301 5.5835 3.83301Z" fill="#2C363F"/>
<path d="M10.9165 3.83301C10.6432 3.83301 10.4165 3.60634 10.4165 3.33301V1.33301C10.4165 1.05967 10.6432 0.833008 10.9165 0.833008C11.1898 0.833008 11.4165 1.05967 11.4165 1.33301V3.33301C11.4165 3.60634 11.1898 3.83301 10.9165 3.83301Z" fill="#828A91"/>
<path d="M5.91667 9.66655C5.83 9.66655 5.74333 9.64656 5.66333 9.61322C5.57667 9.57989 5.51 9.53321 5.44333 9.47321C5.32333 9.34654 5.25 9.17988 5.25 8.99988C5.25 8.91322 5.27 8.82655 5.30333 8.74655C5.33667 8.66655 5.38333 8.59322 5.44333 8.52655C5.51 8.46655 5.57667 8.41987 5.66333 8.38654C5.90333 8.28654 6.20333 8.33989 6.39 8.52655C6.51 8.65322 6.58333 8.82655 6.58333 8.99988C6.58333 9.03988 6.57667 9.08656 6.57 9.13322C6.56333 9.17322 6.55 9.21322 6.53 9.25322C6.51667 9.29322 6.49667 9.33321 6.47 9.37321C6.45 9.40655 6.41667 9.43988 6.39 9.47321C6.26333 9.59321 6.09 9.66655 5.91667 9.66655Z" fill="#2C363F"/>
<path d="M8.25016 9.66658C8.1635 9.66658 8.07683 9.64659 7.99683 9.61326C7.91016 9.57992 7.8435 9.53324 7.77683 9.47324C7.65683 9.34658 7.5835 9.17992 7.5835 8.99992C7.5835 8.91325 7.6035 8.82658 7.63683 8.74658C7.67016 8.66658 7.71683 8.59325 7.77683 8.52659C7.8435 8.46659 7.91016 8.41991 7.99683 8.38657C8.23683 8.27991 8.53683 8.33992 8.7235 8.52659C8.8435 8.65325 8.91683 8.82658 8.91683 8.99992C8.91683 9.03992 8.91016 9.08659 8.9035 9.13326C8.89683 9.17326 8.88349 9.21325 8.86349 9.25325C8.85016 9.29325 8.83016 9.33325 8.8035 9.37325C8.7835 9.40658 8.75016 9.43991 8.7235 9.47324C8.59683 9.59324 8.4235 9.66658 8.25016 9.66658Z" fill="#2C363F"/>
<path d="M10.5832 9.66658C10.4965 9.66658 10.4098 9.64659 10.3298 9.61326C10.2432 9.57992 10.1765 9.53324 10.1098 9.47324C10.0832 9.43991 10.0565 9.40658 10.0298 9.37325C10.0032 9.33325 9.98317 9.29325 9.96984 9.25325C9.94984 9.21325 9.9365 9.17326 9.92984 9.13326C9.92317 9.08659 9.9165 9.03992 9.9165 8.99992C9.9165 8.82658 9.98984 8.65325 10.1098 8.52659C10.1765 8.46659 10.2432 8.41991 10.3298 8.38657C10.5765 8.27991 10.8698 8.33992 11.0565 8.52659C11.1765 8.65325 11.2498 8.82658 11.2498 8.99992C11.2498 9.03992 11.2432 9.08659 11.2365 9.13326C11.2298 9.17326 11.2165 9.21325 11.1965 9.25325C11.1832 9.29325 11.1632 9.33325 11.1365 9.37325C11.1165 9.40658 11.0832 9.43991 11.0565 9.47324C10.9298 9.59324 10.7565 9.66658 10.5832 9.66658Z" fill="#2C363F"/>
<path d="M5.91667 11.9998C5.83 11.9998 5.74333 11.9798 5.66333 11.9465C5.58333 11.9131 5.51 11.8665 5.44333 11.8065C5.32333 11.6798 5.25 11.5065 5.25 11.3331C5.25 11.2465 5.27 11.1598 5.30333 11.0798C5.33667 10.9931 5.38333 10.9198 5.44333 10.8598C5.69 10.6131 6.14333 10.6131 6.39 10.8598C6.51 10.9865 6.58333 11.1598 6.58333 11.3331C6.58333 11.5065 6.51 11.6798 6.39 11.8065C6.26333 11.9265 6.09 11.9998 5.91667 11.9998Z" fill="#2C363F"/>
<path d="M8.25016 11.9998C8.07683 11.9998 7.9035 11.9265 7.77683 11.8065C7.65683 11.6798 7.5835 11.5065 7.5835 11.3331C7.5835 11.2465 7.6035 11.1598 7.63683 11.0798C7.67016 10.9931 7.71683 10.9198 7.77683 10.8598C8.0235 10.6131 8.47683 10.6131 8.7235 10.8598C8.7835 10.9198 8.83016 10.9931 8.86349 11.0798C8.89683 11.1598 8.91683 11.2465 8.91683 11.3331C8.91683 11.5065 8.8435 11.6798 8.7235 11.8065C8.59683 11.9265 8.4235 11.9998 8.25016 11.9998Z" fill="#2C363F"/>
<path d="M10.5832 11.9999C10.4098 11.9999 10.2365 11.9266 10.1098 11.8066C10.0498 11.7466 10.0032 11.6733 9.96984 11.5866C9.93651 11.5066 9.9165 11.4199 9.9165 11.3333C9.9165 11.2466 9.93651 11.1599 9.96984 11.0799C10.0032 10.9933 10.0498 10.9199 10.1098 10.8599C10.2632 10.7066 10.4965 10.6333 10.7098 10.6799C10.7565 10.6866 10.7965 10.6999 10.8365 10.7199C10.8765 10.7333 10.9165 10.7533 10.9565 10.78C10.9898 10.8 11.0232 10.8333 11.0565 10.8599C11.1765 10.9866 11.2498 11.1599 11.2498 11.3333C11.2498 11.5066 11.1765 11.6799 11.0565 11.8066C10.9298 11.9266 10.7565 11.9999 10.5832 11.9999Z" fill="#2C363F"/>
<path d="M13.9168 6.55957H2.5835C2.31016 6.55957 2.0835 6.3329 2.0835 6.05957C2.0835 5.78624 2.31016 5.55957 2.5835 5.55957H13.9168C14.1902 5.55957 14.4168 5.78624 14.4168 6.05957C14.4168 6.3329 14.1902 6.55957 13.9168 6.55957Z" fill="#2C363F"/>
<path d="M10.9167 15.1663H5.58333C3.15 15.1663 1.75 13.7663 1.75 11.333V5.66634C1.75 3.23301 3.15 1.83301 5.58333 1.83301H10.9167C13.35 1.83301 14.75 3.23301 14.75 5.66634V11.333C14.75 13.7663 13.35 15.1663 10.9167 15.1663ZM5.58333 2.83301C3.67667 2.83301 2.75 3.75967 2.75 5.66634V11.333C2.75 13.2397 3.67667 14.1663 5.58333 14.1663H10.9167C12.8233 14.1663 13.75 13.2397 13.75 11.333V5.66634C13.75 3.75967 12.8233 2.83301 10.9167 2.83301H5.58333Z" fill="#2C363F"/>
</svg>
