<svg width="16" height="17" viewBox="0 0 16 17" fill="none" xmlns="http://www.w3.org/2000/svg">
<g id="vuesax/linear/calendar">
<g id="calendar">
<path id="Vector" d="M5.33325 1.83301V3.83301" stroke="#768FB5" stroke-width="1.16667" stroke-miterlimit="10" stroke-linecap="round" stroke-linejoin="round"/>
<path id="Vector_2" d="M10.6665 1.83301V3.83301" stroke="#768FB5" stroke-width="1.16667" stroke-miterlimit="10" stroke-linecap="round" stroke-linejoin="round"/>
<path id="Vector_3" d="M10.6667 2.83301C12.8867 2.95301 14 3.79967 14 6.93301V11.053C14 13.7997 13.3333 15.173 10 15.173H6C2.66667 15.173 2 13.7997 2 11.053V6.93301C2 3.79967 3.11333 2.95967 5.33333 2.83301H10.6667Z" stroke="#768FB5" stroke-width="1.16667" stroke-miterlimit="10" stroke-linecap="round" stroke-linejoin="round"/>
<path id="Vector_4" d="M13.8332 12.2334H2.1665" stroke="#768FB5" stroke-width="1.16667" stroke-miterlimit="10" stroke-linecap="round" stroke-linejoin="round"/>
<path id="Vector_5" d="M7.99992 6C7.17992 6 6.48659 6.44667 6.48659 7.31333C6.48659 7.72667 6.67992 8.04 6.97325 8.24C6.56659 8.48 6.33325 8.86667 6.33325 9.32C6.33325 10.1467 6.96659 10.66 7.99992 10.66C9.02659 10.66 9.66659 10.1467 9.66659 9.32C9.66659 8.86667 9.43325 8.47333 9.01992 8.24C9.31992 8.03333 9.50659 7.72667 9.50659 7.31333C9.50659 6.44667 8.81992 6 7.99992 6ZM7.99992 7.89333C7.65325 7.89333 7.39992 7.68667 7.39992 7.36C7.39992 7.02667 7.65325 6.83333 7.99992 6.83333C8.34659 6.83333 8.59992 7.02667 8.59992 7.36C8.59992 7.68667 8.34659 7.89333 7.99992 7.89333ZM7.99992 9.83333C7.55992 9.83333 7.23992 9.61333 7.23992 9.21333C7.23992 8.81333 7.55992 8.6 7.99992 8.6C8.43992 8.6 8.75992 8.82 8.75992 9.21333C8.75992 9.61333 8.43992 9.83333 7.99992 9.83333Z" fill="#768FB5"/>
</g>
</g>
</svg>
