<svg width="16" height="18" viewBox="0 0 16 18" fill="none" xmlns="http://www.w3.org/2000/svg">
<path d="M5.33325 2.33301V4.33301" stroke="#73292C" stroke-width="1.16667" stroke-miterlimit="10" stroke-linecap="round" stroke-linejoin="round"/>
<path d="M10.6665 2.33301V4.33301" stroke="#73292C" stroke-width="1.16667" stroke-miterlimit="10" stroke-linecap="round" stroke-linejoin="round"/>
<path d="M10.6667 3.33301C12.8867 3.45301 14 4.29967 14 7.43301V11.553C14 14.2997 13.3333 15.673 10 15.673H6C2.66667 15.673 2 14.2997 2 11.553V7.43301C2 4.29967 3.11333 3.45967 5.33333 3.33301H10.6667Z" stroke="#73292C" stroke-width="1.16667" stroke-miterlimit="10" stroke-linecap="round" stroke-linejoin="round"/>
<path d="M13.8332 12.7334H2.1665" stroke="#73292C" stroke-width="1.16667" stroke-miterlimit="10" stroke-linecap="round" stroke-linejoin="round"/>
<path d="M7.99992 6.5C7.17992 6.5 6.48659 6.94667 6.48659 7.81333C6.48659 8.22667 6.67992 8.54 6.97325 8.74C6.56659 8.98 6.33325 9.36667 6.33325 9.82C6.33325 10.6467 6.96659 11.16 7.99992 11.16C9.02659 11.16 9.66659 10.6467 9.66659 9.82C9.66659 9.36667 9.43325 8.97333 9.01992 8.74C9.31992 8.53333 9.50659 8.22667 9.50659 7.81333C9.50659 6.94667 8.81992 6.5 7.99992 6.5ZM7.99992 8.39333C7.65325 8.39333 7.39992 8.18667 7.39992 7.86C7.39992 7.52667 7.65325 7.33333 7.99992 7.33333C8.34659 7.33333 8.59992 7.52667 8.59992 7.86C8.59992 8.18667 8.34659 8.39333 7.99992 8.39333ZM7.99992 10.3333C7.55992 10.3333 7.23992 10.1133 7.23992 9.71333C7.23992 9.31333 7.55992 9.1 7.99992 9.1C8.43992 9.1 8.75992 9.32 8.75992 9.71333C8.75992 10.1133 8.43992 10.3333 7.99992 10.3333Z" fill="#73292C"/>
</svg>
