<svg width="24" height="24" viewBox="0 0 24 24" fill="none" xmlns="http://www.w3.org/2000/svg">
<path d="M21.5 5C21.5 6.38071 20.3807 7.5 19 7.5C17.6193 7.5 16.5 6.38071 16.5 5C16.5 3.61929 17.6193 2.5 19 2.5C20.3807 2.5 21.5 3.61929 21.5 5Z" stroke="#621E21"/>
<path d="M19.6611 9.94973C19.7047 9.94335 19.7564 9.93572 19.8108 9.92557C19.8247 9.92383 19.8367 9.92182 19.8465 9.92H19.8479L19.895 9.91089C20.2164 9.84869 20.5 10.0843 20.5 10.4V16.48C20.5 16.5983 20.4915 16.7206 20.4816 16.8502C20.4717 16.9684 20.4631 17.0602 20.4468 17.1578L20.4434 17.178L20.4417 17.1985C20.4338 17.2934 20.4175 17.3939 20.3981 17.5006L20.3964 17.5095L20.3951 17.5184C20.2332 18.6383 19.8016 19.5212 19.1592 20.1624C18.5168 20.8037 17.6337 21.2332 16.5181 21.3952L16.5093 21.3965L16.5006 21.3981C16.3939 21.4175 16.2934 21.4338 16.1985 21.4417L16.178 21.4434L16.1578 21.4468C16.0602 21.4631 15.9684 21.4717 15.8502 21.4816C15.7206 21.4915 15.5983 21.5 15.48 21.5H7.52C7.40172 21.5 7.27944 21.4915 7.14976 21.4816C7.03163 21.4717 6.9398 21.4631 6.8422 21.4468L6.82197 21.4434L6.80152 21.4417C6.70663 21.4338 6.60613 21.4175 6.49944 21.3981L6.49068 21.3965L6.48186 21.3952C5.36628 21.2332 4.48319 20.8037 3.84075 20.1624C3.19842 19.5212 2.76682 18.6383 2.60485 17.5184L2.60355 17.5095L2.60193 17.5006C2.58254 17.3939 2.56618 17.2934 2.55827 17.1985L2.55657 17.178L2.5532 17.1578C2.53692 17.0601 2.52826 16.9683 2.5184 16.8501C2.50844 16.7204 2.5 16.5982 2.5 16.48V8.52C2.5 8.40177 2.50844 8.27955 2.5184 8.14995C2.52826 8.03173 2.53692 7.93986 2.5532 7.8422L2.55657 7.82197L2.55827 7.80152C2.56618 7.70663 2.58254 7.60613 2.60193 7.49944L2.60355 7.49053L2.60485 7.48157C2.76682 6.36166 3.19842 5.47883 3.84075 4.83761C4.48319 4.19627 5.36628 3.76682 6.48186 3.60481L6.49068 3.60353L6.49944 3.60193C6.60613 3.58254 6.70663 3.56618 6.80152 3.55827L6.82197 3.55657L6.8422 3.5532C6.93986 3.53692 7.03173 3.52826 7.14995 3.5184C7.27955 3.50844 7.40177 3.5 7.52 3.5H13.6C13.9157 3.5 14.1513 3.7836 14.0891 4.10499L14.08 4.15206V4.15353C14.0782 4.16329 14.0762 4.17532 14.0744 4.18925C14.0643 4.24362 14.0566 4.29528 14.0503 4.33885L14.0487 4.34935C14.0415 4.3985 14.0357 4.4388 14.0281 4.48056L14.0243 4.50145L14.0223 4.5226C13.9776 4.99142 14.0002 5.48971 14.0993 5.99601L14.1018 6.00871L14.1049 6.02127C14.1095 6.03944 14.1143 6.05954 14.1194 6.08117C14.1391 6.16343 14.164 6.2679 14.2004 6.37336C14.2919 6.73978 14.4362 7.08187 14.6206 7.39912C14.6835 7.522 14.7616 7.64362 14.8197 7.73399C14.8299 7.74982 14.8394 7.76469 14.8482 7.77844L14.8529 7.78594L14.858 7.79326C15.2227 8.3237 15.6763 8.77734 16.2067 9.14202L16.2141 9.14706L16.2216 9.15183C16.2353 9.16058 16.2502 9.17013 16.266 9.1803C16.3564 9.23838 16.478 9.31655 16.6009 9.37937C16.9181 9.56376 17.2602 9.70807 17.6266 9.79963C17.7321 9.83596 17.8366 9.86091 17.9188 9.88056C17.9405 9.88573 17.9606 9.89053 17.9787 9.89507L17.9913 9.89821L18.004 9.9007C18.5103 9.99975 19.0086 10.0224 19.4774 9.97775L19.4985 9.97573L19.5194 9.97193C19.5612 9.96435 19.6015 9.95846 19.6506 9.95128L19.6611 9.94973ZM11.75 12H6.75C6.06386 12 5.5 12.5639 5.5 13.25C5.5 13.9361 6.06386 14.5 6.75 14.5H11.75C12.4361 14.5 13 13.9361 13 13.25C13 12.5639 12.4361 12 11.75 12ZM6.75 18.5H15.75C16.4361 18.5 17 17.9361 17 17.25C17 16.5639 16.4361 16 15.75 16H6.75C6.06386 16 5.5 16.5639 5.5 17.25C5.5 17.9361 6.06386 18.5 6.75 18.5Z" stroke="#621E21"/>
</svg>
