<svg width="13" height="13" viewBox="0 0 13 13" fill="none" xmlns="http://www.w3.org/2000/svg">
<g id="vuesax/outline/trash">
<g id="trash">
<path id="Vector" d="M10.6959 4.1905C10.686 4.1905 10.6711 4.1905 10.6562 4.1905C8.0289 3.92728 5.4066 3.82795 2.80914 4.09117L1.79598 4.1905C1.58739 4.21037 1.40363 4.06138 1.38377 3.85278C1.3639 3.64419 1.51289 3.4654 1.71652 3.44553L2.72968 3.34621C5.37184 3.07802 8.04876 3.18231 10.7307 3.44553C10.9343 3.4654 11.0833 3.64916 11.0634 3.85278C11.0485 4.04648 10.8846 4.1905 10.6959 4.1905Z" fill="#D42600"/>
<path id="Vector_2" d="M4.48778 3.68876C4.46792 3.68876 4.44805 3.68876 4.42322 3.68379C4.22456 3.64903 4.0855 3.45534 4.12026 3.25668L4.22953 2.60607C4.30899 2.12929 4.41825 1.46875 5.57544 1.46875H6.87665C8.0388 1.46875 8.14807 2.15412 8.22256 2.61104L8.33183 3.25668C8.36659 3.4603 8.22753 3.65399 8.02887 3.68379C7.82525 3.71856 7.63155 3.5795 7.60176 3.38084L7.49249 2.7352C7.42296 2.30312 7.40806 2.21869 6.88162 2.21869H5.5804C5.05396 2.21869 5.04403 2.28822 4.96953 2.73023L4.8553 3.37587C4.8255 3.55963 4.66658 3.68876 4.48778 3.68876Z" fill="#D42600"/>
<path id="Vector_3" d="M7.82028 12.1469H4.63181C2.89851 12.1469 2.82898 11.1884 2.77435 10.4137L2.45153 5.41242C2.43663 5.20879 2.59556 5.03 2.79918 5.0151C3.00777 5.00517 3.1816 5.15913 3.1965 5.36276L3.51932 10.364C3.57395 11.1189 3.59382 11.402 4.63181 11.402H7.82028C8.86324 11.402 8.8831 11.1189 8.93277 10.364L9.25559 5.36276C9.27049 5.15913 9.44928 5.00517 9.6529 5.0151C9.85653 5.03 10.0155 5.20383 10.0006 5.41242L9.67774 10.4137C9.62311 11.1884 9.55357 12.1469 7.82028 12.1469Z" fill="#D42600"/>
<path id="Vector_4" d="M7.05049 9.41587H5.39665C5.19303 9.41587 5.02417 9.24701 5.02417 9.04338C5.02417 8.83976 5.19303 8.6709 5.39665 8.6709H7.05049C7.25411 8.6709 7.42297 8.83976 7.42297 9.04338C7.42297 9.24701 7.25411 9.41587 7.05049 9.41587Z" fill="#D42600"/>
<path id="Vector_5" d="M7.46769 7.42856H4.98445C4.78083 7.42856 4.61197 7.2597 4.61197 7.05608C4.61197 6.85245 4.78083 6.68359 4.98445 6.68359H7.46769C7.67131 6.68359 7.84017 6.85245 7.84017 7.05608C7.84017 7.2597 7.67131 7.42856 7.46769 7.42856Z" fill="#D42600"/>
</g>
</g>
</svg>
