<svg width="32" height="32" viewBox="0 0 32 32" fill="none" xmlns="http://www.w3.org/2000/svg">
<path d="M21.0666 2.94667C20.5199 2.4 19.5732 2.77333 19.5732 3.53333V8.18667C19.5732 10.1333 21.2266 11.7467 23.2399 11.7467C24.5066 11.76 26.2666 11.76 27.7732 11.76C28.5332 11.76 28.9332 10.8667 28.3999 10.3333C26.4799 8.4 23.0399 4.92 21.0666 2.94667Z" fill="#2C363F"/>
<path d="M27.3335 13.5867H23.4802C20.3202 13.5867 17.7468 11.0133 17.7468 7.85333V4C17.7468 3.26666 17.1468 2.66666 16.4135 2.66666H10.7602C6.6535 2.66666 3.3335 5.33333 3.3335 10.0933V21.9067C3.3335 26.6667 6.6535 29.3333 10.7602 29.3333H21.2402C25.3468 29.3333 28.6668 26.6667 28.6668 21.9067V14.92C28.6668 14.1867 28.0668 13.5867 27.3335 13.5867ZM15.3335 23.6667H10.0002C9.4535 23.6667 9.00016 23.2133 9.00016 22.6667C9.00016 22.12 9.4535 21.6667 10.0002 21.6667H15.3335C15.8802 21.6667 16.3335 22.12 16.3335 22.6667C16.3335 23.2133 15.8802 23.6667 15.3335 23.6667ZM18.0002 18.3333H10.0002C9.4535 18.3333 9.00016 17.88 9.00016 17.3333C9.00016 16.7867 9.4535 16.3333 10.0002 16.3333H18.0002C18.5468 16.3333 19.0002 16.7867 19.0002 17.3333C19.0002 17.88 18.5468 18.3333 18.0002 18.3333Z" fill="#2C363F"/>
</svg>
