<svg width="25" height="24" viewBox="0 0 25 24" fill="none" xmlns="http://www.w3.org/2000/svg">
<path d="M9.00537 14.3298C9.00537 15.6198 9.99537 16.6598 11.2254 16.6598H13.7354C14.8054 16.6598 15.6754 15.7498 15.6754 14.6298C15.6754 13.4098 15.1454 12.9798 14.3554 12.6998L10.3254 11.2998C9.53537 11.0198 9.00537 10.5898 9.00537 9.36984C9.00537 8.24984 9.87537 7.33984 10.9454 7.33984H13.4554C14.6854 7.33984 15.6754 8.37984 15.6754 9.66984" stroke="#828A91" stroke-width="1.5" stroke-linecap="round" stroke-linejoin="round"/>
<path d="M12.3335 6V18" stroke="#828A91" stroke-width="1.5" stroke-linecap="round" stroke-linejoin="round"/>
<path d="M15.3335 22H9.3335C4.3335 22 2.3335 20 2.3335 15V9C2.3335 4 4.3335 2 9.3335 2H15.3335C20.3335 2 22.3335 4 22.3335 9V15C22.3335 20 20.3335 22 15.3335 22Z" stroke="#2C363F" stroke-width="1.5" stroke-linecap="round" stroke-linejoin="round"/>
</svg>
