<svg width="40" height="41" viewBox="0 0 40 41" fill="none" xmlns="http://www.w3.org/2000/svg">
<g clip-path="url(#clip0_6368_323754)">
<path d="M5.42229 8.92578C2.56964 12.2702 0.848389 16.6073 0.848389 21.3466C0.848389 31.924 9.423 40.4985 20.0003 40.4985C20.3492 40.4985 20.6965 40.4894 21.0412 40.4702L25.3003 36.2111V27.4041L18.0993 24.192V11.3991L5.42229 8.92578Z" fill="#4F6484"/>
<path d="M37.255 29.6652C38.4703 27.1498 39.1515 24.327 39.1515 21.3465C39.1515 16.6571 37.4651 12.3607 34.6665 9.03125L18.0994 11.3991V24.192L25.3004 27.4041L37.255 29.6652Z" fill="#4F6484"/>
<path d="M5.92378 23.0278C5.92378 18.0778 7.61253 13.5225 10.4449 9.9057L5.42222 8.92578C2.56964 12.2702 0.848389 16.6073 0.848389 21.3466C0.848389 29.6796 6.17089 36.7684 13.6012 39.402C8.91018 35.4946 5.92378 29.6102 5.92378 23.0278Z" fill="#4F6484"/>
<path d="M37.2549 29.666C34.3017 35.7825 28.1919 40.088 21.0412 40.471L20.5436 39.2632C20.2245 38.4888 20.4842 37.5989 21.1625 37.115C21.6369 36.7786 21.9176 36.2328 21.9176 35.6513C21.8776 35.3041 22.0892 34.5126 21.4317 33.8113L20.4938 32.8111C19.9181 32.1972 19.8458 31.2652 20.3202 30.5698L20.5719 30.201C21.2456 29.2125 20.7837 27.8543 19.6481 27.4812L16.9251 26.5874C16.675 26.5052 16.4649 26.3349 16.3328 26.1073L14.4654 22.8949C14.0592 22.1946 13.0524 22.1813 12.627 22.8709L12.1801 23.5952C11.9824 23.9151 11.6359 24.1045 11.2688 24.1045C10.565 24.1045 10.0543 23.4398 10.2305 22.762L11.1974 19.0604C11.2738 18.7655 11.4732 18.5171 11.7441 18.3776L13.7145 17.3633C14.1587 17.1356 14.3744 16.6388 14.2703 16.1779C14.0876 15.3547 13.4247 14.7241 12.5939 14.5821C11.588 14.3721 10.9437 14.4173 10.1375 13.9275L7.27798 12.1921C6.57103 11.7627 6.05017 11.0839 5.81923 10.2898L5.42212 8.92656V8.9257C8.93517 4.80703 14.162 2.19531 20.0002 2.19531C25.8875 2.19531 31.1542 4.85195 34.6664 9.03203L33.8881 10.416C33.5922 10.9447 33.042 11.3122 32.4086 11.363C31.7756 11.4137 31.2116 11.7826 30.9116 12.3416L30.1989 13.6699C29.8509 14.3187 29.1539 14.7025 28.4187 14.6502C27.9736 14.6204 27.8898 14.6061 27.6777 14.6061C26.7099 14.6061 25.782 15.0106 25.1224 15.7292C23.8211 17.15 24.4467 18.658 23.3755 20.0813L21.7506 22.2495C21.3727 22.7545 21.4806 23.4714 21.9916 23.842L23.3996 24.8629C23.6729 25.0606 24.0202 25.1263 24.3474 25.0415C26.2713 24.5619 26.3954 24.4591 26.8661 24.4591C27.4443 24.4591 28.0067 24.6884 28.4228 25.1112C29.6033 26.3109 30.8911 25.3668 32.1137 26.0184C33.1961 26.602 33.3045 26.6262 33.5458 26.8134L37.2549 29.666Z" fill="#BECDE3"/>
<path d="M15.3012 2.77734C11.3913 3.76367 7.95971 5.95156 5.42236 8.92633V8.92719L5.81947 10.2904C6.05041 11.0845 6.57127 11.7633 7.27822 12.1927L8.47283 12.9177C10.1104 9.88727 12.4622 7.30062 15.3013 5.3793V2.77734H15.3012Z" fill="#BECDE3"/>
<path d="M14.3642 0.500027C11.9504 0.491277 10.0761 2.58471 10.2199 4.99432C10.3667 7.45354 12.0001 9.66776 13.1677 10.9522C13.8003 11.6481 14.8953 11.6502 15.528 10.9544C16.7516 9.60886 18.4884 7.24089 18.4884 4.63956C18.4884 2.35846 16.6434 0.508309 14.3642 0.500027Z" fill="#768FB5"/>
<path d="M29.5424 21.2266C27.1286 21.2178 25.2543 23.3113 25.3981 25.7209C25.5449 28.1801 27.1783 30.3943 28.346 31.6788C28.9785 32.3746 30.0735 32.3767 30.7063 31.681C31.9299 30.3354 33.6667 27.9674 33.6667 25.3661C33.6667 23.085 31.8217 21.2349 29.5424 21.2266Z" fill="#768FB5"/>
<path d="M13.4773 4.89901C13.4773 3.22846 14.1309 1.71143 15.1949 0.58659C14.9266 0.530887 14.6488 0.501121 14.3642 0.500027C11.9504 0.491277 10.0761 2.58479 10.2199 4.99432C10.3667 7.45354 12.0001 9.66776 13.1677 10.9522C13.8003 11.6481 14.8953 11.6502 15.528 10.9544C15.7548 10.7051 15.9991 10.4205 16.2467 10.106C14.5759 8.97792 13.4773 7.06682 13.4773 4.89901Z" fill="#4F6484"/>
<path d="M28.6555 25.6256C28.6555 23.955 29.3092 22.438 30.3731 21.3132C30.1049 21.2574 29.827 21.2277 29.5424 21.2266C27.1286 21.2178 25.2543 23.3114 25.3981 25.7209C25.5449 28.1801 27.1783 30.3943 28.346 31.6788C28.9785 32.3746 30.0735 32.3767 30.7063 31.681C30.933 31.4317 31.1774 31.1471 31.4249 30.8326C29.7541 29.7045 28.6555 27.7934 28.6555 25.6256Z" fill="#4F6484"/>
<path d="M14.349 6.15594C15.1859 6.15594 15.8644 5.47744 15.8644 4.64047C15.8644 3.8035 15.1859 3.125 14.349 3.125C13.512 3.125 12.8335 3.8035 12.8335 4.64047C12.8335 5.47744 13.512 6.15594 14.349 6.15594Z" fill="#E8E7F9"/>
<path d="M29.5272 26.8825C30.3642 26.8825 31.0427 26.204 31.0427 25.367C31.0427 24.5301 30.3642 23.8516 29.5272 23.8516C28.6902 23.8516 28.0117 24.5301 28.0117 25.367C28.0117 26.204 28.6902 26.8825 29.5272 26.8825Z" fill="#E8E7F9"/>
</g>
<defs>
<clipPath id="clip0_6368_323754">
<rect width="40" height="40" fill="white" transform="translate(0 0.5)"/>
</clipPath>
</defs>
</svg>
