<svg width="18" height="18" viewBox="0 0 18 18" fill="none" xmlns="http://www.w3.org/2000/svg">
<rect width="18" height="18" fill="#2E2E2E"/>
<g id="Finance - Ledger Monthly summary" clip-path="url(#clip0_5205_317637)">
<rect width="1920" height="1080" transform="translate(-1534 -311)" fill="#F0F2F6"/>
<g id="Frame 1000006346">
<g id="Component 66">
<g id="Table" filter="url(#filter0_dd_5205_317637)">
<path d="M-1406 -19C-1406 -23.4183 -1402.42 -27 -1398 -27H346C350.418 -27 354 -23.4183 354 -19V747C354 751.418 350.418 755 346 755H-1398C-1402.42 755 -1406 751.418 -1406 747V-19Z" fill="white"/>
<g id="Table Header">
<g id="Buttons">
<g id="Button">
<path d="M-10 -10.5H66C69.0376 -10.5 71.5 -8.03757 71.5 -5V23C71.5 26.0376 69.0376 28.5 66 28.5H-10C-13.0376 28.5 -15.5 26.0376 -15.5 23V-5C-15.5 -8.03757 -13.0376 -10.5 -10 -10.5Z" fill="#F6F7F8"/>
<path d="M-10 -10.5H66C69.0376 -10.5 71.5 -8.03757 71.5 -5V23C71.5 26.0376 69.0376 28.5 66 28.5H-10C-13.0376 28.5 -15.5 26.0376 -15.5 23V-5C-15.5 -8.03757 -13.0376 -10.5 -10 -10.5Z" stroke="#C9D3DB"/>
<g id="Icon/Arrow/export">
<g id="vuesax/outline/export">
<g id="export">
<path id="Vector" d="M12.3399 6.6254L12.3351 6.62499C12.3243 6.62394 12.3172 6.6253 12.3124 6.62685C12.3072 6.62853 12.3018 6.6314 12.2964 6.63597C12.2857 6.64516 12.275 6.66145 12.2726 6.68576C12.2715 6.69722 12.2743 6.70927 12.2851 6.72206C12.2963 6.73522 12.3125 6.74457 12.3318 6.74689C12.3324 6.74696 12.333 6.74702 12.3335 6.74708L12.285 7.24471C14.685 7.44721 15.5775 8.55721 15.5775 11.3397V11.4372C15.5775 14.4897 14.4975 15.5697 11.445 15.5697H6.55499C3.50249 15.5697 2.42249 14.4897 2.42249 11.4372V11.3397C2.42249 8.57221 3.29999 7.46221 5.65499 7.24471L12.3399 6.6254ZM12.3399 6.6254C13.752 6.74603 14.6842 7.17866 15.2767 7.89445C15.8779 8.62088 16.2025 9.72608 16.2025 11.3472V11.4447C16.2025 13.2205 15.8193 14.3711 15.1015 15.0873C14.3834 15.8038 13.2287 16.1872 11.445 16.1872H6.55499C4.77126 16.1872 3.61684 15.8038 2.89885 15.0858C2.18086 14.3679 1.79749 13.2134 1.79749 11.4297V11.3322C1.79749 9.72172 2.11668 8.62257 2.70857 7.89745C3.29039 7.18469 4.20477 6.75014 5.58963 6.6182L12.3399 6.6254Z" fill="#2C363F" stroke="#2C363F"/>
<path id="Vector_2" d="M9 11.3123C8.98694 11.3123 8.97128 11.3071 8.95699 11.2929C8.9427 11.2786 8.9375 11.2629 8.9375 11.2498V2.71484C8.9375 2.70178 8.9427 2.68612 8.95699 2.67183C8.97128 2.65754 8.98694 2.65234 9 2.65234C9.01306 2.65234 9.02872 2.65754 9.04301 2.67183C9.0573 2.68612 9.0625 2.70178 9.0625 2.71484V11.2498C9.0625 11.2629 9.0573 11.2786 9.04301 11.2929C9.02872 11.3071 9.01306 11.3123 9 11.3123Z" fill="#2C363F" stroke="#2C363F"/>
<path id="Vector_3" d="M11.5125 4.95008C11.37 4.95008 11.2275 4.89758 11.115 4.78508L9.00001 2.67008L6.88501 4.78508C6.66751 5.00258 6.3075 5.00258 6.09 4.78508C5.8725 4.56758 5.8725 4.20758 6.09 3.99008L8.60251 1.47758C8.82001 1.26008 9.18 1.26008 9.3975 1.47758L11.91 3.99008C12.1275 4.20758 12.1275 4.56758 11.91 4.78508C11.805 4.89758 11.655 4.95008 11.5125 4.95008Z" fill="#2C363F"/>
</g>
</g>
</g>
</g>
</g>
</g>
</g>
</g>
</g>
</g>
<defs>
<filter id="filter0_dd_5205_317637" x="-1409" y="-29" width="1766" height="788" filterUnits="userSpaceOnUse" color-interpolation-filters="sRGB">
<feFlood flood-opacity="0" result="BackgroundImageFix"/>
<feColorMatrix in="SourceAlpha" type="matrix" values="0 0 0 0 0 0 0 0 0 0 0 0 0 0 0 0 0 0 127 0" result="hardAlpha"/>
<feMorphology radius="1" operator="erode" in="SourceAlpha" result="effect1_dropShadow_5205_317637"/>
<feOffset dy="1"/>
<feGaussianBlur stdDeviation="1"/>
<feColorMatrix type="matrix" values="0 0 0 0 0 0 0 0 0 0 0 0 0 0 0 0 0 0 0.1 0"/>
<feBlend mode="normal" in2="BackgroundImageFix" result="effect1_dropShadow_5205_317637"/>
<feColorMatrix in="SourceAlpha" type="matrix" values="0 0 0 0 0 0 0 0 0 0 0 0 0 0 0 0 0 0 127 0" result="hardAlpha"/>
<feOffset dy="1"/>
<feGaussianBlur stdDeviation="1.5"/>
<feColorMatrix type="matrix" values="0 0 0 0 0 0 0 0 0 0 0 0 0 0 0 0 0 0 0.1 0"/>
<feBlend mode="normal" in2="effect1_dropShadow_5205_317637" result="effect2_dropShadow_5205_317637"/>
<feBlend mode="normal" in="SourceGraphic" in2="effect2_dropShadow_5205_317637" result="shape"/>
</filter>
<clipPath id="clip0_5205_317637">
<rect width="1920" height="1080" fill="white" transform="translate(-1534 -311)"/>
</clipPath>
</defs>
</svg>
