<svg width="13" height="13" viewBox="0 0 13 13" fill="none" xmlns="http://www.w3.org/2000/svg">
<path d="M6.24376 8.96014C5.05677 8.96014 4.09328 7.99664 4.09328 6.80966C4.09328 5.62267 5.05677 4.65918 6.24376 4.65918C7.43074 4.65918 8.39424 5.62267 8.39424 6.80966C8.39424 7.99664 7.43074 8.96014 6.24376 8.96014ZM6.24376 5.40415C5.46899 5.40415 4.83825 6.03489 4.83825 6.80966C4.83825 7.58443 5.46899 8.21517 6.24376 8.21517C7.01852 8.21517 7.64927 7.58443 7.64927 6.80966C7.64927 6.03489 7.01852 5.40415 6.24376 5.40415Z" fill="white"/>
<path d="M6.24376 11.2886C4.37637 11.2886 2.61327 10.196 1.40146 8.29879C0.875011 7.47933 0.875011 6.14335 1.40146 5.31891C2.61824 3.42172 4.38134 2.3291 6.24376 2.3291C8.10618 2.3291 9.86928 3.42172 11.0811 5.31891C11.6075 6.13838 11.6075 7.47436 11.0811 8.29879C9.86928 10.196 8.10618 11.2886 6.24376 11.2886ZM6.24376 3.07407C4.63959 3.07407 3.10495 4.03757 2.0322 5.7212C1.65971 6.30227 1.65971 7.31543 2.0322 7.89651C3.10495 9.58014 4.63959 10.5436 6.24376 10.5436C7.84793 10.5436 9.38257 9.58014 10.4553 7.89651C10.8278 7.31543 10.8278 6.30227 10.4553 5.7212C9.38257 4.03757 7.84793 3.07407 6.24376 3.07407Z" fill="white"/>
</svg>
