<svg width="40" height="40" viewBox="0 0 40 40" fill="none" xmlns="http://www.w3.org/2000/svg">
<g opacity="0.8">
<path d="M20.0002 36.6667C10.8002 36.6667 3.3335 29.2 3.3335 20C3.3335 10.8 10.8002 3.33334 20.0002 3.33334C29.2002 3.33334 36.6668 10.8 36.6668 20C36.6668 29.2 29.2002 36.6667 20.0002 36.6667ZM26.7168 19.1167L21.7168 14.1167C21.4668 13.8667 21.1502 13.75 20.8335 13.75C20.5168 13.75 20.2002 13.8667 19.9502 14.1167C19.4668 14.6 19.4668 15.4 19.9502 15.8833L22.8168 18.75L14.1668 18.75C13.4835 18.75 12.9168 19.3167 12.9168 20C12.9168 20.6833 13.4835 21.25 14.1668 21.25H22.8168L19.9502 24.1167C19.4668 24.6 19.4668 25.4 19.9502 25.8833C20.4335 26.3667 21.2335 26.3667 21.7168 25.8833L26.7168 20.8833C27.2002 20.4 27.2002 19.6 26.7168 19.1167Z" fill="#73292C"/>
</g>
</svg>
