<svg width="24" height="24" viewBox="0 0 24 24" fill="none" xmlns="http://www.w3.org/2000/svg">
<path d="M14.3198 19.07C14.3198 19.68 13.9198 20.48 13.4098 20.79L11.9998 21.7C10.6898 22.51 8.86981 21.6 8.86981 19.98V14.63C8.86981 13.92 8.46981 13.01 8.05981 12.51L4.21979 8.47C3.70979 7.96 3.30981 7.06001 3.30981 6.45001V4.13C3.30981 2.92 4.21983 2.01001 5.32983 2.01001H18.6698C19.7798 2.01001 20.6898 2.92 20.6898 4.03V6.25C20.6898 7.06 20.1798 8.07001 19.6798 8.57001" stroke="#2C363F" stroke-width="1.5" stroke-miterlimit="10" stroke-linecap="round" stroke-linejoin="round"/>
<path d="M16.0699 16.52C17.8372 16.52 19.2699 15.0873 19.2699 13.32C19.2699 11.5527 17.8372 10.12 16.0699 10.12C14.3026 10.12 12.8699 11.5527 12.8699 13.32C12.8699 15.0873 14.3026 16.52 16.0699 16.52Z" stroke="#2C363F" stroke-width="1.5" stroke-linecap="round" stroke-linejoin="round"/>
<path d="M19.8699 17.12L18.8699 16.12" stroke="#2C363F" stroke-width="1.5" stroke-linecap="round" stroke-linejoin="round"/>
</svg>
