<svg width="12" height="12" viewBox="0 0 12 12" fill="none" xmlns="http://www.w3.org/2000/svg">
<path d="M10.43 4.18492L6.96501 1.41492C6.43001 0.984925 5.56501 0.984925 5.03501 1.40992L1.57001 4.18492C1.18001 4.49492 0.93001 5.14992 1.01501 5.63992L1.68001 9.61992C1.80001 10.3299 2.48001 10.9049 3.20001 10.9049H8.80001C9.51501 10.9049 10.2 10.3249 10.32 9.61992L10.985 5.63992C11.065 5.14992 10.815 4.49492 10.43 4.18492ZM6.00001 7.74992C5.31001 7.74992 4.75001 7.18992 4.75001 6.49992C4.75001 5.80992 5.31001 5.24992 6.00001 5.24992C6.69001 5.24992 7.25001 5.80992 7.25001 6.49992C7.25001 7.18992 6.69001 7.74992 6.00001 7.74992Z" fill="#828A91"/>
</svg>
