<svg width="40" height="41" viewBox="0 0 40 41" fill="none" xmlns="http://www.w3.org/2000/svg">
<g clip-path="url(#clip0_6566_323697)">
<path d="M18.8281 11.7695L9.45312 7.08203V18.0764C9.45312 18.5205 9.70492 18.9255 10.1009 19.1247L18.8281 23.4883V11.7695Z" fill="#BECDE3"/>
<path d="M20 9.73654L29.375 5.04904L20.5241 0.623574C20.1945 0.458809 19.8055 0.458809 19.4759 0.623574L10.625 5.04904L20 9.73654Z" fill="#BECDE3"/>
<path d="M21.1719 11.7695V23.4883L29.8991 19.1247C30.2951 18.9255 30.5469 18.5205 30.5469 18.0764V7.08203L21.1719 11.7695Z" fill="#BECDE3"/>
<path d="M40 13.5468C40 12.8942 39.4573 12.3724 38.8047 12.375C38.7871 12.3751 38.7695 12.3752 38.752 12.3755C36.7576 12.402 35.1734 14.0776 35.162 16.072L35.1111 24.9702C35.1073 25.4347 34.7744 25.7853 34.7677 25.792L28.5605 32.0004C28.1027 32.4581 27.3612 32.4582 26.9033 32.0004C26.4456 31.5427 26.4456 30.801 26.9033 30.3433L32.77 24.4755L32.7743 23.7207C32.7775 23.1581 32.3815 22.6749 31.8296 22.5657C29.9447 22.1929 27.8592 22.7666 26.4913 24.1326L21.5933 29.0306C21.3734 29.2505 21.2499 29.5486 21.2499 29.8595V39.3281C21.2499 39.9752 21.7746 40.4999 22.4218 40.4999H29.453C30.1008 40.4999 30.6249 39.9758 30.6249 39.3281V37.2384L39.6818 27.6162C39.8862 27.3991 39.9999 27.1121 39.9999 26.814L40 13.5468Z" fill="#4F6484"/>
<path d="M18.75 29.8595C18.75 29.5486 18.6265 29.2504 18.4066 29.0306L13.5086 24.1326C12.3868 23.0108 10.7809 22.4232 9.19742 22.4555C8.09977 22.4778 7.22242 23.3774 7.22953 24.4752L13.0966 30.3433C13.5544 30.801 13.5544 31.5427 13.0966 32.0004C12.6389 32.4581 11.8973 32.4582 11.4395 32.0004L5.23227 25.792C5.06703 25.6267 4.89125 25.2945 4.88891 24.9714L4.83141 16.0615C4.81859 14.0717 3.23703 12.4017 1.24734 12.3755C1.22984 12.3752 1.21234 12.3751 1.19477 12.375C0.542344 12.3724 0 12.8943 0 13.5467V26.8139C0 27.112 0.113828 27.399 0.318125 27.6161L9.375 37.2383V39.328C9.375 39.9757 9.89914 40.4999 10.5469 40.4999H17.5781C18.2253 40.4999 18.75 39.9752 18.75 39.328V29.8595Z" fill="#4F6484"/>
</g>
<defs>
<clipPath id="clip0_6566_323697">
<rect width="40" height="40" fill="white" transform="translate(0 0.5)"/>
</clipPath>
</defs>
</svg>
