<svg width="40" height="41" viewBox="0 0 40 41" fill="none" xmlns="http://www.w3.org/2000/svg">
<g clip-path="url(#clip0_6566_323642)">
<path d="M5.42236 8.92578C2.5697 12.2702 0.84845 16.6073 0.84845 21.3466C0.84845 31.924 9.42306 40.4985 20.0004 40.4985C20.3493 40.4985 20.6966 40.4894 21.0413 40.4702L25.3004 36.2111V27.4041L18.0994 24.192V11.3991L5.42236 8.92578Z" fill="#4F6484"/>
<path d="M37.2551 29.6652C38.4704 27.1498 39.1516 24.327 39.1516 21.3465C39.1516 16.6571 37.4653 12.3607 34.6666 9.03125L18.0995 11.3991V24.192L25.3005 27.4041L37.2551 29.6652Z" fill="#4F6484"/>
<path d="M5.92384 23.0278C5.92384 18.0778 7.61259 13.5225 10.4449 9.9057L5.42228 8.92578C2.5697 12.2702 0.84845 16.6073 0.84845 21.3466C0.84845 29.6796 6.17095 36.7684 13.6013 39.402C8.91025 35.4946 5.92384 29.6102 5.92384 23.0278Z" fill="#4F6484"/>
<path d="M37.2551 29.666C34.3019 35.7825 28.1921 40.088 21.0414 40.471L20.5438 39.2632C20.2247 38.4888 20.4844 37.5989 21.1627 37.115C21.6371 36.7786 21.9178 36.2328 21.9178 35.6513C21.8778 35.3041 22.0894 34.5126 21.4318 33.8113L20.4939 32.8111C19.9182 32.1972 19.846 31.2652 20.3203 30.5698L20.5721 30.201C21.2457 29.2125 20.7839 27.8543 19.6483 27.4812L16.9253 26.5874C16.6752 26.5052 16.465 26.3349 16.333 26.1073L14.4656 22.8949C14.0593 22.1946 13.0525 22.1813 12.6272 22.8709L12.1803 23.5952C11.9825 23.9151 11.6361 24.1045 11.269 24.1045C10.5652 24.1045 10.0545 23.4398 10.2307 22.762L11.1976 19.0604C11.274 18.7655 11.4734 18.5171 11.7443 18.3776L13.7147 17.3633C14.1589 17.1356 14.3746 16.6388 14.2705 16.1779C14.0878 15.3547 13.4249 14.7241 12.5941 14.5821C11.5882 14.3721 10.9439 14.4173 10.1377 13.9275L7.27816 12.1921C6.57121 11.7627 6.05035 11.0839 5.81941 10.2898L5.4223 8.92656V8.9257C8.93535 4.80703 14.1621 2.19531 20.0004 2.19531C25.8877 2.19531 31.1543 4.85195 34.6666 9.03203L33.8882 10.416C33.5924 10.9447 33.0421 11.3122 32.4088 11.363C31.7758 11.4137 31.2118 11.7826 30.9118 12.3416L30.1991 13.6699C29.8511 14.3187 29.1541 14.7025 28.4189 14.6502C27.9738 14.6204 27.89 14.6061 27.6778 14.6061C26.7101 14.6061 25.7821 15.0106 25.1226 15.7292C23.8213 17.15 24.4468 18.658 23.3757 20.0813L21.7508 22.2495C21.3728 22.7545 21.4808 23.4714 21.9918 23.842L23.3998 24.8629C23.6731 25.0606 24.0203 25.1263 24.3476 25.0415C26.2714 24.5619 26.3956 24.4591 26.8663 24.4591C27.4445 24.4591 28.0068 24.6884 28.423 25.1112C29.6035 26.3109 30.8913 25.3668 32.1139 26.0184C33.1963 26.602 33.3047 26.6262 33.546 26.8134L37.2551 29.666Z" fill="#BECDE3"/>
<path d="M15.3012 2.77734C11.3913 3.76367 7.95971 5.95156 5.42236 8.92633V8.92719L5.81947 10.2904C6.05041 11.0845 6.57127 11.7633 7.27822 12.1927L8.47283 12.9177C10.1104 9.88727 12.4622 7.30062 15.3013 5.3793V2.77734H15.3012Z" fill="#BECDE3"/>
<path d="M14.3643 0.500027C11.9505 0.491277 10.0762 2.58471 10.22 4.99432C10.3668 7.45354 12.0002 9.66776 13.1678 10.9522C13.8004 11.6481 14.8954 11.6502 15.5282 10.9544C16.7518 9.60886 18.4886 7.24089 18.4886 4.63956C18.4886 2.35846 16.6435 0.508309 14.3643 0.500027Z" fill="#768FB5"/>
<path d="M29.5425 21.2266C27.1287 21.2178 25.2544 23.3113 25.3982 25.7209C25.545 28.1801 27.1784 30.3943 28.346 31.6788C28.9786 32.3746 30.0736 32.3767 30.7063 31.681C31.9299 30.3354 33.6667 27.9674 33.6667 25.3661C33.6667 23.085 31.8217 21.2349 29.5425 21.2266Z" fill="#768FB5"/>
<path d="M13.4774 4.89901C13.4774 3.22846 14.1311 1.71143 15.195 0.58659C14.9268 0.530887 14.6489 0.501121 14.3643 0.500027C11.9505 0.491277 10.0762 2.58479 10.22 4.99432C10.3668 7.45354 12.0002 9.66776 13.1678 10.9522C13.8004 11.6481 14.8954 11.6502 15.5282 10.9544C15.7549 10.7051 15.9993 10.4205 16.2468 10.106C14.576 8.97792 13.4774 7.06682 13.4774 4.89901Z" fill="#4F6484"/>
<path d="M28.6555 25.6256C28.6555 23.955 29.3092 22.438 30.3732 21.3132C30.1049 21.2574 29.8271 21.2277 29.5425 21.2266C27.1287 21.2178 25.2544 23.3114 25.3982 25.7209C25.545 28.1801 27.1784 30.3943 28.346 31.6788C28.9786 32.3746 30.0736 32.3767 30.7063 31.681C30.933 31.4317 31.1774 31.1471 31.425 30.8326C29.7541 29.7045 28.6555 27.7934 28.6555 25.6256Z" fill="#4F6484"/>
<path d="M14.3489 6.15594C15.1859 6.15594 15.8644 5.47744 15.8644 4.64047C15.8644 3.8035 15.1859 3.125 14.3489 3.125C13.5119 3.125 12.8334 3.8035 12.8334 4.64047C12.8334 5.47744 13.5119 6.15594 14.3489 6.15594Z" fill="#E8E7F9"/>
<path d="M29.5271 26.8825C30.3641 26.8825 31.0426 26.204 31.0426 25.367C31.0426 24.5301 30.3641 23.8516 29.5271 23.8516C28.6902 23.8516 28.0117 24.5301 28.0117 25.367C28.0117 26.204 28.6902 26.8825 29.5271 26.8825Z" fill="#E8E7F9"/>
</g>
<defs>
<clipPath id="clip0_6566_323642">
<rect width="40" height="40" fill="white" transform="translate(0 0.5)"/>
</clipPath>
</defs>
</svg>
