<svg width="24" height="24" viewBox="0 0 24 24" fill="none" xmlns="http://www.w3.org/2000/svg">
<path d="M7.40704 21.6692L7.40286 21.667C7.00233 21.4562 6.75 21.0297 6.75 20.5694V19.1495V18.6982L6.30106 18.6521C4.904 18.5087 3.77429 17.9282 2.99282 17.0403C2.21066 16.1517 1.75 14.9238 1.75 13.4394V7.43945C1.75 5.83399 2.28687 4.52969 3.18855 3.62801C4.09024 2.72632 5.39454 2.18945 7 2.18945H17C18.6055 2.18945 19.9098 2.72632 20.8114 3.62801C21.7131 4.52969 22.25 5.83399 22.25 7.43945V13.4394C22.25 15.0449 21.7131 16.3492 20.8114 17.2508C19.9098 18.1525 18.6055 18.6894 17 18.6894H13.23H13.0786L12.9526 18.7734L8.69596 21.6112C8.69544 21.6116 8.69492 21.6119 8.69441 21.6123C8.48661 21.748 8.24257 21.8194 8 21.8194C7.80132 21.8194 7.59293 21.7693 7.40704 21.6692ZM8.40845 21.1913L8.40851 21.1914L8.41693 21.1858L12.8669 18.2258L12.8674 18.2255C12.9123 18.1956 12.9669 18.1795 13.01 18.1795H17.01C18.4099 18.1795 19.6074 17.7243 20.4561 16.8756C21.3048 16.0269 21.76 14.8294 21.76 13.4295V7.42944C21.76 6.02955 21.3048 4.83209 20.4561 3.98339C19.6074 3.13469 18.4099 2.67944 17.01 2.67944H7C5.60011 2.67944 4.40264 3.13469 3.55395 3.98339C2.70525 4.83209 2.25 6.02955 2.25 7.42944V13.4295C2.25 14.8294 2.70525 16.0269 3.55395 16.8756C4.40264 17.7243 5.60011 18.1795 7 18.1795C7.13386 18.1795 7.25 18.2956 7.25 18.4295V20.5595C7.25 20.9521 7.51585 21.1441 7.62275 21.2082C7.78654 21.3065 8.09587 21.3902 8.40845 21.1913Z" fill="#42536D" stroke="#42536D"/>
<path d="M11.9998 11.6104C11.866 11.6104 11.7498 11.4942 11.7498 11.3604V11.1504C11.7498 10.2737 12.377 9.83659 12.7014 9.61351C12.8997 9.47944 13.0812 9.33481 13.2098 9.15565C13.3541 8.95447 13.4098 8.74201 13.4098 8.52039C13.4098 7.74429 12.776 7.11035 11.9998 7.11035C11.2236 7.11035 10.5898 7.74429 10.5898 8.52039C10.5898 8.65424 10.4737 8.77039 10.3398 8.77039C10.206 8.77039 10.0898 8.65424 10.0898 8.52039C10.0898 7.46651 10.946 6.61035 11.9998 6.61035C13.0537 6.61035 13.9098 7.46651 13.9098 8.52039C13.9098 9.37787 13.2904 9.81569 12.9809 10.0254C12.7742 10.1633 12.5849 10.3112 12.452 10.4968C12.3022 10.7062 12.2498 10.9253 12.2498 11.1504V11.3604C12.2498 11.4999 12.138 11.6104 11.9998 11.6104Z" fill="#42536D" stroke="#42536D"/>
<path d="M12 14.0996C11.8605 14.0996 11.75 13.9878 11.75 13.8496C11.75 13.7158 11.8661 13.5996 12 13.5996C12.1339 13.5996 12.25 13.7158 12.25 13.8496C12.25 13.9878 12.1395 14.0996 12 14.0996Z" fill="#42536D" stroke="#42536D"/>
</svg>
