<svg width="24" height="24" viewBox="0 0 24 24" fill="none" xmlns="http://www.w3.org/2000/svg">
<path d="M3.85977 17.5991L3.8598 17.599L3.85778 17.5937C3.62746 16.9821 3.6984 16.2919 4.08762 15.6488L4.08822 15.6478L5.23822 13.7378L5.23862 13.7372C5.39138 13.4826 5.52098 13.1343 5.61193 12.8039C5.70297 12.4732 5.76987 12.1075 5.76987 11.8099V8.91992C5.76987 5.47606 8.57601 2.66992 12.0199 2.66992C15.4637 2.66992 18.2699 5.47606 18.2699 8.91992V11.8099C18.2699 12.1029 18.3369 12.4686 18.4275 12.8004C18.5183 13.1327 18.6473 13.4844 18.7984 13.7425L18.7983 13.7425L18.8011 13.7472L19.9406 15.6463C19.9407 15.6465 19.9409 15.6467 19.941 15.6469C20.2928 16.2365 20.3587 16.9486 20.1205 17.5976C19.8838 18.2424 19.3703 18.7321 18.7236 18.945L18.7205 18.946C16.5735 19.6682 14.2974 20.0299 12.0199 20.0299C9.74322 20.0299 7.4677 19.6685 5.31083 18.9465C4.59563 18.699 4.08156 18.209 3.85977 17.5991ZM4.52152 15.902L4.52151 15.902L4.5201 15.9044C4.24687 16.3639 4.13382 16.9141 4.33138 17.4248C4.51705 17.9411 4.95765 18.2887 5.46829 18.4631L5.47108 18.464C9.7539 19.8985 14.2951 19.8986 18.578 18.4643C19.0817 18.2964 19.4776 17.9151 19.6601 17.4097C19.8387 16.9154 19.7999 16.367 19.5176 15.901C19.5176 15.9009 19.5175 15.9008 19.5175 15.9008L18.37 13.9949C18.0349 13.4201 17.7699 12.4391 17.7699 11.7999V8.91992C17.7699 5.74378 15.196 3.16992 12.0199 3.16992C8.85435 3.16992 6.26987 5.74316 6.26987 8.91992V11.8099C6.26987 12.4477 5.99557 13.4388 5.67004 13.9945L4.52152 15.902Z" fill="#42536D" stroke="#42536D"/>
<path d="M13.8075 3.42893L13.8075 3.42891L13.8031 3.42769C13.4954 3.34282 13.1954 3.27835 12.9034 3.23509L12.9034 3.235L12.8943 3.23382C11.9798 3.11548 11.0888 3.17915 10.247 3.4306L10.247 3.4305L10.2371 3.43367C10.1525 3.46086 10.0551 3.43518 9.99088 3.36423C9.92508 3.2915 9.90825 3.19402 9.94316 3.10834L9.94321 3.10836L9.94587 3.10155C10.2812 2.24266 11.0969 1.67969 12.0301 1.67969C12.9642 1.67969 13.7766 2.23292 14.1123 3.09612C14.1499 3.20052 14.1263 3.29869 14.0723 3.36094C14.024 3.41038 13.9514 3.43969 13.8801 3.43969C13.8584 3.43969 13.8346 3.43668 13.8075 3.42893Z" fill="#42536D" stroke="#42536D"/>
<path d="M12.02 22.3096C11.1634 22.3096 10.3304 21.9628 9.72357 21.356C9.23584 20.8683 8.91611 20.2344 8.80942 19.5596H9.31672C9.41833 20.1012 9.68246 20.6091 10.0765 21.0031C10.59 21.5167 11.2971 21.8096 12.02 21.8096C13.3655 21.8096 14.4886 20.8379 14.7245 19.5596H15.2317C14.991 21.1164 13.6439 22.3096 12.02 22.3096Z" fill="#42536D" stroke="#42536D"/>
</svg>
