<svg width="112" height="111" viewBox="0 0 112 111" fill="none" xmlns="http://www.w3.org/2000/svg">
<g id="fi_3640726">
<path id="Vector" d="M32.3258 63.5126C36.5595 66.1106 41.4082 67.5352 46.3743 67.6404C48.715 67.6739 51.0387 67.2375 53.2077 66.357C53.5408 66.213 53.8203 65.9683 54.007 65.6572C54.1937 65.346 54.2781 64.9842 54.2483 64.6226C53.4679 58.2921 48.5943 51.7535 41.518 47.5563C34.4244 43.3591 26.429 42.2665 20.7055 44.712C20.3725 44.8559 20.0929 45.1006 19.9062 45.4117C19.7195 45.7229 19.6351 46.0847 19.6649 46.4463C20.376 52.7768 25.2496 59.3154 32.3258 63.5126ZM39.749 50.4701C45.299 53.7654 49.4094 58.8124 50.5715 63.6166C45.9233 64.9521 39.6276 63.8074 34.0949 60.5295C28.5622 57.2515 24.4344 52.1871 23.2724 47.3829C27.9205 46.0474 34.2163 47.1921 39.749 50.4701Z" fill="#6B7557"/>
<path id="Vector_2" d="M57.7344 64.5542C57.7046 64.9158 57.789 65.2777 57.9757 65.5888C58.1624 65.8999 58.4419 66.1447 58.775 66.2886C60.944 67.1692 63.2677 67.6056 65.6084 67.572C70.5741 67.4644 75.4222 66.0399 79.6569 63.4442C86.7331 59.247 91.6067 52.7084 92.3872 46.378C92.4169 46.0164 92.3325 45.6545 92.1459 45.3434C91.9592 45.0323 91.6796 44.7875 91.3465 44.6436C85.5537 42.1981 77.4715 43.2908 70.534 47.488C63.5965 51.6852 58.5322 58.2238 57.7344 64.5542ZM88.7103 47.3839C87.5483 52.1881 83.5072 57.2352 77.8878 60.5305C72.2684 63.8258 66.0594 64.9531 61.4112 63.6177C62.5733 58.8134 66.6144 53.7664 72.2337 50.4711C77.8531 47.1758 84.0795 46.0484 88.7276 47.3839H88.7103Z" fill="#6B7557"/>
<path id="Vector_3" d="M56 17.3438C52.0216 17.36 48.1996 18.8948 45.3148 21.6345C42.43 24.3742 40.7001 28.112 40.4787 32.0843C40.2573 36.0565 41.561 39.9634 44.1234 43.0067C46.6859 46.0501 50.3137 48.0001 54.2656 48.4584V69.375C44.5358 69.9994 36.6964 75.8962 35.3783 83.5448C34.1295 83.6836 32.8461 83.8744 31.7188 84.1172C31.7096 82.964 31.2451 81.8613 30.4264 81.0491C29.6078 80.2369 28.5013 79.7812 27.3481 79.7812H18.6762C17.5292 79.7995 16.4352 80.268 15.6305 81.0856C14.8258 81.9033 14.3749 83.0046 14.375 84.1519V103.23C14.3932 104.377 14.8617 105.471 15.6794 106.276C16.4971 107.08 17.5984 107.531 18.7456 107.531H27.4175C28.5646 107.513 29.6585 107.045 30.4632 106.227C31.268 105.409 31.7189 104.308 31.7188 103.161V102.866L48.6116 107.531C48.7607 107.557 48.9133 107.557 49.0625 107.531C49.2824 107.534 49.5007 107.493 49.7042 107.41L71.8695 98.738C72.0901 98.6523 72.2907 98.5225 72.4592 98.3564L82.1717 88.6786C82.6665 88.1982 83.0608 87.6241 83.3318 86.9899C83.6027 86.3557 83.7449 85.674 83.75 84.9844C83.7449 84.2906 83.6012 83.6048 83.3271 82.9674C83.0531 82.33 82.6544 81.7538 82.1544 81.2728C81.2942 80.4783 80.2028 79.9792 79.0392 79.8482C77.8756 79.7171 76.7005 79.961 75.6852 80.5444C73.0662 74.3526 66.0594 69.982 57.7344 69.375V48.4584C61.6863 48.0001 65.3141 46.0501 67.8766 43.0067C70.439 39.9634 71.7427 36.0565 71.5213 32.0843C71.2999 28.112 69.57 24.3742 66.6852 21.6345C63.8004 18.8948 59.9784 17.36 56 17.3438ZM56 72.8437C58.401 72.8388 60.7862 73.2315 63.0589 74.0058C60.9083 75.0865 59.0252 76.6324 57.5462 78.5313C56.0673 80.4302 55.0296 82.6346 54.5084 84.9844H48.6983C46.1805 83.8262 43.4394 83.2342 40.6681 83.25H38.9338C40.5987 77.3011 47.5883 72.8437 56 72.8437ZM28.25 103.161C28.25 103.4 28.155 103.629 27.9858 103.798C27.8167 103.967 27.5873 104.062 27.3481 104.062H18.6762C18.4371 104.062 18.2077 103.967 18.0385 103.798C17.8694 103.629 17.7744 103.4 17.7744 103.161V84.0825C17.7744 83.8433 17.8694 83.6139 18.0385 83.4448C18.2077 83.2756 18.4371 83.1806 18.6762 83.1806H27.3481C27.5873 83.1806 27.8167 83.2756 27.9858 83.4448C28.155 83.6139 28.25 83.8433 28.25 84.0825V103.161ZM79.7609 83.7703C80.0877 84.0905 80.2747 84.5269 80.2812 84.9844C80.278 85.2151 80.2288 85.4428 80.1365 85.6543C80.0442 85.8657 79.9106 86.0566 79.7436 86.2158L70.2566 95.6508L48.9584 104.062L31.7188 99.2756V87.742C34.6598 87.1002 37.6581 86.7574 40.6681 86.7187C43.0403 86.697 45.3853 87.2253 47.5189 88.2623C47.7605 88.3861 48.0279 88.4515 48.2994 88.4531H63.9088C64.1576 88.4294 64.4087 88.4557 64.6473 88.5305C64.8858 88.6053 65.107 88.7271 65.2977 88.8888C65.4885 89.0504 65.6449 89.2486 65.7579 89.4716C65.8708 89.6947 65.9379 89.9381 65.9553 90.1875C65.9568 90.4781 65.8852 90.7643 65.7472 91.02C65.5712 91.2974 65.3278 91.5256 65.0396 91.6833C64.7515 91.841 64.428 91.9231 64.0995 91.9219H49.0625V95.3906H64.0302C64.9566 95.3939 65.8682 95.1576 66.6765 94.7049C67.4848 94.2521 68.1624 93.5981 68.6436 92.8064C68.9654 92.2724 69.1886 91.685 69.3027 91.072L77.0553 83.857C77.4127 83.5049 77.8897 83.3005 78.3912 83.2844C78.8926 83.2683 79.3817 83.4418 79.7609 83.7703ZM72.8234 82.9378L68.2967 87.1523C67.7717 86.4713 67.096 85.9211 66.3226 85.5449C65.5493 85.1688 64.6993 84.9769 63.8394 84.9844H58.0466C59.0525 81.0994 62.3825 77.7867 67.1694 75.9483C69.8444 77.5227 71.8683 80.0018 72.8755 82.9378H72.8234ZM56 45.0937C53.5988 45.0937 51.2515 44.3817 49.255 43.0477C47.2585 41.7137 45.7024 39.8175 44.7835 37.5991C43.8646 35.3807 43.6242 32.9397 44.0927 30.5846C44.5611 28.2296 45.7174 26.0663 47.4153 24.3684C49.1132 22.6705 51.2764 21.5142 53.6315 21.0458C55.9865 20.5773 58.4276 20.8178 60.646 21.7367C62.8644 22.6555 64.7605 24.2116 66.0946 26.2082C67.4286 28.2047 68.1406 30.5519 68.1406 32.9531C68.1406 36.173 66.8615 39.261 64.5847 41.5378C62.3079 43.8146 59.2199 45.0937 56 45.0937Z" fill="#6B7557"/>
<path id="Vector_4" d="M59.4688 29.4844H62.9375C62.9375 28.1044 62.3893 26.781 61.4135 25.8052C60.4378 24.8294 59.1143 24.2812 57.7344 24.2812V22.5469H54.2656V24.2812C52.8857 24.2812 51.5622 24.8294 50.5865 25.8052C49.6107 26.781 49.0625 28.1044 49.0625 29.4844C49.0625 30.8643 49.6107 32.1878 50.5865 33.1635C51.5622 34.1393 52.8857 34.6875 54.2656 34.6875V38.1562C53.8056 38.1562 53.3645 37.9735 53.0392 37.6483C52.714 37.323 52.5312 36.8819 52.5312 36.4219H49.0625C49.0625 37.8018 49.6107 39.1253 50.5865 40.101C51.5622 41.0768 52.8857 41.625 54.2656 41.625V43.3594H57.7344V41.625C59.1143 41.625 60.4378 41.0768 61.4135 40.101C62.3893 39.1253 62.9375 37.8018 62.9375 36.4219C62.9375 35.0419 62.3893 33.7185 61.4135 32.7427C60.4378 31.7669 59.1143 31.2188 57.7344 31.2188V27.75C58.1944 27.75 58.6355 27.9327 58.9608 28.258C59.286 28.5832 59.4688 29.0244 59.4688 29.4844ZM59.4688 36.4219C59.4688 36.8819 59.286 37.323 58.9608 37.6483C58.6355 37.9735 58.1944 38.1562 57.7344 38.1562V34.6875C58.1944 34.6875 58.6355 34.8702 58.9608 35.1955C59.286 35.5207 59.4688 35.9619 59.4688 36.4219ZM54.2656 31.2188C53.8056 31.2188 53.3645 31.036 53.0392 30.7108C52.714 30.3855 52.5312 29.9444 52.5312 29.4844C52.5312 29.0244 52.714 28.5832 53.0392 28.258C53.3645 27.9327 53.8056 27.75 54.2656 27.75V31.2188Z" fill="#738C3F"/>
<path id="Vector_5" d="M21.3125 20.8125C30.8689 20.8125 38.6562 13.875 38.6562 5.20312C38.6562 4.74314 38.4735 4.30199 38.1483 3.97674C37.823 3.65148 37.3819 3.46875 36.9219 3.46875H5.70312C5.24314 3.46875 4.80199 3.65148 4.47674 3.97674C4.15148 4.30199 3.96875 4.74314 3.96875 5.20312C3.96875 13.875 11.7561 20.8125 21.3125 20.8125ZM35.0487 6.9375C34.0775 12.817 28.25 17.3438 21.3125 17.3438C14.375 17.3438 8.5475 12.817 7.57625 6.9375H35.0487Z" fill="#6B7557"/>
<path id="Vector_6" d="M19.6821 24.2812H23.1509V29.4844H19.6821V24.2812Z" fill="#6B7557"/>
<path id="Vector_7" d="M6.10742 24.791L9.78659 21.1119L12.2394 23.5646L8.5602 27.2438L6.10742 24.791Z" fill="#6B7557"/>
<path id="Vector_8" d="M30.3851 23.5684L32.8379 21.1156L36.5171 24.7947L34.0643 27.2475L30.3851 23.5684Z" fill="#6B7557"/>
<path id="Vector_9" d="M104.875 3.46856H76.5003C76.2412 3.46768 75.9852 3.52486 75.7511 3.63591C75.517 3.74696 75.3108 3.90905 75.1475 4.11028C73.9996 5.55962 73.387 7.36067 73.4132 9.20934C73.4852 11.4608 74.4306 13.5959 76.0491 15.1627C77.6677 16.7294 79.8324 17.6049 82.085 17.6037C82.5634 19.5422 83.6775 21.2645 85.2494 22.4956C86.8212 23.7267 88.7603 24.3957 90.7569 24.3957C92.7535 24.3957 94.6926 23.7267 96.2645 22.4956C97.8363 21.2645 98.9504 19.5422 99.4288 17.6037C101.681 17.6049 103.846 16.7294 105.465 15.1627C107.083 13.5959 108.029 11.4608 108.101 9.20934C108.127 7.36067 107.514 5.55962 106.366 4.11028C106.189 3.88973 105.96 3.71594 105.7 3.60408C105.44 3.49223 105.157 3.4457 104.875 3.46856ZM99.2033 14.135C98.8196 14.1309 98.4368 14.0961 98.0586 14.0309C97.7919 13.9855 97.5182 14.0032 97.2594 14.0825C97.0007 14.1618 96.7641 14.3005 96.5686 14.4876C96.3731 14.6747 96.2241 14.9049 96.1335 15.1599C96.0428 15.4149 96.0131 15.6875 96.0467 15.9561C95.9575 17.3024 95.3487 18.5615 94.3488 19.4675C93.3489 20.3736 92.0362 20.8557 90.6875 20.8123C89.5237 20.8374 88.384 20.4792 87.4438 19.7929C86.5036 19.1066 85.8151 18.1301 85.4844 17.014C87.0568 16.4293 88.4194 15.3895 89.3986 14.0273C90.3778 12.6651 90.9291 11.0422 90.9824 9.36543C90.9824 8.90545 90.7996 8.4643 90.4744 8.13904C90.1491 7.81379 89.708 7.63106 89.248 7.63106C88.788 7.63106 88.3469 7.81379 88.0216 8.13904C87.6964 8.4643 87.5136 8.90545 87.5136 9.36543C87.454 10.5144 87.0036 11.6084 86.2372 12.4664C85.4707 13.3244 84.4341 13.8947 83.2991 14.0829C82.9268 14.1483 82.5497 14.1831 82.1717 14.187C80.8032 14.2293 79.4731 13.7305 78.4699 12.7987C77.4667 11.8669 76.8712 10.5773 76.8125 9.20934C76.8122 8.41412 77.0152 7.63202 77.4022 6.93731H103.973C104.36 7.63202 104.563 8.41412 104.563 9.20934C104.491 10.5681 103.889 11.8446 102.888 12.7653C101.886 13.686 100.563 14.1777 99.2033 14.135Z" fill="#6B7557"/>
<path id="Vector_10" d="M75.0781 19.0781H78.5469V22.5469H75.0781V19.0781Z" fill="#6B7557"/>
<path id="Vector_11" d="M75.0781 26.0156H78.5469V29.4844H75.0781V26.0156Z" fill="#6B7557"/>
<path id="Vector_12" d="M102.828 19.0781H106.297V22.5469H102.828V19.0781Z" fill="#6B7557"/>
<path id="Vector_13" d="M102.828 26.0156H106.297V29.4844H102.828V26.0156Z" fill="#6B7557"/>
<path id="Vector_14" d="M82.0156 26.0156H85.4844V29.4844H82.0156V26.0156Z" fill="#6B7557"/>
<path id="Vector_15" d="M82.0156 32.9531H85.4844V36.4219H82.0156V32.9531Z" fill="#6B7557"/>
<path id="Vector_16" d="M88.9531 29.4844H92.4219V32.9531H88.9531V29.4844Z" fill="#6B7557"/>
<path id="Vector_17" d="M88.9531 36.4219H92.4219V39.8906H88.9531V36.4219Z" fill="#6B7557"/>
<path id="Vector_18" d="M95.8906 26.0156H99.3594V29.4844H95.8906V26.0156Z" fill="#6B7557"/>
<path id="Vector_19" d="M95.8906 32.9531H99.3594V36.4219H95.8906V32.9531Z" fill="#6B7557"/>
</g>
</svg>
