<svg width="16" height="16" viewBox="0 0 16 16" fill="none" xmlns="http://www.w3.org/2000/svg">
<path d="M13.6133 8.24646C14.1933 8.47979 14.5533 9.16646 14.42 9.77313L14.1467 11.0131C13.6733 13.1465 12 14.6665 9.58666 14.6665H6.41332C3.99999 14.6665 2.32666 13.1465 1.85332 11.0131L1.57999 9.77313C1.44666 9.16646 1.80665 8.47979 2.38665 8.24646L3.33333 7.86645L7.00667 6.39312C7.64667 6.13979 8.35332 6.13979 8.99332 6.39312L12.6667 7.86645L13.6133 8.24646Z" stroke="#73292C" stroke-width="1.375" stroke-linecap="round" stroke-linejoin="round"/>
<path d="M8 14.666V6.66602" stroke="#73292C" stroke-width="1.375" stroke-linecap="round" stroke-linejoin="round"/>
<path d="M12.6668 5.33398V7.86731L8.99349 6.39398C8.35349 6.14065 7.64684 6.14065 7.00684 6.39398L3.3335 7.86731V5.33398C3.3335 4.23398 4.2335 3.33398 5.3335 3.33398H10.6668C11.7668 3.33398 12.6668 4.23398 12.6668 5.33398Z" stroke="#73292C" stroke-width="1.375" stroke-linecap="round" stroke-linejoin="round"/>
<path d="M9.66683 3.33301H6.3335V1.99967C6.3335 1.63301 6.6335 1.33301 7.00016 1.33301H9.00016C9.36683 1.33301 9.66683 1.63301 9.66683 1.99967V3.33301Z" stroke="#73292C" stroke-width="1.375" stroke-linecap="round" stroke-linejoin="round"/>
</svg>
