<svg width="53" height="26" viewBox="0 0 53 26" fill="none" xmlns="http://www.w3.org/2000/svg">
<path d="M45.1043 11.7266H51.2635C51.4707 11.7266 51.6387 11.8945 51.6387 12.1017V14.9025C51.6387 15.1097 51.4707 15.2778 51.2635 15.2778H45.1043C44.8971 15.2778 44.7291 15.1097 44.7291 14.9025V12.1017C44.7291 11.8945 44.8971 11.7266 45.1043 11.7266Z" fill="#4F6484"/>
<path d="M33.0008 12.7734H35.2221C35.3108 12.7734 35.3828 12.8454 35.3828 12.9343V15.1555C35.3828 15.2443 35.3108 15.3163 35.2221 15.3163H33.0008C32.9121 15.3163 32.8401 15.2443 32.8401 15.1555V12.9343C32.8401 12.8454 32.9121 12.7734 33.0008 12.7734Z" fill="#A9B9D0"/>
<path d="M36.5653 12.7734H38.7864C38.8754 12.7734 38.9473 12.8454 38.9473 12.9343V15.1555C38.9473 15.2443 38.8754 15.3163 38.7864 15.3163H36.5653C36.4763 15.3163 36.4044 15.2443 36.4044 15.1555V12.9343C36.4044 12.8454 36.4764 12.7734 36.5653 12.7734Z" fill="#A9B9D0"/>
<path d="M40.1278 12.7734H42.3489C42.4378 12.7734 42.5098 12.8454 42.5098 12.9343V15.1555C42.5098 15.2443 42.4378 15.3163 42.3489 15.3163H40.1278C40.039 15.3163 39.9671 15.2443 39.9671 15.1555V12.9343C39.967 12.8454 40.039 12.7734 40.1278 12.7734Z" fill="#A9B9D0"/>
<path d="M36.5653 9.44141H38.7864C38.8754 9.44141 38.9473 9.51341 38.9473 9.60218V11.8234C38.9473 11.9122 38.8754 11.9842 38.7864 11.9842H36.5653C36.4763 11.9842 36.4044 11.9122 36.4044 11.8234V9.60218C36.4044 9.51341 36.4764 9.44141 36.5653 9.44141Z" fill="#A9B9D0"/>
<path d="M40.1278 9.44141H42.3489C42.4378 9.44141 42.5098 9.51341 42.5098 9.60218V11.8234C42.5098 11.9122 42.4378 11.9842 42.3489 11.9842H40.1278C40.039 11.9842 39.9671 11.9122 39.9671 11.8234V9.60218C39.967 9.51341 40.039 9.44141 40.1278 9.44141Z" fill="#A9B9D0"/>
<path d="M47.184 8H49.186C49.3044 8 49.4004 8.09604 49.4004 8.21442V10.7536C49.4004 10.872 49.3044 10.968 49.186 10.968H47.184C47.0656 10.968 46.9697 10.872 46.9697 10.7536V8.21442C46.9697 8.09604 47.0656 8 47.184 8Z" fill="#4F6484"/>
<path d="M47.184 6.25208H47.8635V3.92311C47.8635 3.74552 48.0075 3.60156 48.1851 3.60156C48.3627 3.60156 48.5067 3.74552 48.5067 3.92311V6.25208H49.186C49.3044 6.25208 49.4004 6.34806 49.4004 6.4665V7.02895C49.4004 7.14727 49.3044 7.24331 49.186 7.24331H47.184C47.0656 7.24331 46.9697 7.14727 46.9697 7.02895V6.4665C46.9697 6.34806 47.0656 6.25208 47.184 6.25208Z" fill="#4F6484"/>
<path d="M27.0168 15.4399C27.0404 15.3974 27.0852 15.3711 27.1338 15.3711H31.4068C31.448 15.3711 31.487 15.3901 31.5124 15.4226L32.079 16.1475H52.866C52.9105 16.1475 52.9521 16.1697 52.9771 16.2066C53.002 16.2436 53.007 16.2905 52.9902 16.3318C52.9902 16.3318 51.1752 20.8159 50.5691 22.3101C50.5485 22.3607 50.4994 22.3937 50.4448 22.3937H31.325C31.2785 22.3937 31.2313 22.3777 31.2021 22.3303C30.1601 20.6395 27.02 15.5756 27.02 15.5756C26.9944 15.5343 26.9932 15.4824 27.0168 15.4399ZM35.5523 18.7941C35.8428 18.7941 36.0784 18.5586 36.0784 18.268C36.0784 17.9774 35.8428 17.7419 35.5523 17.7419C35.2617 17.7419 35.0262 17.9775 35.0262 18.268C35.0262 18.5585 35.2616 18.7941 35.5523 18.7941ZM33.0021 18.7941C33.2927 18.7941 33.5282 18.5586 33.5282 18.268C33.5282 17.9774 33.2927 17.7419 33.0021 17.7419C32.7116 17.7419 32.4761 17.9775 32.4761 18.268C32.4761 18.5585 32.7117 18.7941 33.0021 18.7941Z" fill="#4F6484"/>
<path d="M18.582 14.4609L15.0412 18.0018L18.582 21.5426" stroke="#A9B9D0" stroke-width="1.5" stroke-miterlimit="10" stroke-linecap="round" stroke-linejoin="round"/>
<path d="M24.959 18H15.1415" stroke="#A9B9D0" stroke-width="1.5" stroke-miterlimit="10" stroke-linecap="round" stroke-linejoin="round"/>
</svg>
