<svg width="53" height="26" viewBox="0 0 53 26" fill="none" xmlns="http://www.w3.org/2000/svg">
<path d="M7.89566 11.7266H1.73647C1.52932 11.7266 1.36133 11.8945 1.36133 12.1017V14.9025C1.36133 15.1097 1.52932 15.2778 1.73647 15.2778H7.89566C8.10286 15.2778 8.27085 15.1097 8.27085 14.9025V12.1017C8.27085 11.8945 8.10286 11.7266 7.89566 11.7266Z" fill="#4F6484"/>
<path d="M19.9992 12.7734H17.7779C17.6892 12.7734 17.6172 12.8454 17.6172 12.9343V15.1555C17.6172 15.2443 17.6892 15.3163 17.7779 15.3163H19.9992C20.0879 15.3163 20.1599 15.2443 20.1599 15.1555V12.9343C20.1599 12.8454 20.0879 12.7734 19.9992 12.7734Z" fill="#A9B9D0"/>
<path d="M16.4347 12.7734H14.2136C14.1246 12.7734 14.0527 12.8454 14.0527 12.9343V15.1555C14.0527 15.2443 14.1246 15.3163 14.2136 15.3163H16.4347C16.5237 15.3163 16.5956 15.2443 16.5956 15.1555V12.9343C16.5956 12.8454 16.5236 12.7734 16.4347 12.7734Z" fill="#A9B9D0"/>
<path d="M12.8722 12.7734H10.6511C10.5622 12.7734 10.4902 12.8454 10.4902 12.9343V15.1555C10.4902 15.2443 10.5622 15.3163 10.6511 15.3163H12.8722C12.961 15.3163 13.0329 15.2443 13.0329 15.1555V12.9343C13.033 12.8454 12.961 12.7734 12.8722 12.7734Z" fill="#A9B9D0"/>
<path d="M16.4347 9.44141H14.2136C14.1246 9.44141 14.0527 9.51341 14.0527 9.60218V11.8234C14.0527 11.9122 14.1246 11.9842 14.2136 11.9842H16.4347C16.5237 11.9842 16.5956 11.9122 16.5956 11.8234V9.60218C16.5956 9.51341 16.5236 9.44141 16.4347 9.44141Z" fill="#A9B9D0"/>
<path d="M12.8722 9.44141H10.6511C10.5622 9.44141 10.4902 9.51341 10.4902 9.60218V11.8234C10.4902 11.9122 10.5622 11.9842 10.6511 11.9842H12.8722C12.961 11.9842 13.0329 11.9122 13.0329 11.8234V9.60218C13.033 9.51341 12.961 9.44141 12.8722 9.44141Z" fill="#A9B9D0"/>
<path d="M5.81598 8H3.81398C3.6956 8 3.59961 8.09604 3.59961 8.21442V10.7536C3.59961 10.872 3.6956 10.968 3.81398 10.968H5.81598C5.93441 10.968 6.03034 10.872 6.03034 10.7536V8.21442C6.03034 8.09604 5.93436 8 5.81598 8Z" fill="#4F6484"/>
<path d="M5.81598 6.25208H5.13653V3.92311C5.13653 3.74552 4.99252 3.60156 4.81492 3.60156C4.63727 3.60156 4.49332 3.74552 4.49332 3.92311V6.25208H3.81398C3.6956 6.25208 3.59961 6.34806 3.59961 6.4665V7.02895C3.59961 7.14727 3.6956 7.24331 3.81398 7.24331H5.81598C5.93441 7.24331 6.03034 7.14727 6.03034 7.02895V6.4665C6.03034 6.34806 5.93436 6.25208 5.81598 6.25208Z" fill="#4F6484"/>
<path d="M25.9832 15.4399C25.9596 15.3974 25.9148 15.3711 25.8662 15.3711H21.5932C21.552 15.3711 21.513 15.3901 21.4876 15.4226L20.921 16.1475H0.13403C0.0894582 16.1475 0.0479112 16.1697 0.0229194 16.2066C-0.00196631 16.2436 -0.00695406 16.2905 0.00976022 16.3318C0.00976022 16.3318 1.82483 20.8159 2.43094 22.3101C2.45148 22.3607 2.50061 22.3937 2.55516 22.3937H21.675C21.7215 22.3937 21.7687 22.3777 21.7979 22.3303C22.8399 20.6395 25.98 15.5756 25.98 15.5756C26.0056 15.5343 26.0068 15.4824 25.9832 15.4399ZM17.4477 18.7941C17.1572 18.7941 16.9216 18.5586 16.9216 18.268C16.9216 17.9774 17.1572 17.7419 17.4477 17.7419C17.7383 17.7419 17.9738 17.9775 17.9738 18.268C17.9738 18.5585 17.7384 18.7941 17.4477 18.7941ZM19.9979 18.7941C19.7073 18.7941 19.4718 18.5586 19.4718 18.268C19.4718 17.9774 19.7073 17.7419 19.9979 17.7419C20.2884 17.7419 20.5239 17.9775 20.5239 18.268C20.5239 18.5585 20.2883 18.7941 19.9979 18.7941Z" fill="#4F6484"/>
<path d="M34.418 14.4609L37.9588 18.0018L34.418 21.5426" stroke="#A9B9D0" stroke-width="1.5" stroke-miterlimit="10" stroke-linecap="round" stroke-linejoin="round"/>
<path d="M28.041 18H37.8585" stroke="#A9B9D0" stroke-width="1.5" stroke-miterlimit="10" stroke-linecap="round" stroke-linejoin="round"/>
</svg>
