<svg width="40" height="40" viewBox="0 0 40 40" fill="none" xmlns="http://www.w3.org/2000/svg">
<g clip-path="url(#clip0_6566_323789)">
<path d="M12.1469 18.043H2.67127C2.35257 18.043 2.09412 18.3013 2.09412 18.6201V22.9291C2.09412 23.2479 2.35257 23.5064 2.67127 23.5064H12.1469C12.4657 23.5064 12.7242 23.2479 12.7242 22.9291V18.6201C12.7242 18.3013 12.4657 18.043 12.1469 18.043Z" fill="#4F6484"/>
<path d="M30.766 19.6523H27.3486C27.2121 19.6523 27.1013 19.7631 27.1013 19.8998V23.3171C27.1013 23.4536 27.2121 23.5644 27.3486 23.5644H30.766C30.9024 23.5644 31.0131 23.4536 31.0131 23.3171V19.8998C31.0131 19.7631 30.9024 19.6523 30.766 19.6523Z" fill="#A9B9D0"/>
<path d="M25.2839 19.6523H21.8668C21.7299 19.6523 21.6193 19.7631 21.6193 19.8998V23.3171C21.6193 23.4536 21.7299 23.5644 21.8668 23.5644H25.2839C25.4208 23.5644 25.5315 23.4536 25.5315 23.3171V19.8998C25.5315 19.7631 25.4207 19.6523 25.2839 19.6523Z" fill="#A9B9D0"/>
<path d="M19.802 19.6523H16.3849C16.2482 19.6523 16.1375 19.7631 16.1375 19.8998V23.3171C16.1375 23.4536 16.2482 23.5644 16.3849 23.5644H19.802C19.9386 23.5644 20.0493 23.4536 20.0493 23.3171V19.8998C20.0494 19.7631 19.9386 19.6523 19.802 19.6523Z" fill="#A9B9D0"/>
<path d="M25.2839 14.5273H21.8668C21.7299 14.5273 21.6193 14.6381 21.6193 14.7747V18.192C21.6193 18.3286 21.7299 18.4393 21.8668 18.4393H25.2839C25.4208 18.4393 25.5315 18.3286 25.5315 18.192V14.7747C25.5315 14.6381 25.4207 14.5273 25.2839 14.5273Z" fill="#A9B9D0"/>
<path d="M19.802 14.5273H16.3849C16.2482 14.5273 16.1375 14.6381 16.1375 14.7747V18.192C16.1375 18.3286 16.2482 18.4393 16.3849 18.4393H19.802C19.9386 18.4393 20.0493 18.3286 20.0493 18.192V14.7747C20.0494 14.6381 19.9386 14.5273 19.802 14.5273Z" fill="#A9B9D0"/>
<path d="M8.94914 12.3086H5.86914C5.68702 12.3086 5.53934 12.4563 5.53934 12.6385V16.5449C5.53934 16.727 5.68702 16.8748 5.86914 16.8748H8.94914C9.13134 16.8748 9.27894 16.7271 9.27894 16.5449V12.6385C9.27894 12.4563 9.13126 12.3086 8.94914 12.3086Z" fill="#4F6484"/>
<path d="M8.94914 9.62068H7.90383V6.03766C7.90383 5.76444 7.68228 5.54297 7.40906 5.54297C7.13575 5.54297 6.91428 5.76444 6.91428 6.03766V9.62068H5.86914C5.68702 9.62068 5.53934 9.76836 5.53934 9.95056V10.8159C5.53934 10.9979 5.68702 11.1457 5.86914 11.1457H8.94914C9.13134 11.1457 9.27894 10.9979 9.27894 10.8159V9.95056C9.27894 9.76836 9.13126 9.62068 8.94914 9.62068Z" fill="#4F6484"/>
<path d="M39.974 23.7581C39.9378 23.6928 39.8689 23.6523 39.794 23.6523H33.2202C33.1568 23.6523 33.0968 23.6816 33.0578 23.7315L32.1861 24.8468H0.206123C0.137552 24.8468 0.0736333 24.8809 0.0351843 24.9378C-0.00310138 24.9946 -0.0107749 25.0669 0.0149394 25.1304C0.0149394 25.1304 2.80735 32.0289 3.73984 34.3278C3.77143 34.4056 3.84702 34.4564 3.93094 34.4564H33.3461C33.4176 34.4564 33.4903 34.4317 33.5351 34.3589C35.1383 31.7576 39.9691 23.967 39.9691 23.967C40.0085 23.9034 40.0104 23.8235 39.974 23.7581ZM26.8425 28.9185C26.3957 28.9185 26.0331 28.5562 26.0331 28.1092C26.0331 27.6621 26.3957 27.2998 26.8425 27.2998C27.2896 27.2998 27.652 27.6621 27.652 28.1092C27.652 28.5561 27.2897 28.9185 26.8425 28.9185ZM30.766 28.9185C30.3188 28.9185 29.9565 28.5562 29.9565 28.1092C29.9565 27.6621 30.3188 27.2998 30.766 27.2998C31.2128 27.2998 31.5751 27.6621 31.5751 28.1092C31.5751 28.5561 31.2127 28.9185 30.766 28.9185Z" fill="#4F6484"/>
</g>
<defs>
<clipPath id="clip0_6566_323789">
<rect width="40" height="40" fill="white"/>
</clipPath>
</defs>
</svg>
