<svg width="58" height="50" viewBox="0 0 58 50" fill="none" xmlns="http://www.w3.org/2000/svg">
<g clip-path="url(#clip0_1_3)">
<path d="M5.82202 7.65974L5.90735 7.69428C6.00052 8.06756 6.07707 8.3775 6.32404 8.68038C6.52632 8.76234 6.64932 8.85816 6.86545 8.76732C6.96309 8.72628 7.05812 8.67535 7.15249 8.62726L7.79408 8.88154C7.76692 9.05089 7.75609 9.24008 7.64981 9.38032C7.51041 9.49117 7.34819 9.56563 7.32431 9.75039C7.25759 10.2667 7.63382 11.027 7.81694 11.5166C7.73234 11.8001 7.71324 11.8638 7.48152 12.0594L7.46215 12.0773C7.16861 12.345 6.87954 12.546 6.47813 12.5289L6.25317 12.2788C6.23306 11.7085 6.93617 11.7562 7.14559 11.2293C6.97869 10.3467 6.41961 9.94899 5.94456 9.26146C5.58435 8.74013 5.71163 8.23794 5.82202 7.65974Z" fill="#2D120E"/>
<path d="M5.82092 7.65807C5.92625 7.25442 5.99913 6.82124 6.32106 6.52925C6.58714 6.42203 6.7124 6.37027 6.98759 6.48269C7.52971 6.70418 8.05676 7.67212 8.26098 8.18591C8.35621 8.42551 8.43445 8.67286 8.50907 8.91944L7.79299 8.87987L7.15139 8.62559C7.05702 8.67368 6.96199 8.72461 6.86435 8.76565C6.64823 8.85649 6.52523 8.76066 6.32295 8.6787C6.07598 8.37582 5.99942 8.06588 5.90625 7.6926L5.82092 7.65807Z" fill="#3E3433"/>
<path d="M5.90687 7.69186C6.04944 7.38126 6.09961 7.27678 6.38208 7.07464C6.66046 7.09149 6.79137 7.11816 6.97682 7.33982C7.17606 7.578 7.28575 7.97523 7.24396 8.28202C7.22802 8.39911 7.19217 8.51414 7.15201 8.62484C7.05763 8.67293 6.9626 8.72386 6.86497 8.7649C6.64884 8.85574 6.52584 8.75992 6.32356 8.67796C6.07659 8.37508 6.00004 8.06514 5.90687 7.69186Z" fill="#FEFEFE"/>
<path d="M7.81648 11.5166C8.4728 13.1898 9.04408 14.8953 9.62927 16.5943L10.8454 20.0831C11.336 21.4683 13.5636 28.3951 14.0305 29.0477C14.2274 29.0433 14.3612 29.0149 14.5412 28.9349L14.689 29.0671L14.2251 29.289C14.1286 29.7041 14.2184 29.8087 13.892 30.1127C13.2962 28.8605 12.8969 27.4999 12.437 26.1918L10.3019 20.2156C9.83379 19.0128 9.43559 17.7711 9.00484 16.5535C8.46665 15.0802 7.88168 13.5749 7.48106 12.0594C7.71278 11.8638 7.73188 11.8001 7.81648 11.5166Z" fill="#3E3433"/>
<path d="M14.6895 29.0648C15.2127 30.4347 16.4602 33.1615 16.7174 34.4879L16.575 34.4959C15.9183 35.0607 17.8928 37.5985 17.4843 38.5132C16.3366 38.1876 15.4255 33.9652 14.6636 32.8572C14.7033 33.1325 14.7093 33.4288 14.6352 33.6995C14.5596 33.9756 14.427 34.1019 14.1868 34.2342C14.018 34.1507 13.9741 34.1438 13.8841 33.9703C13.7133 33.6409 13.7562 33.157 13.687 32.7911C13.5798 32.2251 12.9371 31.3677 13.1106 30.8299C13.5867 30.6888 13.7767 31.0896 14.318 30.9295C14.3768 30.6425 14.0353 30.3864 13.8925 30.1105C14.2188 29.8065 14.129 29.7018 14.2256 29.2868L14.6895 29.0648Z" fill="#BBB3B3"/>
<path d="M7.79406 8.88069L8.51015 8.92027C8.60083 9.31995 8.75946 10.3761 9.12694 10.5964C9.16918 10.6217 9.15948 10.6162 9.19781 10.6335C9.69494 10.7431 10.8267 11.3847 11.1769 11.26L11.2361 11.178C11.3446 11.7632 11.8298 11.9581 12.1049 12.4207C12.3778 12.9494 12.6413 13.4707 13.0741 13.8914C13.4467 14.413 13.724 15.0916 14.1393 15.5611L15.0105 17.3842C15.3538 18.2916 16.2191 20.0644 16.25 20.9839C16.5753 21.7209 16.7656 22.484 16.9636 23.2617L17.0403 23.9283C17.0796 24.2896 17.1385 24.6603 17.1489 25.0234L17.2288 26.0489C17.2953 26.4203 17.4097 26.8358 17.4052 27.2116L17.4006 28.1311C17.369 28.6605 17.334 29.1745 17.4041 29.703L17.3222 29.7798C17.1111 30.3421 16.8497 30.7909 16.5038 31.2805C16.8425 32.4483 18.8577 37.8027 18.6753 38.5593L18.5578 38.6359C17.8381 38.0884 17.0247 35.414 16.7174 34.4894C16.4601 33.163 15.2127 30.4361 14.6895 29.0662L14.5417 28.9341C14.3617 29.0141 14.2278 29.0425 14.0309 29.0469C13.564 28.3943 11.3364 21.4674 10.8458 20.0823L9.62971 16.5934C9.04452 14.8944 8.47324 13.1889 7.81692 11.5157C7.6338 11.0262 7.25756 10.2658 7.32429 9.74953C7.34817 9.56478 7.51039 9.49032 7.64979 9.37946C7.75607 9.23923 7.7669 9.05004 7.79406 8.88069Z" fill="#2F2829"/>
<path d="M9.40554 11.3034C10.4741 12.0263 11.3498 12.777 11.9944 13.9136C12.2315 14.2255 12.455 14.5417 12.67 14.8691C12.1795 15.456 11.3912 15.4802 10.9812 16.0236L10.9029 16.0694C10.7613 15.4615 10.544 14.8792 10.3348 14.292C9.95854 13.4039 9.39313 12.2826 9.40554 11.3034Z" fill="#EDE9E9"/>
<path d="M7.81692 11.5161C7.6338 11.0265 7.25756 10.2662 7.32429 9.74992C7.34817 9.56516 7.51039 9.4907 7.64979 9.37985C8.50824 11.7289 9.33564 14.0888 10.132 16.4596C10.5916 17.7974 10.9886 19.2396 11.5708 20.5237C12.1653 22.3285 12.7804 24.1262 13.4163 25.9169C13.7609 26.9021 14.0629 28.009 14.5417 28.9344C14.3617 29.0144 14.2278 29.0429 14.0309 29.0473C13.564 28.3947 11.3364 21.4678 10.8458 20.0827L9.62971 16.5938C9.04452 14.8948 8.47324 13.1893 7.81692 11.5161Z" fill="#EDE9E9"/>
<path d="M12.6698 14.8711C14.2775 17.7627 15.1902 20.7728 16.0649 23.9483L16.4464 24.1589L16.6738 24.4902L16.8328 24.4858L17.0398 23.928C17.0791 24.2893 17.138 24.66 17.1484 25.023L17.2282 26.0485C17.2947 26.4199 17.4092 26.8355 17.4046 27.2113L17.4001 28.1308C17.3684 28.6602 17.3334 29.1741 17.4036 29.7026L17.3217 29.7794L17.0742 29.7022C16.8599 30.0512 16.883 30.3677 16.5414 30.6191L16.1934 30.5914C16.0861 30.4047 16.0376 30.1687 15.9758 29.9628C15.2119 28.3488 14.672 26.5538 14.0642 24.8729C13.0038 21.9396 11.9104 19.0027 10.981 16.0256C11.391 15.4822 12.1793 15.458 12.6698 14.8711Z" fill="#FEFEFE"/>
<path d="M16.1657 24.5498C16.7459 26.0025 16.7643 27.7882 16.8055 29.3349C16.5977 29.7517 16.3938 30.1703 16.1938 30.5907C16.0865 30.404 16.038 30.168 15.9762 29.9621C15.9939 29.937 15.9973 29.9344 16.0098 29.9098C16.015 29.8992 16.0199 29.8884 16.025 29.8777C16.2933 29.3183 15.5718 27.2299 15.9435 26.2618C16.0458 26.5944 16.1352 26.928 16.219 27.2656C16.3435 26.3856 16.1472 25.4479 16.1657 24.5498Z" fill="#EDE9E9"/>
<path d="M16.0648 23.9469L16.4464 24.1575L16.6738 24.4888L16.8327 24.4844L17.0398 23.9266C17.079 24.2879 17.1379 24.6586 17.1483 25.0216L17.2282 26.0471C17.2947 26.4185 17.4091 26.834 17.4046 27.2099L17.4 28.1294C17.3684 28.6588 17.3334 29.1727 17.4036 29.7012L17.3216 29.778L17.0742 29.7008C16.8598 30.0498 16.883 30.3663 16.5413 30.6177L16.1933 30.59C16.3934 30.1696 16.5973 29.751 16.805 29.3342C16.7639 27.7876 16.7454 26.0018 16.1652 24.5491L16.0648 23.9469Z" fill="#3E3433"/>
<path d="M17.2278 26.0488C20.7339 24.791 26.2269 23.5485 29.7285 25.1913C31.3132 25.9348 32.4067 27.3449 33.9259 28.1691C36.8226 29.7403 39.8604 28.3654 42.9345 28.7355C43.809 28.8407 46.8411 29.8033 47.2781 29.7343C47.3602 29.4294 47.1035 29.0315 46.9713 28.7554C47.0155 28.4747 47.1876 28.299 47.3641 28.0889C48.1998 30.1426 49.2288 32.2192 49.425 34.4509C45.4434 31.4629 40.8452 33.3903 36.3927 32.56C34.6736 32.2394 33.2783 31.4308 31.7916 30.5609C28.619 28.7047 25.5339 27.8004 21.8353 28.3305C20.8649 28.4696 18.1511 29.0769 17.4031 29.7029C17.333 29.1744 17.368 28.6605 17.3996 28.1311L17.4042 27.2116C17.4087 26.8358 17.2943 26.4202 17.2278 26.0488Z" fill="#F9161D"/>
<path d="M17.4042 27.2119C21.2633 25.8138 25.9676 24.8223 29.8496 26.6416C31.6925 27.5052 33.0057 29.379 34.9875 29.8855C36.6935 30.3215 38.5721 29.875 40.2963 29.7416C42.4173 29.5777 46.1938 29.6545 47.8435 31.2367C48.1889 31.568 48.4037 32.0723 48.6123 32.4983C45.0947 31.3246 43.5659 31.0691 39.9195 31.4515C38.7163 31.5775 37.4875 31.7546 36.2835 31.5442C34.77 31.2798 33.5586 30.416 32.3365 29.5431C28.4297 26.7521 24.9063 26.2884 20.2057 27.3514C19.2554 27.5662 18.3438 27.8988 17.3996 28.1314L17.4042 27.2119Z" fill="#FEFEFE"/>
<path d="M11.2349 11.179C13.1296 10.7362 15.0612 10.4806 16.99 10.2386C21.1948 9.71115 25.4333 9.25918 29.2232 11.6036C30.7074 12.5217 32.064 13.7736 33.7681 14.27C35.7011 14.833 42.4643 14.3432 43.4382 15.351C44.2222 16.1621 44.518 18.5272 44.7829 19.6098C44.6334 19.8097 44.6016 19.8171 44.362 19.8957L44.3107 19.8198C44.1452 19.4322 44.0129 19.039 43.6089 18.8509C42.1013 18.1488 35.6786 18.9537 33.2347 18.21C31.9156 17.8087 30.9159 16.8357 29.8162 16.0527C25.3451 12.8697 19.1269 14.7204 14.1382 15.562C13.7228 15.0926 13.4456 14.4139 13.073 13.8923C12.6402 13.4717 12.3766 12.9503 12.1037 12.4216C11.8287 11.959 11.3434 11.7641 11.2349 11.179Z" fill="#F9161D"/>
<path d="M12.1046 12.4204C17.7536 11.8688 23.6112 9.69302 28.9212 12.9108C30.8187 14.0607 32.1564 15.5066 34.4291 15.9121C36.3472 16.2544 41.9393 15.8534 43.1748 16.5407C43.3443 16.8333 43.4612 17.0869 43.5349 17.4177C42.1395 17.8451 33.4634 17.0472 32.1538 16.3507C30.5996 15.524 29.3247 14.2462 27.7656 13.4283C27.4708 13.2746 27.1693 13.1356 26.861 13.0112C26.5527 12.8869 26.239 12.7778 25.92 12.6841C25.6011 12.5903 25.2783 12.5123 24.9516 12.45C24.625 12.3877 24.2961 12.3414 23.965 12.3112C21.2558 12.0572 16.3564 12.8575 13.6941 13.6584C13.4825 13.723 13.2757 13.8006 13.0738 13.8911C12.641 13.4704 12.3775 12.9491 12.1046 12.4204Z" fill="#FEFEFE"/>
<path d="M14.1391 15.558C19.1278 14.7164 25.346 12.8658 29.8171 16.0487C30.9168 16.8317 31.9165 17.8047 33.2356 18.206C35.6795 18.9497 42.1022 18.1448 43.6098 18.8469C44.0138 19.035 44.1461 19.4283 44.3117 19.8158L44.3629 19.8917C44.6025 19.8132 44.6343 19.8057 44.7839 19.6058C45.2895 21.4582 45.8364 23.2982 46.4249 25.126C46.7066 26.0074 47.2638 27.1952 47.3649 28.0859C47.1884 28.296 47.0163 28.4717 46.9721 28.7524C47.1043 29.0284 47.361 29.4264 47.2789 29.7313C46.8418 29.8003 43.8098 28.8377 42.9353 28.7325C39.8612 28.3624 36.8233 29.7373 33.9267 28.166C32.4075 27.3419 31.314 25.9318 29.7293 25.1883C26.2277 23.5455 20.7347 24.788 17.2285 26.0458L17.1487 25.0203C17.1383 24.6573 17.0794 24.2866 17.0401 23.9253L16.9634 23.2586C16.7654 22.4809 16.5751 21.7179 16.2498 20.9809C16.2189 20.0614 15.3536 18.2885 15.0103 17.3811L14.1391 15.558Z" fill="#FEFEFE"/>
<path d="M18.9711 20.5116C19.3306 21.7122 19.6991 22.9099 20.0767 24.1049C19.0819 24.3597 18.1187 24.687 17.1485 25.0205C17.1381 24.6574 17.0792 24.2867 17.0399 23.9254L16.9631 23.2588C17.3042 23.4988 18.0438 23.7275 18.4582 23.689C19.4926 23.0017 18.5798 21.5177 18.9711 20.5116Z" fill="#F9161D"/>
<path d="M17.7303 16.4101C18.1001 17.7797 18.6897 19.1316 18.9713 20.5137C18.5799 21.5198 19.4927 23.0037 18.4583 23.691C18.044 23.7296 17.3043 23.5009 16.9633 23.2609C16.7653 22.4832 16.575 21.7201 16.2497 20.9831C16.2188 20.0636 15.3535 18.2907 15.0102 17.3834C15.8758 16.9639 16.8153 16.7005 17.7303 16.4101Z" fill="#F9161D"/>
<path d="M41.1368 19.262C41.5331 19.3857 41.9315 19.5024 42.3318 19.6122C42.8401 19.7524 43.8191 20.0955 44.3114 19.8167L44.3627 19.8926C44.6022 19.8141 44.634 19.8066 44.7836 19.6068C45.2892 21.4591 45.8362 23.2992 46.4246 25.1269C46.7064 26.0084 47.2636 27.1962 47.3647 28.0868C47.1881 28.2969 47.0161 28.4726 46.9719 28.7533C46.1269 28.1613 45.0734 28.0206 44.1656 27.5553C43.7415 27.338 43.4824 27.0927 43.2484 26.6807C42.3047 25.0191 41.7839 21.292 41.1368 19.262Z" fill="#F9161D"/>
<path d="M31.0872 18.572C33.1494 18.9804 35.3871 18.9947 37.4893 19.1426C37.9747 19.9389 38.25 20.8101 38.4861 21.7053C37.7519 21.8515 36.9883 21.9054 36.2437 21.9869C36.1648 21.5961 36.074 21.0104 35.8259 20.6908C35.6642 20.4825 35.4787 20.3674 35.2132 20.344C34.8787 20.3143 34.6731 20.4782 34.4375 20.6779C34.3344 20.8983 34.2819 21.1024 34.2891 21.3468C34.3208 22.4247 34.9666 24.4646 35.7569 25.2126C36.0996 25.2356 36.3023 25.224 36.6031 25.0485C36.8595 24.713 36.7581 24.1086 36.7443 23.7036C36.7323 23.3823 36.7046 23.2698 36.8732 22.9851C37.3877 22.7124 38.2235 22.8477 38.7999 22.8737C39.0197 23.3549 39.2345 23.8847 39.3771 24.3937C39.5457 24.9956 39.5743 25.6816 39.2513 26.2391C38.974 26.7182 38.4618 26.9976 37.9405 27.1356C36.7141 27.46 34.8961 27.3699 33.7877 26.7114C33.5393 26.5638 33.3114 26.4068 33.1593 26.1557C32.2187 24.6022 31.5614 20.4892 31.0872 18.572Z" fill="#040304"/>
<path d="M22.6427 15.6468C24.1091 16.29 26.8098 15.858 28.429 15.7852C29.5522 18.2751 30.0871 21.2643 30.695 23.9255C30.0404 23.9598 28.9693 24.1158 28.3799 23.8058L28.314 23.5812C28.2099 23.0608 28.1396 22.4041 27.8628 21.9462C27.685 21.652 27.464 21.4173 27.1329 21.3354L27.0098 21.438C26.6498 22.2621 26.9988 23.0326 27.2318 23.8465C26.3199 24.0023 25.3567 24.0001 24.4327 24.0482C23.6454 21.3313 23.2575 18.4178 22.6427 15.6468Z" fill="#040304"/>
<path d="M25.9427 17.8313C26.2725 17.8461 26.5978 17.7909 26.8571 18.0284C27.2884 18.4231 27.2521 19.3703 27.2792 19.9184C27.2227 19.9226 27.1662 19.9257 27.1097 19.9277C26.7922 19.9382 26.4984 19.9789 26.2568 19.7425C25.8514 19.3458 25.9471 18.3719 25.9427 17.8313Z" fill="#FEFEFE"/>
</g>
<defs>
<clipPath id="clip0_1_3">
<rect width="58" height="50" fill="white"/>
</clipPath>
</defs>
</svg>
