<svg width="58" height="50" viewBox="0 0 58 50" fill="none" xmlns="http://www.w3.org/2000/svg">
<g clip-path="url(#clip0_987_48544)">
<path d="M5.82199 7.66016L5.90732 7.69469C6.00049 8.06797 6.07705 8.37791 6.32402 8.68079C6.5263 8.76275 6.6493 8.85857 6.86542 8.76773C6.96306 8.72669 7.05809 8.67576 7.15246 8.62768L7.79406 8.88196C7.76689 9.0513 7.75607 9.2405 7.64978 9.38073C7.51039 9.49158 7.34816 9.56604 7.32428 9.7508C7.25756 10.2671 7.6338 11.0274 7.81691 11.517C7.73232 11.8006 7.71321 11.8642 7.48149 12.0598L7.46212 12.0777C7.16858 12.3454 6.87952 12.5464 6.47811 12.5293L6.25315 12.2792C6.23303 11.7089 6.93615 11.7566 7.14556 11.2297C6.97866 10.3471 6.41959 9.9494 5.94454 9.26187C5.58433 8.74054 5.71161 8.23835 5.82199 7.66016Z" fill="#2D120E"/>
<path d="M5.82092 7.65838C5.92625 7.25472 5.99913 6.82155 6.32106 6.52955C6.58714 6.42233 6.7124 6.37057 6.98759 6.48299C7.52971 6.70448 8.05676 7.67243 8.26098 8.18622C8.35621 8.42581 8.43445 8.67316 8.50907 8.91975L7.79299 8.88018L7.15139 8.6259C7.05702 8.67398 6.96199 8.72491 6.86435 8.76595C6.64823 8.85679 6.52523 8.76097 6.32295 8.67901C6.07598 8.37613 5.99942 8.06619 5.90625 7.69291L5.82092 7.65838Z" fill="#3E3433"/>
<path d="M5.90686 7.69143C6.04944 7.38083 6.0996 7.27635 6.38207 7.07422C6.66045 7.09107 6.79136 7.11773 6.97681 7.3394C7.17606 7.57758 7.28574 7.97481 7.24395 8.2816C7.22801 8.39868 7.19216 8.51371 7.152 8.62442C7.05763 8.67251 6.9626 8.72344 6.86496 8.76448C6.64883 8.85532 6.52583 8.75949 6.32355 8.67753C6.07658 8.37465 6.00003 8.06471 5.90686 7.69143Z" fill="#FEFEFE"/>
<path d="M7.8165 11.5166C8.47282 13.1898 9.0441 14.8953 9.62929 16.5943L10.8454 20.0831C11.336 21.4683 13.5636 28.3952 14.0305 29.0478C14.2274 29.0434 14.3613 29.0149 14.5412 28.9349L14.6891 29.0671L14.2251 29.2891C14.1286 29.7041 14.2184 29.8088 13.892 30.1128C13.2963 28.8605 12.8969 27.5 12.4371 26.1919L10.302 20.2156C9.83381 19.0128 9.43561 17.7711 9.00486 16.5536C8.46666 15.0802 7.8817 13.5749 7.48108 12.0594C7.71279 11.8638 7.7319 11.8002 7.8165 11.5166Z" fill="#3E3433"/>
<path d="M14.6895 29.0645C15.2127 30.4344 16.4602 33.1612 16.7175 34.4876L16.575 34.4955C15.9183 35.0603 17.8928 37.5982 17.4843 38.5129C16.3367 38.1873 15.4255 33.9648 14.6636 32.8569C14.7033 33.1322 14.7093 33.4284 14.6352 33.6992C14.5596 33.9752 14.427 34.1015 14.1868 34.2338C14.018 34.1503 13.9741 34.1434 13.8841 33.97C13.7133 33.6406 13.7562 33.1567 13.687 32.7908C13.5798 32.2248 12.9371 31.3674 13.1106 30.8295C13.5867 30.6884 13.7767 31.0893 14.318 30.9292C14.3768 30.6421 14.0353 30.386 13.8925 30.1101C14.2188 29.8061 14.129 29.7015 14.2256 29.2864L14.6895 29.0645Z" fill="#BBB3B3"/>
<path d="M7.79408 8.88086L8.51016 8.92043C8.60084 9.32012 8.75947 10.3762 9.12695 10.5966C9.16919 10.6219 9.15949 10.6164 9.19782 10.6337C9.69495 10.7433 10.8268 11.3849 11.1769 11.2601L11.2361 11.1782C11.3446 11.7633 11.8299 11.9583 12.1049 12.4209C12.3778 12.9495 12.6413 13.4709 13.0741 13.8916C13.4467 14.4132 13.724 15.0918 14.1393 15.5612L15.0105 17.3843C15.3538 18.2917 16.2191 20.0646 16.25 20.9841C16.5753 21.7211 16.7656 22.4841 16.9636 23.2618L17.0404 23.9285C17.0796 24.2898 17.1385 24.6605 17.1489 25.0236L17.2288 26.049C17.2953 26.4204 17.4097 26.836 17.4052 27.2118L17.4006 28.1313C17.369 28.6607 17.334 29.1747 17.4042 29.7031L17.3223 29.7799C17.1111 30.3422 16.8497 30.791 16.5038 31.2807C16.8426 32.4484 18.8577 37.8029 18.6753 38.5595L18.5578 38.6361C17.8381 38.0886 17.0247 35.4142 16.7174 34.4895C16.4602 33.1631 15.2127 30.4363 14.6895 29.0664L14.5417 28.9342C14.3617 29.0142 14.2278 29.0426 14.0309 29.047C13.564 28.3945 11.3364 21.4676 10.8458 20.0824L9.62972 16.5936C9.04454 14.8946 8.47325 13.1891 7.81693 11.5159C7.63382 11.0263 7.25758 10.266 7.3243 9.7497C7.34818 9.56494 7.51041 9.49048 7.6498 9.37963C7.75609 9.2394 7.76691 9.0502 7.79408 8.88086Z" fill="#2F2829"/>
<path d="M9.40554 11.3037C10.4741 12.0266 11.3498 12.7773 11.9944 13.9139C12.2315 14.2258 12.455 14.542 12.67 14.8694C12.1795 15.4563 11.3912 15.4805 10.9812 16.024L10.9029 16.0697C10.7613 15.4618 10.544 14.8795 10.3348 14.2923C9.95853 13.4042 9.39313 12.2829 9.40554 11.3037Z" fill="#EDE9E9"/>
<path d="M7.81693 11.5161C7.63382 11.0266 7.25758 10.2662 7.3243 9.74995C7.34818 9.5652 7.51041 9.49074 7.6498 9.37988C8.50825 11.7289 9.33565 14.0889 10.132 16.4596C10.5916 17.7975 10.9886 19.2396 11.5708 20.5237C12.1653 22.3285 12.7805 24.1263 13.4163 25.917C13.7609 26.9022 14.0629 28.0091 14.5417 28.9345C14.3617 29.0145 14.2278 29.0429 14.0309 29.0473C13.564 28.3947 11.3364 21.4679 10.8458 20.0827L9.62972 16.5938C9.04454 14.8948 8.47325 13.1894 7.81693 11.5161Z" fill="#EDE9E9"/>
<path d="M12.6698 14.8711C14.2775 17.7627 15.1902 20.7728 16.0649 23.9484L16.4464 24.1589L16.6738 24.4902L16.8328 24.4858L17.0398 23.928C17.0791 24.2893 17.138 24.66 17.1484 25.0231L17.2283 26.0485C17.2948 26.42 17.4092 26.8355 17.4047 27.2113L17.4001 28.1308C17.3685 28.6602 17.3335 29.1742 17.4036 29.7027L17.3217 29.7794L17.0743 29.7022C16.8599 30.0512 16.8831 30.3677 16.5414 30.6191L16.1934 30.5914C16.0862 30.4048 16.0377 30.1687 15.9758 29.9629C15.2119 28.3488 14.672 26.5539 14.0642 24.8729C13.0038 21.9396 11.9104 19.0027 10.981 16.0256C11.391 15.4822 12.1793 15.458 12.6698 14.8711Z" fill="#FEFEFE"/>
<path d="M16.1656 24.5498C16.7458 26.0025 16.7643 27.7883 16.8055 29.3349C16.5977 29.7517 16.3938 30.1703 16.1938 30.5907C16.0865 30.404 16.038 30.168 15.9762 29.9621C15.9939 29.9371 15.9973 29.9344 16.0097 29.9098C16.015 29.8993 16.0199 29.8884 16.025 29.8777C16.2933 29.3183 15.5718 27.2299 15.9435 26.2618C16.0458 26.5944 16.1352 26.9281 16.219 27.2656C16.3435 26.3857 16.1472 25.4479 16.1656 24.5498Z" fill="#EDE9E9"/>
<path d="M16.0648 23.9471L16.4463 24.1577L16.6737 24.4889L16.8327 24.4845L17.0397 23.9268C17.079 24.2881 17.1379 24.6588 17.1483 25.0218L17.2282 26.0473C17.2947 26.4187 17.4091 26.8342 17.4046 27.21L17.4 28.1296C17.3684 28.6589 17.3334 29.1729 17.4035 29.7014L17.3216 29.7782L17.0742 29.701C16.8598 30.05 16.883 30.3664 16.5413 30.6179L16.1933 30.5902C16.3934 30.1698 16.5973 29.7512 16.805 29.3344C16.7638 27.7878 16.7454 26.002 16.1652 24.5493L16.0648 23.9471Z" fill="#3E3433"/>
<path d="M17.2278 26.0487C20.7339 24.7909 26.227 23.5484 29.7286 25.1912C31.3133 25.9348 32.4067 27.3448 33.926 28.169C36.8226 29.7402 39.8605 28.3653 42.9345 28.7354C43.8091 28.8406 46.8411 29.8032 47.2781 29.7342C47.3602 29.4293 47.1035 29.0314 46.9713 28.7553C47.0156 28.4746 47.1876 28.2989 47.3641 28.0888C48.1999 30.1426 49.2289 32.2191 49.425 34.4509C45.4435 31.4628 40.8452 33.3902 36.3927 32.5599C34.6736 32.2394 33.2784 31.4307 31.7917 30.5609C28.619 28.7046 25.5339 27.8003 21.8353 28.3304C20.8649 28.4695 18.1511 29.0768 17.4032 29.7029C17.333 29.1744 17.368 28.6604 17.3996 28.131L17.4042 27.2115C17.4087 26.8357 17.2943 26.4202 17.2278 26.0487Z" fill="#F9161D"/>
<path d="M17.4042 27.2122C21.2633 25.8142 25.9676 24.8227 29.8496 26.642C31.6925 27.5055 33.0057 29.3793 34.9875 29.8858C36.6935 30.3219 38.5721 29.8753 40.2964 29.742C42.4173 29.578 46.1938 29.6548 47.8436 31.237C48.1889 31.5683 48.4037 32.0726 48.6123 32.4987C45.0948 31.3249 43.5659 31.0694 39.9195 31.4518C38.7163 31.5778 37.4875 31.755 36.2836 31.5446C34.7701 31.2801 33.5587 30.4164 32.3366 29.5434C28.4297 26.7524 24.9063 26.2887 20.2057 27.3517C19.2554 27.5665 18.3438 27.8991 17.3997 28.1318L17.4042 27.2122Z" fill="#FEFEFE"/>
<path d="M11.2349 11.179C13.1296 10.7363 15.0612 10.4806 16.99 10.2387C21.1948 9.71118 25.4332 9.25921 29.2232 11.6037C30.7074 12.5217 32.064 13.7736 33.7681 14.27C35.7011 14.833 42.4643 14.3432 43.4382 15.3511C44.2222 16.1622 44.518 18.5272 44.7829 19.6099C44.6333 19.8097 44.6015 19.8172 44.362 19.8957L44.3107 19.8198C44.1451 19.4323 44.0128 19.039 43.6089 18.8509C42.1012 18.1488 35.6786 18.9538 33.2347 18.21C31.9156 17.8087 30.9159 16.8357 29.8161 16.0527C25.345 12.8698 19.1269 14.7205 14.1381 15.562C13.7228 15.0926 13.4456 14.414 13.073 13.8924C12.6401 13.4717 12.3766 12.9503 12.1037 12.4217C11.8287 11.9591 11.3434 11.7642 11.2349 11.179Z" fill="#F9161D"/>
<path d="M12.1046 12.4208C17.7536 11.8692 23.6112 9.69342 28.9212 12.9112C30.8188 14.0611 32.1565 15.507 34.4291 15.9125C36.3473 16.2548 41.9394 15.8538 43.1748 16.5411C43.3443 16.8337 43.4612 17.0873 43.5349 17.4181C42.1395 17.8455 33.4634 17.0476 32.1538 16.3511C30.5996 15.5244 29.3248 14.2466 27.7657 13.4287C27.4709 13.275 27.1693 13.136 26.8611 13.0116C26.5527 12.8873 26.239 12.7782 25.92 12.6845C25.6011 12.5907 25.2783 12.5127 24.9517 12.4504C24.625 12.3881 24.2962 12.3418 23.965 12.3116C21.2558 12.0576 16.3564 12.8579 13.6941 13.6588C13.4825 13.7234 13.2758 13.801 13.0739 13.8915C12.641 13.4708 12.3775 12.9495 12.1046 12.4208Z" fill="#FEFEFE"/>
<path d="M14.1391 15.5578C19.1278 14.7162 25.346 12.8655 29.8171 16.0484C30.9168 16.8314 31.9165 17.8044 33.2356 18.2058C35.6795 18.9495 42.1022 18.1445 43.6098 18.8466C44.0138 19.0347 44.1461 19.428 44.3117 19.8155L44.3629 19.8914C44.6025 19.8129 44.6343 19.8054 44.7839 19.6056C45.2895 21.4579 45.8365 23.298 46.4249 25.1257C46.7066 26.0072 47.2638 27.195 47.3649 28.0856C47.1884 28.2957 47.0163 28.4714 46.9721 28.7521C47.1043 29.0282 47.361 29.4261 47.2789 29.731C46.8419 29.8 43.8098 28.8374 42.9353 28.7322C39.8612 28.3621 36.8234 29.737 33.9267 28.1658C32.4075 27.3416 31.3141 25.9316 29.7293 25.188C26.2277 23.5453 20.7347 24.7877 17.2286 26.0456L17.1487 25.0201C17.1383 24.657 17.0794 24.2863 17.0401 23.925L16.9634 23.2584C16.7654 22.4807 16.5751 21.7176 16.2498 20.9806C16.2189 20.0611 15.3536 18.2882 15.0103 17.3809L14.1391 15.5578Z" fill="#FEFEFE"/>
<path d="M18.9711 20.5117C19.3306 21.7123 19.6991 22.91 20.0768 24.105C19.0819 24.3598 18.1187 24.6871 17.1485 25.0206C17.1381 24.6575 17.0792 24.2869 17.0399 23.9255L16.9631 23.2589C17.3042 23.4989 18.0438 23.7276 18.4582 23.6891C19.4926 23.0018 18.5798 21.5178 18.9711 20.5117Z" fill="#F9161D"/>
<path d="M17.7303 16.4102C18.1001 17.7798 18.6897 19.1317 18.9713 20.5138C18.5799 21.5199 19.4927 23.0038 18.4583 23.6911C18.044 23.7297 17.3043 23.501 16.9633 23.261C16.7653 22.4833 16.575 21.7202 16.2497 20.9832C16.2188 20.0637 15.3535 18.2908 15.0102 17.3835C15.8758 16.964 16.8153 16.7006 17.7303 16.4102Z" fill="#F9161D"/>
<path d="M41.1368 19.2617C41.5331 19.3854 41.9314 19.5021 42.3318 19.6119C42.8401 19.7521 43.8191 20.0953 44.3114 19.8164L44.3627 19.8923C44.6022 19.8138 44.634 19.8063 44.7836 19.6065C45.2892 21.4588 45.8362 23.2989 46.4246 25.1266C46.7064 26.0081 47.2636 27.1959 47.3647 28.0865C47.1881 28.2966 47.0161 28.4723 46.9719 28.753C46.1269 28.161 45.0734 28.0203 44.1656 27.555C43.7415 27.3377 43.4824 27.0924 43.2484 26.6804C42.3047 25.0188 41.7839 21.2917 41.1368 19.2617Z" fill="#F9161D"/>
<path d="M31.0872 18.5723C33.1494 18.9806 35.3871 18.995 37.4893 19.1428C37.9747 19.9391 38.25 20.8103 38.4861 21.7055C37.7519 21.8517 36.9883 21.9057 36.2437 21.9871C36.1648 21.5964 36.074 21.0106 35.8259 20.691C35.6642 20.4827 35.4787 20.3677 35.2132 20.3442C34.8787 20.3145 34.6731 20.4784 34.4375 20.6781C34.3344 20.8985 34.2819 21.1026 34.2891 21.347C34.3208 22.4249 34.9666 24.4649 35.7569 25.2128C36.0996 25.2358 36.3023 25.2243 36.6031 25.0487C36.8595 24.7132 36.7581 24.1088 36.7443 23.7039C36.7323 23.3825 36.7046 23.27 36.8732 22.9853C37.3877 22.7127 38.2235 22.8479 38.7999 22.874C39.0197 23.3551 39.2345 23.8849 39.3771 24.3939C39.5457 24.9958 39.5743 25.6818 39.2513 26.2393C38.974 26.7184 38.4618 26.9978 37.9405 27.1359C36.7141 27.4602 34.8961 27.3701 33.7877 26.7117C33.5393 26.564 33.3114 26.4071 33.1593 26.1559C32.2187 24.6024 31.5614 20.4894 31.0872 18.5723Z" fill="#040304"/>
<path d="M22.6428 15.6465C24.1091 16.2897 26.8098 15.8578 28.429 15.7849C29.5522 18.2748 30.0871 21.2641 30.695 23.9252C30.0404 23.9595 28.9693 24.1156 28.3799 23.8055L28.314 23.5809C28.2099 23.0605 28.1396 22.4038 27.8628 21.946C27.685 21.6518 27.464 21.417 27.1329 21.3351L27.0098 21.4377C26.6498 22.2618 26.9988 23.0324 27.2318 23.8463C26.3199 24.002 25.3567 23.9998 24.4328 24.0479C23.6454 21.331 23.2575 18.4175 22.6428 15.6465Z" fill="#040304"/>
<path d="M25.9427 17.8311C26.2725 17.8459 26.5978 17.7906 26.8571 18.0281C27.2885 18.4228 27.2521 19.3701 27.2792 19.9182C27.2228 19.9224 27.1663 19.9255 27.1097 19.9274C26.7922 19.938 26.4984 19.9787 26.2568 19.7422C25.8514 19.3456 25.9471 18.3717 25.9427 17.8311Z" fill="#FEFEFE"/>
</g>
<defs>
<clipPath id="clip0_987_48544">
<rect width="58" height="50" fill="white"/>
</clipPath>
</defs>
</svg>
