<svg width="251" height="51" viewBox="0 0 251 51" fill="none" xmlns="http://www.w3.org/2000/svg">
<path d="M5.82224 7.66016L5.90757 7.69469C6.00074 8.06797 6.07729 8.37791 6.32426 8.68079C6.52654 8.76275 6.64954 8.85857 6.86567 8.76773C6.96331 8.72669 7.05834 8.67576 7.15271 8.62768L7.7943 8.88196C7.76714 9.0513 7.75631 9.2405 7.65003 9.38073C7.51063 9.49158 7.34841 9.56604 7.32453 9.7508C7.2578 10.2671 7.63404 11.0274 7.81716 11.517C7.73256 11.8006 7.71345 11.8642 7.48174 12.0598L7.46237 12.0777C7.16882 12.3454 6.87976 12.5464 6.47835 12.5293L6.25339 12.2792C6.23327 11.7089 6.93639 11.7566 7.14581 11.2297C6.97891 10.3471 6.41983 9.9494 5.94478 9.26187C5.58457 8.74054 5.71185 8.23835 5.82224 7.66016Z" fill="#2D120E"/>
<path d="M5.8208 7.65838C5.92613 7.25472 5.99901 6.82155 6.32093 6.52955C6.58702 6.42233 6.71228 6.37057 6.98747 6.48299C7.52959 6.70448 8.05664 7.67243 8.26085 8.18622C8.35609 8.42581 8.43433 8.67316 8.50895 8.91975L7.79287 8.88018L7.15127 8.6259C7.0569 8.67398 6.96187 8.72491 6.86423 8.76595C6.64811 8.85679 6.5251 8.76097 6.32282 8.67901C6.07586 8.37613 5.9993 8.06619 5.90613 7.69291L5.8208 7.65838Z" fill="#3E3433"/>
<path d="M5.90674 7.69143C6.04931 7.38083 6.09948 7.27635 6.38195 7.07422C6.66033 7.09107 6.79124 7.11773 6.97669 7.3394C7.17594 7.57758 7.28562 7.97481 7.24383 8.2816C7.22789 8.39868 7.19204 8.51371 7.15188 8.62442C7.05751 8.67251 6.96248 8.72344 6.86484 8.76448C6.64871 8.85532 6.52571 8.75949 6.32343 8.67753C6.07646 8.37465 5.99991 8.06471 5.90674 7.69143Z" fill="#FEFEFE"/>
<path d="M144.412 13.1509L146.402 13.1064C146.464 13.1972 146.515 13.3001 146.533 13.4086C146.643 14.0153 146.655 15.3454 146.305 15.8423C145.844 16.0567 144.815 15.9262 144.284 15.9235C144.699 15.3103 144.46 13.8864 144.412 13.1509Z" fill="#22090A"/>
<path d="M7.81638 11.5166C8.4727 13.1898 9.04398 14.8953 9.62916 16.5943L10.8453 20.0831C11.3359 21.4683 13.5635 28.3952 14.0304 29.0478C14.2273 29.0434 14.3611 29.0149 14.5411 28.9349L14.6889 29.0671L14.225 29.2891C14.1284 29.7041 14.2183 29.8088 13.8919 30.1128C13.2961 28.8605 12.8968 27.5 12.4369 26.1919L10.3018 20.2156C9.83369 19.0128 9.43548 17.7711 9.00474 16.5536C8.46654 15.0802 7.88158 13.5749 7.48096 12.0594C7.71267 11.8638 7.73178 11.8002 7.81638 11.5166Z" fill="#3E3433"/>
<path d="M14.6895 29.0645C15.2127 30.4344 16.4602 33.1612 16.7175 34.4876L16.575 34.4955C15.9183 35.0603 17.8928 37.5982 17.4843 38.5129C16.3367 38.1873 15.4255 33.9648 14.6636 32.8569C14.7033 33.1322 14.7093 33.4284 14.6352 33.6992C14.5596 33.9752 14.427 34.1015 14.1868 34.2338C14.018 34.1503 13.9741 34.1434 13.8841 33.97C13.7133 33.6406 13.7562 33.1567 13.687 32.7908C13.5798 32.2248 12.9371 31.3674 13.1106 30.8295C13.5867 30.6884 13.7767 31.0893 14.318 30.9292C14.3768 30.6421 14.0353 30.386 13.8925 30.1101C14.2188 29.8061 14.129 29.7015 14.2256 29.2864L14.6895 29.0645Z" fill="#BBB3B3"/>
<path d="M144.342 18.0429L146.318 17.9707C146.332 17.9965 146.345 18.0221 146.357 18.0492C146.364 18.0643 146.37 18.0796 146.377 18.0947C146.432 18.2163 146.484 18.3349 146.495 18.4697C146.651 20.5621 146.476 22.8192 146.47 24.9279C146.464 26.9881 146.644 29.2448 146.434 31.2846C146.419 31.4317 146.338 31.5611 146.244 31.6719C145.728 31.8273 144.9 31.7131 144.348 31.7032C144.799 31.0038 144.504 19.4639 144.342 18.0429Z" fill="#22090A"/>
<path d="M77.5663 12.6625C78.164 12.572 78.8054 12.6085 79.4107 12.605C79.5656 12.8295 79.6094 13.1006 79.6158 13.3683C79.7071 17.0838 79.6261 20.8235 79.6252 24.5415C79.6246 26.7174 79.7905 29.0405 79.591 31.1953C79.5738 31.3827 79.5138 31.508 79.3833 31.6449C78.8309 31.8072 77.994 31.7045 77.4072 31.7027C77.4282 31.6714 77.4477 31.6399 77.4663 31.6069C77.5847 31.3958 77.6024 31.1898 77.6125 30.9524C77.7726 27.222 77.6384 23.4221 77.6453 19.6838C77.6481 18.1362 77.8956 13.8773 77.5663 12.6625Z" fill="#22090A"/>
<path d="M188.79 17.799L189.363 17.7578C189.519 17.9067 189.606 17.9878 189.675 18.1966C189.818 18.634 189.716 19.4319 189.505 19.8344C189.093 19.8835 188.671 19.9321 188.268 20.0297C183.735 21.1271 184.709 26.7372 184.596 30.1477C184.579 30.6451 184.635 31.2904 184.372 31.7252C183.735 31.7887 183.038 31.7076 182.396 31.6798C182.47 31.5774 182.526 31.4641 182.554 31.3399C182.683 30.744 182.734 29.6989 182.393 29.1758C182.458 29.0845 182.508 28.9852 182.542 28.878C182.734 28.2581 182.623 19.9178 182.539 18.8803C182.514 18.5748 182.459 18.2999 182.309 18.028C183.059 18.0045 183.791 18.0139 184.539 18.0717C184.566 18.1162 184.591 18.1629 184.605 18.2123C184.807 18.8438 184.492 20.5652 184.18 21.1325C184.585 20.8909 184.866 20.5262 185.174 20.1787C186.341 18.8624 187.1 18.3502 188.79 17.799Z" fill="#22090A"/>
<path d="M141.14 17.924C141.443 17.8721 141.713 17.8402 142.022 17.8651C142.166 17.9905 142.276 18.0655 142.35 18.247C142.518 18.6627 142.311 19.4425 142.145 19.8357C141.601 19.9689 141.095 19.914 140.57 20.1805C136.716 22.1398 137.461 26.11 137.399 29.7382C137.389 30.3554 137.458 31.1411 137.263 31.7284C137.26 31.7372 137.257 31.7457 137.254 31.7545L135.106 31.6852C135.179 31.5731 135.241 31.4527 135.275 31.3227C135.413 30.7979 135.394 30.1434 135.12 29.6689C135.189 29.5555 135.245 29.4249 135.281 29.297C135.503 28.506 135.405 19.8653 135.294 18.6325C135.273 18.4007 135.204 18.1915 135.085 17.9918C135.842 17.9925 136.593 18.0435 137.348 18.0944C137.867 19.0076 136.811 19.8558 137.069 20.6774L137.234 20.7558C137.816 20.5107 138.338 19.614 138.831 19.1792C139.531 18.5626 140.272 18.2454 141.14 17.924Z" fill="#22090A"/>
<path d="M154.433 12.5399C154.794 12.4944 155.123 12.4579 155.487 12.5173C155.624 12.626 155.786 12.7157 155.848 12.884C155.991 13.2761 155.78 13.8724 155.611 14.236C154.648 14.4555 153.77 14.6821 152.86 15.0793C152.868 15.1032 152.874 15.1271 152.879 15.1512C153.01 15.7446 152.825 17.7204 152.506 18.23L155.624 18.0942C155.684 18.1891 155.735 18.2854 155.773 18.392C155.958 18.9111 155.848 19.4173 155.616 19.8982C154.587 19.8634 153.557 19.8412 152.528 19.8314C152.532 19.8387 152.537 19.8459 152.54 19.8534C152.545 19.8657 152.551 19.8784 152.557 19.8909C152.567 19.9127 152.581 19.9338 152.591 19.9558C152.83 20.4548 152.8 30.8723 152.564 31.502L152.519 31.6175C152.106 31.8331 151.126 31.6951 150.638 31.6811C150.692 31.6043 150.729 31.5247 150.752 31.4334C150.918 30.7765 150.882 21.6018 150.793 20.4368C150.775 20.2197 150.71 20.0216 150.603 19.8332L148.194 19.9343C148.252 19.8485 148.293 19.7592 148.324 19.6591C148.483 19.142 148.408 18.6563 148.16 18.1841C148.969 18.1875 149.776 18.1413 150.584 18.1024C151.18 17.2718 150.693 15.3471 151.493 14.1738C152.112 13.2646 153.386 12.7358 154.433 12.5399Z" fill="#22090A"/>
<path d="M205.941 18.0442C206.548 17.9185 207.192 17.9809 207.808 18.0015C207.812 18.0098 207.816 18.0179 207.819 18.0262C207.827 18.0401 207.833 18.0543 207.838 18.0681C208.789 20.0071 207.21 25.9251 208.731 28.4662C209.158 29.1805 209.824 29.6538 210.629 29.8549C211.604 30.0984 212.814 30.0574 213.686 29.532C214.451 29.0702 215.428 27.7367 215.63 26.866C215.856 25.8987 215.971 18.5808 215.602 17.9925C216.206 17.9915 216.81 18.041 217.412 18.0793C217.489 18.1896 217.539 18.3059 217.567 18.4384C217.736 19.2375 217.835 22.0484 217.41 22.6929C217.494 22.8321 217.552 22.9691 217.582 23.1298C217.737 23.9784 217.769 31.3035 217.382 31.8434C216.695 31.7982 216.007 31.7113 215.321 31.6402C215.73 31.0994 215.813 30.4876 215.863 29.8271L215.749 29.7304C214.492 30.146 213.749 31.6185 212.312 31.9368C211.213 32.1797 209.495 31.6615 208.564 31.0682C205.135 28.886 205.878 23.8434 205.972 20.4018C205.991 19.6707 206.112 18.7869 205.948 18.0734L205.941 18.0442Z" fill="#22090A"/>
<path d="M104.755 12.6617L106.586 12.5947C106.657 12.7044 106.719 12.8264 106.746 12.9548C106.974 14.0407 106.895 19.5163 106.399 20.2912C107.564 19.707 108.171 18.5044 109.521 18.048C110.73 17.6395 112.223 17.7396 113.365 18.3033C114.641 18.9323 115.554 20.1756 116 21.5026C116.195 22.0822 116.297 22.6831 116.345 23.2916C116.429 24.344 116.568 30.9654 116.174 31.7601L114.315 31.7407C114.418 31.5885 114.481 31.432 114.516 31.2515C114.692 30.3298 114.729 24.7711 114.314 24.1607L114.338 24.1201C114.605 23.6514 114.474 22.9087 114.33 22.4072C114.078 21.5246 113.516 20.6508 112.696 20.2077C111.724 19.6826 110.515 19.6237 109.465 19.9384C106.636 20.786 106.769 23.6914 106.788 26.0667C106.805 27.332 106.812 28.5975 106.808 29.863C106.802 30.4191 106.874 31.1925 106.601 31.6848C106.596 31.6937 106.591 31.7025 106.586 31.7114L104.632 31.665C104.64 31.6538 104.648 31.6427 104.655 31.6314C104.776 31.4492 104.819 31.1977 104.829 30.9818C104.992 27.1474 104.808 23.2152 104.807 19.3703C104.807 17.6406 105.047 14.2092 104.755 12.6617Z" fill="#22090A"/>
<path d="M93.7981 13.6395C95.018 13.5281 96.3175 13.6147 97.5054 13.9133C98.8806 14.2589 100.365 15.0344 101.106 16.2949C101.499 16.962 101.737 17.9375 101.534 18.6999C101.153 18.7263 100.434 18.8136 100.117 18.5882C100.104 18.5788 100.091 18.5688 100.079 18.5593C99.4229 18.0808 99.2219 17.0593 98.6257 16.4773C97.7242 15.597 95.6077 15.2464 94.3666 15.2741C93.2597 15.2987 91.7649 15.7318 90.9923 16.5508C90.5373 17.033 90.1579 17.8376 90.185 18.5114C90.3041 21.4798 98.505 21.5695 101.068 23.936C101.798 24.6095 102.255 25.462 102.29 26.4666C102.332 27.6993 101.816 29.0241 100.975 29.9229C99.4636 31.5395 97.1024 31.8429 95.0127 31.9088C93.4082 31.9427 91.5718 31.4683 90.2063 30.6212C89.1352 29.9569 87.986 28.2091 87.7115 26.9799C87.6324 26.6253 87.7042 26.4625 87.8882 26.1691C88.0819 26.0725 88.2846 25.9727 88.5005 25.9411C89.5957 25.7805 90.3285 28.1563 91.2807 28.8622C92.8197 30.0034 95.4142 30.0491 97.2234 29.7707C98.242 29.6141 99.1552 29.1933 99.7744 28.3387C100.146 27.8256 100.447 27.2023 100.335 26.5528C99.919 24.1407 94.8357 23.5181 92.9159 22.911C91.8817 22.5838 90.8307 22.141 89.9475 21.5031C89.1528 20.9292 88.4887 20.1908 88.335 19.189C88.1552 18.0181 88.3354 16.7485 89.0546 15.7824C90.202 14.2412 92.0172 13.9034 93.7981 13.6395Z" fill="#22090A"/>
<path d="M7.79402 8.88086L8.5101 8.92043C8.60078 9.32012 8.75941 10.3762 9.12689 10.5966C9.16913 10.6219 9.15943 10.6164 9.19776 10.6337C9.69489 10.7433 10.8267 11.3849 11.1768 11.2601L11.236 11.1782C11.3445 11.7633 11.8298 11.9583 12.1048 12.4209C12.3777 12.9495 12.6412 13.4709 13.0741 13.8916C13.4467 14.4132 13.7239 15.0918 14.1393 15.5612L15.0105 17.3843C15.3537 18.2917 16.2191 20.0646 16.25 20.9841C16.5753 21.7211 16.7656 22.4841 16.9635 23.2618L17.0403 23.9285C17.0796 24.2898 17.1385 24.6605 17.1489 25.0236L17.2287 26.049C17.2952 26.4204 17.4097 26.836 17.4051 27.2118L17.4006 28.1313C17.3689 28.6607 17.3339 29.1747 17.4041 29.7031L17.3222 29.7799C17.1111 30.3422 16.8497 30.791 16.5038 31.2807C16.8425 32.4484 18.8577 37.8029 18.6753 38.5595L18.5578 38.6361C17.8381 38.0886 17.0246 35.4142 16.7174 34.4895C16.4601 33.1631 15.2127 30.4363 14.6894 29.0664L14.5416 28.9342C14.3616 29.0142 14.2278 29.0426 14.0309 29.047C13.564 28.3945 11.3364 21.4676 10.8458 20.0824L9.62966 16.5936C9.04447 14.8946 8.47319 13.1891 7.81687 11.5159C7.63376 11.0263 7.25752 10.266 7.32424 9.7497C7.34812 9.56494 7.51035 9.49048 7.64974 9.37963C7.75602 9.2394 7.76685 9.0502 7.79402 8.88086Z" fill="#2F2829"/>
<path d="M9.40547 11.3037C10.4741 12.0266 11.3498 12.7773 11.9943 13.9139C12.2314 14.2258 12.4549 14.542 12.6699 14.8694C12.1795 15.4563 11.3912 15.4805 10.9812 16.024L10.9029 16.0697C10.7612 15.4618 10.544 14.8795 10.3348 14.2923C9.95847 13.4042 9.39306 12.2829 9.40547 11.3037Z" fill="#EDE9E9"/>
<path d="M7.81687 11.5161C7.63376 11.0266 7.25752 10.2662 7.32424 9.74995C7.34812 9.5652 7.51035 9.49074 7.64974 9.37988C8.50819 11.7289 9.33559 14.0889 10.1319 16.4596C10.5916 17.7975 10.9885 19.2396 11.5708 20.5237C12.1652 22.3285 12.7804 24.1263 13.4163 25.917C13.7608 26.9022 14.0629 28.0091 14.5416 28.9345C14.3616 29.0145 14.2278 29.0429 14.0309 29.0473C13.564 28.3947 11.3364 21.4679 10.8458 20.0827L9.62966 16.5938C9.04447 14.8948 8.47319 13.1894 7.81687 11.5161Z" fill="#EDE9E9"/>
<path d="M12.6697 14.8711C14.2775 17.7627 15.1902 20.7728 16.0649 23.9484L16.4464 24.1589L16.6738 24.4902L16.8327 24.4858L17.0398 23.928C17.079 24.2893 17.1379 24.66 17.1483 25.0231L17.2282 26.0485C17.2947 26.42 17.4091 26.8355 17.4046 27.2113L17.4001 28.1308C17.3684 28.6602 17.3334 29.1742 17.4036 29.7027L17.3217 29.7794L17.0742 29.7022C16.8599 30.0512 16.883 30.3677 16.5413 30.6191L16.1933 30.5914C16.0861 30.4048 16.0376 30.1687 15.9758 29.9629C15.2118 28.3488 14.6719 26.5539 14.0642 24.8729C13.0038 21.9396 11.9103 19.0027 10.981 16.0256C11.391 15.4822 12.1793 15.458 12.6697 14.8711Z" fill="#FEFEFE"/>
<path d="M16.1655 24.5498C16.7457 26.0025 16.7641 27.7883 16.8053 29.3349C16.5975 29.7517 16.3936 30.1703 16.1936 30.5907C16.0863 30.404 16.0378 30.168 15.976 29.9621C15.9937 29.9371 15.9971 29.9344 16.0096 29.9098C16.0148 29.8993 16.0197 29.8884 16.0248 29.8777C16.2931 29.3183 15.5716 27.2299 15.9433 26.2618C16.0456 26.5944 16.135 26.9281 16.2188 27.2656C16.3433 26.3857 16.147 25.4479 16.1655 24.5498Z" fill="#EDE9E9"/>
<path d="M16.0649 23.9471L16.4465 24.1577L16.6739 24.4889L16.8328 24.4845L17.0399 23.9268C17.0791 24.2881 17.138 24.6588 17.1484 25.0218L17.2283 26.0473C17.2948 26.4187 17.4092 26.8342 17.4047 27.21L17.4001 28.1296C17.3685 28.6589 17.3335 29.1729 17.4037 29.7014L17.3218 29.7782L17.0743 29.701C16.8599 30.05 16.8831 30.3664 16.5414 30.6179L16.1934 30.5902C16.3935 30.1698 16.5974 29.7512 16.8051 29.3344C16.764 27.7878 16.7455 26.002 16.1653 24.5493L16.0649 23.9471Z" fill="#3E3433"/>
<path d="M170.477 13.64C171.256 13.5709 172.053 13.6103 172.828 13.716C175.189 14.0381 177.066 15.1545 178.499 17.0515C178.786 17.431 179.383 18.1347 179.315 18.6314L177.174 18.6311C177.181 18.5483 177.178 18.4712 177.151 18.3921C176.717 17.2064 175.397 16.3571 174.285 15.9103C174.175 15.8661 174.064 15.8247 173.952 15.786C173.84 15.7474 173.727 15.7116 173.614 15.6785C173.5 15.6454 173.386 15.6151 173.271 15.5876C173.156 15.5602 173.04 15.5356 172.924 15.5139C172.806 15.4922 172.689 15.4733 172.572 15.4574C172.455 15.4414 172.337 15.4283 172.219 15.4181C172.102 15.408 171.984 15.4007 171.866 15.3964C171.747 15.392 171.628 15.3906 171.51 15.392C171.391 15.3936 171.273 15.398 171.155 15.4054C171.037 15.4127 170.919 15.423 170.802 15.4361C170.684 15.4492 170.566 15.4652 170.449 15.4842C170.333 15.5031 170.216 15.525 170.1 15.5497C169.985 15.5744 169.87 15.6019 169.754 15.6322C169.64 15.6626 169.527 15.6957 169.414 15.7317C169.301 15.7677 169.189 15.8064 169.079 15.8479C168.968 15.8894 168.858 15.9336 168.749 15.9804C167.206 16.6385 166.049 17.8499 165.426 19.4047C164.64 21.3743 164.622 24.1593 165.464 26.1156C166.109 27.6178 167.28 28.804 168.806 29.4071C170.42 30.0437 172.566 30.0741 174.166 29.3801C175.548 28.7803 176.849 27.5155 177.401 26.1033C177.637 25.4983 177.915 24.4888 177.638 23.8778C177.634 23.8684 177.63 23.8591 177.625 23.8498C175.808 23.8389 173.992 23.8466 172.175 23.8728C171.981 23.8904 171.781 23.8831 171.587 23.8869C171.104 23.472 171.454 22.7429 171.129 22.1851C171.124 22.176 171.118 22.167 171.113 22.1579C173.863 22.2656 176.613 22.2573 179.363 22.1328C179.366 22.1406 179.37 22.1481 179.375 22.156C179.381 22.169 179.385 22.1825 179.391 22.1954C179.433 22.2867 179.476 22.3746 179.505 22.4716C179.619 22.8669 179.446 30.365 179.373 31.2161C179.359 31.3927 179.29 31.5601 179.205 31.714C178.79 31.7088 178.412 31.6879 178.008 31.5893C177.099 30.8281 178.216 29.578 177.753 28.6584C177.342 28.6921 175.684 30.5213 175.095 30.8926C174.355 31.3584 173.539 31.6275 172.679 31.7698C170.528 32.126 168.458 31.7194 166.673 30.4441C164.647 28.9946 163.407 26.8373 163.007 24.3962C162.584 21.8011 163.164 19.0012 164.716 16.86C166.162 14.8669 168.106 14.0154 170.477 13.64Z" fill="#22090A"/>
<path d="M17.2275 26.0487C20.7337 24.7909 26.2267 23.5484 29.7283 25.1912C31.313 25.9348 32.4065 27.3448 33.9257 28.169C36.8223 29.7402 39.8602 28.3653 42.9343 28.7354C43.8088 28.8406 46.8408 29.8032 47.2779 29.7342C47.3599 29.4293 47.1032 29.0314 46.9711 28.7553C47.0153 28.4746 47.1873 28.2989 47.3639 28.0888C48.1996 30.1426 49.2286 32.2191 49.4248 34.4509C45.4432 31.4628 40.8449 33.3902 36.3925 32.5599C34.6734 32.2394 33.2781 31.4307 31.7914 30.5609C28.6187 28.7046 25.5337 27.8003 21.835 28.3304C20.8647 28.4695 18.1509 29.0768 17.4029 29.7029C17.3327 29.1744 17.3678 28.6604 17.3994 28.131L17.4039 27.2115C17.4085 26.8357 17.2941 26.4202 17.2275 26.0487Z" fill="#F9161D"/>
<path d="M17.404 27.2122C21.263 25.8142 25.9674 24.8227 29.8493 26.642C31.6922 27.5055 33.0055 29.3793 34.9872 29.8858C36.6933 30.3219 38.5719 29.8753 40.2961 29.742C42.4171 29.578 46.1935 29.6548 47.8433 31.237C48.1886 31.5683 48.4034 32.0726 48.6121 32.4987C45.0945 31.3249 43.5656 31.0694 39.9193 31.4518C38.7161 31.5778 37.4872 31.755 36.2833 31.5446C34.7698 31.2801 33.5584 30.4164 32.3363 29.5434C28.4295 26.7524 24.906 26.2887 20.2055 27.3517C19.2552 27.5665 18.3436 27.8991 17.3994 28.1318L17.404 27.2122Z" fill="#FEFEFE"/>
<path fill-rule="evenodd" clip-rule="evenodd" d="M67.9236 13.7365C67.3464 13.7555 66.7684 13.7746 66.1915 13.7634C66.0409 13.8447 65.935 13.9411 65.8538 14.0917C65.3577 15.0123 64.9609 16.049 64.5721 17.0647C64.3981 17.5191 64.2257 17.9694 64.0468 18.4031L60.7971 26.2356C60.6693 26.5512 60.5234 26.9531 60.3621 27.3975C59.8112 28.9152 59.0803 30.9287 58.2769 31.6935C58.4906 31.6955 58.7085 31.7023 58.928 31.7092C59.4618 31.7259 60.0048 31.7429 60.5208 31.6923C60.9632 31.3171 62.8011 27.3128 62.8527 26.6155C62.8577 26.5489 62.8524 26.4807 62.8444 26.4145L68.1906 26.4401L71.2247 26.4382C71.7682 26.869 73.457 30.7317 73.5433 31.4258C73.5547 31.5178 73.5395 31.6003 73.5105 31.6872L75.8144 31.6974C75.8461 31.5423 75.8481 31.3994 75.7927 31.2498C74.8218 28.6263 73.6782 26.037 72.5379 23.4553C71.9069 22.0267 71.277 20.6004 70.6779 19.1719C70.5262 18.8103 70.3202 18.2572 70.0904 17.6405C69.5828 16.2777 68.9594 14.6042 68.5509 13.9995C68.4849 13.9018 68.4055 13.8083 68.3236 13.7236C68.1904 13.7277 68.057 13.7321 67.9236 13.7365ZM67.3371 16.0449C67.2175 16.008 67.0964 15.9707 66.9721 15.9621C66.8859 16.7841 64.1749 24.0243 63.5324 24.5892C63.7042 24.5926 63.8759 24.5963 64.0476 24.5999C65.0611 24.6216 66.075 24.6433 67.0884 24.6176C67.4309 24.6154 67.7758 24.6174 68.1215 24.6195C68.9305 24.6244 69.7441 24.6292 70.5428 24.5791C70.6151 24.2212 69.2517 20.7634 68.2899 18.3239C67.8763 17.275 67.537 16.4144 67.4179 16.0694C67.391 16.0615 67.3641 16.0532 67.3371 16.0449Z" fill="#22090A"/>
<path d="M11.2349 11.179C13.1295 10.7363 15.0612 10.4806 16.9899 10.2387C21.1948 9.71118 25.4332 9.25921 29.2231 11.6037C30.7073 12.5217 32.0639 13.7736 33.7681 14.27C35.7011 14.833 42.4642 14.3432 43.4381 15.3511C44.2222 16.1622 44.518 18.5272 44.7829 19.6099C44.6333 19.8097 44.6015 19.8172 44.3619 19.8957L44.3106 19.8198C44.1451 19.4323 44.0128 19.039 43.6088 18.8509C42.1012 18.1488 35.6785 18.9538 33.2346 18.21C31.9155 17.8087 30.9158 16.8357 29.8161 16.0527C25.345 12.8698 19.1268 14.7205 14.1381 15.562C13.7227 15.0926 13.4455 14.414 13.0729 13.8924C12.6401 13.4717 12.3766 12.9503 12.1036 12.4217C11.8286 11.9591 11.3434 11.7642 11.2349 11.179Z" fill="#F9161D"/>
<path d="M12.1045 12.4208C17.7535 11.8692 23.6111 9.69342 28.9211 12.9112C30.8187 14.0611 32.1563 15.507 34.429 15.9125C36.3472 16.2548 41.9392 15.8538 43.1747 16.5411C43.3442 16.8337 43.4611 17.0873 43.5348 17.4181C42.1394 17.8455 33.4633 17.0476 32.1537 16.3511C30.5995 15.5244 29.3246 14.2466 27.7655 13.4287C27.4708 13.275 27.1692 13.136 26.861 13.0116C26.5526 12.8873 26.2389 12.7782 25.9199 12.6845C25.601 12.5907 25.2782 12.5127 24.9516 12.4504C24.6249 12.3881 24.296 12.3418 23.9649 12.3116C21.2557 12.0576 16.3563 12.8579 13.694 13.6588C13.4824 13.7234 13.2756 13.801 13.0738 13.8915C12.6409 13.4708 12.3774 12.9495 12.1045 12.4208Z" fill="#FEFEFE"/>
<path fill-rule="evenodd" clip-rule="evenodd" d="M201.149 19.2519C199.784 18.1533 197.916 17.6463 196.181 17.8019C194.004 18.4123 192.482 19.268 191.343 21.2962C190.398 22.9828 190.262 25.2237 190.782 27.0687C191.255 28.7449 192.477 30.3036 194.001 31.1529C194.959 31.6867 196.55 32.166 197.648 31.8704C199.396 31.6896 200.919 30.9598 202.039 29.5824C203.333 27.991 203.741 25.8737 203.529 23.8686C203.341 22.1056 202.549 20.3787 201.149 19.2519ZM199.764 20.5655C198.72 19.7797 197.503 19.6364 196.236 19.759C194.979 20.0554 194.025 20.5315 193.32 21.6705C192.456 23.0662 192.293 24.9457 192.67 26.5199C192.948 27.6807 193.55 28.7333 194.594 29.3715C195.476 29.9115 196.686 30.1021 197.709 29.9374C198.882 29.777 199.824 29.3285 200.555 28.3713C201.518 27.1117 201.767 25.3479 201.556 23.811C201.383 22.5433 200.802 21.3458 199.764 20.5655Z" fill="#22090A"/>
<path fill-rule="evenodd" clip-rule="evenodd" d="M128.751 19.218C127.946 18.4912 126.909 17.5542 124.712 17.8025C122.762 18.2126 121.205 18.95 120.088 20.659C118.953 22.3965 118.61 24.5611 119.044 26.5825C119.417 28.3196 120.475 30.0155 121.983 30.9869C123.335 31.8584 125.041 32.1157 126.607 31.7752C127.514 31.5781 128.601 31.1363 129.11 30.3148C129.143 30.2611 129.164 30.2205 129.174 30.1581C129.235 30.1216 129.291 30.0858 129.344 30.0519C129.583 29.8997 129.763 29.7846 130.091 29.8143C130.214 30.068 130.216 30.1926 130.121 30.4644C129.994 30.826 129.716 31.3974 129.42 31.6382C129.584 31.6453 129.748 31.6529 129.913 31.6606C130.556 31.6905 131.2 31.7205 131.844 31.7177C131.873 31.6623 131.898 31.6053 131.922 31.5473C132.103 31.1101 132.094 18.665 131.899 18.2196C131.874 18.1625 131.845 18.1097 131.812 18.0567L129.6 18.1163C129.97 18.5184 130.146 19.2751 130.18 19.8128L130.082 19.9979C129.598 19.9833 129.213 19.6353 128.751 19.218ZM124.672 19.7445C124.625 19.7481 124.578 19.7525 124.532 19.758C123.114 20.2647 122.057 21.0323 121.402 22.422C120.753 23.7986 120.724 25.5369 121.237 26.9605C121.642 28.0859 122.432 29.0863 123.532 29.5992C124.258 29.938 125.323 30.1416 126.122 29.9928C127.204 29.927 128.075 29.47 128.787 28.6623C129.792 27.5227 130.166 25.911 130.067 24.4228C129.974 23.0267 129.44 21.6507 128.366 20.7176C127.269 19.7642 126.066 19.6401 124.672 19.7445Z" fill="#22090A"/>
<path fill-rule="evenodd" clip-rule="evenodd" d="M230.488 18.5072C229.18 17.8285 227.826 17.7493 226.386 17.922C225.315 18.3226 224.579 18.7651 223.684 19.4642C223.589 19.5388 223.495 19.6172 223.401 19.6958C223.149 19.9073 222.896 20.1196 222.599 20.2603C222.952 19.7536 223.044 18.8513 222.937 18.2477C222.919 18.1529 222.877 18.0685 222.824 17.9884L220.887 17.9611C220.999 18.1602 221.05 18.3421 221.059 18.57C221.132 20.3394 221.208 36.0724 221.018 36.736C220.99 36.8316 220.952 36.9226 220.903 37.009C221.035 37.01 221.168 37.0125 221.301 37.0149C221.805 37.0242 222.315 37.0336 222.811 36.9691C223.101 36.4512 223.179 32.4664 222.957 31.7512C222.916 31.622 222.862 31.4928 222.789 31.3786C223.042 30.8841 223.016 30.3141 222.851 29.7925C222.809 29.6622 222.753 29.5376 222.685 29.4187C223.11 29.6443 223.451 29.9637 223.794 30.2856C223.965 30.4459 224.137 30.6068 224.32 30.7571C225.753 31.9354 227.662 32.2293 229.429 31.6871C231.073 31.1826 232.418 29.9579 233.217 28.4521C234.151 26.6875 234.323 24.3612 233.731 22.4614C233.211 20.7942 232.047 19.3162 230.488 18.5072ZM230.213 20.5918C229.17 19.8196 227.952 19.6343 226.685 19.758C225.322 20.1339 224.341 20.766 223.634 22.0115C222.853 23.3883 222.722 25.1257 223.142 26.6381C223.46 27.7806 224.144 28.8543 225.196 29.4499C225.971 29.8897 227.289 30.1316 228.166 29.9118C229.426 29.7319 230.43 29.2527 231.201 28.2222C232.087 27.0363 232.414 25.441 232.197 23.9889C231.999 22.659 231.302 21.3979 230.213 20.5918Z" fill="#22090A"/>
<path d="M14.1392 15.5578C19.1279 14.7162 25.3461 12.8655 29.8172 16.0484C30.9169 16.8314 31.9166 17.8044 33.2357 18.2058C35.6796 18.9495 42.1023 18.1445 43.6099 18.8466C44.0139 19.0347 44.1462 19.428 44.3117 19.8155L44.363 19.8914C44.6026 19.8129 44.6343 19.8054 44.7839 19.6056C45.2895 21.4579 45.8365 23.298 46.4249 25.1257C46.7067 26.0072 47.2639 27.195 47.365 28.0856C47.1884 28.2957 47.0164 28.4714 46.9722 28.7521C47.1043 29.0282 47.361 29.4261 47.279 29.731C46.8419 29.8 43.8099 28.8374 42.9353 28.7322C39.8613 28.3621 36.8234 29.737 33.9268 28.1658C32.4076 27.3416 31.3141 25.9316 29.7294 25.188C26.2278 23.5453 20.7348 24.7877 17.2286 26.0456L17.1488 25.0201C17.1384 24.657 17.0795 24.2863 17.0402 23.925L16.9634 23.2584C16.7655 22.4807 16.5752 21.7176 16.2499 20.9806C16.219 20.0611 15.3536 18.2882 15.0104 17.3809L14.1392 15.5578Z" fill="#FEFEFE"/>
<path d="M18.9709 20.5117C19.3304 21.7123 19.6989 22.91 20.0765 24.105C19.0817 24.3598 18.1185 24.6871 17.1482 25.0206C17.1378 24.6575 17.0789 24.2869 17.0397 23.9255L16.9629 23.2589C17.304 23.4989 18.0436 23.7276 18.4579 23.6891C19.4923 23.0018 18.5796 21.5178 18.9709 20.5117Z" fill="#F9161D"/>
<path d="M17.7303 16.4102C18.1001 17.7798 18.6897 19.1317 18.9713 20.5138C18.58 21.5199 19.4928 23.0038 18.4584 23.6911C18.044 23.7297 17.3044 23.501 16.9633 23.261C16.7654 22.4833 16.575 21.7202 16.2498 20.9832C16.2189 20.0637 15.3535 18.2908 15.0103 17.3835C15.8759 16.964 16.8153 16.7006 17.7303 16.4102Z" fill="#F9161D"/>
<path d="M41.1367 19.2617C41.533 19.3854 41.9313 19.5021 42.3317 19.6119C42.84 19.7521 43.819 20.0953 44.3113 19.8164L44.3626 19.8923C44.6021 19.8138 44.6339 19.8063 44.7835 19.6065C45.2891 21.4588 45.8361 23.2989 46.4245 25.1266C46.7062 26.0081 47.2634 27.1959 47.3645 28.0865C47.188 28.2966 47.016 28.4723 46.9717 28.753C46.1268 28.161 45.0733 28.0203 44.1655 27.555C43.7413 27.3377 43.4823 27.0924 43.2483 26.6804C42.3046 25.0188 41.7837 21.2917 41.1367 19.2617Z" fill="#F9161D"/>
<path d="M31.0874 18.5723C33.1496 18.9806 35.3874 18.995 37.4896 19.1428C37.975 19.9391 38.2503 20.8103 38.4863 21.7055C37.7521 21.8517 36.9885 21.9057 36.2439 21.9871C36.1651 21.5964 36.0742 21.0106 35.8262 20.691C35.6644 20.4827 35.4789 20.3677 35.2134 20.3442C34.879 20.3145 34.6734 20.4784 34.4378 20.6781C34.3346 20.8985 34.2822 21.1026 34.2894 21.347C34.321 22.4249 34.9669 24.4649 35.7572 25.2128C36.0999 25.2358 36.3025 25.2243 36.6033 25.0487C36.8597 24.7132 36.7583 24.1088 36.7445 23.7039C36.7325 23.3825 36.7048 23.27 36.8735 22.9853C37.3879 22.7127 38.2238 22.8479 38.8002 22.874C39.0199 23.3551 39.2347 23.8849 39.3773 24.3939C39.5459 24.9958 39.5745 25.6818 39.2516 26.2393C38.9742 26.7184 38.462 26.9978 37.9407 27.1359C36.7144 27.4602 34.8964 27.3701 33.788 26.7117C33.5395 26.564 33.3117 26.4071 33.1596 26.1559C32.2189 24.6024 31.5617 20.4894 31.0874 18.5723Z" fill="#040304"/>
<path d="M22.6426 15.6465C24.1089 16.2897 26.8096 15.8578 28.4288 15.7849C29.552 18.2748 30.0869 21.2641 30.6948 23.9252C30.0402 23.9595 28.9692 24.1156 28.3797 23.8055L28.3138 23.5809C28.2098 23.0605 28.1394 22.4038 27.8627 21.946C27.6848 21.6518 27.4638 21.417 27.1327 21.3351L27.0096 21.4377C26.6497 22.2618 26.9987 23.0324 27.2316 23.8463C26.3197 24.002 25.3565 23.9998 24.4326 24.0479C23.6452 21.331 23.2574 18.4175 22.6426 15.6465Z" fill="#040304"/>
<path d="M25.9429 17.8311C26.2727 17.8459 26.598 17.7906 26.8573 18.0281C27.2886 18.4228 27.2523 19.3701 27.2794 19.9182C27.223 19.9224 27.1664 19.9255 27.1099 19.9274C26.7924 19.938 26.4986 19.9787 26.257 19.7422C25.8516 19.3456 25.9473 18.3717 25.9429 17.8311Z" fill="#FEFEFE"/>
</svg>
