<svg width="25" height="24" viewBox="0 0 25 24" fill="none" xmlns="http://www.w3.org/2000/svg">
<g opacity="0.4">
<path d="M3.66992 7.43945L12.4999 12.5494L21.2699 7.46942" stroke="#2C363F" stroke-width="1.5" stroke-linecap="round" stroke-linejoin="round"/>
<path d="M12.5 21.6091V12.5391" stroke="#2C363F" stroke-width="1.5" stroke-linecap="round" stroke-linejoin="round"/>
<path d="M10.4301 2.48L5.09012 5.45003C3.88012 6.12003 2.89014 7.80001 2.89014 9.18001V14.83C2.89014 16.21 3.88012 17.89 5.09012 18.56L10.4301 21.53C11.5701 22.16 13.4401 22.16 14.5801 21.53L19.9201 18.56C21.1301 17.89 22.1201 16.21 22.1201 14.83V9.18001C22.1201 7.80001 21.1301 6.12003 19.9201 5.45003L14.5801 2.48C13.4301 1.84 11.5701 1.84 10.4301 2.48Z" stroke="#2C363F" stroke-width="1.5" stroke-linecap="round" stroke-linejoin="round"/>
</g>
<path d="M17.5 13.2396V9.57965L8.01001 4.09961" stroke="#2C363F" stroke-width="1.5" stroke-linecap="round" stroke-linejoin="round"/>
</svg>
