<svg width="26" height="26" viewBox="0 0 26 26" fill="none" xmlns="http://www.w3.org/2000/svg">
<g clip-path="url(#clip0_1309_151854)">
<path d="M0 13C0 5.8203 5.8203 0 13 0C20.1797 0 26 5.8203 26 13C26 20.1797 20.1797 26 13 26C5.8203 26 0 20.1797 0 13Z" fill="white"/>
<g opacity="0.8">
<path d="M13.0001 1.35384C6.57591 1.35384 1.35425 6.57551 1.35425 12.9997C1.35425 19.4238 6.57591 24.6455 13.0001 24.6455C19.4242 24.6455 24.6459 19.4238 24.6459 12.9997C24.6459 6.57551 19.4242 1.35384 13.0001 1.35384ZM13.0001 23.0205C7.47508 23.0205 2.97925 18.5247 2.97925 12.9997C2.97925 7.47467 7.47508 2.97884 13.0001 2.97884C18.5251 2.97884 23.0209 7.47467 23.0209 12.9997C23.0209 18.5247 18.5251 23.0205 13.0001 23.0205Z" fill="#2C363F"/>
<path d="M15.7083 12.1875H9.20825C8.76409 12.1875 8.39575 12.5558 8.39575 13C8.39575 13.4442 8.76409 13.8125 9.20825 13.8125L15.7083 13.8125C16.1524 13.8125 16.5208 13.4442 16.5208 13C16.5208 12.5558 16.1524 12.1875 15.7083 12.1875Z" fill="#2C363F"/>
<path d="M13.5417 8.93728C13.3359 8.93728 13.1301 9.01311 12.9676 9.17561C12.6534 9.48978 12.6534 10.0098 12.9676 10.3239L15.6434 12.9998L12.9676 15.6756C12.6534 15.9898 12.6534 16.5098 12.9676 16.8239C13.2817 17.1381 13.8017 17.1381 14.1159 16.8239L17.3659 13.5739C17.6801 13.2598 17.6801 12.7398 17.3659 12.4256L14.1159 9.17561C13.9534 9.01311 13.7476 8.93728 13.5417 8.93728Z" fill="#2C363F"/>
</g>
</g>
<defs>
<clipPath id="clip0_1309_151854">
<path d="M0 13C0 5.8203 5.8203 0 13 0C20.1797 0 26 5.8203 26 13C26 20.1797 20.1797 26 13 26C5.8203 26 0 20.1797 0 13Z" fill="white"/>
</clipPath>
</defs>
</svg>
