<svg width="26" height="26" viewBox="0 0 26 26" fill="none" xmlns="http://www.w3.org/2000/svg">
<path d="M13.0013 23.8334C7.0213 23.8334 2.16797 18.98 2.16797 13C2.16797 7.02004 7.0213 2.16671 13.0013 2.16671C18.9813 2.16671 23.8346 7.02004 23.8346 13C23.8346 18.98 18.9813 23.8334 13.0013 23.8334ZM16.793 12.1875H11.1705L13.0338 10.3242C13.348 10.01 13.348 9.49004 13.0338 9.17587C12.8713 9.01337 12.6655 8.93754 12.4596 8.93754C12.2538 8.93754 12.048 9.01337 11.8855 9.17587L8.63547 12.4259C8.3213 12.74 8.3213 13.26 8.63547 13.5742L11.8855 16.8242C12.1996 17.1384 12.7196 17.1384 13.0338 16.8242C13.348 16.51 13.348 15.99 13.0338 15.6759L11.1705 13.8125H16.793C17.2371 13.8125 17.6055 13.4442 17.6055 13C17.6055 12.5559 17.2371 12.1875 16.793 12.1875Z" fill="#2C363F"/>
</svg>
