<svg width="25" height="24" viewBox="0 0 25 24" fill="none" xmlns="http://www.w3.org/2000/svg">
<path d="M17.5099 12.7298C18.1009 12.7298 18.5799 12.2507 18.5799 11.6598C18.5799 11.0688 18.1009 10.5898 17.5099 10.5898C16.919 10.5898 16.4399 11.0688 16.4399 11.6598C16.4399 12.2507 16.919 12.7298 17.5099 12.7298Z" stroke="#2C363F" stroke-width="1.5" stroke-linecap="round" stroke-linejoin="round"/>
<path d="M20.5 6V7.78998C20.25 7.75998 19.96 7.73999 19.65 7.73999H15.37C13.23 7.73999 12.52 8.45003 12.52 10.59V15.7H6.5C3.3 15.7 2.5 14.9 2.5 11.7V6C2.5 2.8 3.3 2 6.5 2H16.5C19.7 2 20.5 2.8 20.5 6Z" stroke="#2C363F" stroke-width="1.5" stroke-linecap="round" stroke-linejoin="round"/>
<path opacity="0.4" d="M2.5 11.9004H12.5" stroke="#2C363F" stroke-width="1.5" stroke-linecap="round" stroke-linejoin="round"/>
<g opacity="0.4">
<path d="M9.5 15.6992V19.9992" stroke="#2C363F" stroke-width="1.5" stroke-linecap="round" stroke-linejoin="round"/>
<path d="M6.4502 20H12.5002" stroke="#2C363F" stroke-width="1.5" stroke-linecap="round" stroke-linejoin="round"/>
</g>
<path d="M17.5099 12.7298C18.1009 12.7298 18.5799 12.2507 18.5799 11.6598C18.5799 11.0688 18.1009 10.5898 17.5099 10.5898C16.919 10.5898 16.4399 11.0688 16.4399 11.6598C16.4399 12.2507 16.919 12.7298 17.5099 12.7298Z" stroke="#2C363F" stroke-width="1.5" stroke-miterlimit="10" stroke-linecap="round" stroke-linejoin="round"/>
<path d="M22.5 10.5903V19.1503C22.5 21.2903 21.79 22.0002 19.65 22.0002H15.37C13.23 22.0002 12.52 21.2903 12.52 19.1503V10.5903C12.52 8.45027 13.23 7.74023 15.37 7.74023H19.65C19.96 7.74023 20.25 7.76022 20.5 7.79022C21.98 7.98022 22.5 8.76027 22.5 10.5903Z" stroke="#2C363F" stroke-width="1.5" stroke-miterlimit="10" stroke-linecap="round" stroke-linejoin="round"/>
<path d="M19.6501 17.0092C19.6501 18.1892 18.6901 19.1492 17.5101 19.1492C16.3301 19.1492 15.3701 18.1892 15.3701 17.0092C15.3701 16.5192 15.5401 16.0592 15.8201 15.6992C16.2101 15.1992 16.8201 14.8691 17.5101 14.8691C18.0501 14.8691 18.5401 15.0692 18.9101 15.3892C19.3601 15.7892 19.6501 16.3692 19.6501 17.0092Z" stroke="#2C363F" stroke-width="1.5" stroke-miterlimit="10" stroke-linecap="round" stroke-linejoin="round"/>
<path d="M17.5099 12.7298C18.1009 12.7298 18.5799 12.2507 18.5799 11.6598C18.5799 11.0688 18.1009 10.5898 17.5099 10.5898C16.919 10.5898 16.4399 11.0688 16.4399 11.6598C16.4399 12.2507 16.919 12.7298 17.5099 12.7298Z" stroke="#2C363F" stroke-width="1.5" stroke-miterlimit="10" stroke-linecap="round" stroke-linejoin="round"/>
</svg>
