<svg width="25" height="24" viewBox="0 0 25 24" fill="none" xmlns="http://www.w3.org/2000/svg">
<path d="M18.6401 21.6207C17.7601 21.8807 16.7201 22.0007 15.5001 22.0007H9.50011C8.28011 22.0007 7.24011 21.8807 6.36011 21.6207C6.58011 19.0207 9.25011 16.9707 12.5001 16.9707C15.7501 16.9707 18.4201 19.0207 18.6401 21.6207Z" stroke="#828A91" stroke-width="1.5" stroke-linecap="round" stroke-linejoin="round"/>
<path d="M15.5 2H9.5C4.5 2 2.5 4 2.5 9V15C2.5 18.78 3.64 20.85 6.36 21.62C6.58 19.02 9.25 16.97 12.5 16.97C15.75 16.97 18.42 19.02 18.64 21.62C21.36 20.85 22.5 18.78 22.5 15V9C22.5 4 20.5 2 15.5 2ZM12.5 14.17C10.52 14.17 8.92 12.56 8.92 10.58C8.92 8.60002 10.52 7 12.5 7C14.48 7 16.08 8.60002 16.08 10.58C16.08 12.56 14.48 14.17 12.5 14.17Z" stroke="#2C363F" stroke-width="1.5" stroke-linecap="round" stroke-linejoin="round"/>
<path d="M16.0799 10.58C16.0799 12.56 14.4799 14.17 12.4999 14.17C10.5199 14.17 8.91992 12.56 8.91992 10.58C8.91992 8.60002 10.5199 7 12.4999 7C14.4799 7 16.0799 8.60002 16.0799 10.58Z" stroke="#828A91" stroke-width="1.5" stroke-linecap="round" stroke-linejoin="round"/>
</svg>
