<svg width="20" height="22" viewBox="0 0 20 22" fill="none" xmlns="http://www.w3.org/2000/svg">
<g clip-path="url(#clip0_672_81519)">
<path opacity="0.5" d="M16 17.8598H15.24C14.44 17.8598 13.68 18.1698 13.12 18.7298L11.41 20.4198C10.63 21.1898 9.36 21.1898 8.58 20.4198L6.87 18.7298C6.31 18.1698 5.54 17.8598 4.75 17.8598H4C2.34 17.8598 1 16.5298 1 14.8898V3.97977C1 2.33977 2.34 1.00977 4 1.00977H16C17.66 1.00977 19 2.33977 19 3.97977V14.8898C19 16.5198 17.66 17.8598 16 17.8598Z" fill="#2C363F" stroke="#2C363F" stroke-width="1.5" stroke-miterlimit="10" stroke-linecap="round" stroke-linejoin="round"/>
<path d="M5 8.15912C5 7.22912 5.76 6.46912 6.69 6.46912C7.62 6.46912 8.38 7.22912 8.38 8.15912C8.38 10.0391 5.71 10.2391 5.12 12.0291C5 12.3991 5.31 12.7691 5.7 12.7691H8.38M14.04 12.7591V7.04912C14.0405 6.92277 13.9998 6.7997 13.924 6.69862C13.8482 6.59754 13.7414 6.52398 13.62 6.48912C13.4977 6.45459 13.3676 6.46024 13.2488 6.50525C13.1299 6.55026 13.0287 6.63224 12.96 6.73912C12.24 7.89912 11.46 9.21912 10.78 10.3791C10.67 10.5691 10.67 10.8191 10.78 11.0091C10.89 11.1991 11.1 11.3191 11.33 11.3191H15" stroke="#19212A" stroke-width="1.5" stroke-linecap="round" stroke-linejoin="round"/>
</g>
<defs>
<clipPath id="clip0_672_81519">
<rect width="20" height="22" fill="white"/>
</clipPath>
</defs>
</svg>
