<svg width="25" height="24" viewBox="0 0 25 24" fill="none" xmlns="http://www.w3.org/2000/svg">
<path d="M11.5 16.15V18.85C11.5 21.1 10.6 22 8.35 22H5.65C3.4 22 2.5 21.1 2.5 18.85V16.15C2.5 13.9 3.4 13 5.65 13H8.35C10.6 13 11.5 13.9 11.5 16.15Z" stroke="#2C363F" stroke-width="1.5" stroke-linecap="round" stroke-linejoin="round"/>
<path opacity="0.4" d="M22.5 15C22.5 18.87 19.37 22 15.5 22L16.55 20.25" stroke="#2C363F" stroke-width="1.5" stroke-linecap="round" stroke-linejoin="round"/>
<path opacity="0.4" d="M2.5 9C2.5 5.13 5.63 2 9.5 2L8.45 3.75" stroke="#2C363F" stroke-width="1.5" stroke-linecap="round" stroke-linejoin="round"/>
<path d="M18 11C20.4853 11 22.5 8.98528 22.5 6.5C22.5 4.01472 20.4853 2 18 2C15.5147 2 13.5 4.01472 13.5 6.5C13.5 8.98528 15.5147 11 18 11Z" stroke="#2C363F" stroke-width="1.5" stroke-linecap="round" stroke-linejoin="round"/>
</svg>
