<svg width="210" height="50" viewBox="0 0 210 50" fill="none" xmlns="http://www.w3.org/2000/svg">
<path fill-rule="evenodd" clip-rule="evenodd" d="M24.2567 10.5814C25.6418 12.4192 25.4477 15.2117 24.4088 17.1348C22.3113 20.2947 19.0661 23.107 19.9949 27.412C18.6543 25.8748 18.2437 23.452 18.7631 21.4844C20.0395 18.1316 23.8684 14.1073 20.4711 10.5369H20.319C19.7575 14.7776 14.7809 15.9463 12.6834 19.4067C10.8221 21.7874 10.5834 25.8105 12.164 28.3854C13.679 30.6783 16.0794 31.9125 18.5888 32.2786C18.7174 32.6236 18.3278 32.6236 18.1349 32.6051L12.0551 32.6459L11.9042 32.798C11.9042 34.8102 12.0551 36.779 13.6122 38.1654C15.1482 39.3539 17.1393 39.506 19.0649 39.7645C19.4112 39.9599 19.713 40.2184 19.844 40.5882C20.0382 41.3438 20.016 42.2738 19.3679 42.8365C18.1992 43.5303 16.6199 43.2249 15.2793 43.0975C12.3581 42.5756 9.52354 40.2617 8.37709 37.5372C7.64247 35.9579 7.46809 34.1386 7.27393 32.3441L7.33824 16.7032C7.46686 13.7623 8.9398 11.0786 11.4912 9.39042C13.742 7.81112 16.8573 8.09309 19.734 8.13638C21.4666 8.41835 23.1548 9.00209 24.2567 10.5814Z" fill="white"/>
<path d="M40.3911 13.3952C40.9093 15.0809 40.9328 16.9644 40.9748 18.8467L40.9105 34.834C40.6941 38.2523 37.9696 41.4331 34.7887 42.5784C33.0585 43.0137 30.7433 43.5949 29.0762 42.6216C28.751 42.08 28.6001 41.3466 28.8165 40.6961C30.0273 38.6839 32.9917 40.0022 34.5277 38.3599C36.4546 37.0625 36.5832 34.9205 36.6698 32.7995L36.41 32.6066C34.226 32.5608 31.9764 32.6932 29.8566 32.4978C30.5492 31.8918 31.6511 32.0216 32.4537 31.5653C34.5067 30.9593 36.2814 29.0362 36.9295 27.0463C38.0116 23.4325 36.8652 19.5393 33.902 17.2872C33.7498 17.9377 34.205 18.5648 34.1196 19.2994C35.0274 26.4168 24.9456 25.1825 24.9888 31.9771C23.7352 28.0012 26.7545 25.1256 29.4788 22.5311L29.4893 22.5211C31.6301 20.316 31.9553 16.7245 31.0463 13.9122C30.376 11.3806 27.889 9.32516 25.6591 8.13666C31.2405 8.11564 38.1415 7.33649 40.3911 13.3952Z" fill="white"/>
<path fill-rule="evenodd" clip-rule="evenodd" d="M34.6372 4.30777C38.3363 4.69734 41.929 7.5542 43.4625 10.9923C44.2206 13.1121 44.8266 15.2763 44.7178 17.7424L44.5446 34.6819C44.0265 38.2733 42.5115 41.6261 39.202 43.8782C37.4706 45.0234 35.6105 45.8681 33.5563 46.2144C27.9094 46.3863 22.0906 46.3232 16.4202 46.2577C11.5747 46.019 6.96785 42.7095 4.93343 38.2523C4.26313 36.4788 3.76472 34.6386 3.74246 32.6079L3.78699 16.2942C4.37072 11.6638 6.75019 6.97045 11.4226 5.13144C12.7434 4.61201 14.2349 4.46113 15.6843 4.24471L34.6372 4.30777ZM43.3104 4.30777C47.0317 7.76938 48.5244 12.3552 48.6122 17.4394V28.7109C48.9152 35.6985 47.4881 42.3409 41.6445 46.6237C38.5527 49.0687 34.7658 49.8046 30.7427 50H16.2483C10.8388 49.6735 5.7336 47.1864 2.7469 42.362C1.1478 39.7871 0.152238 36.9315 0.000120091 33.7506V17.0288C-0.022141 10.8414 3.05113 4.99911 8.67454 2.12247C13.1107 -0.213709 18.671 0.110314 24.0347 0.044767C31.068 0.00271818 38.3808 -0.602045 43.3104 4.30777Z" fill="white"/>
<path fill-rule="evenodd" clip-rule="evenodd" d="M64.5333 27.8267C64.4269 27.8019 64.3181 27.6745 64.2748 27.5657L64.7077 19.8844L61.8954 19.8201L61.7432 19.9289C61.7432 21.8659 61.6181 23.7608 61.494 25.6417C61.399 27.0802 61.3046 28.5105 61.2671 29.9452H68.6875C68.8173 29.2761 68.9249 28.539 68.7951 27.8267H64.5333ZM130.476 29.9452C131.449 30.0318 132.487 30.0318 133.439 29.9452L133.916 19.8844L131.21 19.8201L131.104 19.8844L130.476 29.9452ZM163.445 22.2639C163.483 21.5538 163.432 20.8418 163.295 20.1441C160.72 19.7323 157.56 19.4948 155.764 21.7444C154.53 23.4758 154.097 26.439 155.354 28.2991C157.018 30.6377 160.069 30.5042 162.728 30.2024C162.989 29.7705 163.037 29.2413 163.086 28.7127C163.11 28.4482 163.134 28.1838 163.185 27.9318C162.883 27.9589 162.576 28.0006 162.266 28.0426C161.331 28.1696 160.373 28.2998 159.462 28.0406C158.729 27.7389 157.905 27.2602 157.733 26.4168C157.517 25.0316 157.756 23.5179 158.944 22.6312C160.157 21.81 162.038 22.0041 163.445 22.2639ZM198.396 21.6636C198.406 21.4055 198.417 21.1442 198.341 20.9232C197.993 20.945 197.673 21.0265 197.353 21.1082C197.035 21.1892 196.717 21.2702 196.371 21.293C195.921 21.2138 195.907 21.5513 195.895 21.8753C195.89 22.0013 195.885 22.1252 195.854 22.2218C195.839 22.661 195.463 22.6761 195.098 22.6907C194.942 22.697 194.787 22.7032 194.663 22.7425L194.557 24.4504C194.632 24.5885 194.785 24.6063 194.944 24.6248C195.108 24.6439 195.279 24.6638 195.378 24.8177C195.404 25.4001 195.354 25.972 195.303 26.5406C195.228 27.3872 195.153 28.2262 195.335 29.0807C195.858 30.3329 197.246 30.3557 198.47 30.3758C198.514 30.3765 198.557 30.3773 198.601 30.378C199.574 30.5837 199.62 29.7708 199.662 29.026C199.677 28.7586 199.692 28.4999 199.749 28.3003C199.61 28.2888 199.468 28.2896 199.327 28.2904C198.942 28.2925 198.568 28.2946 198.299 28.0419C198.082 27.3925 198.135 26.6855 198.188 25.979C198.215 25.6252 198.241 25.2715 198.234 24.9253C198.45 24.5482 198.86 24.5741 199.268 24.5999C199.514 24.6155 199.76 24.6311 199.963 24.558L200.008 22.7412L198.665 22.6744C198.363 22.4517 198.379 22.0615 198.396 21.6636ZM85.3576 23.688C85.3338 23.2487 85.3098 22.8037 85.1521 22.416C85.0027 22.397 84.8492 22.3762 84.6927 22.3549C83.2385 22.1577 81.5189 21.9245 80.3276 22.782C79.917 23.1271 79.7859 23.6045 79.6993 24.0806C79.4997 25.3111 80.5042 25.9955 81.4587 26.6459C81.8463 26.91 82.2257 27.1685 82.5129 27.4556L82.5562 27.7797C82.05 28.4312 81.2935 28.2513 80.5702 28.0793C80.2102 27.9937 79.8583 27.91 79.5497 27.9318C79.5861 28.1608 79.595 28.4028 79.6038 28.6447C79.6209 29.1096 79.6379 29.5738 79.8502 29.9439C80.8525 30.2062 81.8886 30.3154 82.9235 30.268C83.9178 30.1591 85.0655 29.7918 85.3685 28.7097C85.5614 28.0406 85.4749 27.2194 85.0432 26.6777C84.752 26.283 84.3552 26.0432 83.9692 25.8099C83.4651 25.5052 82.9794 25.2117 82.7714 24.5988C83.2357 23.9535 84.055 24.1075 84.7826 24.2443C85.0047 24.2861 85.2182 24.3262 85.4105 24.3416C85.3815 24.1306 85.3696 23.91 85.3576 23.688ZM149.59 23.7142C149.565 23.2853 149.541 22.8562 149.382 22.5236C148.066 22.155 146.247 22.0907 144.969 22.5891C144.495 22.8055 144.041 23.3027 143.933 23.8209C143.58 25.1754 144.535 25.8584 145.481 26.5355C145.986 26.8965 146.488 27.2557 146.788 27.7141C146.38 28.5155 145.58 28.3174 144.818 28.1284C144.447 28.0365 144.085 27.9467 143.781 27.9751L143.973 29.9439C145.338 30.3323 147.198 30.5697 148.495 29.9439C149.058 29.683 149.534 29.1005 149.643 28.4945C149.987 27.1497 148.914 26.3893 147.923 25.686C147.606 25.4612 147.297 25.2422 147.045 25.0119L147.002 24.6C147.444 24.1033 148.072 24.1944 148.697 24.285C149.022 24.3322 149.346 24.3792 149.643 24.3428C149.614 24.1413 149.602 23.9278 149.59 23.7142ZM110.853 24.1907L110.66 23.5191C110.354 22.9131 109.727 22.6324 109.145 22.479C107.736 22.2416 106.181 22.3282 105.207 23.4103C104.929 23.3967 104.935 23.1559 104.941 22.9067C104.945 22.7492 104.949 22.5882 104.882 22.479C104.015 22.416 103.02 22.3504 102.177 22.5223C102.145 24.4002 102.015 26.278 101.889 28.1113C101.846 28.7278 101.804 29.3392 101.766 29.9439H104.47L104.622 29.8574C104.651 29.4591 104.661 29.0547 104.672 28.6511C104.701 27.5419 104.729 26.4389 105.143 25.4868C105.464 24.903 106.071 24.558 106.7 24.4937C107.153 24.5357 107.609 24.6656 107.845 25.1195C108.044 26.0692 107.942 26.9964 107.84 27.9184C107.765 28.5944 107.691 29.2677 107.736 29.9452H110.551L110.853 24.1907ZM193.666 25.8566C193.754 25.1195 193.775 24.2983 193.474 23.67C193.192 23.1085 192.586 22.8476 192.064 22.6757C190.573 22.3949 189.037 22.6114 187.955 23.6292C187.848 23.486 187.852 23.298 187.856 23.1108C187.859 22.9569 187.862 22.8034 187.803 22.6757C187.744 22.6728 187.684 22.6698 187.624 22.6668C186.802 22.6258 185.885 22.58 185.1 22.7425C185.078 23.9936 184.995 25.2342 184.913 26.4691C184.832 27.6889 184.751 28.9033 184.73 30.1171L187.327 30.1604L187.499 30.0515C187.576 29.5427 187.585 29.0042 187.595 28.4652C187.615 27.3342 187.634 26.2011 188.279 25.3359C188.647 24.9265 189.1 24.6656 189.663 24.7101C190.074 24.7101 190.423 24.9265 190.661 25.2295C190.903 26.2973 190.807 27.4134 190.712 28.5014C190.664 29.0654 190.615 29.622 190.615 30.1604L193.256 30.2037L193.408 30.1171L193.666 25.8566ZM204.293 23.7563C204.173 23.3835 204.053 23.0107 203.945 22.6324C202.994 22.5668 201.912 22.5025 201.004 22.6744L203.34 29.5964C203.771 30.3018 203.28 30.9364 202.847 31.4976C202.801 31.5573 202.756 31.6161 202.712 31.6741C202.213 31.9421 201.661 31.9005 201.086 31.8572C200.916 31.8443 200.743 31.8313 200.57 31.8262L200.638 33.2757C200.651 33.7331 201.027 33.7378 201.395 33.7424C201.567 33.7445 201.737 33.7466 201.867 33.7951C203.297 33.8817 204.703 33.6207 205.418 32.3457L209.722 22.9354V22.6324L207.018 22.6744C206.896 22.9831 206.772 23.2908 206.649 23.5981C206.141 24.8647 205.635 26.1248 205.199 27.4136L205.047 27.2615C205.015 25.9949 204.655 24.876 204.293 23.7563ZM177.464 27.0871L177.682 22.7833L177.53 22.6312H174.871C174.843 23.0793 174.809 23.5321 174.774 23.9872C174.645 25.7078 174.512 27.4621 174.719 29.1228C174.956 29.5964 175.431 29.8574 175.864 30.0503C177.269 30.4411 179.001 30.3768 180.018 29.2291L180.061 29.2749C179.896 30.374 180.857 30.2578 181.769 30.1476C182.184 30.0975 182.588 30.0486 182.872 30.1159L183.24 22.7833C182.375 22.6101 181.336 22.6744 180.429 22.7412C180.346 23.2635 180.34 23.8186 180.334 24.3753C180.321 25.5707 180.308 26.7734 179.542 27.6745C179.172 27.9108 178.677 28.0827 178.201 27.933C177.831 27.8452 177.548 27.4346 177.464 27.0871ZM84.9567 37.7984C85.1521 37.279 85.0432 36.6309 84.8491 36.1313C83.5072 35.9371 81.9922 35.7417 80.9534 36.6928C80.5897 37.0584 80.5543 37.5603 80.5193 38.057C80.5085 38.2106 80.4977 38.3636 80.4772 38.512C80.4429 38.8345 80.2107 38.8304 79.9788 38.8262C79.7767 38.8226 79.5748 38.8189 79.5039 39.0314V40.8049C79.5267 40.8049 79.5496 40.8048 79.5723 40.8047C79.8531 40.8032 80.1273 40.8018 80.3263 41.0226C80.3041 42.7948 80.1965 44.546 80.0233 46.2564L80.1099 46.3652L82.9668 46.2997L83.1832 41.1722C83.3288 40.8085 83.699 40.8078 84.0707 40.8069C84.2514 40.8066 84.4324 40.8062 84.5881 40.7641L84.6314 38.8806C84.4064 38.9131 84.2018 38.8864 83.9947 38.8594C83.7851 38.832 83.5729 38.8043 83.3341 38.8373C83.1741 38.7568 83.1797 38.6068 83.185 38.4636C83.1868 38.413 83.1887 38.3633 83.1832 38.3178C83.4067 37.6452 84.1019 37.7151 84.6905 37.7743C84.7826 37.7836 84.872 37.7926 84.9567 37.7984ZM79.0278 37.7972C79.05 37.2345 79.008 36.694 78.8769 36.1746C77.5783 35.8728 75.8481 35.785 74.8748 36.8659C74.6235 37.1385 74.5874 37.5059 74.5517 37.8696C74.5167 38.2255 74.482 38.5779 74.2466 38.8348C73.3267 38.6434 73.419 39.4428 73.4993 40.1387C73.5285 40.3915 73.5561 40.6307 73.533 40.8037C73.6226 40.8412 73.733 40.848 73.8444 40.8548C74.0559 40.8678 74.2712 40.8811 74.3554 41.1054C74.3265 41.6904 74.288 42.2775 74.2495 42.8645C74.1726 44.0375 74.0957 45.2101 74.0957 46.364H76.9525L77.211 41.0621C77.4035 40.8347 77.6882 40.8467 77.9739 40.8588C78.204 40.8684 78.4347 40.8782 78.6184 40.7629L78.726 39.0314C78.5445 38.8491 78.2446 38.8664 77.9446 38.8836C77.7806 38.8931 77.6166 38.9025 77.472 38.8793C77.2333 38.8571 77.0824 38.5961 77.169 38.3599C77.3974 37.654 78.1673 37.7224 78.7906 37.7778C78.8727 37.7851 78.9523 37.7921 79.0278 37.7972ZM127.186 37.1682C127.159 36.9528 127.132 36.7369 127.164 36.4986L126.946 36.2414C125.67 36.0039 124.027 35.8741 123.117 36.9537C123.104 36.984 123.091 37.0143 123.078 37.0445C122.874 37.5141 122.669 37.9884 122.75 38.5763C122.736 38.9333 122.478 38.9598 122.22 38.9864C122.072 39.0017 121.923 39.0171 121.82 39.0957L121.711 40.8494C121.806 40.886 121.921 40.8956 122.036 40.9054C122.265 40.9246 122.499 40.9443 122.6 41.1735C122.571 41.7648 122.532 42.3631 122.493 42.9604C122.416 44.1346 122.339 45.3048 122.339 46.4098C122.912 46.4818 123.514 46.4763 124.113 46.4709C124.419 46.4681 124.724 46.4653 125.023 46.4728L125.195 46.3665L125.347 41.4777C125.308 40.9059 125.691 40.9288 126.088 40.9526C126.338 40.9676 126.594 40.9829 126.753 40.8494L126.796 39.0327C126.62 38.9735 126.413 38.983 126.207 38.9926C125.883 39.0075 125.558 39.0225 125.347 38.7717C125.288 38.5825 125.367 38.4422 125.446 38.3042C125.484 38.2374 125.521 38.1712 125.542 38.1002C125.825 37.8009 126.275 37.8232 126.69 37.8439C126.875 37.8531 127.054 37.8619 127.207 37.8417C127.24 37.6026 127.213 37.3856 127.186 37.1682ZM86.3406 37.9926L89.0453 37.9493L89.1108 36.2389L86.4049 36.1734C86.3921 36.2436 86.3784 36.3151 86.3644 36.3875C86.2625 36.9181 86.1512 37.4974 86.3406 37.9926ZM186.409 37.4701C186.462 37.0854 186.513 36.7073 186.356 36.3477C185.49 36.2612 184.56 36.2612 183.694 36.3477L183.607 38.0581C184.496 38.1212 185.469 38.1212 186.356 38.0581C186.356 37.8615 186.383 37.6649 186.409 37.4701ZM140.859 38.4254L140.925 36.4355C139.347 36.3156 137.708 36.3296 136.072 36.3437C135.329 36.35 134.587 36.3564 133.851 36.3502L133.764 36.3935C133.527 39.6832 133.375 43.0793 133.288 46.3665L140.45 46.4098C140.456 46.3704 140.463 46.3309 140.47 46.2913C140.571 45.6767 140.678 45.0284 140.556 44.3976H136.296L136.037 44.1799C136.059 43.9824 136.05 43.7717 136.04 43.5609C136.021 43.1712 136.003 42.781 136.187 42.472C136.937 42.3441 137.762 42.3556 138.557 42.3666C138.978 42.3724 139.39 42.3781 139.778 42.3632L139.822 40.4376C139.336 40.3732 138.824 40.3824 138.313 40.3915C137.615 40.4039 136.919 40.4163 136.295 40.2422C136.142 39.6572 136.077 38.8138 136.553 38.4254H140.859ZM180.672 37.9892C180.707 37.7274 180.743 37.4573 180.645 37.2134H180.231C179.991 37.373 179.616 37.4016 179.242 37.4301C178.499 37.4868 177.76 37.5432 178.089 38.6221C178.026 38.8373 177.808 38.9214 177.572 38.8806C176.778 38.6927 176.811 39.2928 176.845 39.8934C176.862 40.1942 176.878 40.4951 176.791 40.6973C176.884 40.8398 177.053 40.8574 177.222 40.8749C177.411 40.8945 177.6 40.9141 177.681 41.1079C177.753 41.6738 177.665 42.2958 177.577 42.9165C177.402 44.1474 177.229 45.3735 178.306 46.1488C179.259 46.625 180.624 46.7981 181.681 46.4098L181.986 44.5473H181.056C180.198 44.2276 180.316 43.4019 180.433 42.5793C180.49 42.1766 180.548 41.7746 180.49 41.4332C180.465 40.817 180.937 40.8587 181.426 40.9018C181.711 40.9269 182.001 40.9526 182.201 40.8482L182.247 38.9881L180.903 38.9449C180.577 38.7054 180.623 38.3554 180.672 37.9892ZM96.5733 40.9137L96.4669 38.9881C95.2327 38.5343 93.3714 38.4687 92.1606 39.0339C90.5182 39.8328 89.9568 41.6521 90.0854 43.4466C90.1274 44.7216 91.0809 45.8248 92.2274 46.2577C93.3293 46.646 94.9309 46.646 96.0563 46.2577C96.0797 46.0049 96.1376 45.7555 96.1956 45.5059C96.2966 45.0703 96.3978 44.6344 96.316 44.1799C95.4268 44.504 94.1505 44.504 93.3516 43.9648C93.0486 43.6383 92.8965 43.2499 92.8965 42.7738L92.8987 42.7514C92.9624 42.1077 93.0338 41.3857 93.6756 41.0226C94.3068 40.6333 95.1339 40.7421 95.8727 40.8392C96.1196 40.8717 96.3567 40.9029 96.5733 40.9137ZM167.191 40.3919C167.208 39.9183 167.227 39.4149 167.036 39.0314C165.781 38.6629 164.007 38.5973 162.837 39.1378C161.627 39.6164 161.042 40.8704 160.805 41.9959C160.675 43.2932 160.675 44.7859 161.801 45.6937C163.012 46.7758 165.067 46.6893 166.669 46.3652C166.863 45.6937 166.949 44.9343 166.993 44.2875L165.522 44.4805C164.807 44.4149 163.964 44.3308 163.662 43.5529C163.445 42.8369 163.553 41.9724 163.964 41.3664C164.664 40.6106 165.804 40.7982 166.73 40.9504C166.89 40.9768 167.044 41.0022 167.188 41.0213C167.174 40.8282 167.182 40.6133 167.191 40.3919ZM175.561 46.4085L175.863 40.4376L175.494 39.7215C173.871 38.3809 171.253 38.726 169.328 39.1366C169.299 39.3583 169.25 39.5774 169.201 39.7956C169.106 40.2175 169.012 40.6358 169.069 41.0621C169.642 40.9126 170.212 40.7547 170.78 40.5885C171.001 40.6008 171.23 40.576 171.458 40.5514C171.986 40.4944 172.505 40.4383 172.898 40.847C173.05 41.1302 172.876 41.4097 172.64 41.5841C172.112 41.7973 171.547 41.9201 170.982 42.043C170.062 42.2428 169.141 42.443 168.377 43.0335C167.966 43.4441 167.836 43.9635 167.771 44.4805C167.73 45.1087 167.966 45.6282 168.442 46.0412C169.309 46.646 170.542 46.646 171.602 46.4716C171.795 46.0412 171.969 45.5441 171.969 45.1087H171.235C170.908 45.0222 170.498 44.7414 170.672 44.2875C170.984 43.7132 171.594 43.611 172.193 43.5108C172.383 43.479 172.572 43.4473 172.75 43.4008C172.917 43.9535 172.852 44.5127 172.787 45.0711C172.734 45.5186 172.682 45.9656 172.75 46.4085C173.657 46.4951 174.651 46.4951 175.561 46.4085ZM88.6347 46.2997C88.7156 43.8437 88.8743 41.3908 89.1108 38.9449C88.4898 38.8082 87.8166 38.8204 87.1503 38.8324C86.864 38.8376 86.5789 38.8427 86.2997 38.836L86.1476 38.9449C86.0998 39.8373 86.0638 40.7443 86.0278 41.6511C85.9652 43.2276 85.9027 44.8033 85.7779 46.2997C86.7091 46.3838 87.7047 46.3838 88.6347 46.2997ZM206.421 43.8533C206.536 42.5651 206.65 41.2877 206.454 40.0245C206.195 39.421 205.566 39.076 204.98 38.9461C203.617 38.7074 201.995 38.7717 201.002 39.8761C200.704 39.8634 200.718 39.6391 200.732 39.4049C200.743 39.2289 200.755 39.0475 200.634 38.9461C200.355 38.9527 200.07 38.9465 199.784 38.9403C199.161 38.9267 198.535 38.9131 197.97 39.0327C197.94 40.8974 197.81 42.7525 197.682 44.5675C197.64 45.1719 197.598 45.772 197.56 46.3665L200.221 46.4098L200.373 46.3009C200.428 45.8419 200.446 45.3674 200.465 44.8931C200.512 43.6896 200.558 42.487 201.194 41.5395C201.671 41.0436 202.383 40.8482 203.011 41.0634C203.221 41.1597 203.4 41.3114 203.53 41.502C203.66 41.6927 203.735 41.9152 203.748 42.1455L203.424 46.2564L203.531 46.4085L206.28 46.3652C206.272 45.524 206.346 44.6864 206.421 43.8533ZM154.157 40.539C154.186 39.9935 154.214 39.4553 154.207 38.9449L151.568 38.8806L151.462 38.9894C151.446 39.6946 151.401 40.4028 151.356 41.1111C151.268 42.4871 151.181 43.8635 151.31 45.2188C151.525 45.9312 152.283 46.2354 152.911 46.4098C154.273 46.5594 155.657 46.4963 156.609 45.4773C156.716 45.6248 156.732 45.82 156.749 46.0143C156.759 46.136 156.77 46.2574 156.802 46.3665C157.648 46.432 158.578 46.432 159.399 46.3665L159.812 38.9894L157.172 38.9461L157.02 39.0327C156.914 39.5716 156.913 40.1688 156.912 40.7664C156.909 42.1336 156.906 43.5026 155.657 44.1799C155.16 44.3098 154.618 44.2232 154.273 43.8126C154.038 42.8089 154.099 41.6587 154.157 40.539ZM186.237 40.7641C186.278 40.1666 186.319 39.5741 186.356 38.9881C185.406 38.9016 184.45 38.9016 183.501 38.9881C183.458 40.6283 183.35 42.2689 183.244 43.879C183.188 44.7323 183.132 45.577 183.088 46.4085H185.946C185.978 44.5117 186.109 42.6142 186.237 40.7641ZM75.9582 26.3104C76.0213 25.6179 75.9582 24.9463 75.3943 24.4937C74.8105 23.973 73.7507 24.1474 73.1657 24.558C72.7328 24.9476 72.6252 25.467 72.5399 26.0087C72.4954 26.721 72.5399 27.3703 73.1014 27.8267C73.5998 28.1284 74.2701 28.194 74.8761 28.0827C75.6552 27.8452 75.8716 27.0228 75.9582 26.3104ZM78.4663 28.1284C79.0278 26.8496 79.2022 24.861 78.2932 23.67C76.5407 21.6146 72.9072 21.7877 70.8728 23.1506C69.5532 24.4071 69.2502 26.5491 69.9428 28.194C70.6131 29.3614 71.8659 30.0317 73.1644 30.1604C75.2422 30.3991 77.4274 30.0317 78.4663 28.1284ZM69.7276 42.2544C70.0083 41.0436 69.8141 39.7438 68.9051 38.8793C67.9516 38.2733 66.4156 38.2733 65.3767 38.6852C64.6421 38.9684 64.208 39.724 63.9718 40.3955C63.7987 41.6051 63.7121 43.0545 64.7943 43.8782C65.8752 44.4632 67.3469 44.5275 68.4933 44.0278C69.1636 43.6383 69.5322 42.9482 69.7276 42.2544ZM71.9759 44.0699C72.7984 42.1455 72.9715 39.2676 71.3922 37.6451C69.1216 35.5241 64.6632 35.5711 62.3727 37.5795C60.8355 39.2033 60.4694 41.7992 61.2683 43.8769C62.2849 46.082 64.6632 46.7325 66.8707 46.667C68.9051 46.5817 71.0249 45.9757 71.9759 44.0699ZM94.3459 24.6C95.0162 24.7522 95.9475 24.7967 96.5312 24.558C96.3148 23.628 95.9908 22.719 95.6 21.8965L94.3459 24.2327V24.6ZM98.3341 21.478C98.1627 20.9431 97.9931 20.4137 97.7642 19.9289H93.9353L88.678 29.7498V30.0107H91.5348C91.8576 29.565 92.0768 29.0541 92.2959 28.5436C92.546 27.9606 92.7959 27.3781 93.1995 26.8942C94.4968 26.742 96.0551 26.6988 97.2448 26.9375C97.6756 27.8631 97.9337 28.8523 98.1922 29.8432L98.1959 29.8574L98.3913 30.0515L101.354 30.0107C101.05 29.1568 100.753 28.3028 100.457 27.4506C99.8906 25.8198 99.3261 24.1954 98.7153 22.5904C98.5736 22.2258 98.4534 21.8505 98.3341 21.478ZM102.5 41.2506C102.505 41.1253 102.511 41.0005 102.438 40.9137C102.263 40.4376 101.768 40.2855 101.314 40.2855C100.945 40.3288 100.556 40.544 100.427 40.9137C100.275 41.0634 100.275 41.4332 100.427 41.5853C100.708 41.5331 100.996 41.5658 101.279 41.5979C101.713 41.6472 102.135 41.6952 102.502 41.4332C102.495 41.3753 102.498 41.3129 102.5 41.2506ZM105.143 42.8381C105.313 41.9303 105.291 40.8692 104.882 40.0678C104.428 39.2689 103.605 38.9214 102.803 38.7272C101.095 38.4477 99.2978 38.6208 98.1303 39.9837C97.1582 41.3021 96.9393 43.4441 97.6764 44.9591C98.877 46.9383 101.575 46.5898 103.667 46.3197C103.837 46.2976 104.004 46.2761 104.166 46.2564L104.176 46.214C104.326 45.6181 104.489 44.965 104.427 44.3308C104.221 44.3622 103.999 44.4053 103.765 44.4504C102.544 44.6865 101.026 44.9798 100.207 43.9635C100.193 43.9039 100.17 43.8377 100.146 43.7683C100.055 43.5081 99.9485 43.2034 100.274 43.0335L104.946 42.9902L105.143 42.8381ZM117.701 24.8345C117.704 24.705 117.706 24.5763 117.71 24.4492C117.062 24.0163 115.893 24.1041 115.331 24.7522C114.792 25.206 114.683 25.8986 114.596 26.5689C114.596 27.1106 114.746 27.5657 115.159 27.933C115.548 28.2138 116.195 28.1705 116.628 28.0419C117.647 27.3366 117.675 26.0497 117.701 24.8345ZM120.096 30.2513C120.231 27.7217 120.369 25.1556 120.524 22.6744C118.468 22.1995 115.853 22.0041 113.923 22.8476C112.517 23.5402 111.823 24.9673 111.694 26.4168C111.673 27.6956 111.954 28.9484 113.143 29.6422C114.313 30.3335 116.173 30.1591 117.233 29.3812L117.451 29.5309C117.447 29.5972 117.443 29.6636 117.44 29.73C117.406 30.3809 117.372 31.0269 116.822 31.4589C115.878 32.0487 114.682 31.7977 113.626 31.5762C113.329 31.5139 113.043 31.4539 112.777 31.4157C112.806 31.6181 112.818 31.835 112.83 32.0533C112.854 32.4885 112.879 32.9298 113.038 33.2757C114.767 33.6207 117.062 33.9905 118.705 33.1669C119.419 32.713 119.917 31.9994 120.045 31.198C120.062 30.8832 120.079 30.5675 120.096 30.2513ZM117.693 42.8674C117.737 42.2177 117.779 41.5825 117.234 41.1067C116.737 40.6305 115.893 40.7183 115.265 40.847C114.792 41.0213 114.485 41.5383 114.338 41.9946C114.165 42.8591 114.118 43.9635 114.963 44.4805C114.99 44.4899 115.018 44.4995 115.045 44.5092C115.527 44.6793 116.098 44.8806 116.628 44.6548C117.17 44.5027 117.517 43.898 117.669 43.4008C117.669 43.2239 117.681 43.0451 117.693 42.8674ZM119.571 45.523C120.673 44.2888 121 42.2766 120.306 40.7641C119.009 38.2078 115.352 38.5343 113.143 39.3567C111.847 40.0691 111.371 41.4121 111.262 42.775C111.262 44.2232 111.89 45.6727 113.296 46.2577C115.2 46.9502 118.035 47.0999 119.571 45.523ZM126.642 24.3438C126.621 24.3061 126.6 24.2691 126.58 24.2327C126.371 23.988 126.049 23.9837 125.728 23.9794C125.652 23.9783 125.575 23.9773 125.5 23.973C125.002 24.0818 124.698 24.6235 124.611 25.0774C125.176 25.4225 126.126 25.2926 126.798 25.1838C126.949 24.8832 126.787 24.5986 126.642 24.3438ZM129.35 26.679C129.804 25.9629 129.566 24.7967 129.35 23.973C129.11 23.5191 128.788 23.1741 128.355 22.8488C126.71 22.0276 124.115 22.0499 122.688 23.3682C121.497 24.6866 121.239 26.8496 121.908 28.4957C123.207 30.6753 126.114 30.2748 128.302 29.9733C128.371 29.9638 128.439 29.9544 128.507 29.9452L128.831 28.0419C128.494 28.0666 128.148 28.1206 127.8 28.1749C126.651 28.3543 125.483 28.5366 124.57 27.6745C124.556 27.606 124.529 27.5297 124.501 27.4501C124.404 27.1766 124.293 26.8629 124.611 26.679H129.35ZM140.075 24.4045C140.047 24.3464 140.019 24.2892 139.995 24.2327C139.97 24.2206 139.946 24.2083 139.921 24.196C139.642 24.0553 139.358 23.9126 138.999 23.9718C138.956 23.9885 138.912 24.0043 138.868 24.02C138.626 24.1064 138.384 24.1926 138.219 24.4479C138.202 24.4956 138.176 24.5502 138.148 24.6084C138.038 24.8416 137.9 25.1328 138.176 25.2703L140.188 25.2283C140.33 24.9294 140.198 24.6584 140.075 24.4045ZM142.894 26.5689C143.087 25.7465 143.109 24.7954 142.785 24.0386C142.546 23.6057 142.266 23.1283 141.81 22.8921C140.122 22.0684 137.591 22.0684 136.141 23.367C134.844 24.6643 134.648 26.8929 135.32 28.56C135.694 29.2207 136.304 29.7152 137.028 29.9439C138.5 30.3323 140.449 30.3323 141.898 29.9439C142.07 29.3379 142.243 28.6689 142.157 28.0406C142.044 28.0596 141.929 28.0795 141.814 28.0996C140.756 28.2835 139.598 28.4848 138.522 28.1927C138.068 27.9528 137.723 27.4989 137.81 26.9362C137.832 26.8286 137.959 26.7198 138.068 26.6777H142.742L142.894 26.5689ZM170.563 26.4823C170.626 25.812 170.541 25.206 170.044 24.7522C169.524 24.2983 168.638 24.3193 168.032 24.5567C167.357 24.8703 167.217 25.575 167.09 26.2091L167.079 26.2647C167.036 26.9362 167.123 27.5397 167.596 27.9751C168.075 28.3857 168.809 28.3857 169.415 28.2991C170.193 28.0814 170.498 27.2194 170.563 26.4823ZM172.445 29.1648C173.571 27.9986 173.764 26.0928 173.269 24.558C173.029 23.952 172.466 23.325 171.862 22.9997C169.893 22.1563 166.951 21.9843 165.263 23.5637C164.226 24.6 164.031 26.1373 164.226 27.5657C164.378 28.6478 165.392 29.5977 166.368 30.0107C168.271 30.5054 170.953 30.7664 172.445 29.1648ZM193.559 43.4453C193.711 42.7515 193.777 41.8438 193.3 41.281C192.899 40.7131 192.257 40.7374 191.607 40.7619L191.548 40.7641C190.922 40.8272 190.555 41.4109 190.359 41.9526C190.185 42.7095 190.144 43.7038 190.705 44.2888C191.202 44.7649 192.066 44.6994 192.694 44.5473C193.148 44.3976 193.43 43.8782 193.559 43.4453ZM195.334 45.6937C196.611 44.4409 196.87 42.3855 196.264 40.7641C194.989 38.1868 191.288 38.4254 189.102 39.3542C187.761 40.0233 187.459 41.3886 187.285 42.6637C187.242 43.8992 187.611 45.0222 188.582 45.7803C190.51 46.991 193.474 47.1234 195.334 45.6937ZM150.022 39.3455C150.069 38.3308 150.115 37.3279 150.162 36.3477C149.588 36.2765 148.987 36.2806 148.383 36.2847C148.073 36.2868 147.764 36.2889 147.456 36.2809C147.377 36.6083 147.363 36.9599 147.348 37.3116C147.327 37.8222 147.306 38.3328 147.089 38.7693C145.251 38.5738 143.217 38.6827 142.005 40.2842C141.206 41.5173 140.925 43.292 141.444 44.7414C141.725 45.4352 142.352 46.061 143.046 46.2997C144.255 46.688 145.705 46.6237 146.744 45.8891L147.002 46.4085H149.534L149.686 46.2997C149.807 44.0037 149.916 41.6441 150.022 39.3455ZM147.119 41.842C147.126 41.5923 147.133 41.3443 147.154 41.1067C146.614 40.5687 145.294 40.5897 144.709 41.1054C144.147 41.584 144.059 42.2531 143.972 42.9247C143.959 43.192 144.009 43.4587 144.118 43.703C144.227 43.9474 144.392 44.1625 144.6 44.3308C145.014 44.5262 145.574 44.6326 146.009 44.4397C147.057 43.9683 147.088 42.8897 147.119 41.842Z" fill="white"/>
</svg>
