<svg width="25" height="24" viewBox="0 0 25 24" fill="none" xmlns="http://www.w3.org/2000/svg">
<path d="M18.5 18.86H17.74C16.94 18.86 16.18 19.17 15.62 19.73L13.91 21.42C13.13 22.19 11.86 22.19 11.08 21.42L9.37 19.73C8.81 19.17 8.04 18.86 7.25 18.86H6.5C4.84 18.86 3.5 17.53 3.5 15.89V4.97C3.5 3.33 4.84 2 6.5 2H18.5C20.16 2 21.5 3.33 21.5 4.97V15.88C21.5 17.52 20.16 18.86 18.5 18.86Z" stroke="#2C363F" stroke-width="1.5" stroke-miterlimit="10" stroke-linecap="round" stroke-linejoin="round"/>
<path opacity="0.4" d="M12.5701 8.95078C12.5301 8.95078 12.47 8.95078 12.42 8.95078C11.37 8.91078 10.54 8.06078 10.54 7.00078C10.54 5.92078 11.4101 5.05078 12.4901 5.05078C13.5701 5.05078 14.4401 5.93078 14.4401 7.00078C14.4501 8.06078 13.6201 8.92078 12.5701 8.95078Z" stroke="#2C363F" stroke-width="1.5" stroke-linecap="round" stroke-linejoin="round"/>
<path opacity="0.4" d="M9.74994 11.9609C8.41994 12.8509 8.41994 14.3009 9.74994 15.1909C11.2599 16.2009 13.7399 16.2009 15.2499 15.1909C16.5799 14.3009 16.5799 12.8509 15.2499 11.9609C13.7399 10.9609 11.2699 10.9609 9.74994 11.9609Z" stroke="#2C363F" stroke-width="1.5" stroke-linecap="round" stroke-linejoin="round"/>
</svg>
