<svg width="29" height="24" viewBox="0 0 29 24" fill="none" xmlns="http://www.w3.org/2000/svg">
<path d="M21.5672 13.55C21.0767 13.96 20.7964 14.55 20.8665 15.18C20.9716 16.26 22.1277 17.05 23.389 17.05H25.6078V18.24C25.6078 20.31 23.6342 22 21.2168 22H9.4103C9.77232 21.74 10.0876 21.42 10.3329 21.06C10.7649 20.46 11.0102 19.75 11.0102 19C11.0102 16.79 8.91981 15 6.33895 15C5.24121 15 4.22522 15.33 3.41943 15.88V11.51C3.41943 9.44001 5.39302 7.75 7.81039 7.75H21.2168C23.6342 7.75 25.6078 9.44001 25.6078 11.51V12.95H23.2488C22.5948 12.95 21.9993 13.17 21.5672 13.55Z" stroke="#2C363F" stroke-width="1.5" stroke-linecap="round" stroke-linejoin="round"/>
<path opacity="0.4" d="M3.41943 12.4093V7.83937C3.41943 6.64937 4.27193 5.58933 5.5682 5.16933L14.8406 2.16933C16.2887 1.69933 17.8419 2.61936 17.8419 3.94936V7.74934" stroke="#2C363F" stroke-width="1.5" stroke-linecap="round" stroke-linejoin="round"/>
<path d="M26.8458 13.9692V16.0292C26.8458 16.5792 26.3319 17.0292 25.678 17.0492H23.3891C22.1278 17.0492 20.9717 16.2592 20.8666 15.1792C20.7965 14.5492 21.0768 13.9592 21.5673 13.5492C21.9994 13.1692 22.595 12.9492 23.2489 12.9492H25.678C26.3319 12.9692 26.8458 13.4192 26.8458 13.9692Z" stroke="#2C363F" stroke-width="1.5" stroke-linecap="round" stroke-linejoin="round"/>
<path opacity="0.4" d="M8.67456 12H16.8492" stroke="#2C363F" stroke-width="1.5" stroke-linecap="round" stroke-linejoin="round"/>
<path d="M11.0102 19C11.0102 19.75 10.7649 20.46 10.3329 21.06C10.0876 21.42 9.77232 21.74 9.4103 22C8.59283 22.63 7.51844 23 6.33896 23C4.63396 23 3.15084 22.22 2.34506 21.06C1.91297 20.46 1.66772 19.75 1.66772 19C1.66772 17.74 2.34505 16.61 3.41944 15.88C4.22522 15.33 5.24122 15 6.33896 15C8.91981 15 11.0102 16.79 11.0102 19Z" stroke="#2C363F" stroke-width="1.5" stroke-miterlimit="10" stroke-linecap="round" stroke-linejoin="round"/>
<path d="M4.51709 18.9995L5.67321 19.9895L8.16065 18.0195" stroke="#2C363F" stroke-width="1.5" stroke-linecap="round" stroke-linejoin="round"/>
</svg>
