<svg width="22" height="22" viewBox="0 0 22 22" fill="none" xmlns="http://www.w3.org/2000/svg">
<path d="M11.0013 21.8334C5.0213 21.8334 0.167969 16.98 0.167969 11C0.167969 5.02004 5.0213 0.166707 11.0013 0.166707C16.9813 0.166707 21.8346 5.02004 21.8346 11C21.8346 16.98 16.9813 21.8334 11.0013 21.8334ZM14.793 10.1875H9.17047L11.0338 8.32421C11.348 8.01004 11.348 7.49004 11.0338 7.17587C10.8713 7.01337 10.6655 6.93754 10.4596 6.93754C10.2538 6.93754 10.048 7.01337 9.88547 7.17587L6.63547 10.4259C6.3213 10.74 6.3213 11.26 6.63547 11.5742L9.88547 14.8242C10.1996 15.1384 10.7196 15.1384 11.0338 14.8242C11.348 14.51 11.348 13.99 11.0338 13.6759L9.17047 11.8125H14.793C15.2371 11.8125 15.6055 11.4442 15.6055 11C15.6055 10.5559 15.2371 10.1875 14.793 10.1875Z" fill="white"/>
</svg>
