<svg width="27" height="26" viewBox="0 0 27 26" fill="none" xmlns="http://www.w3.org/2000/svg">
<path d="M13.5001 1.35482C7.07591 1.35482 1.85425 6.57648 1.85425 13.0007C1.85425 19.4248 7.07591 24.6465 13.5001 24.6465C19.9242 24.6465 25.1459 19.4248 25.1459 13.0007C25.1459 6.57648 19.9242 1.35482 13.5001 1.35482ZM13.5001 23.0215C7.97508 23.0215 3.47925 18.5257 3.47925 13.0007C3.47925 7.47565 7.97508 2.97982 13.5001 2.97982C19.0251 2.97982 23.5209 7.47565 23.5209 13.0007C23.5209 18.5257 19.0251 23.0215 13.5001 23.0215Z" fill="white"/>
<path d="M16.2083 12.1875H9.70825C9.26409 12.1875 8.89575 12.5558 8.89575 13C8.89575 13.4442 9.26409 13.8125 9.70825 13.8125L16.2083 13.8125C16.6524 13.8125 17.0208 13.4442 17.0208 13C17.0208 12.5558 16.6524 12.1875 16.2083 12.1875Z" fill="white"/>
<path d="M14.0417 8.93826C13.8359 8.93826 13.6301 9.01409 13.4676 9.17659C13.1534 9.49076 13.1534 10.0108 13.4676 10.3249L16.1434 13.0008L13.4676 15.6766C13.1534 15.9908 13.1534 16.5108 13.4676 16.8249C13.7817 17.1391 14.3017 17.1391 14.6159 16.8249L17.8659 13.5749C18.1801 13.2608 18.1801 12.7408 17.8659 12.4266L14.6159 9.17659C14.4534 9.01409 14.2476 8.93826 14.0417 8.93826Z" fill="white"/>
</svg>
